<?xml version="1.0" encoding="UTF-8" standalone="no"?>
<!DOCTYPE svg PUBLIC "-//W3C//DTD SVG 1.1//EN" "http://www.w3.org/Graphics/SVG/1.1/DTD/svg11.dtd">
<svg width="100%" height="100%" viewBox="0 0 3205 4143" version="1.1" xmlns="http://www.w3.org/2000/svg" xmlns:xlink="http://www.w3.org/1999/xlink" xml:space="preserve" xmlns:serif="http://www.serif.com/" style="fill-rule:evenodd;clip-rule:evenodd;stroke-linejoin:round;stroke-miterlimit:2;">
    <g transform="matrix(1,0,0,1,-8305.62,0)">
        <g transform="matrix(4.16667,0,0,4.16667,0,0)">
            <path d="M1993.35,959.233C1993.35,959.233 2301.6,1011.45 2762.4,959.233L2421.18,842.452L2043.76,912.447L1993.35,959.233Z" style="fill:rgb(204,205,206);fill-rule:nonzero;"/>
            <rect x="2345.55" y="0" width="64.65" height="689.035" style="fill:rgb(170,112,62);fill-rule:nonzero;"/>
            <path d="M2387.04,994.225L2368.71,994.225C2333,994.225 2304.06,965.28 2304.06,929.575L2304.06,830.669L2451.69,830.669L2451.69,929.575C2451.69,965.28 2422.75,994.225 2387.04,994.225Z" style="fill:rgb(230,230,230);fill-rule:nonzero;"/>
            <path d="M2421.18,474.085L2334.58,474.085L1993.35,959.233C1993.35,959.233 2140.7,910.31 2377.88,906.432C2553.65,903.558 2762.4,959.233 2762.4,959.233L2421.18,474.085Z" style="fill:rgb(230,230,230);fill-rule:nonzero;"/>
        </g>
    </g>
</svg>
