<?xml version="1.0" encoding="utf-8"?>
<!-- Generator: Adobe Illustrator 16.0.0, SVG Export Plug-In . SVG Version: 6.00 Build 0)  -->
<!DOCTYPE svg PUBLIC "-//W3C//DTD SVG 1.1//EN" "http://www.w3.org/Graphics/SVG/1.1/DTD/svg11.dtd">
<svg version="1.1" id="Layer_1" xmlns="http://www.w3.org/2000/svg" xmlns:xlink="http://www.w3.org/1999/xlink" x="0px" y="0px"
	 width="2800px" height="2800px" viewBox="0 0 2800 2800" enable-background="new 0 0 2800 2800" xml:space="preserve">
<g>
	<g>
		<path fill="#325B15" d="M644,147.2c-6.8-8.7-16-15.3-25.3-21.1c-2.5-1.5-6-0.5-7.4,2c-7.2,13.4-13.8,27.1-22.1,39.9
			c-2.7,4.2-6.6,9.8-10,12.3c-0.2,0.2-1.1,0.6-1.5,0.8c-0.1-0.1-0.1-0.1-0.2-0.2c-0.7-1-1.1-2.1-1.4-3.2
			c-6.4-19.7,1.4-40.8-3.7-60.6c-2.7-10.5-9.3-21.4-16.9-29.1c-8.2-8.3-19.2-12.2-24.3-23.4c-1.9-4.1-7.3-3-9.4,0
			c-11.8,17-28.4,34.7-31.6,56c-2.8,18.9,7.4,34.7,18.3,49.1c5.3,6.9,10.5,14,14.6,21.7c2.3,4.3,6.2,11.9,2.1,16.1
			c-4.3,4.4-10.8-3.4-14.2-6.9c-7-7.2-12.8-15.4-18.9-23.3c-10-13.2-25.8-33.2-44.5-29.5c-8.3,1.6-11.6,10.1-12.1,17.6
			c-0.7,11.8,5.1,24.6,10.9,34.5c13.2,22.5,40,29.1,57.2,47.2c4,4.2,14.8,18.5,8.6,24.4c-2.2,2.1-7.2,1.4-9.8,1
			c-6.3-1-13.3-3.3-18.3-7.2c-19.4-15-26.4-41-46.8-55.2c-8.9-6.2-22.7-10-33.4-7.5c-9.1,2.2-13.3,10.7-13.7,19.4
			c-0.5,10.5,4.3,21.2,9.5,30c6.1,10.1,14.5,18.6,24.7,24.4c20.5,11.7,46.5,13.2,60.1,34.6c1.9,2.9,3.9,6.8,3,10.3
			c-0.7,2.8-4.6,3.7-7,4.2c-10.5,2.3-24.3-1.6-33.6-6.5c-11.2-5.9-19.3-16.7-27.9-25.7c-9-9.5-19.1-17.2-31.8-21.1
			c-9.2-2.8-20.5-2.3-26.5,6.3c-5.5,7.9-4.3,18.5-2.1,27.3c2.9,11.6,9.3,22.4,17.1,31.4c8.4,9.7,21.7,15.3,33.5,19.3
			c12.4,4.1,25.2,6.7,37.4,11.3c3.2,1.2,5.7,2.1,9.3,2.3c3.8,0.3,7.6,0.1,11.3,1c3.1,0.8,1,4.1,0,6.4c-2.5,5.4-10.6,5.2-15.7,5.6
			c-4.8,0.4-9.6,1.6-14.5,1.6c-5.6,0-11.1-1-16.6-1.8c-10.9-1.7-22.3-3.6-33.1-0.3c-10.4,3.2-17.7,12.9-19.6,23.4
			c-3.9,22,20.7,35.5,39,38.3c11.7,1.8,22.3-0.8,32.6-6.6c12.7-7.2,22.7-17.5,37.3-19.3c0.9,5.9-1.1,10.5-6.3,14.9
			c-7.2,6-17.1,9.3-25.7,12.5c-17,6.3-42,12-51.1,29.6c-1.1,2.1-0.9,4.8,0.9,6.6c8.1,7.7,17.4,13.8,28.7,14.7
			c9.4,0.7,18.6-3.6,26.2-8.7c13.7-9.1,25.4-23.1,40.7-29.5c-2.1,3.9-5.7,6.5-10,9.9c-7.7,5.9-11.6,14.2-13.7,23.5
			c-3.2,14.1,1.7,29.3,18.2,29.4c9,0,18.1-4.5,25.6-9c8.6-5.2,15.5-12.7,20.9-21.1c6.6-10.4,10.3-22.5,12.4-34.8
			c13.8,26.9,43.8,55.1,72.2,31.8c24.2-19.9-15.7-35.1-31.4-50.8c3.1,1.3,6.1,2.9,9,4.3c8.2,4.2,16.2,8.9,24.8,12.4
			c16,6.5,33.9,5.9,43.5-10.6c8.3-14.2-8.8-20.8-19.4-23.9c-8.6-2.6-24.6-5.4-30.8-14c21.1,2.3,44.6,4.9,62.9-7.3
			c8.3-5.5,18.2-16.2,19.2-26.6c0.8-8.5-8.4-11.5-15-12.2c-18-1.8-35.6,6.2-53.6,5.6c-4.3-0.1-8.7-0.6-12.9-1.5
			c-1.6-0.4-3.2-0.8-4.7-1.5c-0.6-0.3-1.1-0.7-1.5-1c0.1-0.2,0.2-0.5,0.5-0.8c1.6-1.9,3.7-3.3,5.7-4.6c4.6-3.1,9.5-4.8,15-5.4
			c10.5-1.1,21,0.2,31.5-1.6c11.8-2,21.3-8.9,29.1-17.6c6.9-7.8,13.6-17.7,14.7-28.3c1.1-11-5.5-18.4-15.3-22.2
			c-27.4-10.5-43.5,17.8-63,30.7c-5.2,3.4-11.3,5.7-17.2,7.5c-2.4,0.7-9.5,3.2-11.8,1.3c-1.4-1.1,3.3-8.6,4.1-10
			c4-6.4,9-10.8,15.4-14.5c16.4-9.4,36.3-12.3,49.2-27.1c8.5-9.7,15.1-26.2,6.8-38c-8.8-12.6-28.3-9.2-39.4-1.9
			c-13.9,9.2-20.9,27.8-37.6,32.2c-1.5-7.9,1.6-15.2,7-22.3c7.8-10.3,17.9-18.8,27.1-27.7c8.9-8.6,18-17.9,22.6-29.5
			C654.7,169.1,651.6,157.1,644,147.2z"/>
		<path fill="#325B15" d="M1057.2,528.6c2.7-10.7,2.1-22.1,0.9-32.9c-0.3-2.9-3.4-5-6.2-4.6c-15,2.6-29.9,5.9-45,7.4
			c-5,0.5-11.8,0.9-15.9-0.3c-0.3-0.1-1.1-0.5-1.5-0.7c0-0.1,0-0.2,0.1-0.3c0.4-1.1,1-2.1,1.6-3.1c11.5-17.2,32.9-24.2,45.3-40.4
			c6.6-8.6,11.1-20.6,12.4-31.3c1.5-11.6-2.3-22.6,3.3-33.6c2.1-4-2.2-7.6-5.9-7.4c-20.7,1.2-44.8-0.9-63.5,9.8
			c-16.6,9.5-22.7,27.3-27.2,44.8c-2.2,8.4-4.5,16.9-8.1,24.9c-1.9,4.4-5.6,12.2-11.4,11.6c-6.1-0.7-4-10.6-3.4-15.5
			c1.3-9.9,4.1-19.6,6.7-29.3c4.2-16,10.1-40.8-4.4-53.3c-6.4-5.5-15.2-2.9-21.3,1.4c-9.7,6.8-16.1,19.2-20.3,29.9
			c-9.5,24.3,1.9,49.4-1.7,74.2c-0.8,5.7-5.4,23.1-13.8,21.8c-3-0.4-5.6-4.8-6.8-7.1c-3.2-5.6-5.6-12.4-5.7-18.9
			c-0.2-24.5,15.9-46.2,14.4-70.9c-0.6-10.9-6.2-24-14.8-30.9c-7.3-5.8-16.6-3.8-23.7,1.2c-8.5,6.1-14,16.5-17.6,26.1
			c-4.2,11-5.6,22.8-3.9,34.5c3.5,23.4,18.4,44.7,10,68.7c-1.1,3.3-2.9,7.2-6.3,8.7c-2.6,1.2-5.7-1.4-7.6-2.9
			c-8.3-6.8-13.8-20.1-15.7-30.4c-2.2-12.5,1.2-25.5,2.9-37.8c1.9-13,1.7-25.7-3.1-38c-3.5-9-10.9-17.6-21.3-16.9
			c-9.6,0.6-17.2,8.1-22.8,15.2c-7.3,9.5-11.8,21.1-14.1,32.8c-2.5,12.6,1.4,26.5,5.6,38.3c4.4,12.3,10.4,23.9,14.3,36.4
			c1,3.3,1.9,5.8,3.9,8.7c2.1,3.1,4.6,6,6.2,9.5c1.3,2.9-2.6,3.3-5,3.9c-5.8,1.4-10.7-5.1-14.1-8.9c-3.3-3.6-7.2-6.6-10.2-10.3
			c-3.5-4.3-6.1-9.3-8.8-14.2c-5.4-9.6-11-19.8-20.2-26.2c-8.9-6.2-21.1-5.9-30.5-0.9c-19.7,10.6-15,38.2-5.9,54.3
			c5.8,10.3,14.4,17.1,25.3,21.6c13.5,5.5,27.8,7,38.3,17.4c-4,4.4-9,5.6-15.7,4.3c-9.2-1.9-17.9-7.6-25.8-12.5
			c-15.5-9.5-35.4-25.6-54.9-21.8c-2.4,0.5-4.3,2.3-4.6,4.8c-1.1,11.1-0.1,22.2,6.3,31.7c5.2,7.9,14.4,12.4,23.1,15.2
			c15.6,5.1,33.9,5.6,48.4,13.8c-4.4,0.7-8.6-0.4-13.9-1.7c-9.4-2.3-18.3-0.3-26.9,3.8c-13.1,6.2-22,19.5-11.8,32.5
			c5.6,7.1,14.7,11.4,22.9,14.5c9.4,3.6,19.6,4.3,29.5,3.3c12.3-1.2,24-5.8,35-11.8c-12.6,27.5-16.1,68.5,19.7,76.4
			c30.6,6.7,17.9-34.1,20.5-56.1c0.9,3.2,1.5,6.6,2.2,9.7c1.8,9.1,3.1,18.2,5.6,27.1c4.8,16.6,16.4,30.3,35.2,27.6
			c16.2-2.3,10.8-19.8,6.8-30c-3.3-8.3-11-22.6-8.1-32.8c11.3,18,23.8,38.1,44.6,44.9c9.5,3.1,24,4.3,32.8-1.4
			c7.2-4.6,3.8-13.7,0.3-19.3c-9.8-15.3-26.9-24.1-37.6-38.7c-2.6-3.5-4.9-7.2-6.8-11.1c-0.7-1.5-1.4-3-1.8-4.6
			c-0.1-0.6-0.1-1.4-0.1-1.9c0.3-0.1,0.6-0.1,1-0.1c2.5,0.1,4.9,0.9,7.2,1.7c5.3,1.7,9.7,4.5,13.5,8.4c7.4,7.6,12.8,16.6,20.7,23.7
			c8.9,8,20.2,11.3,31.9,11.9c10.4,0.6,22.3-0.3,31.3-6c9.3-5.9,11-15.7,7.9-25.8c-8.7-28-40.9-23.1-63.1-30.5
			c-5.9-2-11.5-5.4-16.5-8.9c-2.1-1.4-8.4-5.5-8.3-8.5c0-1.8,8.8-2.7,10.4-2.9c7.5-0.9,14.1,0.3,21,3.1
			c17.5,7.1,32.1,20.9,51.7,21.9c12.9,0.6,29.9-4.3,34.1-18.1c4.4-14.7-10.3-27.9-22.9-32.1c-15.8-5.2-34.8,0.8-48.6-9.6
			c5.3-6,13-8.1,21.8-8.3c12.9-0.2,25.8,2.4,38.5,4.2c12.2,1.7,25.2,3.1,37.2-0.5C1046.6,550.6,1054.2,540.8,1057.2,528.6z"/>
		<path fill="#325B15" d="M322.8,230.1c-10.3-4-21.6-4.9-32.6-5.1c-2.9-0.1-5.4,2.7-5.3,5.6c0.7,15.2,2.1,30.4,1.6,45.6
			c-0.2,5-0.6,11.8-2.3,15.7c-0.1,0.2-0.6,1.1-0.9,1.4c-0.1,0-0.2-0.1-0.3-0.1c-1.1-0.5-2-1.2-2.9-2c-15.6-13.6-19.8-35.7-34.4-50.1
			c-7.7-7.6-19-13.6-29.5-16.2c-11.3-2.9-22.8-0.5-32.9-7.5c-3.7-2.6-7.8,1.2-8.1,4.9c-1.4,20.7-6.6,44.3,1.7,64.3
			c7.3,17.7,24.2,25.9,41,32.6c8.1,3.2,16.2,6.6,23.7,11.1c4.1,2.5,11.4,7.1,10,12.8c-1.4,6-11,2.6-15.8,1.4
			c-9.7-2.6-18.9-6.6-28.2-10.3c-15.3-6.1-39.1-15.2-53.4-2.4c-6.3,5.6-4.8,14.7-1.3,21.3c5.5,10.5,17,18.4,27.1,24
			c22.9,12.5,49.3,4.3,73.4,11.1c5.6,1.5,22.2,8.2,19.9,16.5c-0.8,2.9-5.5,4.9-7.9,5.9c-5.9,2.4-13.1,4-19.4,3.2
			c-24.3-2.9-43.8-21.6-68.5-23.3c-10.9-0.7-24.6,3.1-32.5,10.8c-6.7,6.5-5.9,16-1.8,23.6c5,9.2,14.6,16,23.6,20.8
			c10.4,5.5,21.9,8.5,33.7,8.2c23.6-0.5,46.6-12.6,69.4-1.2c3.1,1.6,6.8,3.8,7.9,7.3c0.8,2.7-2.1,5.5-3.8,7.2
			c-7.8,7.4-21.7,11.2-32.1,11.7c-12.6,0.6-25.1-4.4-37.1-7.7c-12.6-3.5-25.3-4.9-38.1-1.7c-9.3,2.3-18.8,8.6-19.5,19
			c-0.6,9.6,5.8,18.1,12.2,24.5c8.5,8.5,19.5,14.4,30.8,18.1c12.2,4,26.4,1.9,38.7-0.7c12.7-2.8,25-7.3,37.9-9.6
			c3.4-0.6,6-1.2,9.1-2.8c3.4-1.7,6.6-3.8,10.2-4.9c3.1-0.9,3,3,3.3,5.5c0.6,6-6.4,9.9-10.6,12.9c-4,2.8-7.4,6.3-11.6,8.8
			c-4.7,2.9-10,4.9-15.2,7c-10.2,4.2-21,8.4-28.5,16.8c-7.3,8-8.5,20.2-4.7,30.2c8,20.9,36,19.8,53.1,12.8
			c11-4.5,18.8-12.1,24.6-22.4c7.2-12.7,10.4-26.7,22.1-35.8c3.8,4.5,4.5,9.6,2.2,16.1c-3,8.9-9.9,16.8-15.6,24
			c-11.4,14.2-29.8,31.8-28.6,51.6c0.2,2.4,1.7,4.6,4.2,5.1c10.9,2.5,22,2.9,32.2-2.2c8.5-4.2,14.1-12.7,18-21
			c7-14.8,9.9-32.9,19.8-46.3c0.2,4.4-1.5,8.5-3.5,13.6c-3.5,9-2.6,18.1,0.3,27.2c4.5,13.7,16.5,24.3,30.7,15.9
			c7.8-4.6,13.2-13.2,17.3-20.9c4.7-8.9,6.8-18.9,7-28.8c0.3-12.4-2.7-24.6-7.3-36.2c25.7,16,65.9,24.7,78.2-9.9
			c10.5-29.5-31.5-22.1-53.1-27.4c3.3-0.5,6.7-0.7,9.9-0.9c9.2-0.6,18.4-0.7,27.6-2.1c17.1-2.6,32.1-12.4,31.9-31.4
			c-0.2-16.4-18.3-13.3-28.9-10.6c-8.7,2.2-23.8,8.1-33.6,3.9c19.3-8.9,40.8-18.7,50.2-38.6c4.2-9,7.3-23.2,2.8-32.7
			c-3.7-7.7-13.1-5.6-19.1-2.7c-16.4,7.8-27.3,23.6-43.1,32.4c-3.8,2.1-7.7,3.9-11.9,5.3c-1.5,0.5-3.2,1-4.8,1.2
			c-0.6,0.1-1.4-0.1-1.9-0.1c0-0.3-0.1-0.6,0-1c0.4-2.4,1.5-4.7,2.5-6.9c2.4-5,5.6-9,10.1-12.3c8.4-6.3,18.1-10.6,26.1-17.6
			c9-7.8,13.7-18.6,15.9-30.1c1.9-10.2,2.5-22.1-2-31.8c-4.7-10-14.2-13-24.6-11.1c-28.9,5.1-28.1,37.7-38.3,58.8
			c-2.7,5.6-6.8,10.7-10.9,15.3c-1.7,1.9-6.5,7.6-9.5,7.2c-1.8-0.2-1.6-9-1.6-10.7c0.1-7.5,2.1-13.9,5.8-20.4
			c9.2-16.4,24.8-29.2,28.3-48.5c2.3-12.7-0.5-30.2-13.7-36.1c-14-6.2-29,6.7-34.7,18.7c-7.2,15-3.6,34.6-15.7,47
			c-5.3-6-6.4-13.9-5.5-22.7c1.4-12.8,5.7-25.3,9-37.7c3.2-11.9,6.2-24.6,4.2-36.9C343.2,243.4,334.4,234.7,322.8,230.1z"/>
		<path fill="#60802A" d="M848.9,379.4c-1.5-10.9-6.2-21.3-11.3-31c-1.4-2.6-5-3.5-7.4-1.9c-12.9,8-25.6,16.5-39.1,23.5
			c-4.5,2.3-10.6,5.2-14.8,5.6c-0.3,0-1.2,0-1.7-0.1c0-0.1,0-0.2,0-0.3c-0.1-1.2,0.1-2.3,0.4-3.5c4.3-20.3,21.6-34.6,27.2-54.3
			c3-10.4,2.7-23.2,0-33.6c-2.9-11.3-10.5-20.2-9.3-32.5c0.4-4.5-4.8-6.2-8.2-4.7c-18.8,8.8-42,15.7-55.4,32.6
			c-11.9,15-11,33.7-8.8,51.6c1.1,8.7,2,17.4,1.7,26.1c-0.2,4.8-0.7,13.4-6.3,15c-5.9,1.6-7.7-8.4-8.8-13.1
			c-2.4-9.7-3.4-19.7-4.6-29.7c-2-16.4-5.7-41.6-23.7-47.9c-8-2.8-15.2,2.9-19.3,9.2c-6.5,9.9-7.9,23.8-7.9,35.3
			c0.1,26.1,20,45.2,25.8,69.6c1.3,5.6,3.5,23.4-4.8,25.4c-2.9,0.7-6.9-2.4-9-4.1c-5-4-9.8-9.5-12.2-15.5
			c-9.3-22.7-2.3-48.8-12.8-71.2c-4.6-9.9-14.6-20.1-25.2-23.2c-9-2.7-16.9,2.6-21.6,9.9c-5.7,8.8-7,20.5-6.8,30.7
			c0.2,11.8,3.2,23.3,9.1,33.5c11.9,20.4,33.6,34.7,34.7,60.1c0.1,3.5,0,7.8-2.6,10.4c-2,2-5.8,0.8-8.1,0.1
			c-10.3-3.3-20.3-13.6-25.8-22.4c-6.7-10.7-8.3-24.1-11.2-36.2c-3.1-12.8-7.9-24.5-16.9-34.2c-6.6-7-16.6-12.3-26-7.9
			c-8.7,4.1-13.1,13.8-15.5,22.6c-3.3,11.5-3.2,24-1,35.7c2.4,12.6,11.1,24.1,19.4,33.5c8.6,9.8,18.5,18.4,26.7,28.5
			c2.2,2.7,3.9,4.7,6.9,6.7c3.1,2.1,6.5,3.9,9.2,6.6c2.3,2.3-1.1,4.1-3.2,5.5c-4.9,3.4-11.8-0.8-16.4-3c-4.4-2.1-9.1-3.4-13.3-5.8
			c-4.8-2.8-9.1-6.4-13.4-9.9c-8.6-6.9-17.5-14.3-28.5-16.9c-10.6-2.5-21.8,2.3-28.7,10.4c-14.4,17.1,0.1,41.1,14.5,52.7
			c9.2,7.4,19.7,10.5,31.5,10.7c14.6,0.2,28.4-3.8,42,2c-2.1,5.5-6.3,8.6-13,9.7c-9.2,1.6-19.4-0.5-28.5-2.1
			c-17.9-3.1-42.3-10.7-59,0c-2,1.3-3.2,3.7-2.5,6.1c3.1,10.7,8.1,20.6,17.5,27.1c7.8,5.4,17.9,6.2,27.1,5.7
			c16.3-1,33.6-7.3,50.1-5.1c-3.8,2.3-8.2,2.8-13.6,3.5c-9.6,1.3-17.2,6.5-23.7,13.5c-9.8,10.6-13.3,26.2,1,34.6
			c7.8,4.6,17.9,5.2,26.7,5c10-0.1,19.8-3.2,28.6-7.8c11-5.7,20.2-14.3,28.2-23.9c-1.5,30.2,10.3,69.6,46.5,63.7
			c30.9-5.1,4.1-38.3-1.7-59.7c2.1,2.7,3.9,5.5,5.6,8.3c5,7.8,9.6,15.8,15.2,23.1c10.6,13.7,26.4,22.1,42.9,12.7
			c14.3-8.1,2.8-22.4-4.8-30.4c-6.1-6.5-18.6-17-19.7-27.5c17.1,12.6,36.2,26.7,58,25.3c9.9-0.6,23.9-4.9,29.9-13.4
			c5-6.9-1.5-14.2-6.9-18.1c-14.7-10.6-33.9-12.5-49.2-22.1c-3.7-2.3-7.2-4.9-10.4-7.8c-1.2-1.1-2.4-2.3-3.3-3.6
			c-0.4-0.5-0.6-1.2-0.8-1.7c0.2-0.2,0.5-0.3,0.9-0.5c2.3-0.8,4.8-1,7.3-1.1c5.5-0.3,10.6,0.6,15.7,2.9c9.6,4.3,18.1,10.7,28,14.4
			c11.2,4.1,22.9,3,34-0.7c9.9-3.3,20.6-8.5,26.9-17.1c6.5-8.9,4.5-18.7-2.1-26.9c-18.5-22.8-46.6-6.4-69.9-5.1
			c-6.2,0.3-12.7-0.8-18.7-2.2c-2.5-0.6-9.8-2-10.9-4.8c-0.6-1.7,7.1-5.8,8.6-6.6c6.6-3.5,13.2-4.9,20.6-4.8
			c18.8,0.1,37.6,7.6,56.1,1.3c12.2-4.2,26.2-15.1,25-29.4c-1.3-15.3-19.9-22.1-33.2-21.4c-16.6,1-32,13.6-48.7,9
			c2.7-7.6,9-12.3,17.2-15.8c11.9-5,24.9-7.3,37.4-10.3c12-2.9,24.5-6.4,34.4-14.2C847.2,403.8,850.6,391.8,848.9,379.4z"/>
		<path fill="#729136" d="M768.9,274.5c-6.3,27.3-11.7,54.7-19.6,81.6c-8,27.6-19.5,53.1-35.2,77.2c-32.5,49.7-74,92.7-107.5,141.7
			c-1.4,2-1.1,4,0,5.5c-6.5,12.2-10.2,26.1-12.9,39.3c-4.7,23.1-6.1,46.8-7.1,70.4c-1.1,28.7-0.9,57.3,0.4,86.1
			c1.6,33.8,3.8,67.6,2.4,101.4c-0.1,2-0.2,3.9-0.3,5.9c-0.4,7,10.5,7,10.9,0c1.9-33-0.1-66.1-1.7-99c-1.4-29.4-2.1-58.7-1-88.1
			c0.8-22.7,1.9-45.6,5.8-68c3.5-20.4,9.2-43.6,24.6-58.5c2.2-2.1,2-4.8,0.6-6.7c31.3-42.6,67.2-81.7,96.2-126
			c15.5-23.7,26.6-49.3,34.8-76.4c8.2-27.4,13.7-55.5,20.1-83.4C780.9,270.6,770.4,267.7,768.9,274.5z"/>
		<path fill="#526B22" d="M591.8,885.2c-5.9-52.8-30.2-100-55.3-145.9c-24.9-45.5-51.2-91.6-58.8-143.7c-1-6.9-11.5-4-10.5,2.9
			c15.3,104,102.1,181.7,113.8,286.7C581.7,892.1,592.6,892.1,591.8,885.2z"/>
		<path fill="#325B15" d="M751.3,637.9c-46.4,20.3-91.9,51.3-123.1,91.7c-17,22-27,47.1-33.3,73.4c-2.4-27.4-7.4-54.5-12.6-81.5
			c-12.2-62.9-21.6-126.1-27.6-190c-2.3-25.3-4.1-50.7-5.3-76.1c-0.3-7-11.2-7-10.9,0c3.3,70.5,11.4,140.7,22.3,210.5
			c7.4,47.2,19.9,93.8,23.5,141.5c-4.1-25.8-10.2-51.2-18.2-76c-11.3-35.5-26.5-69.9-46.3-101.5c0.1-1.4-0.3-2.8-1.4-4.1
			c-1.3-1.5-2.7-3-4.1-4.5c-4.9-7.4-10-14.6-15.5-21.6c-2.4-3.1-5.9-2-7.7,0.5c-8.3-6.4-17.2-12.1-26.7-17
			c-22.3-11.5-50.1-19-60.8-44.3c-2.7-6.4-12.1-0.9-9.4,5.5c10.6,25.1,36.6,34.5,59.2,45.5c20.3,9.9,37.5,22.6,52.9,38.8
			c21.7,33,37.9,69.7,49.8,107.2c14.5,45.5,22.8,93.4,22.9,141.2c0,0.3,0,0.5,0.1,0.8c-0.7,3.5,2.1,5.9,5,6.1
			c1.4,4.9,10.2,4.2,10.7-2c4-51.3,9.8-105.2,42.7-147.1c30.4-38.6,74.3-68.1,119.1-87.6C763.2,644.5,757.7,635.1,751.3,637.9z"/>
		<path fill="#526B22" d="M426.6,273.4c-9.9-5-21-7-31.9-8.2c-2.9-0.3-5.7,2.2-5.8,5c-0.7,15.2-0.9,30.4-2.8,45.5
			c-0.6,5-1.7,11.7-3.8,15.4c-0.1,0.2-0.7,1-1,1.4c-0.1,0-0.1-0.1-0.3-0.1c-1-0.6-1.9-1.4-2.7-2.3c-14.3-15-16.3-37.4-29.4-53.2
			c-6.9-8.3-17.6-15.3-27.7-19c-11-4-22.6-2.7-32-10.7c-3.4-2.9-7.9,0.5-8.5,4.1c-3.4,20.5-10.8,43.5-4.5,64.1
			c5.6,18.3,21.6,28.2,37.6,36.4c7.8,4,15.5,8.2,22.5,13.4c3.9,2.9,10.7,8.1,8.8,13.7c-2,5.8-11.2,1.6-15.8-0.2
			c-9.4-3.5-18.2-8.4-27.1-13c-14.7-7.6-37.5-18.9-52.9-7.5c-6.8,5-6.2,14.2-3.3,21.1c4.5,11,15.2,20,24.7,26.5
			c21.6,14.7,48.6,9.1,72,18.1c5.4,2.1,21.3,10.4,18.2,18.3c-1.1,2.8-5.9,4.3-8.4,5.1c-6.1,1.8-13.4,2.7-19.7,1.3
			c-23.9-5.2-41.5-25.7-66-29.8c-10.7-1.8-24.8,0.7-33.4,7.6c-7.3,5.9-7.4,15.4-4.1,23.4c4,9.7,13,17.4,21.5,23
			c9.8,6.5,21,10.5,32.8,11.4c23.6,1.7,47.6-8.1,69.2,5.5c2.9,1.8,6.4,4.5,7.1,8.1c0.6,2.8-2.6,5.3-4.5,6.8
			c-8.5,6.6-22.7,9-33.1,8.6c-12.6-0.6-24.6-6.8-36.2-11.3c-12.3-4.7-24.7-7.4-37.8-5.4c-9.5,1.4-19.6,6.7-21.2,17
			c-1.5,9.5,4,18.6,9.8,25.6c7.6,9.2,18,16.2,28.9,21c11.8,5.2,26.1,4.5,38.6,3c12.9-1.6,25.6-4.8,38.6-5.9c3.4-0.3,6.1-0.6,9.4-1.9
			c3.5-1.4,6.9-3.2,10.6-3.9c3.2-0.6,2.7,3.2,2.7,5.7c0,6-7.4,9.3-11.8,11.8c-4.2,2.4-8,5.6-12.4,7.7c-5,2.4-10.5,3.9-15.8,5.5
			c-10.5,3.2-21.7,6.4-30,13.9c-8,7.3-10.4,19.3-7.6,29.6c5.9,21.6,33.9,23.1,51.6,17.8c11.4-3.4,19.8-10.3,26.6-19.9
			c8.4-11.9,12.9-25.6,25.4-33.5c3.4,4.9,3.5,10,0.7,16.2c-3.9,8.5-11.4,15.7-17.9,22.4c-12.7,13-32.8,28.8-33.4,48.6
			c-0.1,2.4,1.3,4.7,3.6,5.5c10.6,3.5,21.6,5,32.3,0.9c8.8-3.4,15.2-11.3,20-19.1c8.4-14,13-31.8,24.1-44.1
			c-0.2,4.4-2.3,8.3-4.8,13.2c-4.4,8.7-4.4,17.8-2.3,27.1c3.1,14.1,14.1,25.8,29.1,18.7c8.2-3.8,14.4-11.8,19.3-19.1
			c5.6-8.4,8.6-18.1,9.8-28c1.5-12.3-0.3-24.7-3.8-36.7c24,18.4,63.2,30.9,78.8-2.3c13.3-28.4-29.2-25-50.2-32.4c3.4-0.2,6.8,0,10,0
			c9.2,0.3,18.4,1.1,27.7,0.5c17.2-1,33.2-9.3,34.7-28.2c1.4-16.4-16.9-15-27.8-13.3c-8.8,1.4-24.5,5.7-33.8,0.6
			c20.1-7,42.4-14.7,53.7-33.6c5.1-8.5,9.5-22.4,5.9-32.3c-2.9-8-12.5-6.8-18.8-4.5c-17,6.1-29.5,20.8-46.1,28.1
			c-4,1.7-8.1,3.2-12.3,4.1c-1.6,0.4-3.2,0.7-4.9,0.7c-0.6,0-1.4-0.2-1.8-0.3c0-0.3,0-0.6,0.1-1c0.6-2.4,1.9-4.5,3.2-6.6
			c2.9-4.7,6.5-8.4,11.2-11.3c9-5.5,19-8.8,27.7-15c9.8-6.9,15.5-17.2,18.7-28.4c2.9-10,4.7-21.8,1.1-31.9
			c-3.7-10.4-12.9-14.3-23.4-13.4c-29.3,2.3-31.6,34.8-43.8,54.8c-3.2,5.3-7.8,10-12.4,14.2c-1.9,1.7-7.2,6.9-10.1,6.2
			c-1.7-0.4-0.7-9.1-0.6-10.8c0.8-7.5,3.5-13.6,7.7-19.8c10.8-15.5,27.5-26.7,32.8-45.6c3.5-12.4,2.4-30.1-10.1-37.3
			c-13.3-7.6-29.5,3.9-36.4,15.2c-8.6,14.3-6.9,34.1-20.1,45.3c-4.7-6.5-5.1-14.4-3.3-23.1c2.6-12.7,8.1-24.6,12.6-36.7
			c4.3-11.5,8.6-23.9,7.8-36.4C445.7,288.6,437.8,279,426.6,273.4z"/>
	</g>
	<g>
		<polygon fill="#D15057" points="715,1204.1 481,1204.1 404.4,901.5 786.3,901.5 		"/>
		<rect x="378.8" y="862.1" fill="#DD626E" width="427.7" height="39.3"/>
		<polygon fill="#BC4450" points="595.3,901.5 404.4,901.5 481,1204.1 595.3,1204.1 		"/>
		<rect x="378.8" y="862.1" fill="#D15057" width="216.5" height="39.3"/>
		<polygon fill="#BC4450" points="715,1208.7 481,1208.7 404.4,1167.8 786.3,1167.8 		"/>
		<polygon fill="#AA3A4A" points="595.3,1167.8 404.4,1167.8 481,1208.7 595.3,1208.7 		"/>
	</g>
</g>
<g>
	<g>
		<path fill="#526B22" d="M2393.9,1350.9c-44.2,4.6-90.8,20-118.7,56.7c-10.4,13.7-17.4,29.6-21.3,46.3c-1.7,7.4-3.2,15.1-2.9,22.7
			c0.2,5.8,0.8,11.7,1.3,17.5c1.3,14.6,2.8,29.1,4.5,43.7c0.6,5.4,1.2,10.7,1.9,16.1c0.3,2.3,0.1,6.2,1.6,8.2c2.4,3.4,7,3.6,9.4,0
			c0.4-0.5,0.5-1.2,0.6-1.8c1-0.2,2-0.7,2.9-1.6c34.7-37.3,87.7-45.8,131.4-68.3c23.3-12,41.9-28.7,57.6-49.6
			c11.5-15.3,22.8-33.9,23.2-53.6C2486.2,1342,2422.9,1347.9,2393.9,1350.9z"/>
		<path fill="#60802A" d="M2373.8,1436.8c-0.4-2-1.8-4-3.9-4.3c-25.3-3.7-50.4,0.8-69.7,18.4c-19.1,17.5-28.9,43.5-34.9,68.1
			c-6.1,25-8.8,50.8-10,76.6c-0.9,5.2-1.8,10.5-2.5,15.7c-11.6,80.9-3.9,163.2,3,244.1c1.1,12.7,2.2,25.5,3,38.2
			c0.2,2.9,2.2,4.6,4.5,5.1c1,5.2,9.3,6.8,10.5,0.7c4.3-21.6,2.7-44.5,1.6-66.4c-1.6-32.4-4.2-64.7-6.3-97
			c-2.3-36.1-4.1-72.2-3.8-108.4c0.1-10.8,0.3-21.5,0.8-32.3c9.9-53.6,31.5-106,78.9-134.8c9.2-5.6,19-9.9,29.2-13.3
			C2380,1445.3,2378.9,1438.2,2373.8,1436.8z"/>
		<path fill="#526B22" d="M2491.1,1755.8c-4.6-11.2-13.8-19.6-23.6-26.4c-35.7-24.6-84.2-9.8-120.4,6c-7.7,3.3-15.2,6.9-22,11.8
			c-7.1,5.1-52.2,28.9-56.3,45.1c-0.1,0-4.1,12.2,2.7,10.5c0.1,0,0.2-0.1,0.4-0.1c2.1,0.3,4.5-0.5,5.9-2.3
			c5.5-2.9,10.5-7.3,15.1-11.2c6-5,9.9-11.9,17.5-15.5c7.5-3.6,14.8-1.8,20.3-1.5c30.2,1.5,57.8,16.4,87.2,22.1
			c13.5,2.6,26.8,2.3,40.4,1.3c10.2-0.8,21.3-2.2,28.9-9.6C2494.9,1778.3,2495,1765.3,2491.1,1755.8z"/>
		<path fill="#526B22" d="M2257,1782.4c-3-6.9-7.1-12.6-11.8-17.4c-10.4-21.6-19.9-43.1-36.5-60.9c-9.9-10.6-21.5-20.7-33.4-28.9
			c-10.3-7.2-21.9-10.9-34.3-8.6c-11.4,2.1-22.7,8.2-31.7,15.3c-8.8,7-13.8,15.5-15.9,26.6c-3.5,18.5,7.1,33,23.6,40.1
			c19.9,8.6,41.2,7.9,62.4,7.4c13.5-0.3,27.1,0.5,40,4.9c6.5,2.2,12.2,5.8,16.9,10.3c1.1,2.3,10.4,14.2,11.5,16.7
			C2250.5,1794.2,2259.8,1788.7,2257,1782.4z"/>
		<path fill="#60802A" d="M2472.1,1769.5c-2.8-1.2-5-4-7.6-5.8c-3.1-2.2-7.3-2.9-10.7-4.4c-8-3.5-15.4-7.6-24.1-9.1
			c-18.6-3.2-35.9-9-55-7.7c-17.6,1.2-34.9,5.8-51.1,12.8c-8,3.5-15.2,8.1-22.7,12.4c-7.8,4.4-15.6,8.9-21.8,15.4
			c-4.9,5,2.8,12.7,7.7,7.7c5.6-5.8,12.6-9.8,19.6-13.7c7-4,13.7-8.2,21-11.6c14.7-6.9,31.1-10.8,47.3-12.1
			c17.3-1.4,33.2,3.9,50.1,7c8.5,1.6,15.7,4.8,23.6,8.4c3.5,1.6,7.3,2.6,10.7,4.4c2.9,1.5,4.5,4.5,7.6,5.8
			C2473,1781.6,2478.5,1772.3,2472.1,1769.5z"/>
		<path fill="#526B22" d="M2034.9,1620.4c7.7,7.4,18.7,8.9,28.9,9.6c13.7,1,26.9,1.4,40.4-1.3c29.4-5.7,57-20.7,87.2-22.1
			c5.5-0.3,12.8-2.1,20.3,1.5c7.5,3.6,11.5,10.5,17.5,15.5c4.6,3.8,9.5,8.3,15.1,11.2c1.3,1.9,3.8,2.7,5.9,2.3
			c0.1,0,0.2,0.1,0.4,0.1c6.8,1.7,2.8-10.5,2.7-10.5c-4.1-16.2-49.2-40-56.3-45.1c-6.8-4.9-14.3-8.4-22-11.8
			c-36.3-15.8-84.7-30.5-120.4-6c-9.8,6.7-19,15.2-23.6,26.4C2027,1599.8,2027,1612.8,2034.9,1620.4z"/>
		<path fill="#60802A" d="M2049.8,1604c2.8-1.2,5-4,7.6-5.8c3.1-2.2,7.3-2.9,10.7-4.4c8-3.5,15.4-7.6,24.1-9.1
			c18.6-3.2,35.9-9,55-7.7c17.6,1.2,34.9,5.8,51.1,12.8c8,3.5,15.2,8.1,22.7,12.4c7.8,4.4,15.6,8.9,21.8,15.4
			c4.9,5-2.8,12.7-7.7,7.7c-5.6-5.8-12.6-9.8-19.6-13.7c-7-4-13.7-8.2-21-11.6c-14.7-6.9-31.1-10.8-47.3-12.1
			c-17.3-1.4-33.2,3.9-50.1,7c-8.5,1.6-15.7,4.8-23.6,8.4c-3.5,1.6-7.3,2.6-10.7,4.4c-2.9,1.5-4.5,4.5-7.6,5.8
			C2049,1616.1,2043.4,1606.8,2049.8,1604z"/>
		<path fill="#60802A" d="M2222.5,1743.2c-13.5-12.5-30.6-20.4-46.5-29.4c-7.7-4.4-15.7-7.8-24.1-10.4c-8.2-2.5-15.5-7.6-24.4-6.8
			c-6.9,0.6-7,11.5,0,10.9c7-0.6,13.7,3.4,20.1,5.9c7.9,3,15.5,5.7,23,9.8c15,8.4,31.6,15.9,44.3,27.7
			C2219.9,1755.6,2227.6,1748,2222.5,1743.2z"/>
		<path fill="#526B22" d="M2267.4,1669.6c1.1-2.5,10.4-14.4,11.5-16.7c4.7-4.5,10.3-8,16.9-10.3c12.9-4.4,26.5-5.2,40-4.9
			c21.2,0.5,42.5,1.2,62.4-7.4c16.5-7.2,27.1-21.7,23.6-40.1c-2.1-11-7.1-19.6-15.9-26.6c-9-7.1-20.3-13.2-31.7-15.3
			c-12.5-2.3-24,1.4-34.3,8.6c-11.9,8.3-23.5,18.4-33.4,28.9c-16.7,17.8-26.2,39.4-36.5,60.9c-4.8,4.8-8.8,10.5-11.8,17.4
			C2255.3,1670.5,2264.6,1676,2267.4,1669.6z"/>
		<path fill="#60802A" d="M2292.6,1625c13.5-12.5,30.6-20.4,46.5-29.4c7.7-4.4,15.7-7.8,24.1-10.4c8.2-2.5,15.5-7.6,24.4-6.8
			c6.9,0.6,7,11.5,0,10.9c-7-0.6-13.7,3.4-20.1,5.9c-7.9,3-15.5,5.7-23,9.8c-15,8.4-31.6,15.9-44.3,27.7
			C2295.2,1637.4,2287.5,1629.8,2292.6,1625z"/>
	</g>
	<g>
		<polygon fill="#69C3B6" points="2391.8,2215.4 2157.8,2215.4 2081.2,1912.8 2463.1,1912.8 		"/>
		<rect x="2055.6" y="1873.4" fill="#85DDCC" width="427.7" height="39.3"/>
		<polygon fill="#519E91" points="2272.1,1912.8 2081.2,1912.8 2157.8,2215.4 2272.1,2215.4 		"/>
		<rect x="2055.6" y="1873.4" fill="#69C3B6" width="216.5" height="39.3"/>
		<polygon fill="#519E91" points="2391.8,2220 2157.8,2220 2081.2,2179.1 2463.1,2179.1 		"/>
		<polygon fill="#418276" points="2272.1,2179.1 2081.2,2179.1 2157.8,2220 2272.1,2220 		"/>
	</g>
</g>
<g>
	<g>
		<g>
			<path fill="#699F13" d="M1648.4,1711.5c-16.5,26.8-38.5,49.6-56.7,75.2c-18.6,26.1-33.4,54.7-45.7,84.3
				c-12.3,29.7-22.4,60.8-29.3,92.3c-7.1,32.4-10.7,65.4-13.4,98.4c-0.8,9.7-1.5,19.5-2.2,29.2c-0.4,6.3,0.9,13,1.6,19.2
				c0.8,7.5,1.7,14.9,2,22.4c0.3,5.9,0.8,13.1-1.8,18.6c-0.6,1.3-0.7,2.6-0.4,3.8c-2.3,2.8-2,7.6,2.5,8.5c8.9,1.8,18.3,4.4,27.4,4
				c10.1-0.4,13.2-12.1,15.3-20.2c7.6-30.3,17.2-59.9,27.5-89.4c22.7-65.3,47.3-129.7,64-196.8c11.9-48.1,19.2-97.2,19.3-146.8
				C1658.5,1708.8,1651.2,1707,1648.4,1711.5z"/>
			<g>
				<path fill="#5A7F11" d="M1549.9,2138.9c0.9-3.5,1.9-7,2.9-10.5c-15.9-3.3-32.5-4.2-48.6-4c0.2,2.7,0.4,5.5,0.6,8.2
					c0,0.9,0.1,1.7,0.1,2.6C1519.9,2135,1535.1,2135.9,1549.9,2138.9z"/>
				<path fill="#5A7F11" d="M1563.9,2091.5c-20.5-4.4-41.3-7.7-62-10.8c-0.2,3.4-0.5,6.7-0.7,10.1c0,0.2,0,0.4,0,0.7
					c19.9,2.9,39.8,6.2,59.5,10.4C1561.7,2098.5,1562.8,2095,1563.9,2091.5z"/>
				<path fill="#5A7F11" d="M1579.8,2044.7c-24.9-1.6-49.5-10.4-73-19.2c-0.4,3.7-0.8,7.4-1.2,11.1c22.7,8.4,46.5,16.7,70.5,18.7
					C1577.3,2051.8,1578.6,2048.2,1579.8,2044.7z"/>
				<path fill="#5A7F11" d="M1596.7,1996.8c1.2-3.4,2.4-6.8,3.6-10.3c-14.9-4.1-29.3-10.6-43.7-15.8c-12.5-4.6-25.9-8.9-39.3-9.7
					c-0.2,0.8-0.3,1.5-0.5,2.3c-0.6,2.8-1.2,5.5-1.7,8.3c13.8,0.5,27.7,5.6,40.2,10.2C1569,1986.8,1582.6,1992.9,1596.7,1996.8z"/>
				<path fill="#5A7F11" d="M1620,1928.2c-27-13.2-52.2-31.1-81.9-36.7c-1.3,3.4-2.5,6.8-3.7,10.2c29.8,4.7,55.3,23.1,82.3,36.7
					C1617.8,1935,1618.9,1931.6,1620,1928.2z"/>
				<path fill="#5A7F11" d="M1636.6,1871c-24.8-12.3-48.8-26.4-75.9-32.3c-1.6,3.3-3.2,6.6-4.8,9.9c27.9,5.1,52.6,20.3,77.9,32.9
					C1634.8,1878.1,1635.7,1874.6,1636.6,1871z"/>
				<path fill="#5A7F11" d="M1647.8,1821.7c0.7-3.5,1.3-7,1.9-10.6c-12.2-3.5-24.5-6.5-35.1-13.9c-6.6-4.6-13.1-10.2-20.2-14.2
					c-0.9,1.2-1.8,2.4-2.7,3.7c-1.2,1.7-2.4,3.4-3.6,5.1c8.5,4,16,11.5,23.4,16.4C1622.5,1815.6,1635.4,1818.1,1647.8,1821.7z"/>
				<path fill="#5A7F11" d="M1657,1752.5c-9.4-4.3-18.4-9.3-27.7-13.8c-2.2,2.9-4.5,5.8-6.8,8.6c11.3,5.3,22.2,11.5,33.5,16.6
					C1656.4,1760.1,1656.8,1756.3,1657,1752.5z"/>
			</g>
		</g>
		<g>
			<path fill="#699F13" d="M1298.7,1575.7c-4.3,31.2-15.4,60.9-21.8,91.6c-6.6,31.4-8.7,63.5-8.1,95.5c0.6,32.2,3.8,64.7,10.1,96.3
				c6.4,32.5,16.4,64.2,27.1,95.6c3.2,9.2,6.4,18.5,9.7,27.7c2.1,5.9,6,11.5,9.1,17c3.8,6.5,7.5,13,10.8,19.7
				c2.6,5.3,6,11.7,5.8,17.8c0,1.5,0.4,2.7,1.2,3.6c-0.9,3.5,1.3,7.8,5.7,6.8c8.8-1.9,18.5-3.3,26.7-7.3c9-4.4,7.3-16.4,5.9-24.6
				c-5.2-30.8-8.2-61.8-10.6-92.9c-5.3-68.9-8.6-137.8-20.2-206c-8.3-48.8-21.3-96.8-41.1-142.3
				C1306.8,1569.1,1299.4,1570.4,1298.7,1575.7z"/>
			<g>
				<path fill="#5A7F11" d="M1379.5,2006.7c-0.6-3.6-1.1-7.2-1.6-10.8c-15.9,3.4-31.5,9.1-46.2,15.8c1.3,2.4,2.6,4.8,3.8,7.3
					c0.4,0.8,0.8,1.6,1.2,2.4C1350.4,2015.2,1364.8,2010,1379.5,2006.7z"/>
				<path fill="#5A7F11" d="M1373.4,1957.8c-20.5,4.2-40.9,9.5-61.1,15c1.1,3.2,2.2,6.4,3.4,9.6c0.1,0.2,0.2,0.4,0.2,0.6
					c19.4-5.3,39-10.3,58.7-14.3C1374.1,1965,1373.7,1961.4,1373.4,1957.8z"/>
				<path fill="#5A7F11" d="M1369.2,1908.5c-23.4,8.5-49.5,10.3-74.6,11.7c1.1,3.5,2.2,7.1,3.3,10.6c24.2-1.4,49.3-3.3,72.1-11
					C1369.8,1916,1369.5,1912.2,1369.2,1908.5z"/>
				<path fill="#5A7F11" d="M1365.6,1857.8c-0.3-3.6-0.5-7.2-0.8-10.8c-15.3,2.2-31,2-46.4,3c-13.3,0.8-27.3,2.2-39.9,6.8
					c0.1,0.8,0.3,1.5,0.4,2.3c0.6,2.8,1.1,5.5,1.7,8.3c12.8-5.1,27.6-5.9,41-6.8C1336.1,1859.7,1351,1859.9,1365.6,1857.8z"/>
				<path fill="#5A7F11" d="M1359.4,1785.7c-30.1-1.3-60.2-7.6-89.8-0.9c0.2,3.6,0.4,7.2,0.7,10.9c29.2-7.6,59.9-1,90.1,0.6
					C1360.1,1792.8,1359.7,1789.2,1359.4,1785.7z"/>
				<path fill="#5A7F11" d="M1351.8,1726.6c-27.6-1.4-55.3-4.7-82.5,0.8c-0.2,3.7-0.3,7.4-0.4,11c27.6-6.5,56.3-2.4,84.5-1
					C1352.9,1733.8,1352.3,1730.2,1351.8,1726.6z"/>
				<path fill="#5A7F11" d="M1342.2,1676.9c-0.8-3.5-1.6-7-2.5-10.4c-12.6,1.6-25,3.8-37.8,1.3c-7.8-1.5-16.1-4.1-24.2-4.9
					c-0.3,1.5-0.7,2.9-1,4.4c-0.4,2-0.8,4.1-1.2,6.1c9.4,0.3,19.3,4.1,28,5.7C1316.6,1681.4,1329.4,1678.6,1342.2,1676.9z"/>
				<path fill="#5A7F11" d="M1323,1609.8c-10.3-0.2-20.6-1.1-30.9-1.6c-0.9,3.5-1.8,7.1-2.8,10.6c12.5,0.3,24.9,1.6,37.4,1.8
					C1325.5,1617,1324.3,1613.4,1323,1609.8z"/>
			</g>
		</g>
		<g>
			<path fill="#699F13" d="M1568.9,1580.2c-12.8,28.7-31.7,54.2-46.4,81.9c-15,28.3-26,58.6-34.3,89.5
				c-8.3,31.1-14.3,63.2-17.1,95.3c-2.8,33-2.1,66.3-0.5,99.3c0.5,9.8,1,19.5,1.6,29.3c0.4,6.3,2.5,12.8,4,18.8
				c1.8,7.3,3.6,14.6,4.9,22c1.1,5.8,2.5,12.9,0.7,18.7c-0.4,1.4-0.3,2.7,0.1,3.8c-1.9,3.1-0.9,7.8,3.6,8.1c9,0.6,18.7,2,27.7,0.4
				c9.9-1.7,11.6-13.7,12.5-22c3.6-31,9.3-61.6,15.6-92.2c14-67.7,30-134.7,37.8-203.5c5.6-49.2,6.4-98.9,0.1-148.1
				C1578.6,1576.2,1571.1,1575.3,1568.9,1580.2z"/>
			<g>
				<path fill="#5A7F11" d="M1526.9,2016.7c0.5-3.6,1-7.2,1.5-10.8c-16.2-1.2-32.8,0-48.7,2.3c0.6,2.7,1.2,5.4,1.6,8.1
					c0.2,0.8,0.3,1.7,0.5,2.6C1496.6,2016.8,1511.8,2015.7,1526.9,2016.7z"/>
				<path fill="#5A7F11" d="M1534.6,1968c-20.9-1.7-41.9-2.3-62.9-2.6c0.2,3.4,0.4,6.8,0.6,10.1c0,0.2,0,0.4,0.1,0.7
					c20.1,0.3,40.3,1,60.3,2.5C1533.3,1975.1,1533.9,1971.6,1534.6,1968z"/>
				<path fill="#5A7F11" d="M1544.3,1919.5c-24.9,1.7-50.4-3.8-74.9-9.5c0.1,3.7,0.2,7.4,0.3,11.1c23.6,5.4,48.2,10.5,72.3,9.4
					C1542.7,1926.8,1543.5,1923.1,1544.3,1919.5z"/>
				<path fill="#5A7F11" d="M1554.8,1869.8c0.7-3.5,1.5-7.1,2.2-10.6c-15.3-2.1-30.4-6.7-45.4-10c-13-2.9-26.8-5.4-40.2-4.5
					c-0.1,0.8-0.1,1.5-0.2,2.3c-0.2,2.8-0.5,5.6-0.6,8.5c13.7-1.3,28.2,2,41.2,4.9C1526,1863.5,1540.3,1867.7,1554.8,1869.8z"/>
				<path fill="#5A7F11" d="M1568.9,1798.8c-28.5-9.6-55.8-24-86-25.8c-0.8,3.5-1.6,7.1-2.3,10.6c30.2,0.8,57.8,15.7,86.4,25.6
					C1567.6,1805.8,1568.3,1802.3,1568.9,1798.8z"/>
				<path fill="#5A7F11" d="M1578,1739.9c-26.2-9-51.8-19.8-79.4-22.1c-1.2,3.5-2.4,7-3.5,10.5c28.3,1.4,54.8,13.3,81.5,22.5
					C1577.1,1747.2,1577.5,1743.5,1578,1739.9z"/>
				<path fill="#5A7F11" d="M1582.7,1689.5c0.2-3.6,0.4-7.1,0.5-10.7c-12.5-1.9-25.1-3.3-36.7-9.2c-7.1-3.7-14.3-8.4-21.9-11.4
					c-0.7,1.3-1.4,2.6-2.2,4c-1,1.8-1.9,3.7-2.9,5.5c8.9,2.9,17.4,9.3,25.3,13.2C1556.8,1686.8,1569.9,1687.5,1582.7,1689.5z"/>
				<path fill="#5A7F11" d="M1582.8,1619.7c-9.9-3.1-19.5-6.8-29.3-10.1c-1.8,3.2-3.7,6.3-5.6,9.4c11.9,3.8,23.5,8.5,35.4,12.1
					C1583.2,1627.3,1583,1623.5,1582.8,1619.7z"/>
			</g>
		</g>
		<g>
			<path fill="#699F13" d="M1481.1,2053.6c3.1-69.5,7.8-139.2,2.7-208.7c-2.6-35-9.5-68.9-14.9-103.5c-5.4-34.2-9.1-68.6-14.5-102.8
				c-1.9-12.3-2.7-26.8-9.6-37.6c-5.4-8.4-14.4-6.9-18.9,1.3c-3.2,5.8-4.5,12.8-5.8,19.3c-1.6,7.8-2.8,15.7-3.8,23.6
				c-2,15.5-3.1,31.2-3.9,46.8c-1.7,33.9-7.5,67.4-8.8,101.3c-1.3,34.8,6.7,68.7,9,103.4c1.2,17.6,1.9,35.2,3.3,52.8
				c1.4,17.5,4,34.7,7,52c6,34.6,7.5,69.8,10.1,104.8c1.3,17.8,3,35.5,5.4,53.2c0,0.2,0.1,0.5,0.1,0.7c-0.8,2.6,0.2,5.7,3.7,6.4
				c10.1,2,20.6,2.8,29.1-3.8c6.6-5.1,7.9-14.8,8.3-22.5c0.7-11.6-0.2-23.3-0.1-34.9C1479.6,2088,1480.3,2070.8,1481.1,2053.6z"/>
			<g>
				<path fill="#5A7F11" d="M1451.5,1619.8c-10.6,0.8-21.2,1.5-31.7,2.8c-0.8,3.7-1.4,7.4-2,11.1c11.7-1.7,23.6-2.3,35.4-3.2
					C1452.7,1626.9,1452.2,1623.3,1451.5,1619.8z"/>
				<path fill="#5A7F11" d="M1456.6,1653.5c-14,2.4-28,4.9-42.1,6.6c-0.3,3.7-0.7,7.3-0.9,11c14.9-1.7,29.7-4.4,44.5-6.9
					C1457.6,1660.6,1457.1,1657.1,1456.6,1653.5z"/>
				<path fill="#5A7F11" d="M1414.3,1729.2c7.8,0.1,15.6,0.1,23.4-0.5c9.6-0.7,19.2-2.3,28.6-4.1c-0.5-3.6-1-7.2-1.5-10.8
					c-10.2,2-20.5,3.6-31,4.3c-7.5,0.5-15.6-0.2-23.4-0.1c-0.4,3.7-0.7,7.5-1.1,11.2C1410.9,1729.1,1412.6,1729.1,1414.3,1729.2z"/>
				<path fill="#5A7F11" d="M1475.7,1782.6c-0.6-3.5-1.2-7.1-1.8-10.6c-10.6,1.8-21,4.8-31.4,7.6c-12.4,3.3-25.7,6.9-38.7,6
					c-0.1,2.6-0.3,5.2-0.4,7.7c0,1,0,2-0.1,3C1428.1,1797.8,1451.5,1786.6,1475.7,1782.6z"/>
				<path fill="#5A7F11" d="M1484.6,1856.6c-0.2-3.5-0.4-7.1-0.7-10.6c-11,0.9-21.9,3.8-32.7,5.9c-14.2,2.8-28.8,3.3-43.3,3.3
					c0.5,3.6,0.9,7.2,1.4,10.8c13-0.2,26-0.7,38.9-2.6C1460.1,1861.6,1472.4,1857.5,1484.6,1856.6z"/>
				<path fill="#5A7F11" d="M1486,1929.1c0-3.6,0.1-7.2,0.1-10.9c-12.2,0.8-24,3.8-35.8,6.6c-11.7,2.8-23.9,5.5-35.9,3.8
					c0.2,3.6,0.4,7.3,0.7,10.9C1439.1,1942,1462.1,1930.7,1486,1929.1z"/>
				<path fill="#5A7F11" d="M1473.1,1982c3.3-0.2,7.7-0.6,11.3-0.5c0.1-3.6,0.3-7.3,0.4-10.9c-4-0.1-8,0.3-11.8,0.5
					c-10.1,0.7-20.1,2-30.1,3.7c-8,1.3-15.9,2.8-23.7,4.9c0.5,3.6,1.1,7.2,1.7,10.8c8.2-2.3,16.6-3.9,25-5.3
					C1454.9,1983.8,1464,1982.7,1473.1,1982z"/>
				<path fill="#5A7F11" d="M1481.8,2039.5c-17.7,2.6-35.3,10.6-53,10.6c0.3,3.5,0.6,7.1,0.9,10.6c17.4-0.6,34.2-7.8,51.6-10.3
					C1481.4,2046.7,1481.6,2043.1,1481.8,2039.5z"/>
			</g>
		</g>
		<g>
			<path fill="#8BBE24" d="M1436,1954.3c-5.4-32.2-11.8-64-19.1-95.9c-7.4-32-14.8-64.1-19.3-96.7c-3.6-25.8-4.9-52-2.2-77.9
				c0.7-6.5-8.7-6.7-10.7-1.4c-45.4,120.2-45.2,252.8-17.1,377c8.3,36.6,19.2,72.7,32.2,107.9c1.4,3.9,7.8,6,9.9,1.3
				c0.4-0.8,0.7-1.6,1-2.4c13.4-3.1,27.1-1.4,40.6,0.5c3.3,0.5,7-1.4,6.9-5.2C1456.4,2092,1447.5,2022.9,1436,1954.3z"/>
			<g>
				<path fill="#699F13" d="M1394.3,1726c-2.1,0.5-4.2,1-6.2,1.6c-6.2,1.6-12.7,3.4-19.3,4.4c-1,3.7-2,7.5-2.9,11.2
					c9.8-1,19.4-3.7,29.1-6.2C1394.7,1733.3,1394.5,1729.6,1394.3,1726z"/>
				<path fill="#699F13" d="M1399.4,1773.4c-13.9,2.8-27.7,6.8-41.7,8.5c-0.6,3.7-1.3,7.4-1.8,11.1c15.3-1.6,30.2-6.2,45.3-9.1
					C1400.5,1780.4,1399.9,1776.9,1399.4,1773.4z"/>
				<path fill="#699F13" d="M1412.8,1840.2c-21.2,2.8-42.1,7.6-63.2,11.2c-0.2,3.6-0.4,7.3-0.6,10.9c22.1-3.8,44-8.8,66.2-11.6
					C1414.4,1847.2,1413.6,1843.7,1412.8,1840.2z"/>
				<path fill="#699F13" d="M1429,1915.4c-0.7-3.6-1.4-7.1-2.1-10.6c-16.8,1-33.5,3.5-49.9,7c-7.1,1.5-13.8,3.8-20.7,6
					c-2.4,0.8-4.9,1.5-7.3,2.1c0.2,3.7,0.3,7.4,0.5,11.1c7.5-1.7,14.8-4.5,22.2-6.8C1389.8,1918.7,1409.7,1916.2,1429,1915.4z"/>
				<path fill="#699F13" d="M1438.8,1971.6c-28.6,0.8-56.2,9.7-84.4,12.9c0.5,3.6,0.9,7.1,1.5,10.7c28.3-3.4,56-12.3,84.7-12.8
					C1440,1978.8,1439.4,1975.2,1438.8,1971.6z"/>
				<path fill="#699F13" d="M1447.9,2034.1c-0.5-4.1-1.1-8.1-1.6-12.2c-16-4.4-33,2.7-47.6,9.8c-9.7,4.7-19.1,10.1-29.2,14.1
					c-1.4,0.6-2.9,1.1-4.4,1.6c0.8,3.6,1.5,7.2,2.4,10.8c9.6-3,18.9-8.1,27.2-12.3C1409.9,2038.2,1430.8,2025.5,1447.9,2034.1z"/>
				<path fill="#699F13" d="M1455.4,2106c-0.3-3.6-0.6-7.2-0.9-10.8c-12.6-0.2-25.2-0.5-37.7,1.4c-12.6,1.9-24.6,6.8-37.1,9.3
					c1,3.4,2,6.9,3,10.3c10.4-2.3,20.6-5.9,31.1-8.1C1427.4,2105.1,1441.5,2105.7,1455.4,2106z"/>
			</g>
		</g>
		<g>
			<path fill="#8BBE24" d="M1539.5,2167.2c-0.8,3.8,2.5,6.2,5.8,6.4c13.7,0.5,27.4,1.3,40.1,6.7c0.2,0.8,0.4,1.7,0.6,2.5
				c1.3,5,7.9,4.1,10,0.5c19.1-32.4,36.2-65.9,50.8-100.5c49.6-117.2,73.3-247.7,49.8-374c-1-5.6-10.3-7-10.7-0.5
				c-1.9,26-7.8,51.6-15.9,76.3c-10.2,31.3-23.2,61.5-36.1,91.8c-12.8,30-24.7,60.3-35.7,91
				C1574.7,2032.7,1553.8,2099.1,1539.5,2167.2z"/>
			<g>
				<path fill="#699F13" d="M1679.6,1749.9c2,0.9,3.9,1.8,5.8,2.6c5.9,2.6,11.9,5.6,18.2,7.7c0.3,3.9,0.6,7.7,0.9,11.6
					c-9.4-2.7-18.4-7.1-27.5-11.2C1677.9,1757,1678.8,1753.5,1679.6,1749.9z"/>
				<path fill="#699F13" d="M1666.2,1795.7c13.2,5.2,26,11.6,39.5,15.7c0,3.7-0.1,7.5-0.1,11.2c-14.8-4.2-28.6-11.4-43-16.9
					C1663.8,1802.4,1665,1799,1666.2,1795.7z"/>
				<path fill="#699F13" d="M1641.2,1859c20.4,6.5,40.1,14.9,60.3,22.2c-0.4,3.6-0.9,7.3-1.4,10.9c-21.1-7.6-41.7-16.5-63.1-23.1
					C1638.4,1865.7,1639.8,1862.4,1641.2,1859z"/>
				<path fill="#699F13" d="M1612,1930.2c1.3-3.4,2.6-6.7,3.9-10.1c16.3,4,32.3,9.3,47.9,15.7c6.7,2.8,12.9,6.2,19.3,9.6
					c2.3,1.2,4.5,2.3,6.8,3.4c-0.8,3.6-1.6,7.2-2.5,10.8c-7.1-3-13.8-7.1-20.6-10.6C1649.9,1940.4,1630.8,1934.4,1612,1930.2z"/>
				<path fill="#699F13" d="M1592.3,1983.7c28,5.9,53.6,19.5,80.8,27.7c-1.1,3.4-2.2,6.8-3.3,10.3c-27.3-8.3-52.9-22-81.1-27.6
					C1589.9,1990.6,1591.1,1987.2,1592.3,1983.7z"/>
				<path fill="#699F13" d="M1572.3,2043.7c1.2-3.9,2.5-7.8,3.7-11.7c16.5-1.6,32,8.5,45.1,18.1c8.7,6.4,17.1,13.3,26.3,19
					c1.3,0.8,2.6,1.6,4,2.3c-1.4,3.4-2.8,6.8-4.2,10.2c-8.9-4.7-17.1-11.3-24.6-16.9C1609.1,2054.4,1590.7,2038.2,1572.3,2043.7z"/>
				<path fill="#699F13" d="M1552.3,2113.1c0.9-3.5,1.8-7,2.8-10.5c12.4,2,24.9,4,36.9,8c12.1,4.1,23,11,34.8,15.7
					c-1.6,3.2-3.2,6.4-4.8,9.6c-9.9-4.1-19.2-9.4-29.2-13.5C1580,2117.2,1566,2115.2,1552.3,2113.1z"/>
			</g>
		</g>
		<g>
			<path fill="#8BBE24" d="M1540.2,1739.5c-1.3-15.4-3.1-30.8-5.3-46.2c-0.5-3.9-6.7-5.4-9.1-2.4c-33.3,41-53.2,91.6-66,142.4
				c-12.8,50.5-17.6,102.1-15.7,154c1.1,30.7,1.3,61.4,4,92.1c2.5,28.5,6,59.6,20.4,84.9c1.1,2,2.9,2.7,4.6,2.6
				c0.8,1.3,2.3,2.3,4.4,2.2c8-0.2,15.9-2,23.9-2.2c2.3,0,4.8-1.6,5.2-4C1532.2,2023.5,1552.5,1881.5,1540.2,1739.5z"/>
			<g>
				<path fill="#699F13" d="M1519.5,2089.2c-23.8-3.2-47.5-6.9-70.9-12.2c-0.2-0.1-0.5-0.1-0.7-0.1c0.1,0.8,0.1,1.6,0.2,2.5
					c0.3,2.9,0.5,5.8,0.8,8.8c22.7,5,45.8,8.6,68.8,11.7C1518.4,2096.3,1519,2092.7,1519.5,2089.2z"/>
				<path fill="#699F13" d="M1524.3,2058.6c0.6-3.7,1.1-7.4,1.6-11.1c-25.6-10.3-53.4-16.6-80.6-20.1c0.1,3.6,0.2,7.3,0.4,10.9
					c14.6,2,29,5.1,43.2,8.8C1501,2050.3,1512.9,2054,1524.3,2058.6z"/>
				<path fill="#699F13" d="M1534.4,1983.3c-29.2-12.6-60.6-18.7-90.4-29.7c-0.1,3.8-0.1,7.6-0.1,11.5
					c29.5,10.6,60.6,16.5,89.3,29.5C1533.5,1990.7,1534,1987,1534.4,1983.3z"/>
				<path fill="#699F13" d="M1537.8,1944.7c0.2,0.1,0.3,0.2,0.5,0.3c0.4-4.2,0.7-8.4,1.1-12.5c-13.9-9.7-29.8-16.5-45.7-22
					c-14.6-5-30.5-9-46.2-9.6c-0.4,3.6-0.8,7.2-1.1,10.9c14.6,0.5,29.1,4.2,42.9,8.7C1506.4,1926.1,1523.4,1933.8,1537.8,1944.7z"/>
				<path fill="#699F13" d="M1543.5,1856.2c-27.1-10.6-56.7-11.2-84.6-18.8c-0.9,3.5-1.7,7-2.5,10.6c28.7,7.6,59.4,7.7,86.8,19.8
					C1543.3,1863.9,1543.4,1860,1543.5,1856.2z"/>
				<path fill="#699F13" d="M1543.8,1812.2c-0.1-3.7-0.1-7.3-0.2-11c-22.9-5.3-44.2-17.2-67.3-20.8c-1.3,3.5-2.6,7-3.8,10.5
					c11.6,1.5,22.9,5.4,34,9.5C1518.8,1804.8,1531,1809.4,1543.8,1812.2z"/>
				<path fill="#699F13" d="M1540.4,1741.7c-0.1-0.7-0.1-1.5-0.2-2.2c-0.1-1.7-0.3-3.4-0.5-5.2c-0.5-0.6-1.2-1.1-2-1.4
					c-10.9-4.5-21.6-9.3-32.7-12.3c-2,3.2-3.8,6.4-5.7,9.7c12.2,2.8,23.8,8.2,35.5,13.1C1537.3,1744.4,1539.3,1743.4,1540.4,1741.7z
					"/>
			</g>
		</g>
		<g>
			<path fill="#8BBE24" d="M1256.7,1777.5c-7.6-13.5-15.6-26.8-23.9-39.9c-2.1-3.3-8.3-2.1-9.2,1.6c-13.4,51.1-10.5,105.4-1.2,156.9
				c9.3,51.2,26.2,100.2,49.4,146.7c13.7,27.5,26.6,55.4,41.7,82.2c14,24.9,30.1,51.7,53.7,68.8c1.9,1.3,3.8,1.3,5.3,0.5
				c1.3,0.9,3,1.1,4.9,0.2c7.2-3.5,13.6-8.4,20.8-11.9c2-1,3.7-3.4,3.1-5.8C1366.9,2039.4,1326.7,1901.7,1256.7,1777.5z"/>
			<g>
				<path fill="#699F13" d="M1382.5,2104.5c-22.9,6.9-46.1,13.3-69.6,18.2c-0.2,0.1-0.5,0.1-0.7,0.2c0.4,0.7,0.8,1.5,1.2,2.2
					c1.4,2.5,2.9,5.1,4.4,7.7c22.8-4.9,45.2-11.1,67.5-17.9C1384.4,2111.4,1383.5,2108,1382.5,2104.5z"/>
				<path fill="#699F13" d="M1374.3,2074.6c-1-3.6-2.1-7.2-3.1-10.8c-27.6,1.2-55.5,6.9-81.7,15.1c1.6,3.3,3.2,6.5,4.9,9.8
					c14.1-4.3,28.5-7.4,43-9.8C1349.6,2076.8,1361.9,2075.2,1374.3,2074.6z"/>
				<path fill="#699F13" d="M1352.2,2001.9c-31.8,0.7-62.9,8.1-94.6,10.3c1.5,3.5,3,7,4.6,10.5c31.2-2.5,62-10.1,93.5-10.1
					C1354.6,2009.1,1353.4,2005.5,1352.2,2001.9z"/>
				<path fill="#699F13" d="M1339.4,1965.4c0.2,0,0.4,0.1,0.6,0.1c-1.4-4-2.8-7.9-4.2-11.9c-16.6-3.1-34-2.7-50.7-1.1
					c-15.4,1.5-31.5,4.4-46,10.3c1.1,3.5,2.3,6.9,3.4,10.4c13.5-5.6,28.2-8.2,42.6-9.8C1303.1,1961.4,1321.8,1961.4,1339.4,1965.4z"
					/>
				<path fill="#699F13" d="M1308,1882.4c-29,1.6-56.3,13.2-84.9,17.9c0.7,3.6,1.4,7.1,2.1,10.6c29.3-5,57.3-17.6,87.2-17.9
					C1311,1889.5,1309.5,1886,1308,1882.4z"/>
				<path fill="#699F13" d="M1290,1842.2c-1.6-3.3-3.1-6.6-4.7-9.9c-23,4.6-47.4,2.6-69.9,8.9c0.3,3.7,0.5,7.4,0.9,11.1
					c11.2-3.5,23.1-4.6,34.8-5.4C1264.2,1845.9,1277.3,1845,1290,1842.2z"/>
				<path fill="#699F13" d="M1257.8,1779.5c-0.4-0.6-0.7-1.3-1.1-1.9c-0.8-1.5-1.7-3-2.6-4.5c-0.7-0.3-1.5-0.5-2.4-0.4
					c-11.8,0.4-23.5,0.4-34.9,2.3c-0.5,3.7-0.8,7.4-1.2,11.2c12.3-2.5,25-2.3,37.7-2.8C1256.1,1783.2,1257.5,1781.5,1257.8,1779.5z"
					/>
			</g>
		</g>
	</g>
	<g>
		<polygon fill="#788490" points="1596.5,2506.5 1362.4,2506.5 1285.8,2203.8 1667.8,2203.8 		"/>
		<rect x="1260.3" y="2164.5" fill="#919DA8" width="427.7" height="39.3"/>
		<polygon fill="#58646D" points="1476.8,2203.8 1285.8,2203.8 1362.4,2506.5 1476.8,2506.5 		"/>
		<rect x="1260.3" y="2164.5" fill="#788490" width="216.5" height="39.3"/>
		<polygon fill="#58646D" points="1596.5,2511 1362.4,2511 1285.8,2470.2 1667.8,2470.2 		"/>
		<polygon fill="#4A575E" points="1476.8,2470.2 1285.8,2470.2 1362.4,2511 1476.8,2511 		"/>
	</g>
</g>
<g>
	<path fill="#87B560" d="M1797.4,702.2c-45,34.6-97.7,58.4-138.2,98.8c-14.3,14.2-26.1,30.7-38.1,46.9l-1.3,1.8
		c4.8-10.8,9.4-21.6,14.1-32.4c6.4-14.8,13.1-29.1,17.3-44.7c10.4-37.9,15.5-77.1,25.1-115.2c4.6-18.2,10-36.4,18.3-53.2
		c2.5-5.1,5.4-10.2,8.8-14.8c6.8-5.8,13.6-11.6,20.3-17.4c5-4.3-1.4-10.9-6.6-8.5c-8.9,4-15.9,10.8-21.7,18.6
		c-36.2,31-72.4,62.1-104.4,97.4c-39.3,43.4-73.4,95-91.4,151.2c-10.8,33.9-15,69.4-20.6,104.5c5.5-53.8,5-108.2,2.7-162.2
		c-0.7-17-1.2-34.1-3-51c-1.7-16.2-4.5-32.2-7.9-48.1c-6.8-32.5-15.8-64.5-22-97.2c-5-26.4-7.8-53.3-5.8-80.2
		c0.3-4.1-4.9-6.8-8.2-4.7c-18.6,12-32.3,30.6-43.8,49.2c-13.4,21.7-24.1,45.3-32.8,69.3c-8.4,23.2-13.7,46.4-15.7,71.1
		c-2.6,32.1-1,64.5,3.3,96.4c1.9,13.9,4.3,27.8,7.3,41.6c2.1,9.6,4.2,19.2,7.8,28.4c2.9,7.6,6.1,15.1,9.3,22.6
		c-8-14.6-16.7-28.9-26.3-42.2c-14.8-20.3-31.6-39-46.4-59.4c-13.1-18-26.9-38.9-28.2-61.7c-0.4-6.3-8.6-7.2-10.7-1.4
		c-17.8,49-23.4,102.5-8.4,153c15,50.3,49.7,91.3,92,121.4c0.5,0.3,0.9,0.7,1.4,1c2.8,1.9,5.5,0.8,6.9-1.4h52c1.2,2.2,3.8,2.6,6,1.7
		c1.7,0.2,3.6-0.2,5-1.7h50.4c2.3,2.6,6.7,3,8.5,0c2.2,2.5,6.6,2.9,8.6,0h41.5c1.6,1.7,4.1,2.7,6.7,1.4c1-0.5,1.9-0.9,2.9-1.4h74.7
		c0.1,0,0.2,0,0.3,0c1.2,1.5,3.1,2.5,5.5,2c51.7-10.8,90.4-56.5,118.4-98.4c16.1-24,30.9-49.3,41.9-76.1
		c4.8-11.8,8.9-24.1,11.6-36.6c2.4-11.2,4.2-22.5,6.9-33.7c2-8,4.4-19.7,11.4-25C1808.3,707.4,1803,698,1797.4,702.2z"/>
	<path fill="#BADD99" d="M1760.5,754.3c-64.6,32.5-117.9,80.3-163.4,135.3c1.4-3.7,2.7-7.4,3.9-11.1c14.3-42.7,21.2-87.5,29-131.7
		c4-23.1,8-46.4,14.8-68.8c1.4-4.7-3.9-8.3-8-6.1c-40.2,21.8-67.2,61-86.9,101.2c-21.2,43.4-35.1,90-48.1,136.4
		c-4.3,15.2-8.5,30.5-12.9,45.7c-0.3,0.9-0.3,1.8-0.1,2.6c-6.4-11.4-15.1-22.4-17.6-35.2c-0.1-0.7-0.4-1.3-0.6-1.8
		c-10.8-57.3-2.4-116.8-9.7-174.6c-2.2-17-6-33.8-8.5-50.8c-2.6-17.7-4.9-35.5-8.4-53c-5.7-28.6-26.2-53.6-24.8-83.8
		c0.3-6,2-11.9,4.4-17.5c2.5-5.9-6.7-9-9.9-4.2c-16.2,24.4-28.5,51.1-36.5,79.3c-7.7,27.4-10.9,55.9-12,84.3
		c-1.2,30.6-0.8,61.5,4.8,91.7c5.4,28.9,15.7,56.6,26.9,83.7c5.5,13.3,11.2,26.6,16.7,39.9c-12.1-14.5-26.2-27.4-40.7-39.3
		c-30.5-24.9-64.3-45.6-94-71.5c-3.8-3.3-10.9-0.2-9.1,5.3c10.2,30.8,19.3,61.9,33.2,91.3c13.3,28.3,32.8,58.5,64,68.8
		c6.7,2.2,9.5-8.3,2.9-10.5c-29.2-9.7-46.5-40.1-58.7-66.3c-10.3-22.2-17.7-45.4-25.2-68.7c25,19.9,51.9,37.4,76.8,57.4
		c29.4,23.6,58.4,51.7,69.8,88.7c2.1,6.7,12.5,3.8,10.5-2.9c-0.7-2.4-1.5-4.7-2.4-7c0.6-1.1,0.7-2.4,0.2-3.9
		c-18.7-55.9-48.4-108-60.1-166.1c-6.1-30.2-5.9-61.6-4.7-92.3c1.1-28.6,4.8-57,12.9-84.5c4.9-16.6,11.5-32.5,19.6-47.7
		c1.3,18.8,9.9,37.2,17.2,54.9c12.9,31.6,13.8,66.8,19.9,100.1c3,16.6,5.7,33,6.8,49.9c1.1,16.5,1.2,33,1.3,49.5
		c0.2,28.7,0.2,57.5,3.8,85.9c-21.2-37.8-29.7-82.9-35.1-125.2c-6.4-50.2-7.4-100.9-7.4-151.4c0-1.3,0-2.6,0-3.8c0-7-10.9-7-10.9,0
		c0,50.2,1,100.5,6.8,150.4c5.7,48.6,15.3,99.8,41.1,142.2c1.6,2.6,3.2,5.1,4.9,7.6c1.1,1.6,2.7,2.3,4.2,2.4
		c1.1,5.3,2.4,10.6,3.9,15.8c0.8,3,3.4,4.1,5.8,3.8c4.3,7.1,8.9,14,12.2,21.4c2.8,6.4,12.2,0.9,9.4-5.5c-0.7-1.5-1.4-3-2.2-4.5
		c2.6,2.6,7.9,2.5,9.3-2.1c12.9-44.2,24.2-88.9,40-132.2c16-43.7,36.8-88.1,70.7-120.9c6.4-6.2,13.3-11.7,20.6-16.6
		c-9,34.6-13.4,70.6-20,105.6c-8,42.6-17.4,87-38.8,125.1c-10,17.8-23.3,33.8-41.4,43.7c-6.1,3.4-0.7,12.7,5.5,9.4
		c13-7.2,23.8-17,32.7-28.5c0.7-0.4,1.3-0.9,1.8-1.7c49-68.5,107.6-130,181.6-170.9c-16.4,36.7-33.7,73.1-55.6,107
		c-24.1,37.2-56.1,74.5-99.6,88.5c-6.6,2.1-3.8,12.6,2.9,10.5c44.6-14.4,77.4-50.7,102.8-88.5c26.6-39.6,46.3-83.3,65.4-126.8
		C1770.1,756.8,1765.6,751.7,1760.5,754.3z"/>
	<path fill="#BADD99" d="M1608.7,738.9c-15,20.5-29.5,41.4-42,63.6c-9.6,17-17.1,35.1-25.4,52.7c-7.1,15.1-14.1,30.2-19.8,45.8
		c-3.6,10-10.2,26.3-4,36.5c3.6,6,13,0.5,9.4-5.5c-1.4-2.3-0.7-7.2,0-10.9c1.4-7.1,3.9-14.1,6.4-20.8c5.4-14.6,12.1-28.6,18.7-42.7
		c8.1-17.3,15.6-34.8,25-51.5c12.2-21.6,26.4-41.9,41.1-61.9C1622.2,738.7,1612.8,733.3,1608.7,738.9z"/>
	<path fill="#BADD99" d="M1724.6,792.1c-50.3,54.6-99.5,110.3-152,162.8c-5,5,2.7,12.6,7.7,7.7c52.5-52.5,101.7-108.2,152-162.8
		C1737,794.6,1729.4,786.9,1724.6,792.1z"/>
	<path fill="#BADD99" d="M1393.6,941.8c-28.6-35-64.9-63.2-90.3-100.9c-3.9-5.8-13.3-0.3-9.4,5.5c25.9,38.5,62.8,67.4,92,103.1
		C1390.4,954.9,1398,947.2,1393.6,941.8z"/>
	<g>
		<polygon fill="#F8C401" points="1594.1,1319.3 1360.1,1319.3 1283.5,1016.6 1665.4,1016.6 		"/>
		<rect x="1258" y="977.3" fill="#FFD95F" width="427.7" height="39.3"/>
		<polygon fill="#E5AF05" points="1474.5,1016.6 1283.5,1016.6 1360.1,1319.3 1474.5,1319.3 		"/>
		<rect x="1258" y="977.3" fill="#F8C401" width="216.5" height="39.3"/>
		<polygon fill="#E5AF05" points="1594.1,1323.8 1360.1,1323.8 1283.5,1282.9 1665.4,1282.9 		"/>
		<polygon fill="#C9970A" points="1474.5,1282.9 1283.5,1282.9 1360.1,1323.8 1474.5,1323.8 		"/>
	</g>
</g>
<g>
	<polygon fill="#D99592" points="587.3,2255.4 353.3,2255.4 276.7,1952.7 658.6,1952.7 	"/>
	<rect x="251.1" y="1913.4" fill="#EDABAB" width="427.7" height="39.3"/>
	<polygon fill="#B57474" points="467.6,1952.7 276.7,1952.7 353.3,2255.4 467.6,2255.4 	"/>
	<rect x="251.1" y="1913.4" fill="#D99592" width="216.5" height="39.3"/>
	<polygon fill="#B57474" points="587.3,2259.9 353.3,2259.9 276.7,2219.1 658.6,2219.1 	"/>
	<polygon fill="#9E6363" points="467.6,2219.1 276.7,2219.1 353.3,2259.9 467.6,2259.9 	"/>
</g>
<g>
	<g>
		<polygon fill="#D34F2E" points="2463.1,1111.9 2229,1111.9 2152.4,809.2 2534.3,809.2 		"/>
		<rect x="2126.9" y="769.9" fill="#EA6147" width="427.7" height="39.3"/>
		<polygon fill="#C63D22" points="2343.4,809.2 2152.4,809.2 2229,1111.9 2343.4,1111.9 		"/>
		<rect x="2126.9" y="769.9" fill="#D34F2E" width="216.5" height="39.3"/>
		<polygon fill="#C63D22" points="2463.1,1116.4 2229,1116.4 2152.4,1075.6 2534.3,1075.6 		"/>
		<polygon fill="#B52C1A" points="2343.4,1075.6 2152.4,1075.6 2229,1116.4 2343.4,1116.4 		"/>
	</g>
	<g>
		<path fill="#699F13" d="M2562.8,231.8c0-1.8,0.1-3.7,0.1-5.5c0.1-4.6-6-7.3-9.3-3.8c-18,19.5-35,40.1-50.2,61.9
			c-7.9,11.4-15.3,23.2-21.8,35.4c-4.3,8.1-8.7,16.5-10.9,25.5c-4.1,16.7-4.4,34.4-5,51.5c-0.3,8-0.4,16.1-0.8,24.2
			c-0.1,2.8-0.3,5.6-0.6,8.4c-0.1,0.6-0.1,0.5-0.3,1.7c-0.1,0.4-0.1,0.7-0.2,0.8c-1.4,2.5-0.5,5.3,1.2,7
			c-31.6,50.3-58.4,102.9-80,158.2c-21.5,55-47.7,109.4-45.9,169.8c0,1.3,0.5,2.4,1.2,3.3h8.8c0.6-0.8,1-1.9,1-3.3
			c-1.7-58.7,23.8-111.9,44.8-165.2c20.3-51.3,44.6-100.1,73.2-147c0.9,2.3,3.1,3.9,6.1,2.7c22.9-9.1,44.5-21.6,60.6-40.5
			c13.2-15.5,21.3-34.3,25.4-54.1C2569.2,319.8,2562.4,275.1,2562.8,231.8z"/>
		<path fill="#5E870F" d="M2555.8,313.6c-8,8-16.5,17.6-26.3,24.5c3.2-10.3,5.7-20.8,8.3-31.3c7.2-7.4,17.8-11.8,25.7-18
			c5.5-4.3-2.2-11.9-7.7-7.7c-4.5,3.5-9.3,6.3-14,9.4c3.4-13.6,7.3-27.3,13.9-39.7c3.3-6.2-6.1-11.7-9.4-5.5
			c-9.4,17.8-14.4,37.5-19,57.2c-0.9,1.1-1.8,2.3-2.7,3.6c-1.4,2.3-1,4.5,0.4,6c-2.1,9-4.4,17.9-7.1,26.6
			c0.8-16.1,2.6-32.1,5.8-47.9c1.3-6.8-9.1-9.8-10.5-2.9c-4.6,23.4-6.6,47.1-6.7,70.9c0,1.9,0.8,3.3,2,4.2
			c-5.8,12.3-12.6,24-19.7,35.6c-0.5-21.6-1-43.6,4.5-64.4c1.8-6.8-8.7-9.7-10.5-2.9c-7.2,27.3-4.7,56.5-4.5,84.5
			c-5.8,9.6-11.5,19.2-16.6,29.3c-3.1,6.2,6.2,11.7,9.4,5.5c4.8-9.5,10.2-18.6,15.8-27.6c16.1,1.3,30.9-6.3,46.8-6.6
			c7-0.1,7-11,0-10.9c-13.7,0.2-26.6,5.9-40.1,6.6c2.2-3.6,4.5-7.2,6.7-10.8c1-1.7,2-3.3,3-5c0.6-0.3,1.2-0.6,1.7-1.2
			c11-10.8,23.8-19.6,34.7-30.4c5-4.9-2.7-12.6-7.7-7.7c-4.7,4.7-9.8,8.9-14.9,13.1c2.6-5.5,4.9-11,7.1-16.7
			c15.3-7,27.6-20.5,39.3-32.2C2568.4,316.3,2560.8,308.7,2555.8,313.6z"/>
		<path fill="#699F13" d="M2349.1,682.2c-6.4-20.7-15.6-41.7-27.9-59.7c-28.3-41.2-67.3-73.7-96.1-114.5c0.6-0.2,1.3-0.6,1.8-1.2
			c16.1-15.1,19.5-39.9,20.1-60.8c0.3-11.2-0.6-22.5-2.2-33.6c-1.9-12.8-6.3-24.9-11-36.8c-10.9-27.6-25.6-53.5-43.9-76.9
			c-11.9-15.2-31.2-37.6-52.9-33.5c-0.3,0.1-0.7,0.2-1,0.3c-3.1,0.8-4.3,3.8-3.8,6.7c8.6,51.6-5.1,104,5.5,155.5
			c7.4,36,32.6,79.1,73.9,79.7c27.7,41.7,66.4,74.4,96,114.6c12.7,17.2,22,36.7,29,56.8c6.8,19.5,12.8,42.1,8.3,62.7
			c-1.5,6.8,9,9.7,10.5,2.9C2359.8,723.7,2355.3,702,2349.1,682.2z"/>
		<path fill="#5E870F" d="M2228.8,441.9c-3.1,12.5-8.8,24.1-12.7,36.3c-2-10.4-4.3-20.6-6.9-30.8c3.1,0.6,6.5-1.1,6.3-5.1
			c-0.5-12.1,10.5-21.6,12.8-33.3c1.4-6.8-9.1-9.7-10.5-2.9c-2,10.3-9.5,18.2-12.2,28c-2.6-9.4-5.3-18.7-8.3-27.9
			c0.4-0.3,0.8-0.8,1.1-1.3c6.7-10.4,10.3-22.1,13.6-33.9c1.9-6.8-8.6-9.6-10.5-2.9c-2.3,8.4-4.8,16.7-8.6,24.4
			c-3-9.1-6.1-18.1-9.3-27.1c0.5-0.5,0.9-1.2,1.2-2c3.5-9.9,10.6-17.8,13-28.2c1.6-6.8-8.9-9.7-10.5-2.9c-1.6,6.9-5.4,12.9-8.8,19.1
			c-2.3-6.3-4.5-12.6-6.8-18.8c2.5-9.1,3.6-18.5,5.4-27.8c1.3-6.8-9.1-9.8-10.5-2.9c-0.7,3.8-1.4,7.5-2,11.3
			c-4.2-11.7-8.5-23.4-12.5-35.2c-2.3-6.6-12.8-3.8-10.5,2.9c4.9,14.3,10.1,28.6,15.3,42.9c-2.1-1.9-4.2-3.9-6.2-5.9
			c-5-4.9-12.7,2.7-7.7,7.7c5.6,5.6,11.7,10.7,17.4,16.3c1.1,1.1,2.4,1.6,3.7,1.6c2.1,5.7,4.1,11.3,6.1,17
			c-5.3-3.3-10.8-6.4-15.1-11c-4.8-5.1-12.4,2.6-7.7,7.7c7.8,8.4,20.7,11.3,27.4,20.6c0.6,0.8,1.3,1.4,2.1,1.8
			c2.8,8.3,5.6,16.5,8.3,24.9c-3.3-3-7.1-5.3-11.1-7.4c-5.3-2.8-10.9-5.2-13.9-10.6c-3.4-6.1-12.8-0.7-9.4,5.5
			c6.5,11.8,20.9,13,29.1,22.8c2.7,3.2,6.4,1.8,8.1-1c2.5,8,4.9,16.1,7.1,24.2c-11.1-6.7-21.1-15.2-30.3-24.3
			c-5-4.9-12.7,2.7-7.7,7.7c10.7,10.6,22.6,20.6,35.8,28c1.9,1.1,3.7,0.9,5.2,0c2.3,8.9,4.4,17.9,6.2,26.9
			c-10.1-11-22.8-19.5-31.1-32.2c-3.8-5.9-13.2-0.4-9.4,5.5c11.5,17.7,31.8,27.5,41.2,46.7c0.8,1.6,2,2.4,3.2,2.7
			c0.2,1.2,0.4,2.4,0.6,3.6c0.9,6.2,9.5,4.4,10.5-1c1.8-0.7,3.3-2.3,3.5-4.8c1.4-18.2,11.8-34.3,16.1-51.7
			C2240.9,438,2230.5,435.1,2228.8,441.9z"/>
		<path fill="#8BBE24" d="M2611,584.1c-6.7-40.2-20.7-83-52.1-110.7c3.7-3.4,0.7-11-5.1-9.3c-19.7,5.7-37.7,15.2-51.9,30.2
			c-2.3,2.4-4.4,5-6.5,7.6c-0.3-3-2.9-6-6.8-5.2c-19.2,3.9-34.3,19-46.1,33.7c-14.9,18.5-26.5,39.5-37,60.7
			c-9.3,18.7-17.4,38.1-25.9,57.2c-0.2,0.3-0.4,0.6-0.6,0.9c-6.8,10.4-10.4,23.4-14,35.1c-0.8,2.7-1.7,5.4-2.5,8.1
			c-1-30.4-4.8-60.9-4.9-90.9c0-0.2,0-0.4,0-0.6c20-15.8,37.1-34.9,46-59.2c7.6-20.9,6.9-43.7,2-65.1c-10.8-47-39.7-88-61.9-130.1
			c-7.3-13.8-14-27.9-18.9-42.8c-1.6-4.9-9.2-5.5-10.5,0c-11.8,50.7-47,92.6-57,143.9c-4.9,25.5-1.1,50.4,9.4,74
			c3.4,7.7,8.9,14.5,14.2,21c6.3,7.9,13.2,15.4,20.1,22.8c4.1,4.4,8.2,8.8,12.3,13.2c1.3,1.5,2.7,2.9,4,4.4c0.1,0.1,0.5,0.6,0.7,0.9
			c0,0,0.1,0.1,0.1,0.1c0,0,0,0,0-0.1c0.1,0.1,0.1,0.1,0-0.1c-0.1-0.2-0.2-0.6-0.3-1c0.5,1.7,1.6,3.2,3.3,4
			c6.3,8.4,13.3,16,21.9,22.6c1.4,1.1,2.8,1.3,4,0.9c1,39.4,7.5,80,4.2,119.4c-2.7,9.8-4.8,19.8-6.2,29.8c-0.8,3.5-1.6,7-2.4,10.5
			h12.3c3-10.4,5-20.8,6.2-31.4c4.4-17.7,9.2-35.3,15.2-52.6c0.4-1.2,0.9-2.5,1.3-3.7c-0.4,30.1,9.8,61.2,21.4,87.8
			c18.5,42.3,45.7,82.5,78.8,114.7c7.1,6.9,14.6,13.2,22.6,18.9c3,2.1,7-0.2,8-3.2c8.6-26.8,12.8-54.9,10.2-83
			c-2.4-25.6-10.5-50.1-22.2-72.8c-12.5-24.2-29.2-46.1-47.1-66.6c-9.2-10.6-18.8-21.1-29.6-30.1c-6.4-5.3-13.9-10.5-22.5-10.9
			c-0.4,0-0.7,0-1.1,0c3.1-7,6.3-14,9.5-21c9.8-21.5,20.5-42.7,33.4-62.4c11.1-16.9,24.7-34.9,43.4-43.8c2.9-1.4,6.1-2.3,9.2-2.9
			c-6.8,9.7-12.5,20.2-17.8,30.7c-1.8,0.2-3.5,1.4-4,3.8c-3.8,16.8-2.3,33.4,7,48.1c8.9,14.2,23.2,24.5,36.8,34
			c0.9,0.6,1.8,0.9,2.7,1c4.7,4.2,9.4,8.2,13.9,12c15.6,13.1,31.9,25.4,46.8,39.4c12.4,11.7,24.7,25.3,29.6,42
			c1.8,5.9,10.5,4.7,10.7-1.4C2618.4,672.6,2618.3,628,2611,584.1z"/>
		<path fill="#699F13" d="M2382.1,509c-10.7,9.3-20,20.1-29,31c-0.6-10.2-1.5-20.3-2.7-30.4c9.5-10.7,19.4-21,28.6-32
			c4.5-5.3-3.2-13-7.7-7.7c-7.4,8.8-15.2,17.1-22.9,25.6c-1.2-7.8-2.7-15.5-4.5-23.3c-0.9-3.9-1.8-7.9-2.8-11.9
			c0-0.1,0.1-0.3,0.1-0.4c4.7-15.3,16.7-27,25.5-40c3.9-5.8-5.5-11.2-9.4-5.5c-6.6,9.7-14.5,18.6-20.4,28.7c-2-8.3-3.8-16.6-5.4-25
			c2.3,0.2,4.6-0.9,5.3-3.9c2.3-10.4,8.6-18.4,16-25.8c4.9-5-2.8-12.7-7.7-7.7c-6.5,6.6-12.4,13.8-16,22.2
			c-2.2-17.2-2.5-34.5,1.2-51.6c1.5-6.8-9-9.7-10.5-2.9c-3.8,17.8-3.7,35.7-1.6,53.6c-6.3-8-13.3-15.5-19.7-23.4
			c-4.4-5.4-12,2.3-7.7,7.7c8.4,10.4,18.1,20,25.2,31.5c1.2,2,3.1,2.7,4.9,2.5c1.7,9.3,3.7,18.5,5.9,27.6
			c-12.9-10.4-25.5-21.3-40.3-28.9c-6.2-3.2-11.7,6.2-5.5,9.4c17.6,9,32.1,22.9,47.8,34.7c0.6,0.5,1.3,0.8,1.9,0.9
			c0.4,1.8,0.9,3.6,1.3,5.5c2.6,11,4.6,21.9,6.2,32.9c-16.9-12.6-37-20.6-53.9-33.5c-5.6-4.3-11,5.2-5.5,9.4
			c17.7,13.5,39.2,21.4,56.3,35.5c0.6,2.4,2.7,4.4,5,4.5c1.2,11.3,1.9,22.6,2.4,33.9c-0.6,0.7-1.3,1.5-1.9,2.2
			c-0.3,0.4-0.6,0.8-0.8,1.1c-13.1-9.1-26.6-17.9-40.4-25.9c-6.1-3.5-11.5,5.9-5.5,9.4c16.9,9.7,33.2,20.7,49.2,32
			c0.2,9.4,0.3,18.9,0.3,28.4c0,7,10.9,7,10.9,0c0-14.6-0.1-29.2-0.6-43.7c11.4-13.7,22.5-27.6,36-39.3
			C2395.1,512.1,2387.4,504.4,2382.1,509z"/>
		<path fill="#699F13" d="M2505.9,838.1c-6.6-5-13.6-10.1-18.1-17c-4-11.3-8.3-22.4-13-33.5c5.5,4.2,10.9,8.6,15.9,13.5
			c5,4.9,12.7-2.8,7.7-7.7c-9.7-9.5-20.7-17.4-32-25c-4.9-10.8-10.2-21.4-15.6-32c5.7,3.8,11.6,7.3,17.2,11.2
			c5.7,4,11.2-5.4,5.5-9.4c-7-4.9-14.3-9.2-21.4-14.1c-5.5-3.8-11.6-8.4-13-15.3c-0.6-3.1-3.1-4.2-5.5-3.8
			c-4.3-7.3-8.6-14.6-13.1-21.8c9.3,5.3,18.2,11.1,29.3,12.8c6.8,1,9.8-9.5,2.9-10.5c-16.3-2.4-28.2-14.1-43.2-19.5
			c-1.9-2.8-3.7-5.6-5.6-8.4c-3.9-5.8-13.3-0.3-9.4,5.5c1.6,2.3,3.1,4.7,4.7,7c-0.7,0.8-1.1,1.9-1.1,3.3v58.6c0,7,10.9,7,10.9,0
			v-46.8c5.2,8.3,10.3,16.6,15.2,25.1c-1.3,0.9-2.2,2.3-2.2,4.3c-0.1,20.4-2.1,40.6-4.3,60.8c-0.8,7,10.1,6.9,10.9,0
			c1.9-16.7,3.5-33.4,4.1-50.2c7.4,13.4,14.3,27,20.9,40.8c-0.9,1.5-1.2,3.5-0.5,5.2c-3.1-2.8-9.9,0.2-9.1,5.7
			c1.9,14.1,1.9,28.6,0,42.7c-0.9,6.8,9.5,9.8,10.5,2.9c2.2-16.2,2.2-32.2,0-48.5c-0.1-0.5-0.2-0.9-0.3-1.2c0.3,0.3,0.6,0.6,1,0.9
			c0.9,0.6,1.9,1.3,2.8,1.9c5.7,12.5,11,25.2,15.8,38c-3.2,0-6.7,2.7-5.9,6.8c2.1,11.2,1.8,22.8,0,34c-1.1,6.8,9.4,9.8,10.5,2.9
			c1.4-8.9,2-17.8,1.6-26.6c6.4,18.7,11.9,37.7,16.2,57c1.5,6.8,12,3.9,10.5-2.9c-3.1-13.9-6.8-27.6-11-41.2
			c1.7,1.3,3.5,2.6,5.2,3.9C2506.1,851.7,2511.5,842.3,2505.9,838.1z"/>
		<path fill="#699F13" d="M2614,639.6c-8.1-4.3-14.3-10.9-21.2-16.9c-4.4-11.4-9.5-22.6-15.1-33.5c6.8,0.9,13.5,2.4,19.4,6
			c6,3.7,11.4-5.7,5.5-9.4c-9.4-5.9-20.2-6.9-31-8.1c-6.6-11.9-13.9-23.3-22-34.2c12.4,0.3,24.8,2.9,36.1,7.8
			c6.4,2.7,11.9-6.6,5.5-9.4c-15.7-6.8-33-10.1-50-9.1c-1.3-1.5-2.5-3.1-3.8-4.5c-2.3-2.7-4.8-5.4-7.3-8c5.7-0.6,11.3-1.6,17-2.4
			c9.2-1.3,19.5-3,28.6-0.3c6.7,2,9.6-8.4,2.9-10.5c-19-5.8-39.8,2.6-59.1,3c-7.7-6.5-16.2-12.1-25.5-16.1
			c-6.4-2.7-9.2,7.8-2.9,10.5c5,2.1,9.7,4.8,14.1,8c0,0.8,0.1,1.7,0.5,2.5c3.4,7.5,1.1,17.7-0.1,25.4c-1.5,9.5-3.8,19.1-3.9,28.8
			c-0.1,7,10.8,7,10.9,0c0.2-14.6,6.4-30.7,5.7-45.7c4.4,4.2,8.5,8.8,12.4,13.2c0.5,0.6,1,1.2,1.5,1.8c-1.6,0.8-2.8,2.3-2.8,4.6
			c0,16.5-0.1,33-4.7,49c-1.9,6.7,8.5,9.6,10.5,2.9c4.4-15.1,5-30.8,5.1-46.4c7.4,9.9,14.1,20.4,20.2,31.1c-0.7,0.6-1.3,1.5-1.6,2.7
			c-3.9,15-0.4,30.9-6.5,45.6c-2.7,6.5,7.8,9.2,10.5,2.9c5-12.1,3.6-24.9,5-37.5c5,9.7,9.6,19.7,13.6,29.9c-0.3,0.8-0.4,1.7-0.2,2.5
			c-1.7,1.5-2.4,3.9-0.8,6.3c4.5,6.8,0.6,17.7-0.5,25.1c-1,6.8,9.4,9.8,10.5,2.9c0.3-2.2,0.8-4.5,1.2-6.8c4.6,16.5,7.8,33.8,6,51
			c-0.7,7,10.2,6.9,10.9,0c1.9-18.4-1.9-37.4-6.8-55.1c-0.6-2-1.2-4.1-1.8-6.1c2.7,2.1,5.5,4,8.6,5.6
			C2614.7,652.2,2620.2,642.9,2614,639.6z"/>
		<path fill="#8BBE24" d="M2334,760.5c0.6,2,1,4.1,1.1,5.5c0,0.3,0,1.4,0,1.7c-0.7,0.8-1.1,1.6-1.2,2.4h16.6
			c0.3-0.6,0.6-1.3,0.7-2.2c2.9-25,0.2-53.1-8.3-76.8c-3.4-9.4-7.9-21.1-15.4-28.7c-0.9-2.3-1.9-4.7-3.1-6.9c-2.4-4.6-8.2-2.8-9.7,1
			c-6.2,0.4-12.2,4.6-17.4,8.5c-9-14.9-18.4-29.7-28.6-43.6c-9.5-13-20.7-28.5-35.7-35.7c-5.9-2.8-12.1-3.5-18-0.7
			c-6,2.9-9.4,9.7-11.5,15.9c-1.5,1-2.7,2.5-3.7,4.2c-6.5-4.9-13.6-9-21.3-12c-1.4-2.3-4.1-3.5-7-1.6
			c-28.9,20.1-50.8,45.7-62.4,79.3c-15.1,43.6-3.4,90.5-14.9,134.6c-1.1,4.3,3.9,9.1,8,6.1c13.4-9.7,29.8-13.9,44-22.2
			c13.7-8.1,26.3-18.3,38.1-28.9c23.2-20.6,45.1-48.1,51.5-79.1c1.6-0.7,2.8-2.3,2.6-4.7c-1.8-24.1-12.8-47.5-30.1-64.2
			c0.4-0.8,0.9-1.6,1.4-2.3c1.7-0.6,3-1.9,3.5-3.7c1-3.2,2.1-6.2,4-9c1.3-1.9,2.7-2.8,4.1-3.3c1.5-0.5,2.6-0.3,4.8,0.3
			c2.5,0.7,4.8,2.2,7.2,3.8c12.7,8.7,22.4,22.9,31.2,35.3c8.6,12.3,16.8,25.2,24.6,38.2c-36.8,32.4-52.6,83.8-57.1,131.3
			c-1.9,20.2-3,42,2.4,61.6c1,3.6,4.9,4.8,8,3.2c35.4-17.1,54.4-54.3,68.3-89.1c5.4-13.5,10.4-27.3,14.5-41.3
			c0.9,1.9,1.8,3.9,2.7,5.9C2330.1,749.1,2332.4,754.7,2334,760.5z M2329.6,719.6c1.8-8.4,3-17.1,3.2-25.7
			c6.2,17.1,8.1,36.1,8.4,53.9c-1.2-3-2.5-5.9-3.7-8.7c-2.6-5.9-5.4-11.8-8.3-17.6C2329.3,720.9,2329.5,720.2,2329.6,719.6z"/>
		<path fill="#699F13" d="M2208.3,612.2c3.8-5.9-5.6-11.3-9.4-5.5c-1.7,2.5-3.4,5-5.2,7.4c-0.8,0.2-1.5,0.5-2.1,1
			c-1.2-1-2.8-1.5-4.6-1.1c-10,2.1-19.7,6.1-30,6.3c-7,0.2-7,11,0,10.9c9.8-0.2,18.9-3.3,28.3-5.6c-5.6,7.3-11,14.7-15.4,22.9
			c-0.4,0.8-0.8,1.6-1.2,2.4c0.8-4.1-3.4-8.8-7.9-5.9c-9.5,6.2-20.6,12-32,13.4c-6.9,0.8-6.9,11.7,0,10.9c10.3-1.2,20.3-5,29.4-10
			c1.1,2.6,2.2,5.2,3.2,7.9c-1,2.4-2,4.8-3,7.2c-2,4.6-3.9,9.3-5.8,14c0.2-3.8-3.8-7.8-8.1-5.3c-12.4,7.2-27.9,10.4-36.7,22.6
			c-4.1,5.7,5.3,11.1,9.4,5.5c3.6-5,9.8-7.7,15.2-10.2c4.2-2,8.5-3.8,12.7-5.8c-0.1,3.7,0.4,7.3,1.1,10.8c-0.6,1.7-1.3,3.4-2,5
			c-0.7,0.3-1.3,0.7-1.9,1.2c-11.3,11.2-24.5,20.3-35.8,31.5c-5,4.9,2.7,12.6,7.7,7.7c5.5-5.4,11.4-10.4,17.4-15.3
			c-11.2,19.9-23.4,39.3-27.5,62.1c-1.3,6.8,9.2,9.8,10.5,2.9c3.3-18.1,11.7-34.3,20.6-50.4c1.1,6.9,2.2,13.7,2.3,20.7
			c0.1,7,11,7,10.9,0c-0.2-12.4-3.7-24.3-4.3-36.6c2.3-4.1,4.5-8.3,6.6-12.5c1,4,1.9,8,2,12.2c0.2,7,11,7,10.9,0
			c-0.2-9.4-4-18.2-6.1-27.2c3.2-8.1,5.8-16.3,9.1-24.4c1.6,6,2.9,12.1,3.8,18.2c1,6.9,11.4,4,10.5-2.9c-1.5-10.5-4.2-20.8-7.7-30.7
			c1.7-4,3.5-7.9,5.4-11.8c3.5-7.2,7.9-13.7,12.7-20.1c2.5,11.9,6.9,23.6,7.1,35.9c0.1,7,11,7,10.9,0c-0.3-16.4-8.1-31.8-8.7-48
			C2203.1,619.6,2205.8,616,2208.3,612.2z"/>
		<path fill="#699F13" d="M2313.7,670.7c-6.4,8.1-12,16.6-17.1,25.5c-1.4-0.1-2.8,0.4-3.9,1.4c-1.6-0.5-3.4-0.2-5,1.4
			c-6.2,6-13.6,10.5-20.6,15.4c-5.7,4-0.3,13.4,5.5,9.4c5.1-3.6,10.3-6.9,15.2-10.7c-3.2,6.7-6.1,13.5-8.8,20.4
			c-0.3,0.1-0.7,0.3-1,0.5c-9.3,5.6-21.3,8.2-28.2,17.1c-4.3,5.4,3.4,13.2,7.7,7.7c4-5.1,10.1-8,16.2-10.6c-2,5.7-3.8,11.5-5.6,17.4
			c-1-0.1-2,0.3-3.1,1.1c-9.6,7.2-19.2,14.6-25.8,24.7c-3.8,5.9,5.6,11.3,9.4,5.5c4-6.1,9.4-11,15.1-15.6
			c-1.7,6.1-3.2,12.3-4.8,18.4c-8.6,6.1-17.1,12-22.9,21c-3.8,5.9,5.6,11.3,9.4,5.5c2.6-4,6-7.3,9.7-10.2c-1.5,6.4-3,12.8-4.4,19.1
			c-1.6,6.8,8.9,9.7,10.5,2.9c1-4.4,2-8.8,3.1-13.1c0.2,1.1,0.4,2.2,0.6,3.4c0.4,2.9,4.1,4.5,6.7,3.8c3.1-0.9,4.2-3.8,3.8-6.7
			c-1-6.4-2.9-12.6-6.9-17.6c1.5-6,3.1-12.1,4.7-18.1c1.1,2.4,2.1,4.9,3.2,7.3c1.2,2.7,5.1,3.3,7.4,1.9c2.8-1.6,3.1-4.7,1.9-7.4
			c-2.6-6-5.2-12-8-17.9c1.6-5.3,3.2-10.6,5-15.9c0.7,3.1,1.2,6.3,1.6,9.4c0.8,6.9,11.7,6.9,10.9,0c-1.1-9.4-3.2-18.5-6-27.6
			c2.7-7.2,5.7-14.3,8.9-21.3c1.8,4,3.5,8.1,4.9,12.3c2.3,6.6,12.7,3.8,10.5-2.9c-2.6-7.5-5.8-14.7-9.2-21.8
			c5.1-9.5,10.9-18.7,17.6-27.2C2325.7,673,2318.1,665.2,2313.7,670.7z"/>
	</g>
</g>
<g>
	<path fill="#325B15" d="M449.5,1513.5c-17,20-32.7,41.1-44.4,64.7c-11,22.3-17.4,46.2-20.1,70.8c-7,64.7,15.6,125.7,30,187.8
		c1,4.4,2,8.9,2.9,13.4c-5-12.4-10.1-24.7-15.2-37c-13.4-32.2-27.3-64.3-41.5-96.2c-14.2-31.9-29.8-63.4-43.2-95.7
		c-12.8-30.9-23.6-62.7-36.9-93.5c-12.3-28.4-28.4-60.1-22.8-92c1.2-6.8-8.2-9.6-10.5-2.9c-10.1,29.7-15.2,60.8-14.2,92.2
		c0.9,29.1,7.3,57.7,16.6,85.2c9.7,28.5,22.7,55.8,36.5,82.6c14.4,28,29,56.1,46.3,82.4c9.4,14.4,20.1,27.6,31.6,40.1
		c-7.1-4.3-14.3-8.2-21.8-11.8c-10.9-5.2-22.5-10.4-34.3-13.1c-36.8-8.4-84,7.5-103.6,40.9c-8.1,13.8-9.5,30.1-5.9,45.6
		c0.9,4,6.3,5.2,9.1,2.4c33.7-33.3,80.5-41.6,126.2-36.3c16.3,1.9,33.2,9.1,48,16c8.3,3.8,16.3,8.2,23.8,13.5c2.6,1.9,5.4,4,7.9,6.6
		c-0.6,3.4,1.8,5.8,4.4,6.5c0.2,0.4,0.3,0.8,0.5,1.2c1.3,3.8,5.3,4.5,8,3.1c1-0.4,1.8-1.1,2.3-2c0.4-0.4,0.8-0.8,1-1.3
		c2-1,3.2-3.2,2.3-5.9c-0.5-1.6-1.1-3.2-1.8-4.7c1.3-1.2,2.1-2.9,1.8-5c-0.9-6.5-2-12.9-3.3-19.3c7.1-51.2,8.2-102.6,5.5-154.4
		c-2.6-50.3-7.5-104.7,10.4-152.8c3.2-8.6,7.6-16.8,12.9-24.2C461.6,1515.1,453.5,1508.9,449.5,1513.5z"/>
	<path fill="#325B15" d="M892.4,1604.7c-15.7-0.2-30.7-5.5-46.4-5.4c-16.5,0.1-32.9,2-49.2,4.6c-31.7,5-61.8,14.1-90.7,28.1
		c-49.2,23.8-93.8,58.9-131.9,98.5c9.4-17.9,17.9-36.4,25.9-55c6.1-14.4,11.9-28.9,17.6-43.4c6.2-15.9,14-31.1,21.8-46.3
		c7.7-15.1,15.5-30.2,21.5-46.1c6-15.8,10.3-32.2,16-48c7.9-21.8,18.5-42.9,30.4-62.8c11.8-19.7,25.5-39.1,43.3-53.8
		c4.9-4-1.4-11.4-6.6-8.5c-47,26.3-85.5,64.5-115.2,109.2c-29.8,44.8-50.4,95.3-66.2,146.6c-1.3,4.2-2.5,8.5-3.7,12.7
		c-0.1-12.3-1.3-24.5-4.1-36.5c-3-12.6-7.3-24.8-9-37.6c-0.8-6-8.8-4.3-10.5,0c-18.6,46.7-15.6,96.9-19,146.1
		c-2.8,41-14.1,80.6-20.7,121c-0.5,1.1-0.6,2.1-0.5,3c-0.6,4.1-1.2,8.2-1.8,12.3c-0.1,0.3-0.2,0.6-0.4,0.9c-0.5,1.3-0.5,2.5-0.2,3.4
		c-0.2,1.8-0.4,3.7-0.6,5.5c-0.6,1.2-0.6,2.4-0.3,3.5c-0.1,0.7-0.1,1.4-0.2,2.1c-0.6,7,10.3,6.9,10.9,0c0.1-0.7,0.1-1.4,0.2-2.2
		c0,0,0-0.1,0.1-0.1c-0.1,2.2-0.2,4.4-0.3,6.6c-0.2,7,10.7,7,10.9,0c0.2-8.1,0.8-16.2,1.9-24.3c4.4-5.4,9-10.6,13.5-15.7
		c9.9-11.4,19.8-22.7,30.4-33.3c21.3-21.2,44.9-40.1,69.9-56.9c25.1-16.9,51.5-31.7,78.6-45c30.5-15.1,61.6-30.4,93.9-41.4
		c15.2-5.1,29.5-12.5,44.3-18.7c14.5-6.1,30.4-12.6,46.4-12.2C899.4,1615.7,899.4,1604.9,892.4,1604.7z"/>
	<path fill="#526B22" d="M767,1909.5c-24.7-31.3-66.2-46.9-104-55.1c-39.9-8.6-84.6-11-123.5,3.1c-21.2,7.7-40,21.4-50.4,41.8
		c-0.4,0.9-0.6,1.7-0.6,2.5c-1.9,0.5-3.8,0.9-5.7,1.4c8.3-25.1,15.1-50.6,23-75.7c8.6-27.7,19-54.6,31.6-80.7
		c26-53.8,61.2-103,82.1-159.2c2.1-5.6-5.3-8.5-9.1-5.3c-38.7,32.9-74.1,70.1-99.8,114.2c-23.9,40.9-37.5,86.5-43.7,133.3
		c-2.7,20-4,40.2-4.4,60.4c-4.5-1-9.2,5-5.1,9.2c2.2,2.2,4.7,4.2,5.1,7.4c0.8,6.2,10.5,4.5,10.6-1.3c1.3,1.5,3.6,2.1,5.7,1.7
		c-0.7,3.5,2.1,7.9,6.6,6.7c1-0.3,2-0.5,3-0.8c0.1,0.4,0.3,0.7,0.5,1.1h9.8c1.1-1.7,2.4-3.3,4-4.6c18.9-4.6,37.8-8.8,56.8-12.8
		c2.5-0.5,5-1,7.4-1.5c10.9-0.3,21.8,0.1,32.6,0.9c17.7,1.3,36.1,3.5,52.8,10c23,9,44.8,24.5,61.7,42.3c21.5,22.6,34.9,51.9,38,82.9
		c3.4,33-4.5,66.3-18.7,96c-1.6,3.3,0.2,6.3,2.7,7.6c-1.1,3.3-2.2,6.6-3.3,9.9c-2,5.9,7,9.5,9.9,4.2c20.4-37.8,38-78.1,46-120.5
		C796.5,1987.4,793.8,1943.4,767,1909.5z"/>
	<path fill="#325B15" d="M519.1,1583.1c6.9-28.5,11.2-57.9,9.6-87.3c-1.7-31-10.7-61-25.7-88.2c-2.9-5.3-12.1-1.7-9.9,4.2
		c9.5,25.6,12.9,52.5,7.8,79.4c-4.6,24.3-15.3,46.9-26.7,68.7c-12.1,23-25.2,45.5-35.7,69.3c-12.7,28.7-19.8,59-19.9,90.4
		c-0.2,55.8,21.1,108.7,37.6,161.1c1.2,3.9,5.4,4.5,8.2,3c5.8,0.2,10.6-4.8,13.7-9.3c1.7-2.4,0.5-6-1.9-7.4c0,0,0,0-0.1,0
		C444.7,1770.5,496.6,1675.7,519.1,1583.1z"/>
	<path fill="#526B22" d="M415.8,1870.2c-8.4-16.5-20.4-31.2-37-38.8c-2.2-19.8-7.8-38.8-17-56.5c-9-17.5-21.2-33.1-34-47.9
		c-25.3-29.4-53.5-56.7-69.9-92.3c-0.5-1.3-1.1-2.5-1.7-3.8c-3-6.4-12.1-0.8-9.4,5.5c0.5,1.3,1.1,2.5,1.7,3.7
		c14.4,33.4,15.1,71.2,27.4,105.4c11.4,31.8,39.9,53.4,53.3,83.9c-9.9,2.7-19.6,6.6-28.6,10.9c-21.7,10.2-42.4,22.8-61.5,37.4
		c-19.6,15-37.7,32.4-51.1,53.2c-10.4,16.2-17.1,35-16.8,54.4c0.1,5.2,7.6,7.7,10.1,2.7c11.5-22.7,30-41.6,49-58.2
		c19-16.6,40.3-31.9,63.5-42c16.5-7.1,35.5-10.9,53-14c9.7-1.7,19.5-3,29.4-2.8c5,0.1,13.2,0.7,15.5,4.6c0.9,1.6,2.2,2.3,3.6,2.6
		c0.7,0.6,1.5,1.1,2.1,1.8c2.1,2.1,5.6,2.1,7.7,0c1-1,1.5-2.4,1.6-3.8C410.2,1881.5,418.9,1876.2,415.8,1870.2z"/>
	<path fill="#60802A" d="M817.7,1763.5c-23.5-32.8-59.8-49.8-99.8-51.1c-25-0.8-50.4,4.2-74.3,11.3c-22.9,6.8-44.9,16.9-64.7,30.2
		c-38.1,25.5-66.1,62.7-86.7,103.2c-8.8,17.2-16.3,35.1-23,53.2c-14.7-108-64.6-213.1-137-294.2c-20.1-22.6-42.5-43.1-66.9-60.9
		c-5.3-3.9-10.2,4.1-6.6,8.5c38.1,46.2,69.2,98,95,151.9c25,52.1,44.8,106.9,58.4,163.1c-1.7-1.7-3.7-3.3-5.9-4.6
		c-12.5-7.4-28.6-5.1-41.8-1.2c-17.1,5.1-33,14.1-47.6,24.2c-13.8,9.6-27,20.9-37.4,34.2c-9,11.5-13.9,25.1-18,39
		c-6.1,20.5-9,41.8-11.2,63c-4.6,43.8-5.1,88.6-19,130.8c-1.7,5.1,5.5,9.3,9.1,5.3c5.5-6.2,8.7-14.3,11.9-21.9
		c4.8-11.6,8.9-23.5,13-35.4c10.7-31.4,20.7-62.9,32.4-94c11-29.4,23.2-59.4,41.2-85.3c6.3-9.1,14-18,23.3-23.7
		c7.8-4.8,15.7-6,24.2-3.4c4.9,1.5,9.5,4.5,13.8,8h83.2c17.7-22.6,39.3-42.3,61.8-59.8c29.3-22.9,61.7-42.5,96.1-56.6
		c31.2-12.8,65.3-21.7,99.3-18.8c31.1,2.6,59,18,77,43.6c13.6,19.2,21.2,41.9,26.1,64.8c1.3,6,11,4.7,10.7-1.4
		C851.6,1843.3,842.9,1798.7,817.7,1763.5z"/>
</g>
</svg>
