<?xml version="1.0" encoding="UTF-8" standalone="no"?>
<!DOCTYPE svg PUBLIC "-//W3C//DTD SVG 1.1//EN" "http://www.w3.org/Graphics/SVG/1.1/DTD/svg11.dtd">
<svg width="100%" height="100%" viewBox="0 0 8842 8842" version="1.1" xmlns="http://www.w3.org/2000/svg" xmlns:xlink="http://www.w3.org/1999/xlink" xml:space="preserve" xmlns:serif="http://www.serif.com/" style="fill-rule:evenodd;clip-rule:evenodd;stroke-linejoin:round;stroke-miterlimit:2;">
    <g transform="matrix(4.16667,0,0,4.16667,0,0)">
        <path d="M341.211,1458.29C341.211,1487.33 364.759,1510.88 393.806,1510.88C422.849,1510.88 446.4,1487.33 446.4,1458.29L446.4,1289.16L341.211,1289.16L341.211,1458.29Z" style="fill:rgb(96,56,18);fill-rule:nonzero;"/>
        <path d="M166.639,1510.88C195.687,1510.88 219.233,1487.33 219.233,1458.29L219.233,1289.16L1682.22,1289.16L1682.22,1458.29C1682.22,1487.33 1705.77,1510.88 1734.81,1510.88C1763.86,1510.88 1787.41,1487.33 1787.41,1458.29L1787.41,1236.23C1787.41,1209.16 1766.95,1186.89 1740.66,1183.98C1738.74,1183.76 1736.79,1183.63 1734.81,1183.63C1732.83,1183.63 1730.89,1183.76 1728.96,1183.98L219.233,1183.98L219.233,1182.56C185.581,1175.89 160.203,1146.23 160.203,1110.62C160.203,1075.01 185.581,1045.35 219.233,1038.68L219.233,950.045C200.312,918.45 189.669,876.073 189.669,819.506C189.669,816.754 189.816,814.113 190.062,811.548C190.143,810.715 190.29,809.933 190.396,809.119C190.616,807.421 190.854,805.735 191.184,804.119C191.37,803.211 191.609,802.342 191.829,801.46C192.191,800.011 192.575,798.578 193.027,797.197C193.313,796.323 193.633,795.473 193.955,794.624C194.457,793.303 194.997,792.009 195.587,790.751C195.96,789.951 196.346,789.159 196.755,788.385C197.415,787.134 198.131,785.922 198.88,784.733C199.318,784.04 199.746,783.339 200.213,782.666C201.081,781.416 202.025,780.22 202.996,779.042C203.437,778.507 203.848,777.95 204.31,777.43C205.601,775.974 206.982,774.581 208.432,773.235C208.639,773.044 208.819,772.834 209.029,772.643C210.768,771.072 212.619,769.576 214.573,768.151C214.743,768.027 214.934,767.918 215.105,767.795C216.438,766.842 217.807,765.915 219.233,765.025L219.233,681.489C219.233,642.249 251.049,610.439 290.288,610.439L185.1,610.439C145.86,610.439 114.045,642.249 114.045,681.489L114.045,1204.23L114.482,1204.23C114.23,1205.65 114.045,1207.08 114.045,1208.57L114.045,1458.29C114.045,1487.33 137.597,1510.88 166.639,1510.88Z" style="fill:rgb(138,93,59);fill-rule:nonzero;"/>
        <path d="M1779.14,1110.62C1779.14,1151.14 1746.3,1183.98 1705.78,1183.98L1728.96,1183.98C1730.89,1183.76 1732.83,1183.63 1734.81,1183.63C1736.79,1183.63 1738.74,1183.76 1740.66,1183.98L1932.89,1183.98C1973.4,1183.98 2006.24,1151.14 2006.24,1110.62C2006.24,1070.1 1973.4,1037.26 1932.89,1037.26L1705.78,1037.26C1746.3,1037.26 1779.14,1070.1 1779.14,1110.62Z" style="fill:rgb(84,200,225);fill-rule:nonzero;"/>
        <path d="M219.233,681.489L219.233,765.025C219.689,764.742 220.154,764.466 220.62,764.188C221.153,763.87 221.725,763.576 222.271,763.266C223.894,762.345 225.552,761.448 227.282,760.599C227.963,760.265 228.67,759.947 229.367,759.623C231.06,758.838 232.792,758.077 234.581,757.353C235.325,757.053 236.08,756.758 236.842,756.467C238.697,755.757 240.604,755.077 242.557,754.427C243.296,754.18 244.032,753.931 244.785,753.692C246.916,753.018 249.106,752.383 251.343,751.772C251.97,751.602 252.58,751.422 253.215,751.257C255.932,750.546 258.72,749.877 261.582,749.253C261.759,749.215 261.926,749.171 262.103,749.133C307.88,739.26 371.945,739.879 444.335,739.879C465.237,739.879 485.638,741.107 505.279,743.667L505.279,681.489C505.279,642.249 473.475,610.439 434.234,610.439L290.288,610.439C251.049,610.439 219.233,642.249 219.233,681.489Z" style="fill:rgb(96,56,18);fill-rule:nonzero;"/>
        <path d="M444.335,1037.26C345.098,1037.26 261.482,1020.59 219.233,950.045L219.233,1038.68C223.87,1037.76 228.656,1037.26 233.563,1037.26L444.335,1037.26Z" style="fill:rgb(96,56,18);fill-rule:nonzero;"/>
        <path d="M219.233,1183.98L233.563,1183.98C228.656,1183.98 223.87,1183.48 219.233,1182.56L219.233,1183.98Z" style="fill:rgb(96,56,18);fill-rule:nonzero;"/>
        <path d="M1787.41,1236.23L1787.41,1289.16L1902.09,1289.16L1902.09,1458.29C1902.09,1487.33 1925.63,1510.88 1954.68,1510.88C1983.73,1510.88 2007.28,1487.33 2007.28,1458.29L2007.28,1236.23C2007.28,1207.18 1983.73,1183.63 1954.68,1183.63C1952.7,1183.63 1950.76,1183.76 1948.83,1183.98L1740.66,1183.98C1766.95,1186.89 1787.41,1209.16 1787.41,1236.23Z" style="fill:rgb(96,56,18);fill-rule:nonzero;"/>
        <path d="M444.335,1037.26L233.563,1037.26C228.656,1037.26 223.87,1037.76 219.233,1038.68C185.581,1045.35 160.203,1075.01 160.203,1110.62C160.203,1146.23 185.581,1175.89 219.233,1182.56C223.87,1183.48 228.656,1183.98 233.563,1183.98L1705.78,1183.98C1746.3,1183.98 1779.14,1151.14 1779.14,1110.62C1779.14,1070.1 1746.3,1037.26 1705.78,1037.26L590.101,1037.26C548.002,1039.13 497.738,1037.26 444.335,1037.26Z" style="fill:rgb(136,212,232);fill-rule:nonzero;"/>
        <path d="M193.955,794.624C194.458,793.303 194.997,792.009 195.587,790.751C194.997,792.009 194.457,793.303 193.955,794.624Z" style="fill:rgb(231,232,233);fill-rule:nonzero;"/>
        <path d="M189.669,819.506C189.669,816.754 189.816,814.113 190.062,811.548C189.816,814.113 189.669,816.754 189.669,819.506Z" style="fill:rgb(231,232,233);fill-rule:nonzero;"/>
        <path d="M196.755,788.385C197.415,787.134 198.131,785.922 198.88,784.733C198.131,785.922 197.415,787.134 196.755,788.385Z" style="fill:rgb(231,232,233);fill-rule:nonzero;"/>
        <path d="M190.396,809.119C190.616,807.421 190.854,805.735 191.184,804.119C190.854,805.735 190.616,807.421 190.396,809.119Z" style="fill:rgb(231,232,233);fill-rule:nonzero;"/>
        <path d="M204.31,777.43C205.601,775.974 206.981,774.581 208.432,773.235C206.982,774.581 205.601,775.974 204.31,777.43Z" style="fill:rgb(231,232,233);fill-rule:nonzero;"/>
        <path d="M191.829,801.46C192.191,800.011 192.574,798.578 193.027,797.197C192.575,798.578 192.191,800.011 191.829,801.46Z" style="fill:rgb(231,232,233);fill-rule:nonzero;"/>
        <path d="M209.029,772.643C210.77,771.073 212.618,769.576 214.573,768.151C212.619,769.576 210.768,771.072 209.029,772.643Z" style="fill:rgb(231,232,233);fill-rule:nonzero;"/>
        <path d="M200.213,782.666C201.082,781.417 202.025,780.22 202.996,779.042C202.025,780.22 201.081,781.416 200.213,782.666Z" style="fill:rgb(231,232,233);fill-rule:nonzero;"/>
        <path d="M262.103,749.133C268.508,747.752 275.268,746.574 282.361,745.574C289.655,912.434 397.869,944.994 536.607,944.994C601.377,944.994 661.504,947.723 708.061,943.221C708.362,947.217 708.604,951.268 708.78,955.385C703.578,817.319 617.114,758.238 505.279,743.667C485.638,741.107 465.237,739.879 444.335,739.879C371.945,739.879 307.88,739.26 262.103,749.133Z" style="fill:rgb(231,232,233);fill-rule:nonzero;"/>
        <path d="M244.785,753.692C246.916,753.018 249.106,752.383 251.343,751.772C249.106,752.383 246.916,753.018 244.785,753.692Z" style="fill:rgb(231,232,233);fill-rule:nonzero;"/>
        <path d="M229.367,759.623C231.061,758.839 232.792,758.077 234.581,757.353C232.792,758.077 231.06,758.838 229.367,759.623Z" style="fill:rgb(231,232,233);fill-rule:nonzero;"/>
        <path d="M253.215,751.257C255.932,750.546 258.717,749.877 261.582,749.253C258.72,749.877 255.932,750.546 253.215,751.257Z" style="fill:rgb(231,232,233);fill-rule:nonzero;"/>
        <path d="M222.271,763.266C223.894,762.346 225.55,761.448 227.282,760.599C225.552,761.448 223.894,762.345 222.271,763.266Z" style="fill:rgb(231,232,233);fill-rule:nonzero;"/>
        <path d="M220.62,764.188C220.154,764.466 219.689,764.742 219.233,765.025C217.807,765.915 216.438,766.842 215.105,767.795C216.862,766.538 218.697,765.334 220.62,764.188Z" style="fill:rgb(231,232,233);fill-rule:nonzero;"/>
        <path d="M236.842,756.467C238.697,755.757 240.604,755.077 242.557,754.427C240.604,755.077 238.697,755.757 236.842,756.467Z" style="fill:rgb(231,232,233);fill-rule:nonzero;"/>
        <path d="M536.607,944.994C397.869,944.994 289.655,912.434 282.361,745.574C275.268,746.574 268.508,747.752 262.103,749.133C261.926,749.171 261.759,749.215 261.582,749.253C258.717,749.877 255.932,750.546 253.215,751.257C252.58,751.422 251.97,751.602 251.343,751.772C249.106,752.383 246.916,753.018 244.785,753.692C244.032,753.931 243.296,754.18 242.557,754.427C240.604,755.077 238.697,755.757 236.842,756.467C236.08,756.758 235.325,757.053 234.581,757.353C232.792,758.077 231.061,758.839 229.367,759.623C228.67,759.947 227.963,760.265 227.282,760.599C225.55,761.448 223.894,762.346 222.271,763.266C221.725,763.576 221.153,763.87 220.62,764.188C218.697,765.334 216.862,766.538 215.105,767.795C214.934,767.918 214.743,768.027 214.573,768.151C212.618,769.576 210.77,771.073 209.029,772.643C208.819,772.834 208.639,773.044 208.432,773.235C206.981,774.581 205.601,775.974 204.31,777.43C203.848,777.95 203.437,778.507 202.996,779.042C202.025,780.22 201.082,781.417 200.213,782.666C199.746,783.339 199.318,784.04 198.88,784.733C198.131,785.922 197.415,787.134 196.755,788.385C196.346,789.159 195.96,789.951 195.587,790.751C194.997,792.009 194.458,793.303 193.955,794.624C193.633,795.473 193.313,796.323 193.027,797.197C192.574,798.578 192.191,800.011 191.829,801.46C191.609,802.342 191.37,803.211 191.184,804.119C190.854,805.735 190.616,807.421 190.396,809.119C190.29,809.933 190.143,810.715 190.062,811.548C189.816,814.113 189.669,816.754 189.669,819.506C189.669,876.073 200.312,918.45 219.233,950.045C261.482,1020.59 345.098,1037.26 444.335,1037.26C497.738,1037.26 548.002,1039.13 590.101,1037.26C661.268,1034.11 709.074,1020.29 709.074,968.689C709.074,964.16 708.965,959.736 708.78,955.385C708.604,951.268 708.362,947.217 708.061,943.221C661.504,947.723 601.377,944.994 536.607,944.994Z" style="fill:rgb(209,211,212);fill-rule:nonzero;"/>
    </g>
</svg>
