<?xml version="1.0" encoding="UTF-8" standalone="no"?>
<!DOCTYPE svg PUBLIC "-//W3C//DTD SVG 1.1//EN" "http://www.w3.org/Graphics/SVG/1.1/DTD/svg11.dtd">
<svg width="100%" height="100%" viewBox="0 0 564 833" version="1.1" xmlns="http://www.w3.org/2000/svg" xmlns:xlink="http://www.w3.org/1999/xlink" xml:space="preserve" xmlns:serif="http://www.serif.com/" style="fill-rule:evenodd;clip-rule:evenodd;stroke-linejoin:round;stroke-miterlimit:2;">
    <g transform="matrix(1,0,0,1,-1101.26,-429.827)">
        <path d="M1657.06,641.15C1612.1,675.713 1559.36,699.597 1518.83,739.943C1504.53,754.184 1492.69,770.626 1480.69,786.797L1479.4,788.549C1484.18,777.769 1488.84,766.934 1493.52,756.109C1499.9,741.327 1506.6,727.026 1510.85,711.444C1521.21,673.523 1526.34,634.345 1535.98,596.234C1540.57,578.08 1545.93,559.84 1554.25,543.007C1556.76,537.932 1559.63,532.846 1563.01,528.178C1569.79,522.372 1576.57,516.567 1583.31,510.733C1588.33,506.397 1581.95,499.85 1576.74,502.209C1567.87,506.219 1560.8,513.001 1555.02,520.78C1518.85,551.78 1482.63,582.863 1450.6,618.2C1411.25,661.617 1377.16,713.239 1359.23,769.354C1348.38,803.298 1344.27,838.744 1338.63,873.857C1344.15,820.043 1343.58,765.672 1341.31,711.658C1340.6,694.67 1340.07,677.603 1338.33,660.683C1336.67,644.519 1333.8,628.495 1330.47,612.599C1323.67,580.086 1314.66,548.074 1308.44,515.432C1303.41,489.016 1300.62,462.134 1302.68,435.254C1302.99,431.183 1297.82,428.438 1294.51,430.567C1275.89,442.548 1262.22,461.204 1250.73,479.778C1237.28,501.509 1226.67,525.077 1217.96,549.07C1209.54,572.297 1204.25,595.502 1202.28,620.147C1199.72,652.228 1201.31,684.66 1205.62,716.519C1207.5,730.465 1209.93,744.318 1212.93,758.07C1215.02,767.673 1217.14,777.305 1220.69,786.482C1223.63,794.081 1226.77,801.604 1229.97,809.105C1221.94,794.536 1213.31,780.227 1203.63,766.93C1188.85,746.611 1172,727.885 1157.19,707.579C1144.09,689.624 1130.29,668.705 1129,645.836C1128.65,639.567 1120.44,638.641 1118.34,644.394C1100.51,693.36 1094.9,746.883 1109.93,797.347C1124.91,847.652 1159.65,888.694 1201.91,918.723C1202.38,919.056 1202.86,919.389 1203.33,919.722C1206.1,921.665 1208.79,920.483 1210.2,918.292L1262.23,918.292C1263.44,920.453 1266.04,920.852 1268.27,919.985C1270,920.22 1271.86,919.765 1273.27,918.292L1323.72,918.292C1325.99,920.862 1330.43,921.325 1332.21,918.334C1334.4,920.836 1338.84,921.252 1340.79,918.292L1382.29,918.292C1383.84,920.015 1386.35,920.958 1389,919.722C1389.97,919.272 1390.92,918.789 1391.86,918.292L1466.59,918.292C1466.69,918.292 1466.79,918.282 1466.89,918.277C1468.07,919.802 1469.98,920.768 1472.37,920.269C1524.09,909.503 1562.81,863.721 1590.76,821.913C1606.82,797.902 1621.69,772.565 1632.65,745.801C1637.49,733.985 1641.53,721.68 1644.22,709.188C1646.63,697.978 1648.38,686.641 1651.12,675.499C1653.07,667.526 1655.54,655.826 1662.54,650.523C1668,646.331 1662.66,636.909 1657.06,641.15Z" style="fill:rgb(135,181,96);fill-rule:nonzero;"/>
        <path d="M1620.16,693.254C1555.58,725.709 1502.31,773.581 1456.71,828.504C1458.08,824.803 1459.38,821.104 1460.62,817.431C1474.94,774.755 1481.84,729.915 1489.6,685.709C1493.65,662.636 1497.58,639.341 1504.39,616.886C1505.82,612.167 1500.46,608.558 1496.41,610.757C1456.19,632.588 1429.17,671.745 1409.49,711.97C1388.26,755.363 1374.4,801.986 1361.36,848.353C1357.08,863.591 1352.9,878.86 1348.46,894.054C1348.19,895.001 1348.16,895.868 1348.32,896.645C1341.87,885.202 1333.2,874.291 1330.71,861.49C1330.58,860.812 1330.35,860.233 1330.06,859.74C1319.25,802.452 1327.71,742.891 1320.31,685.112C1318.13,668.092 1314.29,651.325 1311.77,634.347C1309.14,616.645 1306.86,598.896 1303.37,581.335C1297.68,552.705 1277.22,527.695 1278.58,497.571C1278.85,491.526 1280.63,485.663 1282.95,480.115C1285.44,474.166 1276.24,471.089 1273.03,475.933C1256.85,500.375 1244.49,527.013 1236.55,555.242C1228.86,582.633 1225.66,611.158 1224.57,639.521C1223.38,670.101 1223.73,701.058 1229.4,731.206C1234.84,760.107 1245.13,787.798 1256.3,814.907C1261.79,828.254 1267.49,841.514 1273,854.851C1260.92,840.368 1246.77,827.426 1232.27,815.561C1201.79,790.622 1167.98,769.911 1138.27,744.034C1134.45,740.708 1127.36,743.796 1129.2,749.315C1139.42,780.083 1148.46,811.193 1162.35,840.595C1175.7,868.848 1195.16,899.107 1226.34,909.415C1233,911.618 1235.84,901.134 1229.22,898.947C1200.02,889.296 1182.77,858.798 1170.55,832.62C1160.21,810.459 1152.82,787.177 1145.36,763.938C1170.38,783.798 1197.29,801.292 1222.2,821.298C1251.58,844.881 1280.58,873.035 1292.02,909.965C1294.08,916.631 1304.56,913.785 1302.49,907.08C1301.76,904.723 1300.96,902.4 1300.1,900.11C1300.67,899.057 1300.82,897.742 1300.32,896.226C1281.57,840.348 1251.93,788.272 1240.22,730.095C1234.13,699.859 1234.3,668.457 1235.49,637.751C1236.59,609.17 1240.33,580.744 1248.42,553.262C1253.3,536.677 1259.96,520.748 1268.04,505.54C1269.37,524.332 1277.94,542.708 1285.19,560.423C1298.13,592.015 1299.03,627.258 1305.11,660.557C1308.14,677.201 1310.76,693.576 1311.86,710.486C1312.93,726.967 1313.07,743.499 1313.17,760.009C1313.34,788.704 1313.34,817.46 1316.95,845.94C1295.72,808.141 1287.25,763.054 1281.88,720.719C1275.53,670.555 1274.51,619.862 1274.46,569.357L1274.46,565.511C1274.46,558.511 1263.6,558.511 1263.6,565.511C1263.61,615.717 1264.58,666.014 1270.44,715.927C1276.16,764.51 1285.71,815.735 1311.5,858.103C1313.06,860.678 1314.73,863.192 1316.45,865.672C1317.56,867.28 1319.1,868.007 1320.66,868.093C1321.79,873.407 1323.09,878.687 1324.58,883.914C1325.43,886.888 1327.96,887.984 1330.34,887.698C1334.6,894.795 1339.24,901.737 1342.5,909.091C1345.33,915.479 1354.68,909.951 1351.87,903.612C1351.19,902.086 1350.44,900.579 1349.65,899.081C1352.25,901.639 1357.59,901.535 1358.93,896.94C1371.84,852.741 1383.1,808.07 1398.95,764.78C1414.94,721.088 1435.74,676.643 1469.62,643.851C1475.99,637.687 1482.88,632.132 1490.21,627.215C1481.17,661.81 1476.84,697.77 1470.22,732.809C1462.17,775.411 1452.85,819.774 1431.42,857.938C1421.45,875.688 1408.08,891.765 1390.04,901.665C1383.9,905.032 1389.38,914.406 1395.51,911.038C1408.55,903.886 1419.27,893.999 1428.2,882.535C1428.88,882.152 1429.5,881.608 1430.03,880.868C1479.04,812.377 1537.59,750.832 1611.64,710.007C1595.25,746.733 1577.99,783.146 1556.09,816.963C1531.99,854.196 1500.04,891.435 1456.46,905.46C1449.83,907.596 1452.66,918.078 1459.35,915.927C1503.93,901.577 1536.71,865.254 1562.14,827.476C1588.77,787.923 1608.4,744.166 1627.58,700.679C1629.76,695.741 1625.29,690.674 1620.16,693.254Z" style="fill:rgb(186,221,153);fill-rule:nonzero;"/>
        <path d="M1468.41,677.833C1453.39,698.347 1438.94,719.283 1426.41,741.427C1416.76,758.47 1409.3,776.484 1400.97,794.168C1393.89,809.218 1386.88,824.361 1381.22,840.015C1377.59,850.04 1370.97,866.282 1377.23,876.527C1380.88,882.487 1390.27,877.038 1386.61,871.048C1385.18,868.713 1385.87,863.866 1386.59,860.192C1387.99,853.064 1390.46,846.131 1392.99,839.344C1398.43,824.792 1405.13,810.727 1411.74,796.683C1419.89,779.386 1427.3,761.896 1436.74,745.219C1448.94,723.654 1463.16,703.286 1477.79,683.311C1481.93,677.654 1472.5,672.247 1468.41,677.833Z" style="fill:rgb(186,221,153);fill-rule:nonzero;"/>
        <path d="M1584.32,731.008C1534.07,785.652 1484.84,841.286 1432.36,893.83C1427.41,898.787 1435.08,906.463 1440.03,901.506C1492.51,848.963 1541.75,793.328 1592,738.684C1596.73,733.542 1589.07,725.846 1584.32,731.008Z" style="fill:rgb(186,221,153);fill-rule:nonzero;"/>
        <path d="M1253.33,880.804C1224.7,845.798 1188.38,817.599 1163,779.868C1159.11,774.094 1149.71,779.521 1153.63,785.346C1179.56,823.895 1216.42,852.732 1245.65,888.48C1250.09,893.902 1257.72,886.175 1253.33,880.804Z" style="fill:rgb(186,221,153);fill-rule:nonzero;"/>
        <path d="M1453.83,1258.21L1219.78,1258.21L1143.18,955.561L1525.11,955.561L1453.83,1258.21Z" style="fill:rgb(248,196,1);fill-rule:nonzero;"/>
        <rect x="1117.64" y="916.217" width="427.68" height="39.344" style="fill:rgb(255,217,95);fill-rule:nonzero;"/>
        <path d="M1334.14,955.561L1143.18,955.561L1219.78,1258.21L1334.14,1258.21L1334.14,955.561Z" style="fill:rgb(229,175,5);fill-rule:nonzero;"/>
        <rect x="1117.64" y="916.217" width="216.5" height="39.344" style="fill:rgb(248,196,1);fill-rule:nonzero;"/>
        <path d="M1453.83,1262.75L1219.78,1262.75L1143.18,1221.9L1525.11,1221.9L1453.83,1262.75Z" style="fill:rgb(229,175,5);fill-rule:nonzero;"/>
        <path d="M1334.14,1221.9L1143.18,1221.9L1219.78,1262.75L1334.14,1262.75L1334.14,1221.9Z" style="fill:rgb(201,151,10);fill-rule:nonzero;"/>
    </g>
</svg>
