<?xml version="1.0" encoding="UTF-8" standalone="no"?>
<!DOCTYPE svg PUBLIC "-//W3C//DTD SVG 1.1//EN" "http://www.w3.org/Graphics/SVG/1.1/DTD/svg11.dtd">
<svg width="100%" height="100%" viewBox="0 0 2000 2000" version="1.1" xmlns="http://www.w3.org/2000/svg" xmlns:xlink="http://www.w3.org/1999/xlink" xml:space="preserve" xmlns:serif="http://www.serif.com/" style="fill-rule:evenodd;clip-rule:evenodd;stroke-linejoin:round;stroke-miterlimit:2;">
    <g>
        <path d="M1540.59,756.374C1560.49,776.273 1560.49,808.536 1540.59,828.436C1520.69,848.334 1488.43,848.334 1468.53,828.436C1448.63,808.536 1448.63,776.273 1468.53,756.374C1488.43,736.474 1520.69,736.474 1540.59,756.374Z" style="fill:rgb(237,237,237);fill-rule:nonzero;"/>
        <path d="M1555.14,786.211C1555.27,787.27 1555.38,788.339 1555.43,789.41L1555.16,789.41C1540.54,788.092 1526.19,793.294 1515.82,803.664C1505.45,814.034 1500.25,828.379 1501.57,843.005L1501.57,843.275C1500.5,843.219 1499.43,843.118 1498.37,842.983C1497.06,827.512 1502.6,812.379 1513.57,801.412C1524.54,790.445 1539.67,784.906 1555.14,786.211Z" style="fill:rgb(103,154,230);fill-rule:nonzero;"/>
        <path d="M1510.75,741.826C1512.06,757.297 1506.52,772.43 1495.55,783.396C1484.59,794.364 1469.45,799.903 1453.98,798.597C1453.85,797.539 1453.75,796.469 1453.69,795.399L1453.96,795.399C1468.59,796.717 1482.93,791.515 1493.3,781.145C1503.67,770.774 1508.87,756.43 1507.56,741.804L1507.56,741.533C1508.63,741.589 1509.69,741.691 1510.75,741.826Z" style="fill:rgb(103,154,230);fill-rule:nonzero;"/>
        <rect x="1368" y="904.506" width="211.97" height="52.994" style="fill:rgb(103,154,230);fill-rule:nonzero;"/>
        <path d="M1400.61,932.634L1400.61,929.373C1400.61,925.771 1397.69,922.85 1394.09,922.85L1390.83,922.85C1387.23,922.85 1384.31,925.771 1384.31,929.373L1384.31,932.634C1384.31,936.236 1387.23,939.156 1390.83,939.156L1394.09,939.156C1397.69,939.156 1400.61,936.236 1400.61,932.634Z" style="fill:rgb(255,253,255);fill-rule:nonzero;"/>
        <path d="M1563.67,932.634L1563.67,929.373C1563.67,925.771 1560.75,922.85 1557.15,922.85L1553.89,922.85C1550.28,922.85 1547.36,925.771 1547.36,929.373L1547.36,932.634C1547.36,936.236 1550.28,939.156 1553.89,939.156L1557.15,939.156C1560.75,939.156 1563.67,936.236 1563.67,932.634Z" style="fill:rgb(255,253,255);fill-rule:nonzero;"/>
        <rect x="1398.57" y="843.36" width="224.21" height="8.153" style="fill:rgb(221,90,60);fill-rule:nonzero;"/>
        <rect x="1398.57" y="896.354" width="224.21" height="8.152" style="fill:rgb(221,90,60);fill-rule:nonzero;"/>
        <path d="M1616.66,896.354L1400.61,896.354C1402.61,893.337 1407.28,885.429 1407.38,874.279C1407.48,862.723 1402.59,854.488 1400.61,851.513L1616.66,851.513C1614.69,854.488 1609.79,862.723 1609.9,874.279C1610,885.429 1614.67,893.337 1616.66,896.354Z" style="fill:rgb(237,237,237);fill-rule:nonzero;"/>
        <rect x="1228.95" y="1076.5" width="54.85" height="261.56" style="fill:rgb(221,90,60);fill-rule:nonzero;"/>
        <rect x="1218.5" y="691.859" width="42.19" height="265.782" style="fill:rgb(150,175,200);fill-rule:nonzero;"/>
        <rect x="1218.5" y="729.828" width="42.19" height="59.063" style="fill:rgb(254,180,26);fill-rule:nonzero;"/>
        <rect x="1218.5" y="738.266" width="42.19" height="42.187" style="fill:rgb(103,154,230);fill-rule:nonzero;"/>
        <rect x="1030.2" y="1093.38" width="42.191" height="244.68" style="fill:rgb(161,191,67);fill-rule:nonzero;"/>
        <rect x="1040.75" y="1190.41" width="21.09" height="50.62" style="fill:white;fill-rule:nonzero;"/>
        <rect x="1082.39" y="1114.47" width="63.28" height="223.59" style="fill:rgb(254,180,26);fill-rule:nonzero;"/>
        <rect x="1130.91" y="1114.47" width="4.22" height="223.59" style="fill:rgb(103,154,230);fill-rule:nonzero;"/>
        <rect x="1092.94" y="1114.47" width="4.22" height="223.59" style="fill:rgb(103,154,230);fill-rule:nonzero;"/>
        <rect x="1155.67" y="1106.03" width="8.44" height="232.03" style="fill:rgb(103,154,230);fill-rule:nonzero;"/>
        <rect x="1210.52" y="1106.03" width="8.43" height="232.03" style="fill:rgb(103,154,230);fill-rule:nonzero;"/>
        <path d="M1210.52,1112.36L1210.52,1335.95C1207.39,1333.89 1199.21,1329.06 1187.67,1328.95C1175.71,1328.84 1167.19,1333.91 1164.11,1335.95L1164.11,1112.36C1167.19,1114.41 1175.71,1119.47 1187.67,1119.36C1199.21,1119.26 1207.39,1114.43 1210.52,1112.36Z" style="fill:rgb(237,237,237);fill-rule:nonzero;"/>
        <path d="M1652.07,1337.23L1715.5,1314.15L1640.47,1108L1577.04,1131.09L1652.07,1337.23Z" style="fill:rgb(221,90,60);fill-rule:nonzero;"/>
        <path d="M1603.36,1166.4C1607.35,1177.35 1619.45,1182.99 1630.4,1179.01C1641.35,1175.02 1646.99,1162.92 1643,1151.97C1639.02,1141.02 1626.92,1135.38 1615.97,1139.36C1605.02,1143.35 1599.38,1155.45 1603.36,1166.4Z" style="fill:rgb(237,237,237);fill-rule:nonzero;"/>
        <rect x="697.564" y="1472.81" width="50.625" height="244.69" style="fill:rgb(161,191,67);fill-rule:nonzero;"/>
        <rect x="712.33" y="1518.16" width="21.094" height="153.99" style="fill:rgb(255,199,59);fill-rule:nonzero;"/>
        <path d="M402.148,1700.74L464.695,1717.5L521.474,1505.6L458.927,1488.84L402.148,1700.74Z" style="fill:rgb(150,175,200);fill-rule:nonzero;"/>
        <path d="M429.481,1679.68L451.557,1685.59L494.141,1526.67L472.065,1520.75L429.481,1679.68Z" style="fill:rgb(221,90,60);fill-rule:nonzero;"/>
        <rect x="576.317" y="1523.44" width="8.438" height="194.06" style="fill:rgb(221,90,60);fill-rule:nonzero;"/>
        <rect x="521.474" y="1523.44" width="8.437" height="194.06" style="fill:rgb(221,90,60);fill-rule:nonzero;"/>
        <path d="M529.911,1713.28L529.911,1527.66C533.033,1529.72 541.217,1534.55 552.756,1534.66C564.716,1534.77 573.237,1529.7 576.317,1527.66L576.317,1713.28C573.237,1711.24 564.716,1706.17 552.756,1706.28C541.217,1706.38 533.033,1711.21 529.911,1713.28Z" style="fill:rgb(237,237,237);fill-rule:nonzero;"/>
        <rect x="1318.38" y="1674.89" width="219.37" height="45" style="fill:rgb(221,90,60);fill-rule:nonzero;"/>
        <path d="M1510.33,1698.23C1510.33,1695.75 1508.31,1693.73 1505.83,1693.73L1350.3,1693.73C1347.81,1693.73 1345.8,1695.75 1345.8,1698.23C1345.8,1700.72 1347.81,1702.73 1350.3,1702.73L1505.83,1702.73C1508.31,1702.73 1510.33,1700.72 1510.33,1698.23Z" style="fill:white;fill-rule:nonzero;"/>
        <rect x="1297" y="1611.75" width="240.75" height="8.44" style="fill:rgb(103,154,230);fill-rule:nonzero;"/>
        <rect x="1297" y="1666.59" width="240.75" height="8.44" style="fill:rgb(103,154,230);fill-rule:nonzero;"/>
        <path d="M1533.53,1666.59L1301.22,1666.59C1303.29,1663.47 1308.12,1655.29 1308.22,1643.75C1308.33,1631.79 1303.26,1623.27 1301.22,1620.19L1533.53,1620.19C1531.49,1623.27 1526.42,1631.79 1526.53,1643.75C1526.63,1655.29 1531.46,1663.47 1533.53,1666.59Z" style="fill:rgb(237,237,237);fill-rule:nonzero;"/>
        <rect x="1377.97" y="357.07" width="60" height="219.375" style="fill:rgb(221,90,60);fill-rule:nonzero;"/>
        <rect x="1377.97" y="430.65" width="60" height="12.656" style="fill:white;fill-rule:nonzero;"/>
        <rect x="1377.97" y="460.43" width="60" height="12.656" style="fill:white;fill-rule:nonzero;"/>
        <rect x="1377.97" y="490.209" width="60" height="12.657" style="fill:white;fill-rule:nonzero;"/>
        <rect x="758.189" y="1477.03" width="42.188" height="240.47" style="fill:rgb(103,154,230);fill-rule:nonzero;"/>
        <rect x="764.471" y="1487.58" width="29.531" height="6.33" style="fill:rgb(253,249,222);fill-rule:nonzero;"/>
        <rect x="764.471" y="1504.45" width="29.531" height="6.33" style="fill:rgb(253,249,222);fill-rule:nonzero;"/>
        <path d="M787.721,1698.52C787.721,1703.18 783.943,1706.95 779.283,1706.95C774.624,1706.95 770.846,1703.18 770.846,1698.52C770.846,1693.86 774.624,1690.08 779.283,1690.08C783.943,1690.08 787.721,1693.86 787.721,1698.52Z" style="fill:rgb(253,249,222);fill-rule:nonzero;"/>
        <path d="M865.945,957.641L827.308,947.288L884.087,735.388L922.724,745.741L865.945,957.641Z" style="fill:rgb(254,180,26);fill-rule:nonzero;"/>
        <path d="M895.426,847.616L856.789,837.263L860.064,825.038L898.702,835.391L895.426,847.616Z" style="fill:white;fill-rule:nonzero;"/>
        <path d="M903.134,818.851L864.497,808.498L867.772,796.272L906.409,806.625L903.134,818.851Z" style="fill:white;fill-rule:nonzero;"/>
        <path d="M910.842,790.085L872.204,779.732L875.48,767.507L914.117,777.86L910.842,790.085Z" style="fill:white;fill-rule:nonzero;"/>
        <rect x="1270.69" y="689.75" width="25.31" height="267.891" style="fill:rgb(161,191,67);fill-rule:nonzero;"/>
        <rect x="1274.91" y="697.133" width="16.87" height="6.328" style="fill:white;fill-rule:nonzero;"/>
        <rect x="1274.91" y="714.008" width="16.87" height="6.328" style="fill:white;fill-rule:nonzero;"/>
        <rect x="1274.91" y="927.055" width="16.87" height="6.328" style="fill:white;fill-rule:nonzero;"/>
        <rect x="1274.91" y="943.93" width="16.87" height="6.328" style="fill:white;fill-rule:nonzero;"/>
        <path d="M1291.78,822.641C1291.78,827.3 1288,831.078 1283.34,831.078C1278.68,831.078 1274.91,827.3 1274.91,822.641C1274.91,817.981 1278.68,814.203 1283.34,814.203C1288,814.203 1291.78,817.981 1291.78,822.641Z" style="fill:white;fill-rule:nonzero;"/>
        <rect x="839.344" y="341.531" width="70" height="234.914" style="fill:rgb(254,180,26);fill-rule:nonzero;"/>
        <rect x="839.344" y="434.344" width="70" height="12.656" style="fill:white;fill-rule:nonzero;"/>
        <rect x="839.344" y="404.564" width="70" height="12.656" style="fill:white;fill-rule:nonzero;"/>
        <rect x="839.344" y="374.784" width="70" height="12.656" style="fill:white;fill-rule:nonzero;"/>
        <rect x="318.35" y="1498.13" width="83.798" height="219.37" style="fill:rgb(254,180,26);fill-rule:nonzero;"/>
        <rect x="318.35" y="1590.94" width="83.798" height="12.65" style="fill:white;fill-rule:nonzero;"/>
        <rect x="318.35" y="1561.16" width="83.798" height="12.65" style="fill:white;fill-rule:nonzero;"/>
        <rect x="318.35" y="1531.38" width="83.798" height="12.65" style="fill:white;fill-rule:nonzero;"/>
        <rect x="1022.15" y="308.555" width="25.32" height="267.89" style="fill:rgb(161,191,67);fill-rule:nonzero;"/>
        <rect x="1026.37" y="315.938" width="16.88" height="6.328" style="fill:white;fill-rule:nonzero;"/>
        <rect x="1026.37" y="332.813" width="16.88" height="6.328" style="fill:white;fill-rule:nonzero;"/>
        <rect x="1026.37" y="545.859" width="16.88" height="6.329" style="fill:white;fill-rule:nonzero;"/>
        <rect x="1026.37" y="562.734" width="16.88" height="6.329" style="fill:white;fill-rule:nonzero;"/>
        <path d="M1026.37,441.445C1026.37,446.105 1030.15,449.883 1034.81,449.883C1039.47,449.883 1043.25,446.105 1043.25,441.445C1043.25,436.786 1039.47,433.008 1034.81,433.008C1030.15,433.008 1026.37,436.786 1026.37,441.445Z" style="fill:white;fill-rule:nonzero;"/>
        <rect x="810.377" y="1489.69" width="7.334" height="227.81" style="fill:rgb(150,175,200);fill-rule:nonzero;"/>
        <rect x="895.854" y="1489.69" width="7.334" height="227.81" style="fill:rgb(150,175,200);fill-rule:nonzero;"/>
        <path d="M895.854,1493.91L895.854,1713.28C890.137,1709.8 876.215,1702.33 856.936,1702.29C837.486,1702.25 823.417,1709.8 817.701,1713.28L817.701,1493.91L818.439,1493.91C824.578,1497.56 838.289,1504.5 856.936,1504.45C875.435,1504.41 889.02,1497.53 895.115,1493.91L895.854,1493.91Z" style="fill:rgb(237,237,237);fill-rule:nonzero;"/>
        <rect x="594.755" y="1489.69" width="7.334" height="227.81" style="fill:rgb(150,175,200);fill-rule:nonzero;"/>
        <rect x="680.23" y="1489.69" width="7.334" height="227.81" style="fill:rgb(150,175,200);fill-rule:nonzero;"/>
        <path d="M680.23,1493.91L680.23,1713.28C674.514,1709.8 660.593,1702.33 641.313,1702.29C621.864,1702.25 607.795,1709.8 602.078,1713.28L602.078,1493.91L602.817,1493.91C608.955,1497.56 622.666,1504.5 641.313,1504.45C659.812,1504.41 673.396,1497.53 679.492,1493.91L680.23,1493.91Z" style="fill:rgb(237,237,237);fill-rule:nonzero;"/>
        <rect x="1128.34" y="700.297" width="80.16" height="257.344" style="fill:rgb(255,199,59);fill-rule:nonzero;"/>
        <rect x="1164.2" y="750.922" width="8.44" height="156.094" style="fill:rgb(103,154,230);fill-rule:nonzero;"/>
        <path d="M1174.75,723.5C1174.75,726.995 1171.92,729.828 1168.42,729.828C1164.93,729.828 1162.09,726.995 1162.09,723.5C1162.09,720.005 1164.93,717.172 1168.42,717.172C1171.92,717.172 1174.75,720.005 1174.75,723.5Z" style="fill:rgb(103,154,230);fill-rule:nonzero;"/>
        <path d="M1174.75,934.438C1174.75,937.933 1171.92,940.766 1168.42,940.766C1164.93,940.766 1162.09,937.933 1162.09,934.438C1162.09,930.942 1164.93,928.109 1168.42,928.109C1171.92,928.109 1174.75,930.942 1174.75,934.438Z" style="fill:rgb(103,154,230);fill-rule:nonzero;"/>
        <path d="M1425.11,1459.59L1420.89,1459.59C1416.23,1459.59 1412.45,1455.81 1412.45,1451.15L1412.45,1430.06C1412.45,1425.4 1416.23,1421.62 1420.89,1421.62L1425.11,1421.62C1429.77,1421.62 1433.55,1425.4 1433.55,1430.06L1433.55,1451.15C1433.55,1455.81 1429.77,1459.59 1425.11,1459.59Z" style="fill:rgb(255,199,59);fill-rule:nonzero;"/>
        <path d="M1377.87,1479.7L1362.96,1494.62L1333.13,1464.79L1348.04,1449.87L1377.87,1479.7Z" style="fill:rgb(254,180,26);fill-rule:nonzero;"/>
        <path d="M1379.37,1448.38L1331.63,1496.11C1318.46,1482.93 1318.46,1461.56 1331.63,1448.38L1331.64,1448.38C1344.82,1435.2 1366.18,1435.2 1379.37,1448.38Z" style="fill:rgb(255,199,59);fill-rule:nonzero;"/>
        <path d="M1468.13,1479.7L1483.04,1494.62L1512.87,1464.79L1497.96,1449.87L1468.13,1479.7Z" style="fill:rgb(254,180,26);fill-rule:nonzero;"/>
        <path d="M1466.63,1448.38L1514.37,1496.11C1527.54,1482.93 1527.54,1461.56 1514.37,1448.38C1501.18,1435.2 1479.82,1435.2 1466.63,1448.38Z" style="fill:rgb(255,199,59);fill-rule:nonzero;"/>
        <path d="M1386.31,1586.29L1371.39,1571.37L1349.02,1593.75C1344.9,1597.86 1344.9,1604.54 1349.02,1608.66C1353.14,1612.78 1359.82,1612.78 1363.94,1608.66L1386.31,1586.29Z" style="fill:rgb(254,180,26);fill-rule:nonzero;"/>
        <path d="M1459.69,1586.29L1474.6,1571.37L1496.98,1593.75C1501.1,1597.86 1501.1,1604.54 1496.98,1608.66C1492.86,1612.78 1486.18,1612.78 1482.06,1608.66L1459.69,1586.29Z" style="fill:rgb(254,180,26);fill-rule:nonzero;"/>
        <path d="M1501.75,1529.62C1501.75,1573.11 1466.49,1608.37 1423,1608.37C1379.51,1608.37 1344.25,1573.11 1344.25,1529.62C1344.25,1486.13 1379.51,1450.87 1423,1450.87C1466.49,1450.87 1501.75,1486.13 1501.75,1529.62Z" style="fill:rgb(221,90,60);fill-rule:nonzero;"/>
        <path d="M1423,1597.12C1385.78,1597.12 1355.5,1566.84 1355.5,1529.62C1355.5,1492.4 1385.78,1462.12 1423,1462.12C1460.22,1462.12 1490.5,1492.4 1490.5,1529.62C1490.5,1566.84 1460.22,1597.12 1423,1597.12Z" style="fill:white;fill-rule:nonzero;"/>
        <path d="M1423,1477.31C1422.07,1477.31 1421.31,1476.55 1421.31,1475.62L1421.31,1468.87C1421.31,1467.94 1422.07,1467.18 1423,1467.18C1423.93,1467.18 1424.69,1467.94 1424.69,1468.87L1424.69,1475.62C1424.69,1476.55 1423.93,1477.31 1423,1477.31Z" style="fill:rgb(103,154,230);fill-rule:nonzero;"/>
        <path d="M1423,1592.06C1422.07,1592.06 1421.31,1591.3 1421.31,1590.37L1421.31,1583.62C1421.31,1582.69 1422.07,1581.93 1423,1581.93C1423.93,1581.93 1424.69,1582.69 1424.69,1583.62L1424.69,1590.37C1424.69,1591.3 1423.93,1592.06 1423,1592.06Z" style="fill:rgb(103,154,230);fill-rule:nonzero;"/>
        <path d="M1369,1531.31L1362.25,1531.31C1361.32,1531.31 1360.56,1530.55 1360.56,1529.62C1360.56,1528.69 1361.32,1527.93 1362.25,1527.93L1369,1527.93C1369.93,1527.93 1370.69,1528.69 1370.69,1529.62C1370.69,1530.55 1369.93,1531.31 1369,1531.31Z" style="fill:rgb(103,154,230);fill-rule:nonzero;"/>
        <path d="M1483.75,1531.31L1477,1531.31C1476.07,1531.31 1475.31,1530.55 1475.31,1529.62C1475.31,1528.69 1476.07,1527.93 1477,1527.93L1483.75,1527.93C1484.68,1527.93 1485.44,1528.69 1485.44,1529.62C1485.44,1530.55 1484.68,1531.31 1483.75,1531.31Z" style="fill:rgb(103,154,230);fill-rule:nonzero;"/>
        <path d="M1376.23,1504.31C1375.95,1504.31 1375.66,1504.24 1375.39,1504.08L1369.55,1500.71C1368.74,1500.24 1368.46,1499.21 1368.93,1498.4C1369.39,1497.59 1370.43,1497.31 1371.23,1497.78L1377.08,1501.16C1377.89,1501.63 1378.16,1502.66 1377.7,1503.46C1377.38,1504.01 1376.82,1504.31 1376.23,1504.31Z" style="fill:rgb(103,154,230);fill-rule:nonzero;"/>
        <path d="M1475.61,1561.68C1475.32,1561.68 1475.03,1561.61 1474.77,1561.46L1468.92,1558.08C1468.11,1557.62 1467.84,1556.58 1468.3,1555.78C1468.77,1554.97 1469.8,1554.69 1470.61,1555.16L1476.45,1558.53C1477.26,1559 1477.54,1560.03 1477.07,1560.84C1476.76,1561.38 1476.19,1561.68 1475.61,1561.68Z" style="fill:rgb(103,154,230);fill-rule:nonzero;"/>
        <path d="M1392.62,1583.92C1392.34,1583.92 1392.05,1583.85 1391.78,1583.69C1390.97,1583.23 1390.7,1582.19 1391.16,1581.39L1394.54,1575.54C1395,1574.73 1396.03,1574.45 1396.84,1574.92C1397.65,1575.39 1397.93,1576.42 1397.46,1577.23L1394.09,1583.07C1393.77,1583.62 1393.21,1583.92 1392.62,1583.92Z" style="fill:rgb(103,154,230);fill-rule:nonzero;"/>
        <path d="M1450,1484.54C1449.71,1484.54 1449.42,1484.47 1449.16,1484.32C1448.35,1483.85 1448.07,1482.82 1448.54,1482.01L1451.91,1476.17C1452.38,1475.35 1453.41,1475.08 1454.22,1475.55C1455.03,1476.01 1455.3,1477.05 1454.84,1477.85L1451.46,1483.7C1451.15,1484.24 1450.58,1484.54 1450,1484.54Z" style="fill:rgb(103,154,230);fill-rule:nonzero;"/>
        <path d="M1370.39,1561.68C1369.81,1561.68 1369.24,1561.38 1368.93,1560.84C1368.46,1560.03 1368.74,1559 1369.55,1558.53L1375.39,1555.16C1376.19,1554.69 1377.23,1554.97 1377.7,1555.78C1378.16,1556.58 1377.89,1557.62 1377.08,1558.08L1371.23,1561.46C1370.97,1561.61 1370.68,1561.68 1370.39,1561.68Z" style="fill:rgb(103,154,230);fill-rule:nonzero;"/>
        <path d="M1469.77,1504.31C1469.18,1504.31 1468.62,1504.01 1468.3,1503.46C1467.84,1502.66 1468.11,1501.63 1468.92,1501.16L1474.77,1497.78C1475.57,1497.31 1476.6,1497.59 1477.07,1498.4C1477.54,1499.21 1477.26,1500.24 1476.45,1500.71L1470.61,1504.08C1470.34,1504.24 1470.05,1504.31 1469.77,1504.31Z" style="fill:rgb(103,154,230);fill-rule:nonzero;"/>
        <path d="M1453.38,1583.92C1452.79,1583.92 1452.23,1583.62 1451.91,1583.07L1448.54,1577.23C1448.07,1576.42 1448.35,1575.39 1449.16,1574.92C1449.96,1574.45 1450.99,1574.73 1451.46,1575.54L1454.84,1581.39C1455.3,1582.19 1455.03,1583.23 1454.22,1583.69C1453.95,1583.85 1453.66,1583.92 1453.38,1583.92Z" style="fill:rgb(103,154,230);fill-rule:nonzero;"/>
        <path d="M1396,1484.54C1395.42,1484.54 1394.85,1484.24 1394.54,1483.7L1391.16,1477.85C1390.7,1477.05 1390.97,1476.01 1391.78,1475.55C1392.58,1475.08 1393.62,1475.35 1394.09,1476.17L1397.46,1482.01C1397.93,1482.82 1397.65,1483.85 1396.84,1484.32C1396.58,1484.47 1396.29,1484.54 1396,1484.54Z" style="fill:rgb(103,154,230);fill-rule:nonzero;"/>
        <path d="M1437.77,1442.71L1408.23,1442.71C1403.57,1442.71 1399.8,1438.94 1399.8,1434.28L1399.8,1430.06C1399.8,1425.4 1403.57,1421.62 1408.23,1421.62L1437.77,1421.62C1442.43,1421.62 1446.2,1425.4 1446.2,1430.06L1446.2,1434.28C1446.2,1438.94 1442.43,1442.71 1437.77,1442.71Z" style="fill:rgb(254,180,26);fill-rule:nonzero;"/>
        <rect x="1421.5" y="1487.01" width="3" height="40.08" style="fill:rgb(221,90,60);fill-rule:nonzero;"/>
        <rect x="1424.06" y="1528.12" width="33" height="3" style="fill:rgb(221,90,60);fill-rule:nonzero;"/>
        <path d="M1423,1535.62C1419.69,1535.62 1417,1532.93 1417,1529.62C1417,1526.31 1419.69,1523.62 1423,1523.62C1426.31,1523.62 1429,1526.31 1429,1529.62C1429,1532.93 1426.31,1535.62 1423,1535.62Z" style="fill:rgb(103,154,230);fill-rule:nonzero;"/>
        <rect x="1000.69" y="1559.29" width="25.31" height="158.21" style="fill:rgb(103,154,230);fill-rule:nonzero;"/>
        <rect x="1000.69" y="1664.77" width="25.31" height="29.53" style="fill:white;fill-rule:nonzero;"/>
        <rect x="1000.69" y="1647.89" width="25.31" height="8.44" style="fill:white;fill-rule:nonzero;"/>
        <rect x="965.375" y="1447.5" width="25.313" height="270" style="fill:rgb(221,90,60);fill-rule:nonzero;"/>
        <rect x="969.594" y="1682.17" width="16.875" height="6.33" style="fill:white;fill-rule:nonzero;"/>
        <rect x="969.594" y="1699.04" width="16.875" height="6.33" style="fill:white;fill-rule:nonzero;"/>
        <path d="M986.469,1470.18C986.469,1474.84 982.691,1478.61 978.031,1478.61C973.371,1478.61 969.594,1474.84 969.594,1470.18C969.594,1465.52 973.371,1461.74 978.031,1461.74C982.691,1461.74 986.469,1465.52 986.469,1470.18Z" style="fill:white;fill-rule:nonzero;"/>
        <path d="M1248.87,1687.4L1161.66,1719.14L1086.63,1512.99L1173.84,1481.25L1248.87,1687.4Z" style="fill:rgb(103,154,230);fill-rule:nonzero;"/>
        <path d="M1238.96,1691L1171.57,1715.53L1096.54,1509.39L1163.93,1484.86L1238.96,1691Z" style="fill:rgb(254,180,26);fill-rule:nonzero;"/>
        <path d="M1152.95,1522.53C1155.34,1529.09 1151.95,1536.36 1145.38,1538.75C1138.81,1541.14 1131.55,1537.75 1129.16,1531.18C1126.77,1524.61 1130.16,1517.35 1136.73,1514.96C1143.29,1512.57 1150.56,1515.96 1152.95,1522.53Z" style="fill:rgb(103,154,230);fill-rule:nonzero;"/>
        <rect x="1036" y="1472.81" width="50.63" height="244.69" style="fill:rgb(150,175,200);fill-rule:nonzero;"/>
        <rect x="1057.09" y="1536.09" width="8.44" height="118.13" style="fill:white;fill-rule:nonzero;"/>
        <rect x="1057.09" y="1500.23" width="8.44" height="16.88" style="fill:white;fill-rule:nonzero;"/>
        <rect x="1057.09" y="1673.2" width="8.44" height="16.88" style="fill:white;fill-rule:nonzero;"/>
        <rect x="265.5" y="577.5" width="1489.5" height="36" style="fill:rgb(181,108,34);fill-rule:nonzero;"/>
        <rect x="265.5" y="577.5" width="1489.5" height="8" style="fill:rgb(192,131,69);fill-rule:nonzero;"/>
        <rect x="255.25" y="957.5" width="1489.5" height="36" style="fill:rgb(181,108,34);fill-rule:nonzero;"/>
        <rect x="255.25" y="957.5" width="1489.5" height="8" style="fill:rgb(192,131,69);fill-rule:nonzero;"/>
        <rect x="255.25" y="1337.5" width="1489.5" height="36" style="fill:rgb(181,108,34);fill-rule:nonzero;"/>
        <rect x="255.25" y="1337.5" width="1489.5" height="8" style="fill:rgb(192,131,69);fill-rule:nonzero;"/>
        <rect x="255.25" y="1717.5" width="1489.5" height="36" style="fill:rgb(181,108,34);fill-rule:nonzero;"/>
        <rect x="265.5" y="577.5" width="1489.5" height="8" style="fill:rgb(192,131,69);fill-rule:nonzero;"/>
        <rect x="255.25" y="957.5" width="1489.5" height="8" style="fill:rgb(192,131,69);fill-rule:nonzero;"/>
        <rect x="255.25" y="1337.5" width="1489.5" height="8" style="fill:rgb(192,131,69);fill-rule:nonzero;"/>
        <rect x="255.25" y="1717.5" width="1489.5" height="8" style="fill:rgb(192,131,69);fill-rule:nonzero;"/>
        <rect x="1087.39" y="521.602" width="219.37" height="54.843" style="fill:rgb(255,199,59);fill-rule:nonzero;"/>
        <rect x="1273.01" y="540.586" width="16.88" height="16.875" style="fill:white;fill-rule:nonzero;"/>
        <rect x="1104.26" y="540.586" width="16.88" height="16.875" style="fill:white;fill-rule:nonzero;"/>
        <rect x="1089.5" y="357.07" width="219.37" height="54.844" style="fill:rgb(221,90,60);fill-rule:nonzero;"/>
        <rect x="1122.19" y="378.164" width="153.99" height="12.656" style="fill:white;fill-rule:nonzero;"/>
        <rect x="1112.7" y="466.758" width="219.38" height="54.844" style="fill:rgb(150,175,200);fill-rule:nonzero;"/>
        <rect x="1068.4" y="411.914" width="219.38" height="54.844" style="fill:rgb(103,154,230);fill-rule:nonzero;"/>
        <rect x="1133.79" y="466.758" width="12.66" height="54.844" style="fill:white;fill-rule:nonzero;"/>
        <path d="M1237.15,439.336L1251.92,454.102L1266.68,439.336L1251.92,424.57L1237.15,439.336Z" style="fill:rgb(89,126,215);fill-rule:nonzero;"/>
        <path d="M1089.5,439.336L1104.26,454.102L1119.03,439.336L1104.26,424.57L1089.5,439.336Z" style="fill:rgb(89,126,215);fill-rule:nonzero;"/>
        <path d="M1119.03,439.336L1133.79,454.102L1148.56,439.336L1133.79,424.57L1119.03,439.336Z" style="fill:rgb(89,126,215);fill-rule:nonzero;"/>
        <path d="M1148.56,439.336L1163.33,454.102L1178.09,439.336L1163.33,424.57L1148.56,439.336Z" style="fill:rgb(89,126,215);fill-rule:nonzero;"/>
        <path d="M1178.09,439.336L1192.86,454.102L1207.62,439.336L1192.86,424.57L1178.09,439.336Z" style="fill:rgb(89,126,215);fill-rule:nonzero;"/>
        <path d="M1207.62,439.336L1222.39,454.102L1237.15,439.336L1222.39,424.57L1207.62,439.336Z" style="fill:rgb(89,126,215);fill-rule:nonzero;"/>
        <rect x="1004.82" y="317.555" width="7.33" height="258.89" style="fill:rgb(150,175,200);fill-rule:nonzero;"/>
        <rect x="919.344" y="317.555" width="7.334" height="258.89" style="fill:rgb(150,175,200);fill-rule:nonzero;"/>
        <path d="M926.678,321.773L926.678,572.227C932.395,568.746 946.316,561.279 965.596,561.237C985.045,561.194 999.114,568.746 1004.83,572.227L1004.83,321.773L1004.09,321.773C997.953,325.423 984.242,332.362 965.596,332.32C947.097,332.278 933.512,325.401 927.416,321.773L926.678,321.773Z" style="fill:rgb(237,237,237);fill-rule:nonzero;"/>
        <rect x="757.625" y="357.07" width="71.719" height="219.375" style="fill:rgb(221,90,60);fill-rule:nonzero;"/>
        <rect x="780.828" y="384.492" width="25.313" height="164.531" style="fill:rgb(103,154,230);fill-rule:nonzero;"/>
        <rect x="654.813" y="357.07" width="92.812" height="219.375" style="fill:rgb(150,175,200);fill-rule:nonzero;"/>
        <rect x="654.813" y="449.883" width="92.812" height="12.656" style="fill:white;fill-rule:nonzero;"/>
        <rect x="654.813" y="420.103" width="92.812" height="12.656" style="fill:white;fill-rule:nonzero;"/>
        <rect x="654.813" y="390.323" width="92.812" height="12.656" style="fill:white;fill-rule:nonzero;"/>
        <path d="M673.797,527.137C673.797,542.282 686.074,554.559 701.219,554.559C716.363,554.559 728.641,542.282 728.641,527.137C728.641,511.992 716.363,499.715 701.219,499.715C686.074,499.715 673.797,511.992 673.797,527.137Z" style="fill:white;fill-rule:nonzero;"/>
        <rect x="1025.53" y="729.828" width="7.34" height="227.813" style="fill:rgb(254,180,26);fill-rule:nonzero;"/>
        <rect x="1111.01" y="729.828" width="7.33" height="227.813" style="fill:rgb(254,180,26);fill-rule:nonzero;"/>
        <path d="M1111.01,734.047L1111.01,953.422C1105.29,949.941 1091.37,942.474 1072.09,942.432C1052.64,942.39 1038.57,949.941 1032.86,953.422L1032.86,734.047L1033.6,734.047C1039.73,737.696 1053.45,744.636 1072.09,744.594C1090.59,744.552 1104.18,737.675 1110.27,734.047L1111.01,734.047Z" style="fill:rgb(237,237,237);fill-rule:nonzero;"/>
        <rect x="922.724" y="704.516" width="7.334" height="253.125" style="fill:rgb(221,90,60);fill-rule:nonzero;"/>
        <rect x="1008.2" y="704.516" width="7.33" height="253.125" style="fill:rgb(221,90,60);fill-rule:nonzero;"/>
        <path d="M1008.2,708.734L1008.2,953.422C1002.48,949.941 988.562,942.474 969.282,942.432C949.833,942.39 935.764,949.941 930.047,953.422L930.047,708.734L930.786,708.734C936.924,712.384 950.635,719.323 969.282,719.281C987.78,719.239 1001.37,712.362 1007.46,708.734L1008.2,708.734Z" style="fill:rgb(237,237,237);fill-rule:nonzero;"/>
        <path d="M1618.64,466.615C1617.38,466.615 1616.36,465.59 1616.36,464.327C1616.36,451.709 1626.62,441.445 1639.24,441.445C1640.5,441.445 1641.53,442.47 1641.53,443.733C1641.53,444.997 1640.5,446.021 1639.24,446.021C1629.14,446.021 1620.93,454.233 1620.93,464.327C1620.93,465.59 1619.91,466.615 1618.64,466.615Z" style="fill:rgb(163,197,57);fill-rule:nonzero;"/>
        <path d="M1652.31,457.951C1644.87,456.685 1637.41,457.922 1630.47,461.164C1622.95,464.676 1614.34,464.676 1606.82,461.164C1599.88,457.922 1592.42,456.685 1584.98,457.951C1560.43,462.13 1545.34,491.934 1551.3,524.52C1557.25,557.105 1581.99,580.134 1606.54,575.956C1607.94,575.718 1609.3,575.396 1610.64,574.995C1615.87,573.42 1621.42,573.42 1626.65,574.995C1627.98,575.396 1629.35,575.718 1630.75,575.956C1655.3,580.134 1680.04,557.105 1685.99,524.52C1691.94,491.934 1676.86,462.13 1652.31,457.951Z" style="fill:rgb(221,90,60);fill-rule:nonzero;"/>
        <path d="M1663.26,490.64C1663.26,498.223 1657.12,504.369 1649.53,504.369C1641.95,504.369 1635.8,498.223 1635.8,490.64C1635.8,483.058 1641.95,476.912 1649.53,476.912C1657.12,476.912 1663.26,483.058 1663.26,490.64Z" style="fill:rgb(227,134,122);fill-rule:nonzero;"/>
        <path d="M489.928,691.386C486.012,690.696 483.396,686.961 484.087,683.045C484.777,679.129 488.512,676.515 492.428,677.205C496.344,677.896 498.959,681.63 498.269,685.546C497.578,689.462 493.844,692.077 489.928,691.386ZM480.384,667.77L441,891.125L482.657,898.47L522.041,675.116L480.384,667.77Z" style="fill:rgb(150,175,200);fill-rule:nonzero;"/>
        <path d="M519.853,687.524L505.672,685.023L506.297,681.479L520.478,683.979L519.853,687.524Z" style="fill:white;fill-rule:nonzero;"/>
        <path d="M517.978,698.16L507.342,696.285L507.967,692.739L518.603,694.615L517.978,698.16Z" style="fill:white;fill-rule:nonzero;"/>
        <path d="M516.102,708.796L501.921,706.295L502.546,702.75L516.728,705.25L516.102,708.796Z" style="fill:white;fill-rule:nonzero;"/>
        <path d="M514.227,719.432L503.591,717.557L504.216,714.011L514.852,715.887L514.227,719.432Z" style="fill:white;fill-rule:nonzero;"/>
        <path d="M512.352,730.068L498.17,727.567L498.795,724.022L512.977,726.522L512.352,730.068Z" style="fill:white;fill-rule:nonzero;"/>
        <path d="M510.476,740.704L499.84,738.829L500.465,735.283L511.101,737.159L510.476,740.704Z" style="fill:white;fill-rule:nonzero;"/>
        <path d="M508.601,751.34L494.419,748.839L495.044,745.294L509.226,747.794L508.601,751.34Z" style="fill:white;fill-rule:nonzero;"/>
        <path d="M506.725,761.976L496.089,760.1L496.714,756.555L507.351,758.43L506.725,761.976Z" style="fill:white;fill-rule:nonzero;"/>
        <path d="M504.85,772.612L490.668,770.111L491.294,766.566L505.475,769.066L504.85,772.612Z" style="fill:white;fill-rule:nonzero;"/>
        <path d="M502.975,783.248L492.338,781.372L492.964,777.827L503.6,779.702L502.975,783.248Z" style="fill:white;fill-rule:nonzero;"/>
        <path d="M501.099,793.883L486.918,791.383L487.543,787.838L501.724,790.338L501.099,793.883Z" style="fill:white;fill-rule:nonzero;"/>
        <path d="M499.224,804.52L488.588,802.644L489.213,799.099L499.849,800.974L499.224,804.52Z" style="fill:white;fill-rule:nonzero;"/>
        <path d="M497.348,815.155L483.167,812.655L483.792,809.109L497.973,811.61L497.348,815.155Z" style="fill:white;fill-rule:nonzero;"/>
        <path d="M495.473,825.792L484.837,823.916L485.462,820.371L496.098,822.246L495.473,825.792Z" style="fill:white;fill-rule:nonzero;"/>
        <path d="M493.598,836.427L479.416,833.927L480.041,830.381L494.223,832.882L493.598,836.427Z" style="fill:white;fill-rule:nonzero;"/>
        <path d="M491.722,847.063L481.086,845.188L481.711,841.643L492.347,843.518L491.722,847.063Z" style="fill:white;fill-rule:nonzero;"/>
        <path d="M489.847,857.699L475.665,855.199L476.29,851.653L490.472,854.154L489.847,857.699Z" style="fill:white;fill-rule:nonzero;"/>
        <path d="M487.971,868.335L477.335,866.459L477.96,862.915L488.596,864.79L487.971,868.335Z" style="fill:white;fill-rule:nonzero;"/>
        <path d="M486.096,878.971L471.914,876.471L472.539,872.925L486.721,875.426L486.096,878.971Z" style="fill:white;fill-rule:nonzero;"/>
        <path d="M484.22,889.607L473.584,887.731L474.209,884.186L484.846,886.062L484.22,889.607Z" style="fill:white;fill-rule:nonzero;"/>
        <path d="M372.416,744.68L389.488,749.714L401.756,736.818L387.459,721.432L377.104,724.207L372.416,744.68Z" style="fill:rgb(246,231,178);fill-rule:nonzero;"/>
        <path d="M433.202,854.178L403.862,862.04L402.552,857.149L431.892,849.288L433.202,854.178Z" style="fill:rgb(255,199,59);fill-rule:nonzero;"/>
        <path d="M427.79,873.099L418.01,875.719C412.608,877.167 407.057,873.961 405.609,868.56L403.862,862.04L433.202,854.178L434.949,860.698C436.396,866.1 433.191,871.651 427.79,873.099Z" style="fill:rgb(217,220,222);fill-rule:nonzero;"/>
        <path d="M372.416,744.68L402.552,857.149L406.627,856.058L376.709,744.403L372.416,744.68Z" style="fill:rgb(192,69,53);fill-rule:nonzero;"/>
        <path d="M397.899,738.726L427.817,850.38L431.892,849.288L401.756,736.818L397.899,738.726Z" style="fill:rgb(192,69,53);fill-rule:nonzero;"/>
        <path d="M421.297,852.127L413.147,854.311L383.448,743.471L391.598,741.288L421.297,852.127Z" style="fill:rgb(223,97,80);fill-rule:nonzero;"/>
        <path d="M376.709,744.403L406.627,856.058L413.147,854.311L383.448,743.471L376.709,744.403Z" style="fill:rgb(221,90,60);fill-rule:nonzero;"/>
        <path d="M391.598,741.288L421.297,852.127L427.817,850.38L397.899,738.726L391.598,741.288Z" style="fill:rgb(221,90,60);fill-rule:nonzero;"/>
        <path d="M377.104,724.207L387.459,721.432L379.661,713.04L377.104,724.207Z" style="fill:rgb(74,109,180);fill-rule:nonzero;"/>
        <path d="M448.916,705.078L442.166,705.078L442.166,698.328L448.916,694.953L448.916,705.078Z" style="fill:rgb(254,180,26);fill-rule:nonzero;"/>
        <path d="M450.041,858.078L441.041,858.078C433.585,858.078 427.541,852.034 427.541,844.578L427.541,732.078L463.541,732.078L463.541,844.578C463.541,852.034 457.497,858.078 450.041,858.078Z" style="fill:rgb(254,180,26);fill-rule:nonzero;"/>
        <path d="M451.079,710.877L451.079,705.078L440.003,705.078L440.003,710.877C440.003,714.455 438.473,717.861 435.8,720.237L427.541,727.578L463.541,727.578L455.282,720.237C452.609,717.861 451.079,714.455 451.079,710.877Z" style="fill:rgb(255,199,59);fill-rule:nonzero;"/>
        <rect x="425.291" y="727.578" width="40.5" height="4.5" style="fill:rgb(74,109,180);fill-rule:nonzero;"/>
        <rect x="434.516" y="737.703" width="4.5" height="112.5" style="fill:rgb(255,199,59);fill-rule:nonzero;"/>
        <rect x="384.791" y="822.641" width="121.5" height="135" style="fill:rgb(89,126,215);fill-rule:nonzero;"/>
        <rect x="379.166" y="811.391" width="132.75" height="11.25" style="fill:rgb(103,154,230);fill-rule:nonzero;"/>
        <rect x="401.104" y="822.641" width="11.25" height="135" style="fill:rgb(103,154,230);fill-rule:nonzero;"/>
        <rect x="1302.34" y="1282.66" width="219.38" height="54.84" style="fill:rgb(150,175,200);fill-rule:nonzero;"/>
        <rect x="1319.22" y="1220.22" width="232.03" height="8.44" style="fill:rgb(255,199,59);fill-rule:nonzero;"/>
        <rect x="1319.22" y="1275.06" width="232.03" height="8.44" style="fill:rgb(255,199,59);fill-rule:nonzero;"/>
        <path d="M1325.55,1275.06L1549.14,1275.06C1547.07,1271.94 1542.24,1263.76 1542.14,1252.22C1542.03,1240.26 1547.09,1231.74 1549.14,1228.66L1325.55,1228.66C1327.59,1231.74 1332.66,1240.26 1332.55,1252.22C1332.44,1263.76 1327.61,1271.94 1325.55,1275.06Z" style="fill:rgb(237,237,237);fill-rule:nonzero;"/>
        <rect x="1328.22" y="1186.61" width="185.62" height="33.75" style="fill:rgb(161,191,67);fill-rule:nonzero;"/>
        <path d="M1359.86,1203.48L1349.31,1214.03L1338.77,1203.48L1349.31,1192.94L1359.86,1203.48Z" style="fill:white;fill-rule:nonzero;"/>
        <path d="M1503.3,1203.48L1492.75,1214.03L1482.2,1203.48L1492.75,1192.94L1503.3,1203.48Z" style="fill:white;fill-rule:nonzero;"/>
        <rect x="1372.52" y="1201.38" width="97.03" height="4.21" style="fill:white;fill-rule:nonzero;"/>
        <rect x="604.688" y="902.797" width="180" height="20" style="fill:rgb(150,175,200);fill-rule:nonzero;"/>
        <rect x="585" y="922.796" width="219.375" height="34.845" style="fill:rgb(255,199,59);fill-rule:nonzero;"/>
        <rect x="559.969" y="840.359" width="232.031" height="8.438" style="fill:rgb(103,154,230);fill-rule:nonzero;"/>
        <rect x="559.969" y="895.203" width="232.031" height="8.438" style="fill:rgb(103,154,230);fill-rule:nonzero;"/>
        <path d="M566.297,895.203L789.891,895.203C787.823,892.081 782.993,883.897 782.888,872.358C782.782,860.398 787.845,851.876 789.891,848.797L566.297,848.797C568.343,851.876 573.405,860.398 573.3,872.358C573.194,883.897 568.364,892.081 566.297,895.203Z" style="fill:rgb(237,237,237);fill-rule:nonzero;"/>
        <rect x="568.969" y="806.75" width="185.625" height="33.75" style="fill:rgb(221,90,60);fill-rule:nonzero;"/>
        <path d="M600.609,823.625L590.063,834.172L579.516,823.625L590.063,813.078L600.609,823.625Z" style="fill:white;fill-rule:nonzero;"/>
        <path d="M744.047,823.625L733.5,834.172L722.953,823.625L733.5,813.078L744.047,823.625Z" style="fill:white;fill-rule:nonzero;"/>
        <rect x="613.266" y="821.516" width="97.031" height="4.218" style="fill:white;fill-rule:nonzero;"/>
        <path d="M1566.95,1067.5L1525.4,1074.83L1571.55,1336.57L1613.1,1329.24L1566.95,1067.5Z" style="fill:rgb(150,175,200);fill-rule:nonzero;"/>
        <path d="M1577.2,1125.67L1535.66,1132.99L1561.3,1278.4L1602.84,1271.08L1577.2,1125.67Z" style="fill:rgb(103,154,230);fill-rule:nonzero;"/>
        <path d="M1564.12,1172.95L1554.71,1204.6L1574.38,1231.12L1583.79,1199.47L1564.12,1172.95Z" style="fill:rgb(254,180,26);fill-rule:nonzero;"/>
        <path d="M487.441,1128.8C487.441,1117.08 512.7,1110.08 537.12,1110.08C558.114,1110.08 571.68,1119.69 571.68,1134.56C571.68,1149.43 558.114,1159.04 537.12,1159.04C513.133,1159.04 487.441,1141.29 487.441,1128.8ZM483.12,1128.8C483.12,1144.7 511.671,1163.36 537.12,1163.36C562.57,1163.36 576,1150.46 576,1134.56C576,1118.65 562.57,1105.76 537.12,1105.76C511.671,1105.76 483.12,1112.89 483.12,1128.8Z" style="fill:rgb(229,229,230);fill-rule:nonzero;"/>
        <path d="M543.168,1106.02L548.827,1111.22C560.952,1113.72 569.03,1120.3 571.133,1129.58L575.957,1133.07L575.957,1133.09L576,1133.12L576,1107.2L543.168,1106.02Z" style="fill:rgb(103,154,230);fill-rule:nonzero;"/>
        <path d="M416.16,1159.04C395.165,1159.04 381.6,1149.43 381.6,1134.56C381.6,1119.69 395.165,1110.08 416.16,1110.08C440.58,1110.08 465.84,1117.08 465.84,1128.8C465.84,1141.29 440.146,1159.04 416.16,1159.04ZM416.16,1105.76C390.711,1105.76 377.28,1118.65 377.28,1134.56C377.28,1150.46 390.711,1163.36 416.16,1163.36C441.609,1163.36 470.16,1144.7 470.16,1128.8C470.16,1112.89 441.609,1105.76 416.16,1105.76Z" style="fill:rgb(240,241,241);fill-rule:nonzero;"/>
        <path d="M410.112,1106.02L404.453,1111.22C392.328,1113.72 384.25,1120.3 382.147,1129.58L377.323,1133.07L377.323,1133.09L377.28,1133.12L377.28,1107.2L410.112,1106.02Z" style="fill:rgb(103,154,230);fill-rule:nonzero;"/>
        <path d="M487.569,1127.36C489.557,1116.5 513.719,1110.08 537.12,1110.08C541.339,1110.08 545.256,1110.47 548.827,1111.22C549.749,1111.4 550.641,1111.62 551.52,1111.86L551.52,1107.38C548.928,1106.74 546.148,1106.28 543.168,1106.02C541.238,1105.84 539.223,1105.76 537.12,1105.76C516.901,1105.76 494.712,1110.25 486.475,1120.09C482.559,1118.98 479.117,1118.72 476.639,1118.72C472.594,1118.72 469.224,1119.41 466.805,1120.09C458.568,1110.25 436.378,1105.76 416.16,1105.76C414.058,1105.76 412.042,1105.84 410.112,1106.02C407.131,1106.28 404.352,1106.74 401.76,1107.38L401.76,1111.86C402.639,1111.62 403.531,1111.4 404.453,1111.22C408.024,1110.47 411.94,1110.08 416.16,1110.08C439.56,1110.08 463.723,1116.5 465.71,1127.36L466.559,1127.36C467.654,1126.68 468.749,1126.15 469.785,1125.76C472.781,1124.61 475.373,1124.48 476.639,1124.48C479.391,1124.48 481.723,1125.07 483.494,1125.76L487.569,1127.36Z" style="fill:rgb(103,154,230);fill-rule:nonzero;"/>
        <path d="M384.48,1112.96C384.48,1113.75 383.835,1114.4 383.04,1114.4C382.245,1114.4 381.6,1113.75 381.6,1112.96C381.6,1112.16 382.245,1111.52 383.04,1111.52C383.835,1111.52 384.48,1112.16 384.48,1112.96Z" style="fill:rgb(240,241,241);fill-rule:nonzero;"/>
        <path d="M570.24,1112.96C570.24,1113.75 569.596,1114.4 568.8,1114.4C568.005,1114.4 567.36,1113.75 567.36,1112.96C567.36,1112.16 568.005,1111.52 568.8,1111.52C569.596,1111.52 570.24,1112.16 570.24,1112.96Z" style="fill:rgb(240,241,241);fill-rule:nonzero;"/>
        <path d="M416.16,1159.04C395.165,1159.04 381.6,1149.43 381.6,1134.56C381.6,1132.82 381.784,1131.16 382.143,1129.58L382.147,1129.58C382.897,1126.27 384.405,1123.31 386.586,1120.75C386.596,1120.74 386.606,1120.72 386.616,1120.71C386.62,1120.71 386.624,1120.7 386.628,1120.7C388.297,1118.75 390.356,1117.04 392.765,1115.59L392.768,1115.59C392.786,1115.58 392.805,1115.57 392.822,1115.56C395.413,1114.01 398.409,1112.76 401.76,1111.86C402.178,1111.75 402.599,1111.64 403.025,1111.53C403.494,1111.42 403.971,1111.31 404.453,1111.22C407.66,1110.54 411.144,1110.16 414.877,1110.09L414.996,1110.09C415.074,1110.09 415.152,1110.09 415.23,1110.08L417.235,1110.08C432.672,1110.21 448.289,1113.12 457.514,1118.23C462.067,1120.76 465.064,1123.82 465.71,1127.36C465.796,1127.83 465.84,1128.31 465.84,1128.8C465.84,1141.29 440.146,1159.04 416.16,1159.04Z" style="fill:white;fill-rule:nonzero;"/>
        <path d="M382.143,1129.58C382.892,1126.27 384.403,1123.31 386.586,1120.75C384.405,1123.31 382.897,1126.27 382.147,1129.58L382.143,1129.58ZM386.616,1120.71C386.62,1120.71 386.625,1120.7 386.628,1120.7C386.624,1120.7 386.62,1120.71 386.616,1120.71ZM392.765,1115.59L392.768,1115.59L392.765,1115.59ZM392.822,1115.56C395.414,1114.01 398.409,1112.76 401.76,1111.85L401.76,1111.86C398.409,1112.76 395.413,1114.01 392.822,1115.56ZM403.025,1111.53C403.494,1111.42 403.97,1111.31 404.453,1111.22C403.971,1111.31 403.494,1111.42 403.025,1111.53Z" style="fill:rgb(225,235,250);fill-rule:nonzero;"/>
        <path d="M465.71,1127.36C465.064,1123.82 462.067,1120.76 457.514,1118.23C462.07,1120.76 465.067,1123.83 465.71,1127.36ZM401.76,1111.86L401.76,1111.85C405.673,1110.79 410.071,1110.18 414.877,1110.09C411.144,1110.16 407.66,1110.54 404.453,1111.22C403.97,1111.31 403.494,1111.42 403.025,1111.53C402.599,1111.64 402.178,1111.75 401.76,1111.86ZM414.89,1110.09L414.975,1110.09L414.89,1110.09ZM414.996,1110.09C415.074,1110.09 415.151,1110.09 415.23,1110.08C415.152,1110.09 415.074,1110.09 414.996,1110.09ZM415.284,1110.08L415.343,1110.08L415.284,1110.08ZM417.235,1110.08L417.23,1110.08L417.235,1110.08ZM415.395,1110.08L415.449,1110.08L415.395,1110.08ZM417.162,1110.08L417.161,1110.08L417.162,1110.08ZM417.098,1110.08L417.08,1110.08L417.098,1110.08ZM415.511,1110.08L415.561,1110.08L415.511,1110.08ZM417.022,1110.08L417.015,1110.08L417.022,1110.08ZM416.958,1110.08L416.936,1110.08L416.958,1110.08ZM416.89,1110.08L416.864,1110.08L416.89,1110.08ZM415.649,1110.08L415.698,1110.08L415.649,1110.08ZM416.82,1110.08L416.794,1110.08L416.82,1110.08ZM416.747,1110.08L416.724,1110.08L416.747,1110.08ZM415.776,1110.08L415.823,1110.08L415.776,1110.08ZM416.682,1110.08L416.651,1110.08L416.682,1110.08ZM416.614,1110.08L416.58,1110.08L416.614,1110.08ZM416.55,1110.08L416.507,1110.08L416.55,1110.08ZM415.891,1110.08L415.936,1110.08L415.891,1110.08ZM416.482,1110.08L416.438,1110.08L416.482,1110.08ZM416.42,1110.08L416.299,1110.08L416.42,1110.08ZM416.008,1110.08L416.049,1110.08L416.008,1110.08ZM416.281,1110.08L416.16,1110.08L416.281,1110.08Z" style="fill:rgb(225,235,250);fill-rule:nonzero;"/>
        <path d="M537.12,1159.04C513.133,1159.04 487.441,1141.29 487.441,1128.8C487.441,1127.96 487.569,1127.15 487.816,1126.37C487.816,1126.36 487.817,1126.36 487.817,1126.36C487.819,1126.36 487.82,1126.35 487.822,1126.35C488.667,1123.69 490.87,1121.31 494.064,1119.25C494.068,1119.25 494.073,1119.24 494.077,1119.24C494.082,1119.24 494.087,1119.24 494.092,1119.23C503.011,1113.5 519.632,1110.22 536.046,1110.08L538.043,1110.08C538.126,1110.09 538.208,1110.09 538.291,1110.09L538.398,1110.09C542.132,1110.16 545.619,1110.54 548.827,1111.22C549.312,1111.32 549.789,1111.42 550.261,1111.53C550.685,1111.64 551.104,1111.75 551.52,1111.86C554.418,1112.64 557.051,1113.68 559.386,1114.95L559.391,1114.95C559.405,1114.96 559.419,1114.97 559.433,1114.97C562.976,1116.91 565.831,1119.37 567.891,1122.29C567.895,1122.29 567.9,1122.3 567.904,1122.31C567.911,1122.32 567.918,1122.33 567.925,1122.34C569.449,1124.51 570.534,1126.93 571.133,1129.58L571.136,1129.58C571.495,1131.16 571.68,1132.82 571.68,1134.56C571.68,1149.43 558.114,1159.04 537.12,1159.04Z" style="fill:white;fill-rule:nonzero;"/>
        <path d="M571.136,1129.58L571.133,1129.58C570.534,1126.93 569.449,1124.51 567.925,1122.34C569.452,1124.51 570.537,1126.93 571.136,1129.58ZM567.904,1122.31C567.9,1122.3 567.895,1122.29 567.891,1122.29C567.896,1122.29 567.9,1122.3 567.904,1122.31ZM559.433,1114.97C559.419,1114.97 559.405,1114.96 559.391,1114.95C559.405,1114.96 559.419,1114.97 559.433,1114.97ZM559.386,1114.95C557.051,1113.68 554.418,1112.64 551.52,1111.86L551.52,1111.85C554.418,1112.64 557.05,1113.68 559.386,1114.95ZM550.261,1111.53C549.789,1111.42 549.312,1111.32 548.827,1111.22C549.312,1111.31 549.789,1111.42 550.261,1111.53Z" style="fill:rgb(225,235,250);fill-rule:nonzero;"/>
        <path d="M487.816,1126.37C487.816,1126.36 487.817,1126.36 487.817,1126.36C487.817,1126.36 487.816,1126.36 487.816,1126.37ZM487.822,1126.35C488.665,1123.69 490.868,1121.31 494.064,1119.25C490.87,1121.31 488.667,1123.69 487.822,1126.35ZM494.077,1119.24C494.083,1119.24 494.086,1119.24 494.092,1119.23C494.087,1119.24 494.082,1119.24 494.077,1119.24ZM551.52,1111.86C551.104,1111.75 550.685,1111.64 550.261,1111.53C549.789,1111.42 549.312,1111.31 548.827,1111.22C545.619,1110.54 542.132,1110.16 538.398,1110.09C543.205,1110.18 547.605,1110.79 551.52,1111.85L551.52,1111.86ZM538.394,1110.09L538.302,1110.09L538.394,1110.09ZM538.291,1110.09C538.208,1110.09 538.126,1110.09 538.043,1110.08C538.127,1110.09 538.207,1110.09 538.291,1110.09ZM537.997,1110.08L537.935,1110.08L537.997,1110.08ZM536.046,1110.08L536.048,1110.08L536.046,1110.08ZM537.887,1110.08L537.83,1110.08L537.887,1110.08ZM536.182,1110.08L536.199,1110.08L536.182,1110.08ZM537.771,1110.08L537.718,1110.08L537.771,1110.08ZM536.259,1110.08L536.264,1110.08L536.259,1110.08ZM536.323,1110.08L536.343,1110.08L536.323,1110.08ZM536.391,1110.08L536.416,1110.08L536.391,1110.08ZM537.636,1110.08L537.579,1110.08L537.636,1110.08ZM536.46,1110.08L536.486,1110.08L536.46,1110.08ZM536.533,1110.08L536.556,1110.08L536.533,1110.08ZM537.504,1110.08L537.456,1110.08L537.504,1110.08ZM536.598,1110.08L536.629,1110.08L536.598,1110.08ZM536.667,1110.08L536.7,1110.08L536.667,1110.08ZM536.731,1110.08L536.773,1110.08L536.731,1110.08ZM537.389,1110.08L537.343,1110.08L537.389,1110.08ZM536.799,1110.08L536.842,1110.08L536.799,1110.08ZM536.86,1110.08L536.981,1110.08L536.86,1110.08ZM537.272,1110.08L537.231,1110.08L537.272,1110.08ZM536.999,1110.08L537.12,1110.08L536.999,1110.08Z" style="fill:rgb(225,235,250);fill-rule:nonzero;"/>
        <rect x="347.625" y="1249.73" width="253.125" height="7.34" style="fill:rgb(221,90,60);fill-rule:nonzero;"/>
        <rect x="347.625" y="1164.26" width="253.125" height="7.33" style="fill:rgb(221,90,60);fill-rule:nonzero;"/>
        <path d="M351.844,1171.59L596.531,1171.59C593.051,1177.31 585.584,1191.23 585.541,1210.51C585.499,1229.96 593.051,1244.03 596.531,1249.74L351.844,1249.74L351.844,1249.01C355.493,1242.87 362.433,1229.16 362.391,1210.51C362.349,1192.01 355.472,1178.43 351.844,1172.33L351.844,1171.59Z" style="fill:rgb(237,237,237);fill-rule:nonzero;"/>
        <rect x="342" y="1257.35" width="257.344" height="80.16" style="fill:rgb(161,191,67);fill-rule:nonzero;"/>
        <path d="M571.922,1326.96L586.688,1297.43L571.922,1267.9L557.156,1297.43L571.922,1326.96Z" style="fill:white;fill-rule:nonzero;"/>
        <path d="M369.422,1326.96L384.188,1297.43L369.422,1267.9L354.656,1297.43L369.422,1326.96Z" style="fill:white;fill-rule:nonzero;"/>
        <path d="M703.947,1324.88L629.164,1338.06L594,1138.64L668.784,1125.45L703.947,1324.88Z" style="fill:rgb(221,90,60);fill-rule:nonzero;"/>
        <path d="M681.328,1328.86L651.783,1334.07L616.62,1134.65L646.164,1129.44L681.328,1328.86Z" style="fill:rgb(254,180,26);fill-rule:nonzero;"/>
        <rect x="913.188" y="1451.72" width="42.187" height="265.78" style="fill:rgb(255,199,59);fill-rule:nonzero;"/>
        <path d="M934.281,1555.08L919.516,1584.61L934.281,1614.14L949.047,1584.61L934.281,1555.08Z" style="fill:rgb(221,90,60);fill-rule:nonzero;"/>
        <rect x="779.268" y="1110.25" width="7.334" height="227.81" style="fill:rgb(254,180,26);fill-rule:nonzero;"/>
        <rect x="864.744" y="1110.25" width="7.334" height="227.81" style="fill:rgb(254,180,26);fill-rule:nonzero;"/>
        <path d="M864.744,1114.47L864.744,1333.84C859.027,1330.36 845.105,1322.9 825.826,1322.85C806.377,1322.81 792.308,1330.36 786.592,1333.84L786.592,1114.47L787.33,1114.47C793.469,1118.12 807.18,1125.06 825.826,1125.02C844.325,1124.97 857.91,1118.1 864.006,1114.47L864.744,1114.47Z" style="fill:rgb(237,237,237);fill-rule:nonzero;"/>
        <rect x="934.266" y="1179.85" width="25.312" height="158.21" style="fill:rgb(103,154,230);fill-rule:nonzero;"/>
        <rect x="934.266" y="1285.33" width="25.312" height="29.53" style="fill:white;fill-rule:nonzero;"/>
        <rect x="934.266" y="1268.45" width="25.312" height="8.44" style="fill:white;fill-rule:nonzero;"/>
        <rect x="969.578" y="1093.38" width="50.622" height="244.68" style="fill:rgb(150,175,200);fill-rule:nonzero;"/>
        <rect x="990.672" y="1156.66" width="8.437" height="118.12" style="fill:white;fill-rule:nonzero;"/>
        <rect x="990.672" y="1120.8" width="8.437" height="16.87" style="fill:white;fill-rule:nonzero;"/>
        <rect x="990.672" y="1293.77" width="8.437" height="16.87" style="fill:white;fill-rule:nonzero;"/>
        <rect x="1447.97" y="331.758" width="50.62" height="244.687" style="fill:rgb(150,175,200);fill-rule:nonzero;"/>
        <rect x="1469.06" y="395.039" width="8.44" height="118.125" style="fill:white;fill-rule:nonzero;"/>
        <rect x="1469.06" y="359.18" width="8.44" height="16.875" style="fill:white;fill-rule:nonzero;"/>
        <rect x="1469.06" y="532.148" width="8.44" height="16.875" style="fill:white;fill-rule:nonzero;"/>
        <rect x="882.078" y="1072.28" width="42.188" height="265.78" style="fill:rgb(221,90,60);fill-rule:nonzero;"/>
        <rect x="301.25" y="390.75" width="9" height="144" style="fill:rgb(89,126,215);fill-rule:nonzero;"/>
        <rect x="418.25" y="314.25" width="22.5" height="263.25" style="fill:rgb(89,126,215);fill-rule:nonzero;"/>
        <path d="M281,460.5L573.5,460.5L528.5,213L326,213L281,460.5Z" style="fill:rgb(255,199,59);fill-rule:nonzero;"/>
        <path d="M322.786,460.5L531.714,460.5L499.571,213L354.929,213L322.786,460.5Z" style="fill:rgb(254,180,26);fill-rule:nonzero;"/>
        <path d="M364.571,460.5L489.929,460.5L470.643,213L383.857,213L364.571,460.5Z" style="fill:rgb(255,199,59);fill-rule:nonzero;"/>
        <path d="M406.357,460.5L448.143,460.5L441.714,213L412.786,213L406.357,460.5Z" style="fill:rgb(254,180,26);fill-rule:nonzero;"/>
        <path d="M294.5,532.5C294.5,538.713 299.537,543.75 305.75,543.75C311.963,543.75 317,538.713 317,532.5C317,526.287 311.963,521.25 305.75,521.25C299.537,521.25 294.5,526.287 294.5,532.5Z" style="fill:rgb(255,199,59);fill-rule:nonzero;"/>
        <rect x="350.75" y="546" width="157.5" height="31.5" style="fill:rgb(103,154,230);fill-rule:nonzero;"/>
        <rect x="265.5" y="605.39" width="1489.5" height="8" style="fill:rgb(134,90,40);fill-rule:nonzero;"/>
        <rect x="255.25" y="985.39" width="1489.5" height="8" style="fill:rgb(134,90,40);fill-rule:nonzero;"/>
        <rect x="255.25" y="1365.39" width="1489.5" height="8" style="fill:rgb(134,90,40);fill-rule:nonzero;"/>
        <rect x="265.5" y="605.39" width="1489.5" height="8" style="fill:rgb(134,90,40);fill-rule:nonzero;"/>
        <rect x="255.25" y="985.39" width="1489.5" height="8" style="fill:rgb(134,90,40);fill-rule:nonzero;"/>
        <rect x="255.25" y="1365.39" width="1489.5" height="8" style="fill:rgb(134,90,40);fill-rule:nonzero;"/>
        <rect x="255.25" y="1745.39" width="1489.5" height="8" style="fill:rgb(134,90,40);fill-rule:nonzero;"/>
        <path d="M1712.21,1717.5L1594.79,1717.5L1576,1612.5L1731,1612.5L1712.21,1717.5Z" style="fill:rgb(89,126,215);fill-rule:nonzero;"/>
        <path d="M1734,1622.5L1573,1622.5C1566.37,1622.5 1561,1617.13 1561,1610.5L1561,1604.5C1561,1597.87 1566.37,1592.5 1573,1592.5L1734,1592.5C1740.63,1592.5 1746,1597.87 1746,1604.5L1746,1610.5C1746,1617.13 1740.63,1622.5 1734,1622.5Z" style="fill:rgb(103,154,230);fill-rule:nonzero;"/>
        <path d="M1693.5,1480L1693.5,1495C1693.5,1497.76 1691.26,1500 1688.5,1500L1678.5,1500L1678.5,1433.36C1678.5,1420.04 1668.45,1408.41 1655.16,1407.55C1640.6,1406.61 1628.5,1418.14 1628.5,1432.5L1628.5,1472.5L1611,1472.5C1608.24,1472.5 1606,1470.26 1606,1467.5L1606,1452.5C1606,1441.45 1597.05,1432.5 1586,1432.5C1574.95,1432.5 1566,1441.45 1566,1452.5L1566,1462.5C1566,1481.83 1581.67,1497.5 1601,1497.5L1628.5,1497.5L1628.5,1550L1608.5,1550C1605.74,1550 1603.5,1547.76 1603.5,1545L1603.5,1525C1603.5,1520.86 1600.14,1517.5 1596,1517.5C1591.86,1517.5 1588.5,1520.86 1588.5,1525L1588.5,1547.5C1588.5,1557.17 1596.33,1565 1606,1565L1628.5,1565L1628.5,1592.5L1678.5,1592.5L1678.5,1525L1703.5,1525C1720.07,1525 1733.5,1511.57 1733.5,1495L1733.5,1480C1733.5,1468.95 1724.55,1460 1713.5,1460C1702.45,1460 1693.5,1468.95 1693.5,1480Z" style="fill:rgb(161,191,67);fill-rule:nonzero;"/>
        <path d="M1713.5,1460C1702.45,1460 1693.5,1468.95 1693.5,1480L1693.5,1495C1693.5,1497.76 1691.26,1500 1688.5,1500L1678.5,1500L1678.5,1433.36C1678.5,1420.04 1668.45,1408.41 1655.16,1407.55C1653.75,1407.46 1652.36,1407.52 1651,1407.66L1651,1592.5L1678.5,1592.5L1678.5,1525L1703.5,1525C1720.07,1525 1733.5,1511.57 1733.5,1495L1733.5,1480C1733.5,1468.95 1724.55,1460 1713.5,1460Z" style="fill:rgb(140,166,60);fill-rule:nonzero;"/>
        <path d="M1651,1612.5L1651,1717.5L1712.21,1717.5L1731,1612.5L1651,1612.5Z" style="fill:rgb(74,109,180);fill-rule:nonzero;"/>
        <path d="M1731,1592.5L1651,1592.5L1651,1622.5L1731,1622.5C1739.28,1622.5 1746,1615.78 1746,1607.5C1746,1599.22 1739.28,1592.5 1731,1592.5Z" style="fill:rgb(89,126,215);fill-rule:nonzero;"/>
    </g>
</svg>
