<?xml version="1.0" encoding="UTF-8" standalone="no"?>
<!DOCTYPE svg PUBLIC "-//W3C//DTD SVG 1.1//EN" "http://www.w3.org/Graphics/SVG/1.1/DTD/svg11.dtd">
<svg width="100%" height="100%" viewBox="0 0 4000 4000" version="1.1" xmlns="http://www.w3.org/2000/svg" xmlns:xlink="http://www.w3.org/1999/xlink" xml:space="preserve" xmlns:serif="http://www.serif.com/" style="fill-rule:evenodd;clip-rule:evenodd;stroke-linejoin:round;stroke-miterlimit:2;">
    <g>
        <path d="M899.477,837.229C896.347,837.229 893.788,834.72 893.743,831.579L892.366,739.496C894.746,675.438 908.442,626.638 934.239,590.006C936.059,587.425 939.625,586.809 942.229,588.624C944.816,590.443 945.438,594.021 943.612,596.614C919.131,631.37 906.118,678.147 903.828,739.624L905.211,831.411C905.256,834.574 902.73,837.178 899.561,837.229L899.477,837.229Z" style="fill:rgb(124,175,58);fill-rule:nonzero;"/>
        <path d="M952.112,853.053C948.943,853.053 946.378,850.488 946.378,847.319L946.378,781.497C950.83,734.439 967.488,699.465 995.917,677C1025.76,652.104 1052.45,637.893 1077.41,633.648C1080.57,633.134 1083.5,635.217 1084.02,638.335C1084.56,641.46 1082.46,644.422 1079.34,644.948C1056.43,648.851 1031.51,662.245 1003.15,685.897C976.783,706.733 962.001,738.151 957.818,782.04L957.846,847.319C957.846,850.488 955.281,853.053 952.112,853.053Z" style="fill:rgb(124,175,58);fill-rule:nonzero;"/>
        <path d="M838.924,838.606C835.789,838.606 833.23,836.086 833.19,832.945L831.819,726.292C832.412,686.519 820.715,658.342 796.055,639.999C793.513,638.106 792.986,634.517 794.874,631.975C796.766,629.449 800.367,628.917 802.897,630.793C830.727,651.5 843.941,682.739 843.287,726.303L844.658,832.799C844.697,835.963 842.167,838.567 838.997,838.606L838.924,838.606Z" style="fill:rgb(124,175,58);fill-rule:nonzero;"/>
        <path d="M754.636,841.126C751.993,841.126 749.613,839.284 749.036,836.596C738.425,787.136 707.914,761.944 655.76,759.586C652.597,759.441 650.144,756.764 650.29,753.601C650.435,750.437 653.145,747.951 656.275,748.13C713.575,750.722 748.555,779.677 760.247,834.188C760.913,837.285 758.941,840.336 755.845,840.997C755.437,841.086 755.033,841.126 754.636,841.126Z" style="fill:rgb(124,175,58);fill-rule:nonzero;"/>
        <rect x="2585.23" y="732.758" width="696.78" height="465.132" style="fill:rgb(249,211,153);"/>
        <rect x="2694.98" y="834.706" width="491.27" height="278.894" style="fill:rgb(219,249,255);"/>
        <path d="M3093.71,869.682C3110.68,865.209 3128.23,875.301 3132.7,892.273C3137.29,909.246 3127.19,926.791 3110.22,931.378C3093.25,935.851 3075.7,925.759 3071.12,908.787C3066.64,891.815 3076.74,874.269 3093.71,869.682Z" style="fill:rgb(255,224,117);"/>
        <rect x="2693.37" y="1009.82" width="493.23" height="102.06" style="fill:rgb(84,216,242);"/>
        <path d="M1286.51,1074.38C1252.11,1096.28 1259.22,1177.59 1279.06,1201.67L1784.44,1201.67C1768.96,1159.24 1771.02,1116.7 1784.44,1074.27L1286.51,1074.38Z" style="fill:rgb(50,76,91);"/>
        <path d="M938.695,1593.87L938.695,2304.18C938.695,2308.54 942.25,2312.09 946.608,2312.09L1095.92,2312.09C1100.28,2312.09 1103.83,2308.54 1103.83,2304.18L1103.83,1593.87C1103.83,1589.51 1100.28,1585.96 1095.92,1585.96L946.608,1585.96C942.25,1585.96 938.695,1589.51 938.695,1593.87Z" style="fill:rgb(89,178,188);"/>
        <path d="M1469.19,1911.98L1544.08,2277.57L1857.03,2277.57L1931.91,1911.98L1469.19,1911.98Z" style="fill:rgb(188,216,229);"/>
        <rect x="1587.19" y="1705.91" width="125.69" height="180.73" style="fill:rgb(232,84,35);"/>
        <path d="M1647.97,1640.08L1587.19,1706.25L1712.88,1706.25L1661.85,1640.08L1647.97,1640.08Z" style="fill:rgb(201,50,5);"/>
        <path d="M1644.76,1620.7L1644.76,1646.39C1644.76,1652.47 1649.23,1657.4 1654.74,1657.4C1660.24,1657.4 1664.72,1652.47 1664.72,1646.39L1664.72,1620.7C1664.72,1614.62 1660.24,1609.69 1654.74,1609.69C1649.23,1609.69 1644.76,1614.62 1644.76,1620.7Z" style="fill:rgb(201,50,5);"/>
        <path d="M1418.39,1682.63L1494.88,1913.01L1537.31,1898.91L1460.71,1668.52L1418.39,1682.63Z" style="fill:rgb(244,158,122);"/>
        <path d="M1425.27,1646.96L1418.05,1682.86L1460.94,1668.87L1431.81,1644.78L1425.27,1646.96Z" style="fill:rgb(255,198,175);"/>
        <path d="M1873.54,1703.16L1800.95,1934.8L1843.61,1948.11L1916.2,1716.57L1873.54,1703.16Z" style="fill:rgb(91,206,124);"/>
        <path d="M1903.02,1678.73L1873.54,1703.16L1916.32,1716.57L1909.55,1680.79L1903.02,1678.73Z" style="fill:rgb(53,150,81);"/>
        <path d="M1838.34,1633.43L1758.18,1890.08L1788.8,1899.71L1869.07,1643.06L1838.34,1633.43Z" style="fill:rgb(135,119,196);"/>
        <path d="M1859.55,1615.89L1838.34,1633.55L1869.3,1643.29L1864.25,1617.38L1859.55,1615.89Z" style="fill:rgb(84,63,170);"/>
        <path d="M844.202,2015.65L844.202,2306.01C844.202,2311.98 849.018,2316.79 854.867,2316.79L929.98,2316.79C935.943,2316.79 940.645,2311.98 940.645,2306.01L940.645,2015.65C940.645,2009.8 935.943,2004.99 929.98,2004.99L854.867,2004.99C849.018,2004.99 844.202,2009.8 844.202,2015.65Z" style="fill:rgb(178,178,63);"/>
        <path d="M1102,1875.97L1102,2302.11C1102,2308.08 1106.81,2312.89 1112.66,2312.89L1273.55,2312.89C1279.52,2312.89 1284.22,2308.08 1284.22,2302.11L1284.22,1875.97C1284.22,1870.01 1279.52,1865.19 1273.55,1865.19L1112.66,1865.19C1106.81,1865.19 1102,1870.01 1102,1875.97Z" style="fill:rgb(244,124,58);"/>
        <path d="M2198.42,1707.63L2198.42,2272.07C2198.42,2273.9 2199.91,2275.51 2201.86,2275.51L2381.68,2275.51C2383.63,2275.51 2385.12,2273.9 2385.12,2272.07L2385.12,1707.63C2385.12,1705.68 2383.63,1704.19 2381.68,1704.19L2201.86,1704.19C2199.91,1704.19 2198.42,1705.68 2198.42,1707.63Z" style="fill:rgb(30,73,86);"/>
        <path d="M2350.14,2274.25L2357.48,2274.13C2369.29,2274.02 2378.81,2264.27 2378.81,2252.57L2378.81,1733.2C2378.81,1721.5 2369.29,1711.99 2357.48,1712.21L2350.14,1712.33C2338.44,1712.44 2328.93,1722.08 2328.93,1733.89L2328.93,2253.15C2328.93,2264.96 2338.44,2274.36 2350.14,2274.25Z" style="fill:rgb(61,114,132);"/>
        <rect x="2198.65" y="2140.19" width="186.35" height="32.68" style="fill:rgb(137,160,165);"/>
        <path d="M2072.05,1618.87L2072.05,2265.99C2072.05,2272.18 2077.09,2277.23 2083.29,2277.23L2187.64,2277.23C2193.84,2277.23 2198.88,2272.18 2198.88,2265.99L2198.88,1618.87C2198.88,1612.67 2193.84,1607.63 2187.64,1607.63L2083.29,1607.63C2077.09,1607.63 2072.05,1612.67 2072.05,1618.87Z" style="fill:rgb(244,198,68);"/>
        <rect x="2407.02" y="1567.03" width="153.55" height="708.94" style="fill:rgb(239,81,45);"/>
        <path d="M2505.64,1659.23L2505.64,2101.08C2505.64,2113.36 2496.58,2123.45 2485.35,2123.45C2473.99,2123.45 2464.93,2113.36 2464.93,2101.08L2464.93,1659.23C2464.93,1646.85 2473.99,1636.87 2485.35,1636.87C2496.58,1636.87 2505.64,1646.85 2505.64,1659.23Z" style="fill:rgb(247,211,117);"/>
        <path d="M2947.49,2195.69L2916.19,2247.18C2912.75,2252.8 2914.58,2260.14 2920.09,2263.58L2926.05,2267.14C2931.67,2270.58 2939.01,2268.74 2942.45,2263.12L2973.76,2211.63C2977.08,2206.01 2975.36,2198.67 2969.74,2195.35L2963.78,2191.68C2958.27,2188.35 2950.93,2190.07 2947.49,2195.69Z" style="fill:rgb(45,135,153);"/>
        <path d="M3220.08,2201.08L3251.39,2252.57C3254.83,2258.19 3252.99,2265.53 3247.49,2268.97L3241.53,2272.53C3235.91,2275.97 3228.57,2274.13 3225.13,2268.51L3193.82,2217.02C3190.5,2211.4 3192.21,2204.06 3197.83,2200.74L3203.8,2197.07C3209.3,2193.74 3216.64,2195.46 3220.08,2201.08Z" style="fill:rgb(45,135,153);"/>
        <path d="M3142.45,2215.19C3222.15,2187.32 3264.12,2100.05 3236.25,2020.35C3208.38,1940.77 3121.12,1898.68 3041.42,1926.55C2961.71,1954.53 2919.74,2041.8 2947.61,2121.5C2975.59,2201.08 3062.86,2243.05 3142.45,2215.19ZM2918.83,2128.49C2885.57,2033.65 2935.57,1929.76 3030.52,1896.5C3125.36,1863.24 3229.26,1913.24 3262.51,2008.2C3295.65,2103.03 3245.66,2206.93 3150.82,2240.19C3055.98,2273.33 2951.97,2223.33 2918.83,2128.49Z" style="fill:rgb(211,204,204);"/>
        <path d="M3096.34,2051.89C3093.67,2051.89 3091.28,2050.01 3090.73,2047.29C3090.31,2045.24 3091.05,2043.23 3092.49,2041.92C3096.23,2037.37 3125.86,1993.9 3143.68,1967.77L3154.91,1951.3C3156.7,1948.67 3160.27,1948.03 3162.88,1949.79C3165.49,1951.58 3166.16,1955.15 3164.38,1957.76L3153.15,1974.23C3100.73,2051.13 3100.73,2051.13 3097.48,2051.78C3097.1,2051.85 3096.72,2051.89 3096.34,2051.89Z" style="fill:rgb(79,186,211);fill-rule:nonzero;"/>
        <path d="M3088.54,2158.99L3088.52,2158.99C3085.36,2158.98 3082.8,2156.41 3082.81,2153.24L3083.05,2073.66C3083.06,2070.5 3085.62,2067.95 3088.78,2067.95L3088.8,2067.95C3091.96,2067.96 3094.52,2070.53 3094.51,2073.7L3094.28,2153.28C3094.27,2156.44 3091.7,2158.99 3088.54,2158.99Z" style="fill:rgb(79,186,211);fill-rule:nonzero;"/>
        <path d="M3009.08,1802.92C3040.84,1762.21 3099.67,1754.99 3140.5,1786.64C3164,1804.99 3176.28,1832.28 3176.5,1859.92L2989.35,1859.92C2989.47,1839.96 2995.89,1819.9 3009.08,1802.92Z" style="fill:rgb(45,135,153);"/>
        <rect x="713.011" y="3049.35" width="728.539" height="359.17" style="fill:rgb(252,142,86);"/>
        <rect x="714.043" y="3054.51" width="728.547" height="66.17" style="fill:rgb(244,130,73);"/>
        <path d="M1137.09,3165.98L1174.13,3116.89L1135.14,3065.29L1097.98,3114.37L1137.09,3165.98ZM1030.21,3165.98L1069.31,3114.37L1032.16,3065.29L993.052,3117.01L1030.21,3165.98ZM1240.87,3167.12L1276.99,3119.3L1239.15,3069.19L1202.91,3117.01L1240.87,3167.12ZM926.425,3167.12L964.383,3117.01L928.145,3069.19L890.302,3119.42L926.425,3167.12ZM1344.31,3170.33L1378.6,3125.04L1340.07,3074.01L1305.78,3119.42L1344.31,3170.33ZM822.986,3170.33L861.518,3119.42L827.229,3074.01L788.698,3125.04L822.986,3170.33ZM1189.38,3235.24L1226.54,3186.16L1188.58,3135.93L1151.54,3185.01L1189.38,3235.24ZM977.915,3235.24L1015.76,3185.01L978.718,3135.93L940.76,3186.16L977.915,3235.24ZM1083.65,3236.62L1122.64,3185.01L1083.65,3133.29L1044.54,3185.01L1083.65,3236.62ZM1293.85,3237.08L1329.97,3189.37L1291.44,3138.34L1255.32,3186.16L1293.85,3237.08ZM873.444,3237.08L911.976,3186.16L875.853,3138.34L837.321,3189.37L873.444,3237.08ZM1400.96,3245.22L1435.25,3199.92L1392.93,3143.96L1358.76,3189.37L1400.96,3245.22ZM766.336,3245.22L808.537,3189.37L774.363,3143.96L732.047,3199.92L766.336,3245.22ZM1242.36,3305.19L1279.4,3256.11L1240.87,3205.2L1203.83,3254.28L1242.36,3305.19ZM924.934,3305.19L963.466,3254.28L926.425,3205.2L887.894,3256.11L924.934,3305.19ZM1031.24,3305.88L1069.2,3255.65L1030.21,3204.05L992.25,3254.28L1031.24,3305.88ZM1135.94,3306L1175.04,3254.28L1137.09,3204.05L1097.98,3255.77L1135.94,3306ZM1350.39,3312.08L1386.62,3264.25L1344.31,3208.41L1308.19,3256.11L1350.39,3312.08ZM816.908,3312.08L859.109,3256.11L822.986,3208.41L780.67,3264.25L816.908,3312.08ZM1083.65,3375.15L1121.61,3324.92L1083.65,3274.8L1045.69,3324.92L1083.65,3375.15ZM978.374,3375.95L1016.91,3324.92L977.8,3273.31L939.384,3324.23L978.374,3375.95ZM1188.92,3375.95L1227.91,3324.23L1189.49,3273.31L1150.39,3324.92L1188.92,3375.95ZM1299.01,3380.08L1336.05,3331L1293.85,3275.15L1256.7,3324.23L1299.01,3380.08ZM868.284,3380.08L910.6,3324.23L873.444,3275.15L831.243,3331L868.284,3380.08ZM970.69,3405.19C968.167,3403.24 966.677,3400.49 966.218,3397.62L966.333,3396.59L963.236,3393.84L924.934,3343.27L881.013,3401.41C877.114,3406.45 870.004,3407.49 864.958,3403.59L862.435,3400.83L859.568,3401.06C856.701,3400.61 853.949,3399.12 852,3396.59L816.908,3350.03L777.459,3402.1C773.675,3407.14 766.45,3408.17 761.405,3404.39C756.359,3400.49 755.327,3393.38 759.226,3388.33L802.459,3331L766.336,3283.29L714.846,3351.29L714.846,3313.34L752.001,3264.25L717.713,3218.96L714.846,3222.63L714.846,3184.55L759.914,3125.04L714.846,3065.4L714.846,3048.43C715.19,3048.2 715.534,3047.86 715.878,3047.63C720.924,3043.85 728.148,3044.88 731.933,3049.92L774.363,3106L813.239,3054.4L812.895,3053.59C811.748,3049.24 813.354,3044.42 817.138,3041.55C820.922,3038.8 825.853,3038.57 829.981,3041.09L832.046,3041.21C833.537,3041.55 834.913,3042.24 836.174,3043.16C838.697,3045.11 840.188,3047.86 840.646,3050.73L840.417,3053.48L875.853,3100.38L916.448,3046.6L917.595,3043.5C918.283,3042.24 919.315,3040.98 920.577,3040.06C925.623,3036.28 932.847,3037.19 936.631,3042.24L978.718,3097.97L1019.2,3044.42C1020.12,3043.16 1021.26,3042.13 1022.52,3041.44L1024.24,3040.86L1026.31,3038.46C1031.35,3034.67 1038.58,3035.7 1042.36,3040.75L1083.65,3095.33L1122.64,3043.73C1123.67,3042.47 1124.82,3041.44 1126.08,3040.75L1129.75,3039.26C1134.91,3035.36 1142.02,3036.39 1145.92,3041.44L1188.46,3097.86L1226.65,3047.4C1226.99,3044.19 1228.48,3041.44 1231.01,3039.49C1236.05,3035.7 1243.28,3036.62 1247.06,3041.67L1291.44,3100.38L1325.96,3054.74L1324.7,3052.22C1323.55,3047.86 1325.16,3043.04 1328.94,3040.18C1333.99,3036.39 1341.1,3037.42 1345,3042.47L1345.8,3043.5L1347.98,3044.53C1350.5,3046.48 1351.99,3049.24 1352.45,3052.22L1392.93,3106L1440.87,3042.7L1440.87,3080.66L1407.38,3125.04L1440.87,3168.84L1440.87,3230.42L1415.29,3264.25L1440.87,3297.97L1440.87,3336.04L1400.96,3283.29L1364.84,3331L1405.89,3385.35C1409.67,3390.4 1408.64,3397.51 1403.6,3401.41C1398.55,3405.19 1391.44,3404.16 1387.54,3399.12L1350.39,3350.03L1313,3399.57C1310.13,3403.36 1305.43,3404.85 1301.08,3403.82L1297.41,3401.98L1296.03,3402.67C1291.67,3403.7 1286.97,3402.21 1284.1,3398.43L1242.36,3343.27L1201.76,3396.82C1200.85,3398.08 1199.7,3399.12 1198.44,3399.92L1195.57,3400.83L1194.43,3402.21C1189.38,3406 1182.15,3405.08 1178.37,3400.03L1135.94,3343.96L1095.34,3397.74C1091.56,3402.78 1084.34,3403.7 1079.29,3399.92L1078.6,3399.12L1077.23,3399.12C1074.36,3398.77 1071.61,3397.28 1069.66,3394.76L1031.35,3343.96L986.745,3403.01C982.961,3408.06 975.736,3408.98 970.69,3405.19Z" style="fill:rgb(206,94,38);"/>
        <path d="M1876.88,2803.37C1876.66,2803.37 1876.44,2803.36 1876.23,2803.34C1873.08,2802.98 1870.82,2800.14 1871.17,2797C1884.1,2682 1924,2589.38 1989.73,2521.74C1991.92,2519.48 1995.57,2519.41 1997.83,2521.63C2000.1,2523.83 2000.16,2527.46 1997.95,2529.74C1934.03,2595.51 1895.21,2685.86 1882.57,2798.27C1882.24,2801.21 1879.76,2803.37 1876.88,2803.37Z" style="fill:rgb(135,186,71);fill-rule:nonzero;"/>
        <path d="M1900.72,2786.06C1899.67,2786.06 1898.61,2785.76 1897.65,2785.17C1894.98,2783.47 1894.18,2779.93 1895.88,2777.25C1938.2,2710.42 1991.41,2669.21 2058.53,2651.27C2061.64,2650.48 2064.74,2652.29 2065.55,2655.33C2066.37,2658.39 2064.55,2661.54 2061.49,2662.35C1997.28,2679.51 1946.28,2719.1 1905.57,2783.39C1904.48,2785.12 1902.62,2786.06 1900.72,2786.06Z" style="fill:rgb(135,186,71);fill-rule:nonzero;"/>
        <path d="M1839.6,2796.72C1837.29,2796.72 1835.11,2795.32 1834.24,2793.02C1803.73,2712.95 1750.24,2672.03 1670.73,2667.92C1667.56,2667.76 1665.13,2665.06 1665.29,2661.91C1665.46,2658.74 1668.16,2656.09 1671.32,2656.47C1755.86,2660.84 1812.66,2704.17 1844.96,2788.95C1846.08,2791.9 1844.6,2795.22 1841.64,2796.34C1840.97,2796.59 1840.28,2796.72 1839.6,2796.72Z" style="fill:rgb(135,186,71);fill-rule:nonzero;"/>
        <path d="M1760.93,2684.79C1731.92,2676.53 1714.6,2664.38 1698.78,2640.87C1684.78,2621.38 1686.16,2597.64 1692.81,2580.09C1712.88,2580.89 1734.1,2588.69 1749.81,2616.21C1760.36,2639.04 1768.27,2665.64 1760.93,2684.79Z" style="fill:rgb(107,155,45);"/>
        <path d="M1670.56,2661.97C1654.97,2681.47 1640.18,2690.75 1617.24,2695.23C1597.97,2699.7 1580.31,2691.1 1569.19,2680.43C1576.19,2665.3 1588.91,2651.76 1614.83,2648.55C1635.47,2647.75 1658.29,2650.27 1670.56,2661.97Z" style="fill:rgb(135,186,71);"/>
        <path d="M1921.48,2625.85C1903.59,2608.53 1895.79,2592.93 1893.5,2569.66C1890.97,2549.93 1901.18,2533.3 1912.99,2523.21C1927.21,2531.58 1939.6,2545.57 1940.17,2571.72C1939.02,2592.36 1934.32,2614.84 1921.48,2625.85Z" style="fill:rgb(107,155,45);"/>
        <path d="M1897.63,2688.46C1903.47,2664.26 1912.99,2649.58 1932.03,2635.94C1947.62,2623.78 1967.23,2624.24 1981.91,2629.29C1981.8,2645.92 1975.95,2663.58 1953.7,2677.34C1935.35,2686.74 1913.57,2693.97 1897.63,2688.46Z" style="fill:rgb(107,155,45);"/>
        <path d="M1948.54,2719.88C1961.16,2705.66 1972.97,2699.24 1990.74,2696.83C2005.65,2694.31 2018.72,2701.65 2026.75,2710.36C2020.79,2721.6 2010.35,2731.35 1990.4,2732.61C1974.57,2732.27 1957.37,2729.4 1948.54,2719.88Z" style="fill:rgb(135,186,71);"/>
        <path d="M2055.77,2658.07C2064.71,2648.09 2072.97,2643.62 2085.47,2641.9C2096.02,2640.07 2105.19,2645.34 2110.81,2651.42C2106.57,2659.22 2099.34,2666.21 2085.35,2667.02C2074.11,2666.79 2061.96,2664.72 2055.77,2658.07Z" style="fill:rgb(135,186,71);"/>
        <path d="M1764.94,2742.93C1776.3,2735.82 1785.47,2733.76 1797.97,2735.71C1808.52,2736.85 1815.98,2744.42 1819.65,2751.88C1813.34,2758.3 1804.39,2762.89 1790.75,2759.79C1780.08,2756.46 1769.07,2751.07 1764.94,2742.93Z" style="fill:rgb(107,155,45);"/>
        <path d="M2119.64,3103.48L2119.64,3375.26C2119.64,3385.58 2128.01,3393.95 2138.22,3393.95L2410,3393.95C2420.32,3393.95 2428.7,3385.58 2428.7,3375.26L2428.7,3103.48C2428.7,3093.27 2420.32,3084.9 2410,3084.9L2138.22,3084.9C2128.01,3084.9 2119.64,3093.27 2119.64,3103.48Z" style="fill:rgb(68,96,101);"/>
        <path d="M2133.97,3113.11L2133.97,3174.23C2133.97,3180.2 2138.79,3185.01 2144.75,3185.01L2205.88,3185.01C2211.73,3185.01 2216.54,3180.2 2216.54,3174.23L2216.54,3113.11C2216.54,3107.26 2211.73,3102.45 2205.88,3102.45L2144.75,3102.45C2138.79,3102.45 2133.97,3107.26 2133.97,3113.11Z" style="fill:rgb(226,91,61);"/>
        <path d="M2233.17,3112.31L2233.17,3173.43C2233.17,3179.28 2237.99,3184.1 2243.84,3184.1L2304.96,3184.1C2310.92,3184.1 2315.62,3179.28 2315.62,3173.43L2315.62,3112.31C2315.62,3106.34 2310.92,3101.53 2304.96,3101.53L2243.84,3101.53C2237.99,3101.53 2233.17,3106.34 2233.17,3112.31Z" style="fill:rgb(244,198,68);"/>
        <path d="M2329.84,3111.39L2329.84,3172.51C2329.84,3178.48 2334.66,3183.29 2340.51,3183.29L2401.63,3183.29C2407.59,3183.29 2412.3,3178.48 2412.3,3172.51L2412.3,3111.39C2412.3,3105.54 2407.59,3100.73 2401.63,3100.73L2340.51,3100.73C2334.66,3100.73 2329.84,3105.54 2329.84,3111.39Z" style="fill:rgb(86,191,170);"/>
        <path d="M2232.83,3209.78L2232.83,3270.91C2232.83,3276.87 2237.64,3281.57 2243.49,3281.57L2304.73,3281.57C2310.58,3281.57 2315.39,3276.87 2315.39,3270.91L2315.39,3209.78C2315.39,3203.93 2310.58,3199.12 2304.73,3199.12L2243.49,3199.12C2237.64,3199.12 2232.83,3203.93 2232.83,3209.78Z" style="fill:rgb(226,91,61);"/>
        <path d="M2330.53,3210.47L2330.53,3271.59C2330.53,3277.56 2335.35,3282.37 2341.31,3282.37L2402.43,3282.37C2408.28,3282.37 2413.1,3277.56 2413.1,3271.59L2413.1,3210.47C2413.1,3204.62 2408.28,3199.81 2402.43,3199.81L2341.31,3199.81C2335.35,3199.81 2330.53,3204.62 2330.53,3210.47Z" style="fill:rgb(244,198,68);"/>
        <path d="M2328.58,3308.86L2328.58,3369.99C2328.58,3375.84 2333.4,3380.65 2339.25,3380.65L2400.48,3380.65C2406.33,3380.65 2411.15,3375.84 2411.15,3369.99L2411.15,3308.86C2411.15,3302.9 2406.33,3298.2 2400.48,3298.2L2339.25,3298.2C2333.4,3298.2 2328.58,3302.9 2328.58,3308.86Z" style="fill:rgb(244,198,68);"/>
        <path d="M2234.32,3308.86L2234.32,3369.99C2234.32,3375.95 2239.13,3380.65 2244.98,3380.65L2306.11,3380.65C2312.07,3380.65 2316.77,3375.95 2316.77,3369.99L2316.77,3308.86C2316.77,3303.02 2312.07,3298.2 2306.11,3298.2L2244.98,3298.2C2239.13,3298.2 2234.32,3303.02 2234.32,3308.86Z" style="fill:white;"/>
        <path d="M2135.35,3211.27L2135.35,3272.4C2135.35,3278.25 2140.17,3283.06 2146.02,3283.06L2207.14,3283.06C2213.1,3283.06 2217.8,3278.25 2217.8,3272.4L2217.8,3211.27C2217.8,3205.31 2213.1,3200.49 2207.14,3200.49L2146.02,3200.49C2140.17,3200.49 2135.35,3205.31 2135.35,3211.27Z" style="fill:white;"/>
        <path d="M2135.35,3310.24L2135.35,3371.36C2135.35,3377.33 2140.17,3382.14 2146.13,3382.14L2207.25,3382.14C2213.1,3382.14 2217.92,3377.33 2217.92,3371.36L2217.92,3310.24C2217.92,3304.39 2213.1,3299.58 2207.25,3299.58L2146.13,3299.58C2140.17,3299.58 2135.35,3304.39 2135.35,3310.24Z" style="fill:rgb(86,191,170);"/>
        <path d="M885.141,2344.89L885.141,2431.93C885.141,2441.45 892.825,2449.13 902.343,2449.13L995.117,2449.13C1004.52,2449.13 1012.2,2441.45 1012.2,2431.93L1012.2,2344.89C1012.2,2335.37 1004.52,2327.69 995.117,2327.69L902.343,2327.69C892.825,2327.69 885.141,2335.37 885.141,2344.89Z" style="fill:rgb(211,163,124);"/>
        <path d="M3026.16,2344.77L3026.16,2431.81C3026.16,2441.33 3033.85,2449.02 3043.25,2449.02L3136.02,2449.02C3145.54,2449.02 3153.22,2441.33 3153.22,2431.81L3153.22,2344.77C3153.22,2335.26 3145.54,2327.57 3136.02,2327.57L3043.25,2327.57C3033.85,2327.57 3026.16,2335.26 3026.16,2344.77Z" style="fill:rgb(211,163,124);"/>
        <path d="M534.917,2292.71L534.917,2379.87C534.917,2389.27 542.601,2396.95 552.119,2396.95L3465.61,2396.95C3475.01,2396.95 3482.69,2389.27 3482.69,2379.87L3482.69,2292.71C3482.69,2283.19 3475.01,2275.51 3465.61,2275.51L552.119,2275.51C542.601,2275.51 534.917,2283.19 534.917,2292.71Z" style="fill:rgb(163,91,35);"/>
        <path d="M872.756,3460.12L872.756,3547.28C872.756,3556.68 880.439,3564.36 889.958,3564.36L982.617,3564.36C992.135,3564.36 999.818,3556.68 999.818,3547.28L999.818,3460.12C999.818,3450.72 992.135,3442.92 982.617,3442.92L889.958,3442.92C880.439,3442.92 872.756,3450.72 872.756,3460.12Z" style="fill:rgb(211,163,124);"/>
        <path d="M3011.71,3469.76L3011.71,3556.91C3011.71,3566.31 3019.4,3574 3028.92,3574L3121.57,3574C3131.09,3574 3138.78,3566.31 3138.78,3556.91L3138.78,3469.76C3138.78,3460.35 3131.09,3452.67 3121.57,3452.67L3028.92,3452.67C3019.4,3452.67 3011.71,3460.35 3011.71,3469.76Z" style="fill:rgb(211,163,124);"/>
        <path d="M534.917,3412.19L534.917,3499.23C534.917,3508.75 542.601,3516.43 552.119,3516.43L3465.61,3516.43C3475.01,3516.43 3482.69,3508.75 3482.69,3499.23L3482.69,3412.19C3482.69,3402.67 3475.01,3394.99 3465.61,3394.99L552.119,3394.99C542.601,3394.99 534.917,3402.67 534.917,3412.19Z" style="fill:rgb(163,91,35);"/>
        <path d="M679.64,1005.23L679.64,823.582C679.64,820.944 679.754,818.307 679.869,815.669L1090.07,815.669C1090.18,818.307 1090.3,820.944 1090.3,823.582L1090.3,1005.23C1090.3,1112.68 1003.03,1199.95 895.462,1199.95L874.477,1199.95C766.909,1199.95 679.64,1112.68 679.64,1005.23Z" style="fill:rgb(255,229,181);"/>
        <path d="M714.502,691.359C702.117,678.974 702.117,658.791 714.502,646.291C716.336,644.571 718.286,643.08 720.35,641.819C710.374,642.163 700.282,638.493 692.599,630.924C678.149,616.475 678.149,592.852 692.599,578.402C706.359,564.641 728.263,563.953 742.827,576.224C743.63,569.343 746.611,562.691 751.886,557.417C764.386,544.917 784.569,544.917 796.955,557.417C809.455,569.801 809.455,589.984 796.955,602.484C794.891,604.549 792.597,606.269 790.074,607.645C799.248,606.842 808.651,609.824 815.647,616.819C828.147,629.319 828.147,649.502 815.647,661.887C803.262,674.387 783.079,674.387 770.579,661.887C769.203,660.511 767.941,659.02 766.794,657.415C771.267,668.768 768.859,682.185 759.57,691.359C747.185,703.859 727.001,703.859 714.502,691.359Z" style="fill:rgb(255,173,101);"/>
        <path d="M931.356,621.979C931.241,621.521 931.012,621.062 930.897,620.604C928.26,622.553 925.164,624.044 921.953,625.19C903.146,631.498 882.733,621.406 876.311,602.714C870.004,583.907 880.095,563.494 898.788,557.187C905.898,554.779 913.123,554.664 919.774,556.499C912.893,552.256 907.389,545.719 904.522,537.462C898.214,518.655 908.191,498.243 926.999,491.936C945.805,485.514 966.218,495.605 972.525,514.298C974.131,519 974.704,523.586 974.36,528.174C986.287,530.811 996.493,539.412 1000.74,551.683C1007.04,570.49 997.066,590.902 978.259,597.209C977.342,597.553 976.31,597.897 975.392,598.127C977.112,600.306 978.488,602.829 979.406,605.581C983.993,618.883 976.768,633.333 963.581,637.805C950.278,642.277 935.829,635.167 931.356,621.979Z" style="fill:rgb(255,173,101);"/>
        <path d="M1075.96,704.776C1062.43,692.506 1061.4,671.405 1073.67,657.874C1074.59,656.956 1075.39,656.153 1076.31,655.351C1072.98,653.745 1069.89,651.681 1067.02,649.043C1051.08,634.594 1049.93,609.709 1064.38,593.769C1077.34,579.549 1098.56,577.026 1114.38,587.118C1115.87,584.365 1117.59,581.843 1119.77,579.435C1134.79,562.921 1160.48,561.774 1176.99,576.682C1193.51,591.705 1194.65,617.393 1179.63,633.906C1176.77,637.117 1173.44,639.754 1169.77,641.819C1181.7,653.516 1182.27,672.667 1171.03,685.052C1160.37,696.749 1142.82,698.584 1130.09,689.754C1128.72,694.341 1126.31,698.813 1122.87,702.598C1110.6,716.129 1089.5,717.162 1075.96,704.776Z" style="fill:rgb(255,173,101);"/>
        <path d="M628.723,706.497C640.191,710.969 645.81,723.928 641.338,735.395C640.076,738.606 638.241,741.358 635.833,743.537C641.338,742.276 647.187,742.62 652.691,744.799C667.37,750.647 674.709,767.275 668.86,781.954C663.126,796.748 646.384,803.972 631.705,798.124C629.641,797.321 627.806,796.289 625.971,795.142C625.971,795.257 625.856,795.486 625.856,795.601C622.531,804.087 612.783,808.33 604.297,805.004C596.155,801.793 591.912,792.734 594.55,784.592C592.485,784.362 590.307,783.904 588.357,783.101C576.889,778.628 571.155,765.555 575.742,754.087C579.986,743.193 591.797,737.574 602.806,740.785C598.219,734.822 596.729,726.68 599.71,719.111C604.183,707.644 617.255,701.909 628.723,706.497Z" style="fill:rgb(255,173,101);"/>
        <path d="M1111.06,617.507C1118.05,610.512 1129.52,610.512 1136.51,617.507C1143.51,624.502 1143.51,635.97 1136.51,642.965C1129.52,649.961 1118.05,649.961 1111.06,642.965C1104.06,635.97 1104.06,624.502 1111.06,617.507Z" style="fill:rgb(255,221,119);"/>
        <path d="M933.994,557.417C940.989,550.421 952.457,550.421 959.452,557.417C966.447,564.412 966.447,575.765 959.452,582.875C952.457,589.87 940.989,589.87 933.994,582.875C926.999,575.765 926.999,564.412 933.994,557.417Z" style="fill:rgb(255,221,119);"/>
        <path d="M741.68,604.893C748.676,597.897 760.143,597.897 767.139,604.893C774.134,612.002 774.134,623.355 767.139,630.351C760.143,637.346 748.676,637.346 741.68,630.351C734.685,623.355 734.685,612.002 741.68,604.893Z" style="fill:rgb(255,221,119);"/>
        <path d="M612.668,754.202C616.682,750.074 623.333,750.074 627.462,754.202C631.59,758.331 631.59,764.982 627.462,769.11C623.333,773.124 616.682,773.124 612.668,769.11C608.54,764.982 608.54,758.331 612.668,754.202Z" style="fill:rgb(255,221,119);"/>
        <path d="M1659.9,1081.38C1643.27,1121.63 1644.53,1153.39 1661.16,1186.65L2159.55,1199.72C2143.95,1162.91 2146.13,1126.1 2159.55,1089.4L1659.9,1081.38Z" style="fill:rgb(229,226,209);"/>
        <path d="M880.21,1263.48L880.21,1350.52C880.21,1360.04 887.894,1367.72 897.297,1367.72L990.071,1367.72C999.475,1367.72 1007.16,1360.04 1007.16,1350.52L1007.16,1263.48C1007.16,1253.96 999.475,1246.28 990.071,1246.28L897.297,1246.28C887.894,1246.28 880.21,1253.96 880.21,1263.48Z" style="fill:rgb(211,163,124);"/>
        <path d="M3021.12,1263.37L3021.12,1350.41C3021.12,1359.93 3028.8,1367.61 3038.32,1367.61L3130.98,1367.61C3140.5,1367.61 3148.18,1359.93 3148.18,1350.41L3148.18,1263.37C3148.18,1253.85 3140.5,1246.17 3130.98,1246.17L3038.32,1246.17C3028.8,1246.17 3021.12,1253.85 3021.12,1263.37Z" style="fill:rgb(211,163,124);"/>
        <rect x="1003.72" y="3137.31" width="178.89" height="140.48" style="fill:rgb(104,56,56);"/>
        <path d="M671.498,2952.91L671.498,3048.43C671.498,3052.68 675.053,3056.23 679.411,3056.23L1475.84,3056.23C1480.2,3056.23 1483.76,3052.68 1483.76,3048.43L1483.76,2952.91C1483.76,2948.66 1480.2,2945.11 1475.84,2945.11L679.411,2945.11C675.053,2945.11 671.498,2948.66 671.498,2952.91Z" style="fill:rgb(216,89,25);"/>
        <rect x="2200.37" y="2043.98" width="186.47" height="32.68" style="fill:rgb(137,160,165);"/>
        <path d="M3143.13,2214.84C3226.96,2185.49 3271.11,2093.63 3241.76,2009.8C3212.4,1925.97 3120.54,1881.82 3036.71,1911.18C2952.88,1940.54 2908.73,2032.39 2938.09,2116.22C2967.45,2199.94 3059.3,2244.2 3143.13,2214.84ZM2907.7,2123.56C2872.72,2023.79 2925.36,1914.39 3025.25,1879.41C3125.01,1844.44 3234.42,1897.19 3269.39,1996.96C3304.37,2096.73 3251.73,2206.13 3151.85,2241.11C3052.08,2276.08 2942.68,2223.45 2907.7,2123.56Z" style="fill:rgb(79,186,211);"/>
        <path d="M3075.82,2045.24C3082.81,2038.24 3094.17,2038.24 3101.05,2045.24C3108.04,2052.23 3108.04,2063.58 3101.05,2070.58C3094.17,2077.58 3082.81,2077.58 3075.82,2070.58C3068.82,2063.58 3068.82,2052.23 3075.82,2045.24Z" style="fill:rgb(45,135,153);"/>
        <path d="M962.778,732.873C973.787,713.377 985.599,703.056 1005.44,695.832C1021.95,689.065 1038.81,694.226 1050.28,702.139C1046.15,716.588 1036.74,730.464 1014.15,736.886C995.919,740.556 975.277,741.588 962.778,732.873Z" style="fill:rgb(124,175,58);"/>
        <path d="M839.041,790.44C817.711,783.674 805.097,774.271 793.858,756.381C783.881,741.703 785.372,724.042 790.762,711.198C805.67,712.23 821.266,718.538 832.275,739.294C839.729,756.381 844.89,776.335 839.041,790.44Z" style="fill:rgb(124,175,58);"/>
        <path d="M681.016,978.74L681.016,884.017C681.016,882.182 681.131,880.347 681.246,878.512L1091.45,878.512C1091.56,880.347 1091.67,882.182 1091.67,884.017L1091.67,978.74L681.016,978.74Z" style="fill:rgb(234,201,132);"/>
        <path d="M1502.33,2073.56L1520.8,2165.07L1879.85,2165.07L1897.63,2073.56L1502.33,2073.56Z" style="fill:rgb(163,204,219);"/>
        <path d="M2872.04,940.094L2873.76,1045.71C2904.15,1047.2 2929.15,1034.47 2927.43,996.4C2925.59,962.571 2905.64,943.075 2872.04,940.094Z" style="fill:white;"/>
        <path d="M2827.89,1044.79C2831.56,1054.43 2837.29,1063.49 2850.36,1070.83L2919.63,1071.63C2931.67,1064.86 2939.47,1055.23 2944.63,1043.99L2827.89,1044.79Z" style="fill:rgb(137,76,76);"/>
        <path d="M3086.02,2191.34C3088.66,2188.7 3093.02,2188.7 3095.66,2191.34C3098.41,2194.09 3098.41,2198.33 3095.66,2201.08C3093.02,2203.72 3088.66,2203.72 3086.02,2201.08C3083.39,2198.33 3083.39,2194.09 3086.02,2191.34Z" style="fill:rgb(45,135,153);"/>
        <path d="M3083.16,1924.25C3085.91,1921.62 3090.27,1921.62 3092.91,1924.25C3095.54,1927 3095.54,1931.25 3092.91,1934C3090.27,1936.64 3085.91,1936.64 3083.16,1934C3080.52,1931.25 3080.52,1927 3083.16,1924.25Z" style="fill:rgb(45,135,153);"/>
        <path d="M2951.85,2056.71C2954.49,2053.95 2958.85,2053.95 2961.6,2056.71C2964.24,2059.34 2964.24,2063.7 2961.6,2066.34C2958.85,2068.98 2954.49,2068.98 2951.85,2066.34C2949.21,2063.7 2949.21,2059.34 2951.85,2056.71Z" style="fill:rgb(45,135,153);"/>
        <path d="M3214.69,2056.48C3217.33,2053.84 3221.69,2053.84 3224.33,2056.48C3226.96,2059.11 3226.96,2063.47 3224.33,2066.22C3221.69,2068.86 3217.33,2068.86 3214.69,2066.22C3211.94,2063.47 3211.94,2059.11 3214.69,2056.48Z" style="fill:rgb(45,135,153);"/>
        <path d="M2997.38,2144.2C3000.13,2141.45 3004.37,2141.45 3007.13,2144.2C3009.76,2146.84 3009.76,2151.2 3007.13,2153.84C3004.37,2156.47 3000.13,2156.47 2997.38,2153.84C2994.74,2151.2 2994.74,2146.84 2997.38,2144.2Z" style="fill:rgb(45,135,153);"/>
        <path d="M3179.72,2145.81C3182.35,2143.17 3186.71,2143.17 3189.35,2145.81C3191.99,2148.45 3191.99,2152.8 3189.35,2155.56C3186.71,2158.19 3182.35,2158.19 3179.72,2155.56C3176.96,2152.8 3176.96,2148.45 3179.72,2145.81Z" style="fill:rgb(45,135,153);"/>
        <path d="M2997.26,1969.44C2999.9,1966.8 3004.26,1966.8 3007.01,1969.44C3009.65,1972.07 3009.65,1976.43 3007.01,1979.07C3004.26,1981.82 2999.9,1981.82 2997.26,1979.07C2994.63,1976.43 2994.63,1972.07 2997.26,1969.44Z" style="fill:rgb(45,135,153);"/>
        <path d="M3183.04,1970.58C3185.68,1967.94 3190.04,1967.94 3192.67,1970.58C3195.43,1973.22 3195.43,1977.58 3192.67,1980.22C3190.04,1982.97 3185.68,1982.97 3183.04,1980.22C3180.4,1977.58 3180.4,1973.22 3183.04,1970.58Z" style="fill:rgb(45,135,153);"/>
        <path d="M2690.39,834.362C2685.65,834.362 2681.8,830.521 2681.79,825.778C2681.78,821.029 2685.62,817.171 2690.37,817.16L3192.54,816.13L3192.56,816.13C3197.3,816.13 3201.15,819.971 3201.16,824.714C3201.17,829.462 3197.33,833.32 3192.58,833.332L2690.41,834.362L2690.39,834.362Z" style="fill:rgb(232,181,101);fill-rule:nonzero;"/>
        <path d="M2689.12,1129.31C2684.39,1129.31 2680.53,1125.47 2680.52,1120.73C2680.51,1115.98 2684.35,1112.12 2689.1,1112.11L3191.27,1111.08L3191.29,1111.08C3196.03,1111.08 3199.88,1114.92 3199.9,1119.66C3199.91,1124.41 3196.07,1128.27 3191.32,1128.28L2689.15,1129.31L2689.12,1129.31Z" style="fill:rgb(255,239,219);fill-rule:nonzero;"/>
        <path d="M2686.38,1125.07C2681.63,1125.07 2677.78,1121.22 2677.78,1116.47L2677.78,833.791C2677.78,829.042 2681.63,825.189 2686.38,825.189C2691.13,825.189 2694.98,829.042 2694.98,833.791L2694.98,1116.47C2694.98,1121.22 2691.13,1125.07 2686.38,1125.07Z" style="fill:rgb(255,239,219);fill-rule:nonzero;"/>
        <path d="M3196.92,1119.91C3192.17,1119.91 3188.32,1116.05 3188.32,1111.31L3188.32,828.628C3188.32,823.879 3192.17,820.027 3196.92,820.027C3201.67,820.027 3205.52,823.879 3205.52,828.628L3205.52,1111.31C3205.52,1116.05 3201.67,1119.91 3196.92,1119.91Z" style="fill:rgb(239,183,101);fill-rule:nonzero;"/>
        <path d="M2779.03,870.714C2750.48,854.086 2729.26,876.677 2742.34,888.489C2744.63,890.553 2752.54,892.388 2755.98,892.961C2733.51,904.2 2776.4,928.741 2797.38,911.081C2802.54,906.723 2803.8,900.874 2801.05,895.829C2810.46,903.282 2824.45,900.416 2832.01,890.095C2838.78,880.92 2823.53,869.338 2815.73,869.109C2810.46,868.879 2803,871.976 2800.02,874.384C2800.71,872.778 2804.03,869.682 2803.69,868.077C2801.97,858.444 2787.63,863.031 2783.16,867.389L2779.03,870.714Z" style="fill:rgb(244,252,255);"/>
        <path d="M2994.05,943.993C2972.38,931.149 2955.98,948.236 2965.84,957.295C2967.56,958.901 2973.64,960.392 2976.28,960.851C2958.96,969.222 2991.53,988.258 3007.7,974.956C3011.6,971.745 3012.75,967.272 3010.68,963.373C3017.68,969.222 3028.46,967.158 3034.3,959.245C3039.47,952.364 3028,943.419 3022.03,943.075C3018.02,942.961 3012.29,945.254 3009.99,946.975C3010.57,945.828 3013.09,943.419 3012.86,942.273C3011.6,934.818 3000.7,938.259 2997.15,941.584L2994.05,943.993Z" style="fill:rgb(244,252,255);"/>
        <path d="M670.122,824.041L670.122,829.889C670.122,836.884 675.855,842.503 682.736,842.503L1083.53,842.503C1090.53,842.503 1096.15,836.884 1096.15,829.889L1096.15,824.041C1096.15,817.045 1090.53,811.426 1083.53,811.426L682.736,811.426C675.855,811.426 670.122,817.045 670.122,824.041Z" style="fill:rgb(224,181,101);"/>
        <path d="M903.719,723.583C918.397,716.359 926.425,708.217 932.503,694.111C938.122,682.529 935.026,669.915 929.75,661.314C919.2,663.607 908.65,669.915 903.031,686.084C899.591,699.157 897.985,714.065 903.719,723.583Z" style="fill:rgb(124,175,58);"/>
        <path d="M715.419,1009.93C721.497,1003.97 731.245,1003.97 737.208,1009.93C743.286,1016.01 743.286,1025.76 737.208,1031.72C731.245,1037.8 721.497,1037.8 715.419,1031.72C709.456,1025.76 709.456,1016.01 715.419,1009.93Z" style="fill:rgb(234,201,132);"/>
        <path d="M794.432,1011.88C800.395,1005.92 810.143,1005.92 816.22,1011.88C822.184,1017.96 822.184,1027.71 816.22,1033.79C810.143,1039.75 800.395,1039.75 794.432,1033.79C788.354,1027.71 788.354,1017.96 794.432,1011.88Z" style="fill:rgb(234,201,132);"/>
        <path d="M868.054,1011.08C874.018,1005.12 883.765,1005.12 889.843,1011.08C895.806,1017.16 895.806,1026.9 889.843,1032.87C883.765,1038.95 874.018,1038.95 868.054,1032.87C861.977,1026.9 861.977,1017.16 868.054,1011.08Z" style="fill:rgb(234,201,132);"/>
        <path d="M950.278,1011.42C956.356,1005.35 966.104,1005.35 972.181,1011.42C978.145,1017.39 978.145,1027.25 972.181,1033.21C966.104,1039.29 956.356,1039.29 950.278,1033.21C944.314,1027.25 944.314,1017.39 950.278,1011.42Z" style="fill:rgb(234,201,132);"/>
        <path d="M1027.57,1010.05C1033.65,1003.97 1043.4,1003.97 1049.47,1010.05C1055.44,1016.01 1055.44,1025.87 1049.47,1031.84C1043.4,1037.91 1033.65,1037.91 1027.57,1031.84C1021.61,1025.87 1021.61,1016.01 1027.57,1010.05Z" style="fill:rgb(234,201,132);"/>
        <path d="M538.243,2292.94C538.243,2299.93 545.926,2305.67 555.445,2305.67L3468.93,2305.67C3478.45,2305.67 3486.13,2299.93 3486.13,2292.94C3486.13,2285.94 3478.45,2280.21 3468.93,2280.21L555.445,2280.21C545.926,2280.21 538.243,2285.94 538.243,2292.94Z" style="fill:rgb(206,135,81);"/>
        <path d="M2560,1864.74L2638.55,2268.4C2639.93,2275.74 2647.04,2280.44 2654.26,2279.06L2750.82,2260.26C2758.05,2258.88 2762.75,2251.77 2761.37,2244.55L2682.82,1840.88C2681.44,1833.66 2674.33,1828.84 2667.11,1830.22L2570.55,1849.02C2563.33,1850.52 2558.51,1857.51 2560,1864.74Z" style="fill:rgb(58,153,135);"/>
        <path d="M680.442,891.585L680.442,878.742C680.442,878.512 680.558,878.168 680.672,877.939L1090.87,877.939C1090.99,878.168 1091.1,878.512 1091.1,878.742L1091.1,891.585L680.442,891.585Z" style="fill:rgb(255,216,147);"/>
        <path d="M2142,1157.52L2141.99,1157.52L1652.89,1156.61C1649.73,1156.6 1647.16,1154.03 1647.17,1150.86C1647.17,1147.7 1649.74,1145.14 1652.9,1145.14L1652.91,1145.14L2142.01,1146.06C2145.18,1146.06 2147.74,1148.63 2147.73,1151.8C2147.72,1154.96 2145.16,1157.52 2142,1157.52Z" style="fill:rgb(249,244,221);fill-rule:nonzero;"/>
        <path d="M1368.85,728.515L1368.85,737.803C1368.85,778.17 1401.65,810.853 1441.9,810.853L1750.95,810.853C1791.21,810.853 1824,778.17 1824,737.803L1824,728.515C1824,688.148 1791.21,655.465 1750.95,655.465L1441.9,655.465C1401.65,655.465 1368.85,688.148 1368.85,728.515Z" style="fill:rgb(181,43,68);"/>
        <path d="M1762.19,655.465C1696.6,687.346 1699,788.376 1762.19,810.853L2034.67,810.853C1991.89,771.289 1991.89,696.52 2034.67,655.465L1762.19,655.465Z" style="fill:rgb(229,226,209);"/>
        <path d="M2018.04,676.222C2009.78,689.295 2003.47,714.409 2002.55,734.592L1717.35,733.675L1734.67,683.332L1800.15,663.607L2018.04,676.222Z" style="fill:rgb(209,206,183);"/>
        <path d="M1719.76,699.728C1716.6,699.728 1714.04,697.175 1714.03,694.017C1714.01,690.847 1716.57,688.271 1719.74,688.26L2004.02,687.23L2004.04,687.23C2007.2,687.23 2009.77,689.783 2009.78,692.941C2009.79,696.111 2007.23,698.687 2004.07,698.698L1719.78,699.728L1719.76,699.728Z" style="fill:rgb(232,226,196);fill-rule:nonzero;"/>
        <path d="M1713.23,723.352C1710.07,723.352 1707.5,720.799 1707.49,717.635C1707.48,714.471 1710.04,711.896 1713.21,711.884L1997.49,710.972L1997.51,710.972C2000.67,710.972 2003.23,713.525 2003.24,716.689C2003.26,719.853 2000.7,722.428 1997.53,722.439L1713.24,723.352L1713.23,723.352Z" style="fill:rgb(232,226,196);fill-rule:nonzero;"/>
        <path d="M1998.66,753.858L1998.65,753.858L1714.36,753.399C1711.2,753.394 1708.63,750.823 1708.64,747.654C1708.65,744.49 1711.21,741.931 1714.37,741.931L1714.38,741.931L1998.67,742.391C2001.83,742.396 2004.4,744.966 2004.39,748.135C2004.39,751.299 2001.82,753.858 1998.66,753.858Z" style="fill:rgb(249,244,221);fill-rule:nonzero;"/>
        <path d="M2003.13,777.824L2003.11,777.824L1718.82,777.023C1715.66,777.012 1713.1,774.442 1713.11,771.272C1713.12,768.114 1715.68,765.555 1718.84,765.555L1718.86,765.555L2003.14,766.356C2006.31,766.367 2008.87,768.938 2008.86,772.107C2008.85,775.265 2006.29,777.824 2003.13,777.824Z" style="fill:rgb(249,244,221);fill-rule:nonzero;"/>
        <path d="M2035.59,811.314L1761.62,811.314C1761.21,811.314 1760.81,811.292 1760.41,811.252C1720.81,807.053 1698.68,777.213 1701.2,731.438C1701.46,714.802 1702.3,662.811 1761.9,654.652C1762.41,654.58 1762.93,654.546 1763.45,654.546L1763.46,654.546L2031.68,654.664C2038.02,654.669 2043.15,659.804 2043.15,666.137C2043.15,672.47 2038.01,677.599 2031.68,677.599L1764.26,677.481C1731.62,682.241 1724.59,702.83 1724.12,732.255C1722.82,755.986 1728.41,784.476 1762.25,788.379L2035.59,788.379C2041.93,788.379 2047.05,793.513 2047.05,799.846C2047.05,806.179 2041.93,811.314 2035.59,811.314Z" style="fill:rgb(229,79,107);fill-rule:nonzero;"/>
        <path d="M1410.59,682.3C1406.92,691.015 1413.46,698.125 1425.16,698.125L1667.12,698.125C1678.82,698.125 1691.44,691.015 1695.11,682.3C1698.78,673.584 1692.24,666.474 1680.54,666.474L1438.69,666.474C1426.88,666.474 1414.38,673.584 1410.59,682.3Z" style="fill:rgb(204,58,86);"/>
        <path d="M1554.74,655.58C1512.08,659.938 1489.49,683.446 1487.54,711.198L1487.54,748.01C1489.26,784.362 1506.46,805.233 1551.99,810.624L1627.79,810.967C1592.47,796.174 1564.26,780.463 1559.67,749.73L1559.67,713.836C1562.65,688.607 1586.51,667.048 1624.69,655.58L1554.74,655.58Z" style="fill:rgb(255,145,76);"/>
        <path d="M1291.44,852.825C1291.44,829.086 1306.35,809.821 1324.58,809.821L2126.52,809.821C2113.56,843.421 2121.48,876.792 2126.52,895.943L1324.58,895.943C1306.35,895.943 1291.44,876.677 1291.44,852.825Z" style="fill:rgb(249,206,73);"/>
        <path d="M1362.66,938.833C1362.66,914.865 1377.56,895.255 1395.8,895.255L1964.83,895.255C1951.87,929.314 1959.78,963.029 1964.83,982.524L1395.8,982.524C1377.56,982.524 1362.66,962.915 1362.66,938.833Z" style="fill:rgb(216,96,43);"/>
        <path d="M1564.95,936.883C1564.95,915.209 1579.74,897.549 1598.09,897.549L2167,897.549C2147.62,927.365 2155.53,957.869 2167,976.332L1598.09,976.332C1579.74,976.332 1564.95,958.671 1564.95,936.883Z" style="fill:rgb(229,226,209);"/>
        <path d="M1803.93,848.582C1803.93,826.908 1820.22,809.133 1829.85,809.133L2128.36,809.133C2113.56,841.127 2117.81,871.517 2128.36,887.916L1829.85,887.916C1820.22,887.916 1803.93,870.37 1803.93,848.582Z" style="fill:rgb(229,226,209);"/>
        <path d="M1378.14,850.302C1378.14,855.921 1382.84,860.393 1388.8,860.393L1594.53,860.393C1600.38,860.393 1605.2,855.921 1605.2,850.302C1605.2,844.797 1600.38,840.21 1594.53,840.21L1388.8,840.21C1382.84,840.21 1378.14,844.797 1378.14,850.302Z" style="fill:rgb(255,224,132);"/>
        <path d="M2124,820.486C2119.87,829.889 2119.53,829.889 2118.61,850.072L1811.16,848.811L1817.92,827.596L1888.68,807.871L2124,820.486Z" style="fill:rgb(209,206,183);"/>
        <path d="M2114.02,841.814L2114.01,841.814L1820.21,841.473C1817.05,841.467 1814.48,838.897 1814.49,835.733C1814.49,832.57 1817.06,830.005 1820.22,830.005L1820.23,830.005L2114.04,830.347C2117.19,830.353 2119.76,832.922 2119.76,836.086C2119.76,839.25 2117.18,841.814 2114.02,841.814Z" style="fill:rgb(232,226,196);fill-rule:nonzero;"/>
        <path d="M2115.4,869.224L2115.39,869.224L1816.42,868.423C1813.25,868.412 1810.69,865.842 1810.7,862.672C1810.71,859.514 1813.28,856.956 1816.43,856.956L1816.45,856.956L2115.41,857.756C2118.58,857.768 2121.15,860.337 2121.14,863.507C2121.12,866.665 2118.56,869.224 2115.4,869.224Z" style="fill:rgb(249,244,221);fill-rule:nonzero;"/>
        <path d="M2130.65,896.975L2130.62,896.975L1856.77,895.945C1834.3,896.107 1818.56,891.325 1809.36,881.251C1802.89,874.174 1800.05,864.968 1800.88,853.887C1799.14,842.75 1802.84,830.179 1810.71,820.772C1818.37,811.6 1828.98,806.616 1840.31,806.84L2126.7,805.351L2126.75,805.351C2131.47,805.351 2135.32,809.169 2135.35,813.907C2135.37,818.655 2131.54,822.53 2126.79,822.552L1840.22,824.042C1832.07,823.918 1826.92,828.191 1823.9,831.808C1819.13,837.514 1816.75,845.572 1817.99,851.849C1818.15,852.677 1818.19,853.523 1818.11,854.363C1817.45,861.021 1818.74,866.021 1822.06,869.649C1827.62,875.747 1839.77,878.866 1856.73,878.743L2130.69,879.773C2135.44,879.79 2139.28,883.654 2139.25,888.408C2139.23,893.145 2135.39,896.975 2130.65,896.975Z" style="fill:rgb(255,221,122);fill-rule:nonzero;"/>
        <path d="M2162.3,909.475C2154.5,918.878 2156.34,918.878 2154.5,939.062L1572.29,937.8L1582.03,911.081L1718.5,896.861L2162.3,909.475Z" style="fill:rgb(209,206,183);"/>
        <path d="M1609.27,983.453C1590.79,983.453 1577.01,978.777 1568.43,969.539C1561.12,961.66 1557.86,950.618 1559.02,937.61C1559.42,918.992 1570.42,896.006 1600.02,894.349L2161.04,894.226C2165.79,894.226 2169.64,898.072 2169.64,902.826C2169.64,907.575 2165.79,911.427 2161.04,911.427L1600.5,911.539C1579.12,912.749 1576.36,930.84 1576.18,938.568C1575.43,947.269 1577.07,953.563 1581.04,957.835C1586.42,963.625 1596.51,966.626 1610.81,966.24L2164.48,966.24C2169.22,966.24 2173.08,970.093 2173.08,974.841C2173.08,979.589 2169.22,983.442 2164.48,983.442L1610.93,983.442C1610.37,983.447 1609.82,983.453 1609.27,983.453Z" style="fill:rgb(244,127,73);fill-rule:nonzero;"/>
        <path d="M1989.14,1022.55L1989.14,1036.08C1989.14,1058.9 2007.72,1077.36 2030.54,1077.36L2250.49,1077.36C2273.31,1077.36 2291.77,1058.9 2291.77,1036.08L2291.77,1022.55C2291.77,999.841 2273.31,981.263 2250.49,981.263L2030.54,981.263C2007.72,981.263 1989.14,999.841 1989.14,1022.55Z" style="fill:rgb(50,147,127);"/>
        <path d="M1339.72,981.722C1352.11,1010.85 1356.01,1041.24 1339.72,1073.12L2034.89,1073.12C2057.71,1073.12 2076.29,1052.59 2076.29,1027.48L2076.29,1027.36C2076.29,1002.25 2057.71,981.722 2034.89,981.722L1339.72,981.722Z" style="fill:rgb(229,226,209);"/>
        <path d="M1385.71,908.558L1383.53,914.292C1382.04,918.305 1384.33,921.631 1388.69,921.631L1540.18,921.631C1544.53,921.631 1549.35,918.305 1550.84,914.292L1553.02,908.558C1554.51,904.544 1552.22,901.218 1547.86,901.218L1396.26,901.218C1392.01,901.218 1387.2,904.544 1385.71,908.558Z" style="fill:rgb(239,114,56);"/>
        <path d="M1433.64,895.943C1412.31,898.352 1401.07,911.31 1400.16,926.677L1400.16,946.975C1400.96,967.043 1409.56,978.511 1432.27,981.607L1469.99,981.722C1452.45,973.58 1438.34,964.864 1436.05,947.892L1436.05,928.053C1437.54,914.177 1449.47,902.25 1468.5,895.943L1433.64,895.943Z" style="fill:rgb(188,50,12);"/>
        <path d="M2149,957.41L2148.99,957.41L1585.93,956.721C1582.76,956.716 1580.19,954.146 1580.2,950.982C1580.2,947.818 1582.77,945.253 1585.93,945.253L1585.94,945.253L2149.01,945.942C2152.17,945.948 2154.73,948.518 2154.73,951.682C2154.73,954.845 2152.16,957.41 2149,957.41Z" style="fill:rgb(249,244,221);fill-rule:nonzero;"/>
        <path d="M2150.49,930.23L1589.94,929.771C1586.78,929.771 1584.21,927.201 1584.21,924.031C1584.21,920.868 1586.78,918.303 1589.95,918.303L2150.49,918.762C2153.66,918.762 2156.22,921.333 2156.22,924.502C2156.22,927.666 2153.66,930.23 2150.49,930.23Z" style="fill:rgb(232,226,196);fill-rule:nonzero;"/>
        <path d="M2052.09,1045.37L2052.08,1045.37L1357.83,1044.68C1354.66,1044.67 1352.1,1042.11 1352.1,1038.94C1352.11,1035.77 1354.67,1033.21 1357.84,1033.21L2052.11,1033.9C2055.26,1033.9 2057.83,1036.47 2057.83,1039.64C2057.83,1042.8 2055.26,1045.37 2052.09,1045.37Z" style="fill:rgb(249,244,221);fill-rule:nonzero;"/>
        <path d="M1341.33,994.221C1350.96,1004.08 1348.78,1003.97 1350.96,1025.18L2071.13,1023.81L2059.09,995.941L1890.17,981.034L1341.33,994.221Z" style="fill:rgb(209,206,183);"/>
        <path d="M1994.54,1078C1988.07,1078 1981.13,1077.86 1973.68,1077.59L1342.66,1074.72C1337.92,1074.7 1334.08,1070.83 1334.1,1066.08C1334.12,1061.35 1337.97,1057.52 1342.7,1057.52L1342.74,1057.52L1974.04,1060.39C2020.22,1062.11 2046.04,1058.37 2055.63,1048.71C2059.49,1044.84 2061.04,1039.61 2060.71,1031.75C2060.86,1016.45 2060.1,1008.06 2055.44,1003.37C2050.32,998.23 2038.61,995.643 2019.13,995.94L1340.88,996.858L1340.87,996.858C1336.12,996.858 1332.27,993.017 1332.27,988.269C1332.26,983.52 1336.11,979.662 1340.85,979.657L2019.06,978.738C2043.78,978.498 2058.74,982.294 2067.63,991.236C2077.44,1001.09 2078.09,1015.29 2077.9,1031.48C2078.45,1043.71 2075.15,1053.47 2067.84,1060.84C2056.01,1072.74 2034.19,1078 1994.54,1078Z" style="fill:rgb(91,201,178);fill-rule:nonzero;"/>
        <path d="M2052.67,1016.24L1355.2,1015.9C1352.03,1015.9 1349.47,1013.33 1349.47,1010.16C1349.47,1006.99 1352.04,1004.43 1355.2,1004.43L1355.21,1004.43L2052.67,1004.77C2055.83,1004.77 2058.4,1007.34 2058.4,1010.5C2058.4,1013.67 2055.83,1016.24 2052.67,1016.24Z" style="fill:rgb(232,226,196);fill-rule:nonzero;"/>
        <path d="M2262.64,995.483L2265.17,1001.33C2266.77,1005.35 2264.59,1008.67 2260.23,1008.67L2090.97,1008.67C2086.61,1008.67 2081.68,1005.35 2080.08,1001.33L2077.67,995.483C2075.95,991.469 2078.13,988.258 2082.49,988.258L2251.86,988.258C2256.11,988.258 2261.04,991.469 2262.64,995.483Z" style="fill:rgb(50,165,142);"/>
        <path d="M2188.45,981.148C2209.78,983.9 2221.01,998.464 2221.93,1015.67L2221.93,1038.49C2221.13,1061.08 2212.53,1074.04 2189.82,1077.36L2119.64,1077.59C2137.19,1068.42 2151.18,1058.56 2153.47,1039.52L2153.58,1017.27C2151.98,1001.68 2140.17,988.258 2121.13,981.148L2188.45,981.148Z" style="fill:rgb(68,186,160);"/>
        <path d="M1314.61,820.256L1312.43,822.206C1309.1,825.073 1310.02,827.366 1314.38,827.366L1783.98,827.366C1788.34,827.366 1794.53,825.073 1797.74,822.206L1800.04,820.256C1803.25,817.504 1802.44,815.096 1798.09,815.096L1328.48,815.096C1324.13,815.096 1317.93,817.504 1314.61,820.256Z" style="fill:rgb(255,224,130);"/>
        <path d="M1665.06,809.362C1643.62,811.655 1632.15,824.5 1631.23,839.637L1631.23,859.705C1632.03,879.544 1640.75,890.897 1663.68,893.764L1701.87,893.994C1684.1,885.966 1669.88,877.365 1667.58,860.623L1667.58,841.127C1669.07,827.366 1681.12,815.555 1700.38,809.362L1665.06,809.362Z" style="fill:rgb(201,160,33);"/>
        <path d="M2164.25,1091.58C2157.25,1104.66 2151.41,1102.13 2149.8,1130.11L1641.9,1130.8L1650.5,1093.88L1768.96,1086.08L2164.25,1091.58Z" style="fill:rgb(209,206,183);"/>
        <path d="M685.374,1018.53C685.03,1015.9 686.75,1008.56 694.663,1018.07C727.919,1071.86 804.294,1107.06 874.477,1107.06L895.118,1107.06C965.301,1107.06 1035.71,1057.29 1074.47,1015.78C1080.09,1009.7 1085.25,1013.49 1084.79,1016.58C1075.62,1092.38 991.562,1170.02 894.774,1170.02L873.674,1170.02C776.886,1170.02 699.25,1109.7 685.374,1018.53Z" style="fill:rgb(247,211,145);"/>
        <path d="M2146.13,1115.78L2146.12,1115.78L1657.02,1114.75C1653.85,1114.74 1651.3,1112.17 1651.3,1109C1651.31,1105.84 1653.87,1103.28 1657.03,1103.28L1657.05,1103.28L2146.14,1104.31C2149.31,1104.32 2151.88,1106.89 2151.87,1110.06C2151.85,1113.22 2149.29,1115.78 2146.13,1115.78Z" style="fill:rgb(232,226,196);fill-rule:nonzero;"/>
        <path d="M2160.58,1195.71L2160.56,1195.71L1696.46,1194.22C1675.8,1195.48 1658.59,1190.44 1647.38,1179.58C1637.32,1169.84 1632.46,1156.08 1632.96,1138.7C1632.75,1117.1 1638.25,1100.39 1649.32,1089.36C1659.55,1079.18 1674.05,1074.12 1692.82,1074.38L2164.75,1076.56C2169.5,1076.58 2173.33,1080.45 2173.31,1085.2C2173.29,1089.94 2169.45,1093.76 2164.71,1093.76L2164.67,1093.76L1692.66,1091.58C1678.7,1091.35 1668.28,1094.75 1661.46,1101.55C1653.8,1109.18 1650,1121.74 1650.15,1138.87C1649.8,1151.54 1652.9,1160.98 1659.34,1167.22C1669.02,1176.58 1684.62,1177.7 1695.96,1177.03L2160.6,1178.5C2165.36,1178.52 2169.19,1182.39 2169.18,1187.13C2169.17,1191.88 2165.32,1195.71 2160.58,1195.71Z" style="fill:rgb(89,132,153);fill-rule:nonzero;"/>
        <path d="M1289.84,1090.32L1283.64,1098.35C1281.01,1101.79 1282.38,1104.54 1286.74,1104.54L1618.96,1103.39C1623.32,1103.28 1629.05,1100.53 1631.69,1097.09L1637.88,1089.06C1640.52,1085.62 1639.14,1082.87 1634.9,1082.87L1302.57,1084.13C1298.21,1084.13 1292.59,1086.88 1289.84,1090.32Z" style="fill:rgb(63,104,124);"/>
        <path d="M1438.8,1076.22C1417.47,1079.31 1406.23,1096.63 1405.32,1117.04L1405.32,1143.99C1406.12,1170.82 1414.72,1186.08 1437.43,1190.09L1507.72,1190.32C1490.06,1179.42 1476.07,1167.84 1473.78,1145.25L1473.78,1118.99C1475.27,1100.41 1487.2,1084.59 1506.12,1076.22L1438.8,1076.22Z" style="fill:rgb(86,137,163);"/>
        <path d="M1185.37,1978.27C1201.99,1966.22 1218.62,1996.61 1222.64,2046.04C1226.65,2095.47 1216.56,2145.35 1199.93,2157.39C1183.42,2169.32 1166.79,2138.93 1162.77,2089.5C1158.76,2040.08 1168.85,1990.19 1185.37,1978.27Z" style="fill:rgb(58,114,153);"/>
        <path d="M1258.3,2270.35C1267.13,2271.5 1274.24,2262.89 1274.24,2251.08L1274.24,1902.12C1274.24,1890.42 1267.13,1879.99 1258.3,1878.84C1249.58,1877.69 1242.48,1886.41 1242.48,1898.11L1242.48,2247.07C1242.48,2258.77 1249.58,2269.32 1258.3,2270.35Z" style="fill:rgb(255,150,91);"/>
        <path d="M1126.42,2276.54L1126.65,2276.43C1138.35,2276.31 1147.87,2266.68 1147.87,2254.87L1147.87,1887.21C1147.87,1875.4 1138.35,1866 1126.65,1866.11L1126.42,1866.23C1114.61,1866.34 1105.09,1875.97 1105.09,1887.79L1105.09,2255.44C1105.09,2267.25 1114.61,2276.66 1126.42,2276.54Z" style="fill:rgb(226,99,30);"/>
        <rect x="1102.91" y="2208.54" width="181.31" height="26.72" style="fill:rgb(58,114,153);"/>
        <rect x="1101.88" y="1907.4" width="181.42" height="25.34" style="fill:rgb(58,114,153);"/>
        <path d="M1037.78,2264.16L1070.8,2263.7C1082.62,2263.58 1092.13,2253.95 1092.13,2242.25L1092.13,1615.89C1092.13,1604.07 1082.62,1594.67 1070.8,1594.79L1037.78,1595.24C1025.96,1595.36 1016.45,1604.99 1016.45,1616.8L1016.45,2243.17C1016.45,2254.87 1025.96,2264.27 1037.78,2264.16Z" style="fill:rgb(101,191,198);"/>
        <path d="M967.594,2275.28L967.823,2275.28C979.635,2275.05 989.153,2265.3 989.153,2253.61L989.153,1608.66C989.153,1596.85 979.635,1587.56 967.823,1587.79L967.594,1587.79C955.897,1588.13 946.379,1597.88 946.379,1609.58L946.379,2254.52C946.379,2266.22 955.897,2275.62 967.594,2275.28Z" style="fill:rgb(61,155,165);"/>
        <rect x="940.645" y="1678.27" width="163.645" height="54.13" style="fill:rgb(137,206,214);"/>
        <rect x="937.893" y="2140.3" width="162.837" height="45.53" style="fill:rgb(137,206,214);"/>
        <path d="M912.664,2262.55C921.379,2263.35 928.489,2254.41 928.489,2242.6L928.489,2031.71C928.489,2020.01 921.379,2009.8 912.664,2009.11C903.948,2008.43 896.838,2017.37 896.838,2029.07L896.838,2239.96C896.838,2251.77 903.948,2261.86 912.664,2262.55Z" style="fill:rgb(196,196,76);"/>
        <path d="M881.93,2044.89C888.811,2038.01 900.049,2038.01 907.044,2044.89C913.925,2051.89 913.925,2063.13 907.044,2070.12C900.049,2077 888.811,2077 881.93,2070.12C874.935,2063.13 874.935,2051.89 881.93,2044.89Z" style="fill:rgb(234,234,122);"/>
        <path d="M883.421,2208.77C890.302,2201.89 901.655,2201.89 908.535,2208.77C915.531,2215.76 915.531,2227 908.535,2234C901.655,2240.88 890.302,2240.88 883.421,2234C876.426,2227 876.426,2215.76 883.421,2208.77Z" style="fill:rgb(234,234,122);"/>
        <path d="M1492.93,2029.53L1499.12,2051.43L1902.67,2051.43L1906.46,2029.53L1492.93,2029.53Z" style="fill:rgb(204,239,255);"/>
        <path d="M1525.04,2189.5L1530.31,2211.52L1871.25,2211.52L1874.35,2189.5L1525.04,2189.5Z" style="fill:rgb(204,239,255);"/>
        <path d="M1483.18,1977.23C1484.67,1975.86 1922.51,1975.63 1919.64,1975.63L1912.07,2008.54L1487.88,2006.13L1483.18,1977.23Z" style="fill:rgb(124,175,196);"/>
        <path d="M2367.57,786.771L2424.91,1030.8L2444.18,1026.33L2386.84,782.184L2367.57,786.771Z" style="fill:rgb(237,56,86);"/>
        <path d="M2371.01,830.118C2359.66,794.569 2355.53,754.775 2361.84,741.358C2368.15,728.056 2382.37,746.06 2393.72,781.725C2401.63,806.954 2406.1,834.362 2405.64,852.939L2382.25,858.444C2378.47,851.104 2374.57,841.472 2371.01,830.118Z" style="fill:rgb(50,76,91);"/>
        <path d="M2420.55,883.329C2419.52,883.329 2418.72,882.641 2418.72,881.608C2418.03,839.063 2409.54,799.5 2393.6,764.752L2390.85,759.133L2377.89,761.542C2376.98,761.771 2376.06,761.198 2375.83,760.166C2375.6,759.133 2376.29,758.216 2377.21,758.101L2391.54,755.349C2392.34,755.12 2393.15,755.579 2393.49,756.267C2411.95,793.192 2421.58,835.623 2422.27,881.494C2422.39,882.526 2421.58,883.329 2420.55,883.329Z" style="fill:rgb(50,76,91);"/>
        <path d="M2435.23,1053.51L2432.59,1042.27L2457.71,1036.42L2460.35,1047.66C2461.84,1053.97 2457.94,1060.39 2451.63,1061.88L2449.45,1062.34C2443.14,1063.83 2436.72,1059.93 2435.23,1053.51Z" style="fill:rgb(50,76,91);"/>
        <path d="M2368.83,932.754L2368.83,1174.72C2368.83,1184.59 2376.86,1192.73 2386.72,1192.73L2478.24,1192.73C2488.1,1192.73 2496.13,1184.59 2496.13,1174.72L2496.13,932.754C2496.13,922.892 2488.1,914.865 2478.24,914.865L2386.72,914.865C2376.86,914.865 2368.83,922.892 2368.83,932.754Z" style="fill:rgb(191,234,219);"/>
        <path d="M2472.73,1187.91C2463.23,1187.91 2455.52,1180.21 2455.52,1170.71L2455.52,937.459C2455.52,927.957 2463.23,920.257 2472.73,920.257C2482.22,920.257 2489.93,927.957 2489.93,937.459L2489.93,1170.71C2489.93,1180.21 2482.22,1187.91 2472.73,1187.91Z" style="fill:rgb(209,252,237);fill-rule:nonzero;"/>
        <path d="M2370.55,1047.66L2370.55,992.616L2494.86,992.616C2494.86,993.648 2494.98,994.565 2494.98,995.598L2494.98,1047.66L2370.55,1047.66Z" style="fill:rgb(135,214,186);"/>
        <path d="M536.867,1209.24L536.867,1296.4C536.867,1305.8 544.55,1313.6 554.068,1313.6L3467.55,1313.6C3476.96,1313.6 3484.64,1305.8 3484.64,1296.4L3484.64,1209.24C3484.64,1199.84 3476.96,1192.15 3467.55,1192.15L554.068,1192.15C544.55,1192.15 536.867,1199.84 536.867,1209.24Z" style="fill:rgb(163,91,35);"/>
        <path d="M539.046,1203.85L539.046,1203.97C539.046,1210.96 546.729,1216.69 556.248,1216.69L3469.73,1216.69C3479.14,1216.69 3486.94,1210.96 3486.94,1203.97L3486.94,1203.85C3486.94,1196.86 3479.14,1191.12 3469.73,1191.12L556.248,1191.12C546.729,1191.12 539.046,1196.86 539.046,1203.85Z" style="fill:rgb(206,135,81);"/>
        <path d="M870.004,1753.15L667.14,2239.62C664.847,2245 667.484,2251.31 672.874,2253.61L723.905,2274.82C729.295,2277.11 735.603,2274.48 737.896,2269.09L940.645,1782.63C942.938,1777.24 940.416,1770.93 934.911,1768.64L883.995,1747.42C878.49,1745.13 872.297,1747.76 870.004,1753.15Z" style="fill:rgb(178,50,17);"/>
        <path d="M719.204,2268.86C725.396,2272.3 733.194,2268.05 736.749,2259.34L930.783,1796.73C934.338,1788.02 932.159,1778.15 926.081,1774.71C919.888,1771.27 912.09,1775.52 908.535,1784.23L714.502,2246.84C710.947,2255.55 713.125,2265.42 719.204,2268.86Z" style="fill:rgb(206,73,40);"/>
        <path d="M830.899,1843.06L747.987,2045.12C745.809,2050.51 748.332,2056.82 753.836,2059.11L804.752,2080.33C810.143,2082.62 816.45,2079.98 818.743,2074.59L901.54,1872.53C903.833,1867.03 901.196,1860.84 895.806,1858.54L844.89,1837.33C839.385,1835.03 833.078,1837.56 830.899,1843.06Z" style="fill:rgb(219,114,7);"/>
        <path d="M696.727,2170.58C698.103,2171.38 743.974,2191.11 767.253,2200.17L760.832,2218.4L688.929,2188.01L696.727,2170.58Z" style="fill:rgb(219,114,7);"/>
        <path d="M856.586,1785.49C858.078,1786.3 903.948,1805.79 927.228,1814.85L920.806,1833.08L848.789,1803.04L856.586,1785.49Z" style="fill:rgb(219,114,7);"/>
        <path d="M1438.23,1896.85L1438.23,1965.65C1438.23,1971.96 1443.27,1977 1449.58,1977L1944.87,1977C1951.18,1977 1956.23,1971.96 1956.23,1965.65L1956.23,1896.85C1956.23,1890.65 1951.18,1885.61 1944.87,1885.61L1449.58,1885.61C1443.27,1885.61 1438.23,1890.65 1438.23,1896.85Z" style="fill:rgb(163,204,219);"/>
        <path d="M1445.68,1674.26L1517.47,1892.95L1526.42,1889.96L1454.74,1671.16L1445.68,1674.26Z" style="fill:rgb(255,193,158);"/>
        <path d="M1899.92,1711.76L1844.64,1885.95L1853.7,1888.82L1908.98,1714.51L1899.92,1711.76Z" style="fill:rgb(119,239,155);"/>
        <path d="M1853.82,1638.48L1774.92,1886.41L1783.98,1889.16L1862.88,1641.34L1853.82,1638.48Z" style="fill:rgb(158,137,242);"/>
        <path d="M1439.15,1894.78C1439.15,1900.86 1444.19,1905.67 1450.5,1905.67L1945.79,1905.67C1952.1,1905.67 1957.14,1900.86 1957.14,1894.78C1957.14,1888.82 1952.1,1883.89 1945.79,1883.89L1450.5,1883.89C1444.19,1883.89 1439.15,1888.82 1439.15,1894.78Z" style="fill:rgb(170,216,234);"/>
        <rect x="1666.55" y="1706.25" width="36.24" height="177.06" style="fill:rgb(244,114,73);"/>
        <path d="M1701.99,1706.02L1661.28,1645.24L1649.46,1645.7L1666.78,1706.02L1701.99,1706.02Z" style="fill:rgb(221,63,15);"/>
        <rect x="1621.6" y="1705.79" width="23.51" height="176.72" style="fill:rgb(224,61,10);"/>
        <path d="M2174.8,2271.15C2183.52,2272.99 2190.63,2264.96 2190.63,2253.26L2190.63,1640.2C2190.63,1628.39 2183.52,1617.38 2174.8,1615.43C2165.97,1613.59 2158.86,1621.62 2158.86,1633.43L2158.86,2246.5C2158.86,2258.19 2165.97,2269.32 2174.8,2271.15Z" style="fill:rgb(255,211,99);"/>
        <path d="M2172.16,1784.23L2096.93,1784.23C2092.35,1784.23 2088.68,1780.56 2088.68,1776.09L2088.68,1774.14C2088.68,1769.55 2092.35,1765.88 2096.93,1765.88L2172.16,1765.88C2176.63,1765.88 2180.3,1769.55 2180.3,1774.14L2180.3,1776.09C2180.3,1780.56 2176.63,1784.23 2172.16,1784.23Z" style="fill:rgb(237,84,68);"/>
        <path d="M2172.96,1820.01L2097.85,1820.01C2093.26,1820.01 2089.59,1816.34 2089.59,1811.75L2089.59,1809.81C2089.59,1805.33 2093.26,1801.55 2097.85,1801.55L2172.96,1801.55C2177.55,1801.55 2181.22,1805.33 2181.22,1809.81L2181.22,1811.75C2181.22,1816.34 2177.55,1820.01 2172.96,1820.01Z" style="fill:rgb(237,84,68);"/>
        <path d="M2173.88,1857.4L2098.65,1857.4C2094.18,1857.4 2090.51,1853.73 2090.51,1849.14L2090.51,1847.19C2090.51,1842.72 2094.18,1839.05 2098.65,1839.05L2173.88,1839.05C2178.47,1839.05 2182.14,1842.72 2182.14,1847.19L2182.14,1849.14C2182.14,1853.73 2178.47,1857.4 2173.88,1857.4Z" style="fill:rgb(237,84,68);"/>
        <rect x="2071.93" y="2096.04" width="127.531" height="42.66" style="fill:rgb(255,226,150);"/>
        <path d="M2270.44,1774.94C2281.45,1763.82 2299.45,1763.82 2310.58,1774.94C2321.59,1785.95 2321.59,1803.96 2310.58,1815.08C2299.45,1826.09 2281.45,1826.09 2270.44,1815.08C2259.32,1803.96 2259.32,1785.95 2270.44,1774.94Z" style="fill:rgb(137,160,165);"/>
        <path d="M2540.73,2275.74C2549.45,2275.39 2556.56,2265.53 2556.56,2253.72L2556.56,1589.85C2556.56,1578.04 2549.45,1568.87 2540.73,1569.21C2532.02,1569.67 2524.91,1579.53 2524.91,1591.23L2524.91,2255.21C2524.91,2266.91 2532.02,2276.2 2540.73,2275.74Z" style="fill:rgb(255,127,96);"/>
        <path d="M2735.11,2258.31L2740.62,2257.16C2749.22,2255.44 2754.95,2246.95 2753.35,2238.24L2680.76,1853.15C2679.04,1844.44 2670.66,1838.82 2661.95,1840.54L2656.56,1841.69C2647.84,1843.41 2642.22,1851.89 2643.83,1860.61L2716.42,2245.69C2718.14,2254.41 2726.51,2260.03 2735.11,2258.31Z" style="fill:rgb(73,173,153);"/>
        <path d="M2571.01,1921.62L2577.43,1953.61L2699.33,1927.46L2692.91,1895.47L2571.01,1921.62Z" style="fill:rgb(244,198,68);"/>
        <path d="M2623.07,2187.78L2629.38,2219.78L2751.28,2193.63L2744.86,2161.63L2623.07,2187.78Z" style="fill:rgb(244,198,68);"/>
        <path d="M1182.73,3291.66L1004.86,3291.66C1001.31,3291.66 998.442,3288.8 998.442,3285.36L998.442,3283.75C998.442,3280.31 1001.31,3277.44 1004.86,3277.44L1182.73,3277.44C1186.17,3277.44 1189.04,3280.31 1189.04,3283.75L1189.04,3285.36C1189.04,3288.8 1186.17,3291.66 1182.73,3291.66Z" style="fill:rgb(255,165,122);"/>
        <path d="M1180.89,3139.14L1003.03,3139.14C999.589,3139.14 996.722,3136.28 996.722,3132.72L996.722,3131.23C996.722,3127.67 999.589,3124.81 1003.03,3124.81L1180.89,3124.81C1184.45,3124.81 1187.32,3127.67 1187.32,3131.23L1187.32,3132.72C1187.32,3136.28 1184.45,3139.14 1180.89,3139.14Z" style="fill:rgb(206,94,38);"/>
        <path d="M1471.83,2983.64L682.851,2983.64C676.543,2983.64 671.383,2978.36 671.383,2972.06L671.383,2957.04C671.383,2950.61 676.543,2945.45 682.851,2945.45L1471.83,2945.45C1478.14,2945.45 1483.3,2950.61 1483.3,2957.04L1483.3,2972.06C1483.3,2978.36 1478.14,2983.64 1471.83,2983.64Z" style="fill:rgb(255,135,76);"/>
        <rect x="1003.37" y="890.668" width="75.12" height="90.48" style="fill:rgb(255,221,163);"/>
        <path d="M1984.89,2489.73C1997.17,2477.46 2017,2477.46 2029.27,2489.73C2041.54,2502 2041.54,2521.83 2029.27,2534.11C2017,2546.38 1997.17,2546.38 1984.89,2534.11C1972.62,2521.83 1972.62,2502 1984.89,2489.73Z" style="fill:rgb(249,221,56);"/>
        <path d="M1843.04,2871.6C1842.69,2871.6 1842.34,2871.57 1841.98,2871.5C1838.87,2870.92 1836.82,2867.92 1837.4,2864.82C1854.28,2774.9 1845.73,2695.85 1812.02,2629.83C1810.58,2627.01 1811.7,2623.56 1814.51,2622.12C1817.34,2620.68 1820.79,2621.8 1822.23,2624.61C1857.13,2692.94 1866.02,2774.46 1848.67,2866.92C1848.16,2869.68 1845.75,2871.6 1843.04,2871.6Z" style="fill:rgb(135,186,71);fill-rule:nonzero;"/>
        <path d="M1834.9,2612.09C1828.93,2600.85 1814.94,2596.49 1803.59,2602.45C1792.35,2608.53 1787.99,2622.52 1793.96,2633.88C1799.92,2645.11 1814.03,2649.47 1825.26,2643.51C1836.62,2637.43 1840.86,2623.44 1834.9,2612.09Z" style="fill:rgb(249,221,56);"/>
        <path d="M1959.67,3395.67L1755.54,3395.22C1707.15,3369.99 1687.19,3283.98 1689.26,3229.97C1691.09,3183.52 1707.83,3104.17 1750.27,3074.23L1752.1,3072.51C1788.91,3045.68 1805.42,2999.69 1807.6,2955.89L1811.96,2831L1903.24,2831.46L1907.6,2956.35C1909.78,3000.15 1926.29,3046.14 1963.11,3072.97L1964.94,3074.69C2007.37,3104.62 2024.11,3183.98 2025.95,3230.31C2028.01,3284.44 2008.06,3370.45 1959.67,3395.67Z" style="fill:rgb(244,198,68);"/>
        <path d="M1948.43,3394.99L1912.88,3395.67C1952.79,3363.57 1974.69,3284.55 1972.85,3234.78C1971.02,3188.11 1956.8,3114.95 1914.25,3084.79L1912.42,3083.06C1875.72,3056.12 1866.78,3004.86 1864.71,2960.7L1860.36,2838.46L1891.89,2838.69L1896.36,2961.74C1898.43,3004.97 1915.06,3050.27 1951.75,3076.76L1953.59,3078.36C1996.13,3108.06 2012.88,3186.27 2014.6,3231.92C2016.66,3285.36 1996.82,3370.1 1948.43,3394.99Z" style="fill:rgb(255,211,101);"/>
        <path d="M1779.97,3396.59L1842.47,3395.67C1802.56,3363.57 1770.1,3280.77 1771.94,3231C1773.77,3184.33 1780.65,3134.9 1823.09,3104.74L1824.92,3103.02C1861.73,3076.07 1849.46,3001.99 1851.64,2957.95L1855.88,2835.71L1824.35,2835.82L1819.99,2958.98C1817.81,3002.22 1808.52,3046.48 1771.82,3072.86L1769.99,3074.58C1727.44,3104.17 1710.7,3182.38 1708.98,3228.13C1706.8,3281.46 1731.57,3371.71 1779.97,3396.59Z" style="fill:rgb(232,183,45);"/>
        <path d="M1725.72,3204.51C1733.64,3196.48 1746.48,3196.48 1754.51,3204.51C1762.42,3212.42 1762.42,3225.26 1754.51,3233.18C1746.48,3241.21 1733.64,3241.21 1725.72,3233.18C1717.7,3225.26 1717.7,3212.42 1725.72,3204.51Z" style="fill:rgb(216,163,17);"/>
        <path d="M1804.97,3204.39C1812.88,3196.37 1825.84,3196.37 1833.75,3204.39C1841.66,3212.31 1841.66,3225.15 1833.75,3233.06C1825.84,3241.09 1812.88,3241.09 1804.97,3233.06C1797.05,3225.15 1797.05,3212.31 1804.97,3204.39Z" style="fill:rgb(232,183,45);"/>
        <path d="M1879.62,3205.08C1887.65,3197.17 1900.49,3197.17 1908.4,3205.08C1916.32,3212.99 1916.32,3225.95 1908.4,3233.87C1900.49,3241.78 1887.65,3241.78 1879.62,3233.87C1871.71,3225.95 1871.71,3212.99 1879.62,3205.08Z" style="fill:rgb(232,183,45);"/>
        <path d="M1956.68,3205.43C1964.6,3197.51 1977.44,3197.51 1985.47,3205.43C1993.38,3213.34 1993.38,3226.3 1985.47,3234.21C1977.44,3242.12 1964.6,3242.12 1956.68,3234.21C1948.77,3226.3 1948.77,3213.34 1956.68,3205.43Z" style="fill:rgb(232,183,45);"/>
        <path d="M534,3408.06C534,3415.17 541.684,3420.79 551.087,3420.79L3464.57,3420.79C3474.09,3420.79 3481.78,3415.17 3481.78,3408.06C3481.78,3401.06 3474.09,3395.33 3464.57,3395.33L551.087,3395.33C541.684,3395.33 534,3401.06 534,3408.06Z" style="fill:rgb(206,135,81);"/>
        <path d="M1811.62,2840.18L1811.04,2863.34C1842.35,2862.54 1904.96,2860.82 1904.39,2860.82C1903.82,2860.82 1903.82,2846.72 1903.82,2839.61C1872.85,2839.95 1811.04,2840.52 1811.62,2840.18Z" style="fill:rgb(211,165,30);"/>
        <path d="M1798.54,2800.27L1798.54,2822.86C1798.54,2833.07 1806.8,2841.44 1817.01,2841.44L1902.1,2841.44C1912.3,2841.44 1920.56,2833.07 1920.56,2822.86L1920.56,2800.27C1920.56,2789.95 1912.3,2781.69 1902.1,2781.69L1817.01,2781.69C1806.8,2781.69 1798.54,2789.95 1798.54,2800.27Z" style="fill:rgb(255,221,135);"/>
        <path d="M1800.72,2795.46C1800.72,2802.33 1809.09,2807.95 1819.3,2807.95L1899.12,2807.95C1909.32,2807.95 1917.69,2802.33 1917.69,2795.46C1917.69,2788.57 1909.32,2783.07 1899.12,2783.07L1819.3,2783.07C1809.09,2783.07 1800.72,2788.57 1800.72,2795.46Z" style="fill:rgb(255,229,168);"/>
        <path d="M2067.46,2638.46C2079.73,2626.19 2099.69,2626.19 2111.84,2638.46C2124.11,2650.73 2124.11,2670.57 2111.84,2682.84C2099.69,2695.11 2079.73,2695.11 2067.46,2682.84C2055.31,2670.57 2055.31,2650.73 2067.46,2638.46Z" style="fill:rgb(249,221,56);"/>
        <path d="M2532.82,3089.26L2532.82,3107.03C2532.82,3156.8 2573.19,3197.17 2622.96,3197.17L2940.38,3197.17C2990.15,3197.17 3030.52,3156.8 3030.52,3107.03L3030.52,3089.26C3030.52,3039.49 2990.15,2999.12 2940.38,2999.12L2622.96,2999.12C2573.19,2999.12 2532.82,3039.49 2532.82,3089.26Z" style="fill:rgb(86,137,163);"/>
        <path d="M2731.79,3106.69L2731.79,3088.91C2731.79,3039.14 2772.15,2998.78 2821.92,2998.78L3326.39,2998.78C3295.65,3063 3297.03,3129.17 3326.39,3196.82L2821.92,3196.82C2772.15,3196.82 2731.79,3156.34 2731.79,3106.69Z" style="fill:rgb(232,226,201);"/>
        <path d="M2835.23,2785.59C2834.88,2797.52 2834.65,2809.45 2834.42,2821.26L2843.25,2864.95C2850.02,2877.1 2863.55,2901.42 2877.31,2907.04C2891.07,2912.77 2927.43,2917.59 2942.91,2915.18C2958.16,2912.77 2976.85,2899.01 2985.8,2888.46C2994.63,2877.91 3004.37,2865.75 3008.39,2852.79C3012.4,2839.83 3012.4,2832.61 3009.19,2821.26C3005.98,2809.9 2999.44,2790.52 2986.6,2785.59C2973.64,2780.78 2949.33,2769.42 2937.98,2768.62C2926.62,2767.82 2900.71,2765.41 2892.68,2767.82C2884.54,2770.23 2870.78,2771.83 2865.16,2773.44C2859.42,2775.16 2843.25,2782.15 2835.23,2785.59Z" style="fill:rgb(209,239,252);"/>
        <path d="M3240.15,2785.25C3240.49,2797.06 3240.72,2808.99 3240.95,2820.8L3232.12,2864.49C3225.36,2876.65 3211.83,2900.96 3198.06,2906.58C3184.3,2912.31 3147.83,2917.13 3132.47,2914.72C3117.1,2912.31 3098.52,2898.55 3089.58,2888C3080.75,2877.45 3071,2865.29 3066.99,2852.33C3062.86,2839.38 3062.97,2832.15 3066.19,2820.8C3069.4,2809.45 3075.82,2790.06 3088.78,2785.25C3101.74,2780.32 3126.05,2768.96 3137.4,2768.16C3148.75,2767.36 3174.55,2764.95 3182.7,2767.36C3190.84,2769.77 3204.6,2771.37 3210.22,2773.09C3215.84,2774.7 3232.12,2781.69 3240.15,2785.25Z" style="fill:rgb(209,239,252);"/>
        <path d="M2819.97,2904.05L2883.05,2847.63C2915.38,2820.57 2953.34,2805.2 2998.18,2803.83L3001.62,2812.77C2955.75,2812.89 2922.15,2827.79 2896,2851.53C2880.18,2867.47 2868.14,2886.16 2856.79,2905.2C2849.45,2915.18 2839.47,2919.65 2826.97,2919.31C2814.35,2916.9 2812.06,2911.74 2819.97,2904.05Z" style="fill:rgb(124,193,216);"/>
        <path d="M3254.26,2908.3L3190.5,2851.19C3157.7,2823.78 3119.28,2808.18 3073.98,2806.81L3070.43,2815.87C3116.87,2815.98 3150.82,2831 3177.31,2855.09C3193.36,2871.26 3205.52,2890.06 3216.99,2909.44C3224.44,2919.54 3234.53,2924.01 3247.15,2923.66C3259.88,2921.14 3262.28,2915.98 3254.26,2908.3Z" style="fill:rgb(124,193,216);"/>
        <path d="M3176.05,2911.16C3216.99,2897.29 3233.96,2861.05 3232.7,2807.95C3230.4,2790.29 3214.69,2779.06 3184.07,2775.04C3140.15,2769.19 3105.98,2776.53 3083.27,2799.12C3065.84,2814.49 3066.53,2836.74 3076.85,2862.66C3096.8,2913 3133.39,2920.22 3176.05,2911.16ZM3086.48,2897.17C3071,2877.1 3056.78,2857.27 3056.32,2826.07C3058.04,2800.39 3074.79,2784.67 3098.87,2773.9C3130.86,2760.59 3162.86,2760.02 3194.85,2765.07C3215.72,2768.28 3230.29,2776.19 3249.9,2779.86C3254.94,2782.5 3256.66,2786.51 3254.37,2792.36C3249.55,2795.46 3246.69,2801.65 3245.08,2810.02C3243.93,2828.02 3240.49,2846.72 3234.99,2865.87C3223.06,2895.68 3201.96,2916.78 3164.35,2922.06C3135.22,2924.81 3108.04,2920.34 3086.48,2897.17Z" style="fill:rgb(124,104,104);"/>
        <path d="M3005.87,2805.78C3006.67,2805.43 3018.82,2792.47 3019.05,2792.47L3056.9,2792.36C3057.13,2792.36 3069.28,2805.32 3070.08,2805.78C3070.89,2806.12 3065.27,2810.59 3063.32,2812.43L3054.37,2802.33L3021.58,2802.45L3012.63,2812.54C3010.68,2810.71 3005.06,2806.23 3005.87,2805.78Z" style="fill:rgb(124,104,104);"/>
        <path d="M2864.01,2812.77C2859.21,2812.77 2854.75,2809.74 2853.14,2804.96C2851.12,2798.96 2854.34,2792.45 2860.34,2790.43C2894.23,2779.01 2927.94,2778.33 2960.51,2788.4C2966.57,2790.27 2969.95,2796.68 2968.08,2802.73C2966.22,2808.78 2959.77,2812.16 2953.74,2810.3C2925.47,2801.57 2897.31,2802.17 2867.67,2812.16C2866.46,2812.58 2865.21,2812.77 2864.01,2812.77Z" style="fill:white;fill-rule:nonzero;"/>
        <path d="M2996.69,2861.28C3007.01,2835.36 3007.7,2813.12 2990.27,2797.86C2967.45,2775.16 2933.39,2767.82 2889.47,2773.67C2858.85,2777.68 2843.02,2788.92 2840.84,2806.69C2839.58,2859.79 2856.56,2895.91 2897.5,2909.9C2940.16,2918.85 2976.74,2911.62 2996.69,2861.28ZM2909.19,2920.68C2871.58,2915.41 2850.48,2894.31 2838.44,2864.49C2833.05,2845.34 2829.61,2826.76 2828.46,2808.64C2826.85,2800.27 2823.99,2794.08 2819.17,2790.98C2816.88,2785.13 2818.6,2781.12 2823.64,2778.48C2843.14,2774.81 2857.7,2766.9 2878.57,2763.69C2910.68,2758.64 2942.56,2759.22 2974.56,2772.52C2998.75,2783.3 3015.5,2799.01 3017.22,2824.7C3016.76,2855.89 3002.42,2875.73 2987.06,2895.8C2965.5,2919.08 2938.32,2923.43 2909.19,2920.68Z" style="fill:rgb(124,104,104);"/>
        <path d="M3109.31,2818.62C3104.53,2818.62 3100.07,2815.61 3098.44,2810.83C3096.42,2804.84 3099.63,2798.32 3105.63,2796.29C3139.54,2784.81 3173.22,2784.16 3205.74,2794.38C3211.78,2796.28 3215.14,2802.71 3213.24,2808.76C3211.35,2814.78 3204.93,2818.14 3198.87,2816.26C3171.09,2807.52 3142.19,2808.13 3112.98,2818.02C3111.76,2818.43 3110.53,2818.62 3109.31,2818.62Z" style="fill:white;fill-rule:nonzero;"/>
        <path d="M2690.5,2930.77L2690.5,2989.83C2690.5,2995.34 2695.09,2999.81 2700.59,2999.81L3359.76,2999.81C3365.26,2999.81 3369.85,2995.34 3369.85,2989.83L3369.85,2930.77C3369.85,2925.27 3365.26,2920.8 3359.76,2920.8L2700.59,2920.8C2695.09,2920.8 2690.5,2925.27 2690.5,2930.77Z" style="fill:rgb(86,191,170);"/>
        <path d="M3319.85,3020.91C3303.91,3036.96 3304.94,3067.7 3303.22,3092.35L2741.08,3091.21L2774.33,3029.63L2900.48,3005.43L3319.85,3020.91Z" style="fill:rgb(209,206,183);"/>
        <path d="M2773.53,3048.9C2770.37,3048.9 2767.81,3046.34 2767.8,3043.17C2767.78,3040 2770.35,3037.44 2773.52,3037.43L3301.03,3036.16L3301.04,3036.16C3304.2,3036.16 3306.77,3038.72 3306.78,3041.88C3306.79,3045.05 3304.22,3047.62 3301.06,3047.63L2773.54,3048.9L2773.53,3048.9Z" style="fill:rgb(232,226,196);fill-rule:nonzero;"/>
        <path d="M3298.98,3121.49L3298.97,3121.49L2756.43,3120.45C2753.26,3120.43 2750.69,3117.87 2750.71,3114.7C2750.72,3111.54 2753.28,3108.98 2756.44,3108.98L2756.45,3108.98L3298.99,3110.02C3302.16,3110.03 3304.73,3112.59 3304.72,3115.76C3304.71,3118.92 3302.14,3121.49 3298.98,3121.49Z" style="fill:rgb(249,244,221);fill-rule:nonzero;"/>
        <path d="M3303.8,3151.76L3303.79,3151.76L2761.24,3150.84C2758.08,3150.84 2755.52,3148.26 2755.52,3145.09C2755.52,3141.94 2758.1,3139.37 2761.26,3139.37L2761.27,3139.37L3303.81,3140.29C3306.98,3140.29 3309.53,3142.87 3309.53,3146.04C3309.53,3149.19 3306.96,3151.76 3303.8,3151.76Z" style="fill:rgb(249,244,221);fill-rule:nonzero;"/>
        <path d="M2757.36,3076.19C2754.2,3076.19 2751.64,3073.63 2751.62,3070.46C2751.61,3067.29 2754.18,3064.73 2757.35,3064.72L3299.89,3063.45L3299.9,3063.45C3303.06,3063.45 3305.62,3066.01 3305.64,3069.18C3305.65,3072.35 3303.08,3074.91 3299.91,3074.92L2757.37,3076.19L2757.36,3076.19Z" style="fill:rgb(232,226,196);fill-rule:nonzero;"/>
        <path d="M2582.94,3011.05L2565.73,3030.77C2562.18,3034.67 2563.67,3038 2569.06,3038L2719.17,3037.65C2724.45,3037.65 2731.67,3034.33 2735.11,3030.43L2752.31,3010.7C2755.87,3006.69 2754.38,3003.48 2749.1,3003.48L2598.88,3003.82C2593.6,3003.82 2586.49,3007.03 2582.94,3011.05Z" style="fill:rgb(99,165,196);"/>
        <path d="M3321.46,3197.17L2799.68,3197.17C2799.24,3197.17 2798.81,3197.15 2798.37,3197.09C2751.61,3191.71 2725.44,3153.97 2728.35,3096.13C2728.92,3058.92 2737.02,3007.83 2800.31,2998.56C2800.85,2998.48 2801.4,2998.43 2801.96,2998.43L3316.76,2998.67C3323.09,2998.67 3328.22,3003.81 3328.22,3010.14C3328.22,3016.47 3323.08,3021.6 3316.76,3021.6L2802.81,3021.37C2766.97,3026.91 2752.02,3048.86 2751.28,3096.89C2749.93,3123.65 2754.57,3168.57 2800.36,3174.23L3321.46,3174.23C3327.8,3174.23 3332.93,3179.36 3332.93,3185.7C3332.93,3192.04 3327.8,3197.17 3321.46,3197.17Z" style="fill:rgb(91,160,196);fill-rule:nonzero;"/>
        <path d="M2694.17,2931.81L2694.17,2935.82C2694.17,2941.32 2698.64,2945.8 2704.26,2945.8L3358.15,2945.8C3363.66,2945.8 3368.24,2941.32 3368.24,2935.82L3368.24,2931.81C3368.24,2926.3 3363.66,2921.83 3358.15,2921.83L2704.26,2921.83C2698.64,2921.83 2694.17,2926.3 2694.17,2931.81Z" style="fill:rgb(119,221,201);"/>
        <path d="M2585,3107.61L2585,3089.83C2585,3040.06 2625.37,2999.69 2675.14,2999.69L2992.56,2999.69C2994.17,2999.69 2995.89,2999.69 2997.49,2999.81L2735.23,2999.81C2685.46,2999.81 2645.09,3040.18 2645.09,3089.95L2645.09,3107.72C2645.09,3155.88 2682.82,3195.22 2730.41,3197.74L2675.14,3197.74C2625.37,3197.74 2585,3157.38 2585,3107.61Z" style="fill:rgb(25,112,155);"/>
        <path d="M3406.89,3286.96L3406.89,3304.74C3406.89,3354.51 3366.52,3394.87 3316.75,3394.87L2999.33,3394.87C2949.56,3394.87 2909.19,3354.51 2909.19,3304.74L2909.19,3286.96C2909.19,3237.19 2949.56,3196.82 2999.33,3196.82L3316.75,3196.82C3366.52,3196.82 3406.89,3237.19 3406.89,3286.96Z" style="fill:rgb(214,71,38);"/>
        <path d="M3207.93,3304.28L3207.93,3286.5C3207.93,3236.73 3167.56,3196.37 3117.79,3196.37L2613.33,3196.37C2644.06,3260.7 2642.8,3326.75 2613.33,3394.41L3117.79,3394.41C3167.56,3394.41 3207.93,3354.05 3207.93,3304.28Z" style="fill:rgb(242,237,201);"/>
        <path d="M2621.58,3217.47C2637.64,3233.41 2636.6,3264.14 2638.33,3288.91L3204.14,3287.76L3170.66,3226.18L3043.82,3201.99L2621.58,3217.47Z" style="fill:rgb(209,206,183);"/>
        <path d="M2640.27,3249.12C2637.12,3249.12 2634.55,3246.57 2634.54,3243.4C2634.53,3240.23 2637.09,3237.66 2640.26,3237.65L3167.89,3236.39L3167.9,3236.39C3171.06,3236.39 3173.62,3238.94 3173.63,3242.11C3173.64,3245.28 3171.08,3247.84 3167.91,3247.86L2640.28,3249.12L2640.27,3249.12Z" style="fill:rgb(232,226,196);fill-rule:nonzero;"/>
        <path d="M2644.52,3274.46C2641.36,3274.46 2638.79,3271.91 2638.78,3268.74C2638.77,3265.57 2641.34,3263.01 2644.51,3263L3185.78,3261.73L3185.8,3261.73C3188.95,3261.73 3191.52,3264.28 3191.53,3267.45C3191.54,3270.62 3188.98,3273.19 3185.81,3273.2L2644.53,3274.46L2644.52,3274.46Z" style="fill:rgb(232,226,196);fill-rule:nonzero;"/>
        <path d="M3181.9,3350.72L3181.89,3350.72L2639.34,3349.8C2636.17,3349.8 2633.62,3347.22 2633.62,3344.05C2633.62,3340.9 2636.2,3338.33 2639.36,3338.33L2639.37,3338.33L3181.91,3339.25C3185.08,3339.25 3187.63,3341.83 3187.63,3345C3187.63,3348.15 3185.06,3350.72 3181.9,3350.72Z" style="fill:rgb(249,244,221);fill-rule:nonzero;"/>
        <path d="M3187.29,3318.72L3187.27,3318.72L2639.8,3317.8C2636.63,3317.8 2634.08,3315.23 2634.08,3312.06C2634.08,3308.9 2636.66,3306.34 2639.81,3306.34L2639.83,3306.34L3187.3,3307.25C3190.47,3307.25 3193.02,3309.83 3193.02,3313C3193.02,3316.16 3190.44,3318.72 3187.29,3318.72Z" style="fill:rgb(249,244,221);fill-rule:nonzero;"/>
        <path d="M3142.1,3396.71L2607.36,3396.71C2601.02,3396.71 2595.89,3391.58 2595.89,3385.24C2595.89,3378.91 2601.02,3373.78 2607.36,3373.78L3141.44,3373.78C3188.58,3368.09 3193.29,3323.19 3191.88,3296.86C3191.14,3248.39 3175.76,3226.45 3138.86,3220.91L2612.3,3221.02C2605.97,3221.02 2600.83,3215.89 2600.83,3209.56C2600.83,3203.23 2605.96,3198.09 2612.3,3198.09L3139.69,3197.98C3140.23,3197.98 3140.78,3198.01 3141.31,3198.09C3205.99,3207.33 3214.23,3258.43 3214.8,3296.07C3217.88,3353.51 3191.18,3391.27 3143.37,3396.64C3142.95,3396.69 3142.52,3396.71 3142.1,3396.71Z" style="fill:rgb(252,109,76);fill-rule:nonzero;"/>
        <path d="M3385.1,3305.31L3385.1,3287.53C3385.1,3237.76 3344.74,3197.4 3294.97,3197.4L2977.54,3197.4C2975.82,3197.4 2974.21,3197.51 2972.61,3197.51L3234.88,3197.51C3284.53,3197.51 3325.01,3237.88 3325.01,3287.65L3325.01,3305.42C3325.01,3353.59 3287.17,3392.92 3239.69,3395.45L3294.97,3395.45C3344.74,3395.45 3385.1,3355.08 3385.1,3305.31Z" style="fill:rgb(249,91,53);"/>
        <path d="M2898.76,3270.22L2898.76,3332.49L2936.26,3316.66L2971.92,3333.41L2970.89,3270.22L2898.76,3270.22Z" style="fill:rgb(252,109,76);"/>
        <path d="M2851.77,3118.8C2838.46,3118.8 2828.14,3115.01 2809.08,3105.64C2784.35,3093.65 2758.27,3098.66 2755.2,3099.83C2752.44,3101.41 2749.16,3100.35 2747.59,3097.62C2746,3094.88 2747.17,3091.26 2749.91,3089.68C2753.99,3087.32 2784.84,3081.14 2814.11,3095.34C2840.98,3108.55 2847.2,3109.49 2874.48,3104.71C2877.53,3104.07 2880.57,3106.23 2881.12,3109.36C2881.67,3112.48 2879.58,3115.45 2876.47,3116C2866.36,3117.78 2858.66,3118.8 2851.77,3118.8Z" style="fill:rgb(76,155,191);fill-rule:nonzero;"/>
        <path d="M3056.78,1786.75C3067.22,1777.7 3087.86,1775.4 3102.88,1781.71C3117.9,1788.02 3121.57,1800.52 3111.14,1809.58C3100.7,1818.64 3080.06,1820.81 3065.15,1814.62C3050.13,1808.31 3046.35,1795.81 3056.78,1786.75Z" style="fill:rgb(96,170,186);"/>
    </g>
</svg>
