<?xml version="1.0" encoding="UTF-8" standalone="no"?>
<!DOCTYPE svg PUBLIC "-//W3C//DTD SVG 1.1//EN" "http://www.w3.org/Graphics/SVG/1.1/DTD/svg11.dtd">
<svg width="100%" height="100%" viewBox="0 0 8842 8842" version="1.1" xmlns="http://www.w3.org/2000/svg" xmlns:xlink="http://www.w3.org/1999/xlink" xml:space="preserve" xmlns:serif="http://www.serif.com/" style="fill-rule:evenodd;clip-rule:evenodd;stroke-linejoin:round;stroke-miterlimit:2;">
    <g transform="matrix(4.16667,0,0,4.16667,0,0)">
        <path d="M1712.22,1175.2L1773.1,1477.22C1777.27,1493.43 1767.41,1510.11 1751.2,1514.28L1744.49,1516C1728.28,1520.17 1711.6,1510.32 1707.43,1494.11L1610.66,1201.32L1712.22,1175.2Z" style="fill:rgb(112,37,18);fill-rule:nonzero;"/>
        <path d="M398.671,1175.2L337.797,1477.22C333.626,1493.43 343.48,1510.11 359.692,1514.28L366.403,1516C382.615,1520.17 399.289,1510.32 403.46,1494.11L500.229,1201.32L398.671,1175.2Z" style="fill:rgb(112,37,18);fill-rule:nonzero;"/>
        <path d="M473.54,1282.07L500.229,1201.32L398.671,1175.2L377.129,1282.07L473.54,1282.07Z" style="fill:rgb(88,13,9);fill-rule:nonzero;"/>
        <path d="M1637.35,1282.07L1610.66,1201.32L1712.22,1175.2L1733.76,1282.07L1637.35,1282.07Z" style="fill:rgb(88,13,9);fill-rule:nonzero;"/>
        <rect x="212.103" y="604.362" width="1697.12" height="644.478" style="fill:rgb(126,61,30);fill-rule:nonzero;"/>
        <rect x="235.077" y="629.454" width="1650.22" height="588.516" style="fill:rgb(141,73,36);fill-rule:nonzero;"/>
        <rect x="274.52" y="653.575" width="1572.28" height="546.055" style="fill:rgb(183,98,52);fill-rule:nonzero;"/>
        <rect x="326.679" y="921.975" width="577.022" height="229.395" style="fill:rgb(166,83,43);fill-rule:nonzero;"/>
        <rect x="324.004" y="672.131" width="1470.61" height="221.096" style="fill:rgb(166,83,43);fill-rule:nonzero;"/>
        <rect x="1217.58" y="921.124" width="577.03" height="229.396" style="fill:rgb(166,83,43);fill-rule:nonzero;"/>
        <rect x="1238.34" y="939.088" width="535.58" height="190.542" style="fill:rgb(149,68,31);fill-rule:nonzero;"/>
        <rect x="347.404" y="691.831" width="1426.52" height="176.714" style="fill:rgb(149,68,31);fill-rule:nonzero;"/>
        <path d="M1163.08,808.699L958.234,808.699C944.542,808.699 933.338,797.496 933.338,783.805L933.338,782.054C933.338,768.36 944.542,757.157 958.234,757.157L1163.08,757.157C1176.78,757.157 1187.98,768.36 1187.98,782.054L1187.98,783.805C1187.98,797.496 1176.78,808.699 1163.08,808.699Z" style="fill:rgb(112,37,18);fill-rule:nonzero;"/>
        <path d="M959.109,774.339L1162.21,774.339C1173.36,774.339 1182.82,781.557 1186.39,791.518C1187.36,788.816 1187.98,785.954 1187.98,782.929C1187.98,768.755 1176.38,757.157 1162.21,757.157L959.109,757.157C944.936,757.157 933.338,768.755 933.338,782.929C933.338,785.954 933.962,788.816 934.932,791.518C938.5,781.557 947.96,774.339 959.109,774.339Z" style="fill:rgb(94,20,11);fill-rule:nonzero;"/>
        <path d="M1607.63,1053.22L1402.78,1053.22C1389.09,1053.22 1377.89,1042.01 1377.89,1028.32L1377.89,1026.57C1377.89,1012.88 1389.09,1001.67 1402.78,1001.67L1607.63,1001.67C1621.33,1001.67 1632.53,1012.88 1632.53,1026.57L1632.53,1028.32C1632.53,1042.01 1621.33,1053.22 1607.63,1053.22Z" style="fill:rgb(112,37,18);fill-rule:nonzero;"/>
        <path d="M1403.66,1018.86L1606.76,1018.86C1617.91,1018.86 1627.37,1026.07 1630.94,1036.04C1631.91,1033.33 1632.53,1030.47 1632.53,1027.45C1632.53,1013.27 1620.93,1001.67 1606.76,1001.67L1403.66,1001.67C1389.49,1001.67 1377.89,1013.27 1377.89,1027.45C1377.89,1030.47 1378.51,1033.33 1379.48,1036.04C1383.05,1026.07 1392.51,1018.86 1403.66,1018.86Z" style="fill:rgb(94,20,11);fill-rule:nonzero;"/>
        <rect x="347.404" y="829.982" width="1426.52" height="38.563" style="fill:rgb(131,53,26);fill-rule:nonzero;"/>
        <rect x="1238.34" y="1095.27" width="535.58" height="34.36" style="fill:rgb(131,53,26);fill-rule:nonzero;"/>
        <rect x="347.404" y="939.94" width="535.572" height="190.54" style="fill:rgb(149,68,31);fill-rule:nonzero;"/>
        <rect x="347.404" y="1096.12" width="535.572" height="34.36" style="fill:rgb(131,53,26);fill-rule:nonzero;"/>
        <path d="M716.694,1054.07L511.844,1054.07C498.151,1054.07 486.947,1042.87 486.947,1029.17L486.947,1027.42C486.947,1013.73 498.151,1002.53 511.844,1002.53L716.694,1002.53C730.388,1002.53 741.591,1013.73 741.591,1027.42L741.591,1029.17C741.591,1042.87 730.388,1054.07 716.694,1054.07Z" style="fill:rgb(112,37,18);fill-rule:nonzero;"/>
        <path d="M512.719,1019.71L715.82,1019.71C726.97,1019.71 736.429,1026.93 739.998,1036.89C740.968,1034.19 741.591,1031.32 741.591,1028.3C741.591,1014.12 729.993,1002.53 715.82,1002.53L512.719,1002.53C498.546,1002.53 486.947,1014.12 486.947,1028.3C486.947,1031.32 487.571,1034.19 488.541,1036.89C492.109,1026.93 501.569,1019.71 512.719,1019.71Z" style="fill:rgb(94,20,11);fill-rule:nonzero;"/>
        <rect x="933.338" y="942.685" width="254.642" height="190.545" style="fill:rgb(112,37,18);fill-rule:nonzero;"/>
        <path d="M1187.98,1133.23L933.338,1133.23L1140.21,1098.86L1187.98,942.685L1187.98,1133.23Z" style="fill:rgb(94,20,11);fill-rule:nonzero;"/>
    </g>
</svg>
