<?xml version="1.0" encoding="UTF-8" standalone="no"?>
<!DOCTYPE svg PUBLIC "-//W3C//DTD SVG 1.1//EN" "http://www.w3.org/Graphics/SVG/1.1/DTD/svg11.dtd">
<svg width="100%" height="100%" viewBox="0 0 919 1147" version="1.1" xmlns="http://www.w3.org/2000/svg" xmlns:xlink="http://www.w3.org/1999/xlink" xml:space="preserve" xmlns:serif="http://www.serif.com/" style="fill-rule:evenodd;clip-rule:evenodd;stroke-linejoin:round;stroke-miterlimit:2;">
    <g transform="matrix(1,0,0,1,5.75047e-05,-0.859956)">
        <path d="M503.634,86.154C496.866,77.429 487.611,70.84 478.326,65.042C475.861,63.502 472.281,64.558 470.926,67.082C463.735,80.482 457.081,94.212 448.848,107.022C446.141,111.234 442.27,116.837 438.827,119.31C438.61,119.466 437.737,119.89 437.346,120.106C437.294,120.038 437.244,119.973 437.176,119.872C436.506,118.867 436.116,117.786 435.745,116.648C429.326,96.947 437.11,75.857 432.049,56.013C429.37,45.507 422.718,34.588 415.152,26.924C406.932,18.599 395.919,14.743 390.803,3.523C388.935,-0.572 383.485,0.549 381.387,3.567C369.539,20.617 352.952,38.223 349.792,59.539C346.987,78.448 357.215,94.243 368.12,108.596C373.399,115.545 378.599,122.615 382.698,130.34C384.955,134.592 388.853,142.283 384.75,146.454C380.455,150.819 373.92,143.034 370.523,139.524C363.568,132.334 357.683,124.139 351.651,116.186C341.675,103.033 325.888,83.032 307.113,86.662C298.843,88.261 295.473,96.811 295.037,104.268C294.346,116.109 300.142,128.84 305.968,138.776C319.184,161.312 345.973,167.841 363.209,186.025C367.174,190.207 378.03,204.53 371.802,210.406C369.625,212.46 364.565,211.773 361.994,211.376C355.665,210.401 348.741,208.081 343.654,204.151C324.274,189.176 317.213,163.129 296.862,148.93C287.936,142.703 274.182,138.892 263.449,141.452C254.355,143.621 250.164,152.178 249.758,160.815C249.268,171.27 254.029,182.06 259.299,190.801C265.39,200.903 273.763,209.352 284.01,215.183C304.541,226.867 330.508,228.333 344.157,249.821C346.021,252.754 348.039,256.594 347.132,260.167C346.429,262.942 342.492,263.818 340.151,264.336C329.631,266.657 315.813,262.777 306.587,257.863C295.418,251.915 287.292,241.158 278.72,232.158C269.671,222.657 259.592,214.915 246.907,211.058C237.694,208.258 226.374,208.718 220.429,217.323C214.977,225.214 216.084,235.848 218.31,244.634C221.254,256.257 227.584,267.016 235.364,276.032C243.771,285.775 257.019,291.297 268.9,295.283C281.253,299.428 294.09,301.937 306.296,306.558C309.519,307.778 312.027,308.636 315.567,308.886C319.344,309.151 323.156,308.979 326.85,309.929C329.96,310.73 327.895,314.014 326.84,316.281C324.31,321.718 316.211,321.484 311.106,321.888C306.262,322.271 301.487,323.492 296.645,323.527C291.086,323.567 285.525,322.536 280.053,321.698C269.194,320.034 257.713,318.125 246.963,321.391C236.577,324.546 229.252,334.323 227.389,344.809C223.478,366.837 248.093,380.267 266.369,383.07C278.083,384.865 288.695,382.309 298.986,376.495C311.676,369.324 321.65,358.965 336.303,357.186C337.253,363.039 335.164,367.734 329.958,372.132C322.798,378.181 312.884,381.443 304.236,384.653C287.203,390.973 262.278,396.605 253.146,414.232C252.034,416.378 252.255,419.06 254.063,420.786C262.143,428.493 271.442,434.549 282.801,435.454C292.222,436.203 301.408,431.829 309.044,426.766C322.694,417.714 334.452,403.638 349.793,397.264C347.676,401.147 344.141,403.792 339.843,407.124C332.173,413.071 328.251,421.332 326.132,430.627C322.919,444.717 327.801,459.951 344.334,460.033C353.36,460.078 362.404,455.535 369.936,451.02C378.556,445.852 385.445,438.329 390.801,429.911C397.44,419.475 401.12,407.432 403.178,395.126C417.004,422.038 447.022,450.183 475.348,426.9C499.548,407.007 459.683,391.754 443.938,376.096C447.048,377.371 450.056,378.95 452.927,380.422C461.143,384.633 469.121,389.285 477.688,392.777C493.676,399.294 511.611,398.657 521.177,382.208C529.428,368.022 512.33,361.43 501.801,358.271C493.234,355.701 477.203,352.916 470.987,344.31C492.118,346.626 515.637,349.237 533.857,337.041C542.126,331.506 552.045,320.847 553.036,310.44C553.842,301.945 544.647,298.932 538.021,298.281C519.987,296.513 502.445,304.448 484.371,303.879C480.026,303.741 475.719,303.279 471.476,302.334C469.889,301.98 468.261,301.54 466.778,300.871C466.216,300.617 465.632,300.124 465.238,299.825C465.335,299.581 465.481,299.282 465.741,298.977C467.346,297.1 469.44,295.712 471.48,294.364C476.108,291.311 480.958,289.542 486.476,288.963C496.973,287.86 507.464,289.168 517.935,287.347C529.711,285.3 539.267,278.48 547.043,269.706C553.956,261.907 560.616,252.028 561.713,241.404C562.849,230.421 556.185,222.985 546.383,219.237C518.961,208.752 502.909,237.086 483.347,249.934C478.165,253.339 471.999,255.597 466.106,257.408C463.695,258.15 456.621,260.58 454.283,258.699C452.89,257.577 457.54,250.124 458.421,248.697C462.372,242.309 467.388,237.87 473.859,234.166C490.218,224.804 510.176,221.892 523.062,207.105C531.53,197.386 538.192,180.927 529.911,169.093C521.124,156.537 501.563,159.933 490.507,167.24C476.617,176.422 469.611,195.033 452.892,199.477C451.436,191.555 454.528,184.267 459.871,177.212C467.674,166.912 477.736,158.447 486.999,149.519C495.874,140.964 504.991,131.652 509.613,120.012C514.348,108.09 511.311,96.051 503.634,86.154Z" style="fill:rgb(50,91,21);fill-rule:nonzero;"/>
        <path d="M916.903,467.593C919.569,456.878 919.018,445.53 917.826,434.649C917.51,431.759 914.465,429.6 911.644,430.098C896.667,432.742 881.765,436.012 866.608,437.472C861.623,437.952 854.827,438.379 850.753,437.206C850.496,437.132 849.623,436.709 849.213,436.535C849.234,436.451 849.253,436.372 849.29,436.256C849.665,435.108 850.273,434.133 850.937,433.136C862.44,415.902 883.824,408.966 896.28,392.71C902.874,384.104 907.334,372.122 908.673,361.436C910.126,349.826 906.339,338.789 911.986,327.828C914.047,323.826 909.793,320.238 906.125,320.459C885.4,321.703 861.306,319.568 842.605,330.277C826.016,339.777 819.939,357.585 815.413,375.034C813.221,383.482 810.886,391.942 807.354,399.943C805.411,404.346 801.781,412.167 795.967,411.525C789.879,410.853 791.95,400.902 792.605,396.061C793.949,386.149 796.745,376.454 799.259,366.794C803.417,350.818 809.358,326.039 794.889,313.538C788.514,308.031 779.713,310.675 773.586,314.948C763.856,321.733 757.442,334.164 753.243,344.889C743.72,369.216 755.169,394.301 751.553,419.093C750.722,424.796 746.188,442.187 737.718,440.931C734.758,440.492 732.166,436.093 730.887,433.826C727.736,428.252 725.273,421.377 725.213,414.949C724.982,390.459 741.072,368.794 739.632,344.021C739,333.155 733.481,319.992 724.828,313.147C717.498,307.346 708.181,309.349 701.146,314.375C692.63,320.46 687.101,330.877 683.497,340.426C679.331,351.463 677.875,363.267 679.636,374.925C683.163,398.283 698.082,419.589 689.649,443.608C688.499,446.886 686.73,450.847 683.363,452.347C680.749,453.512 677.624,450.962 675.769,449.443C667.436,442.616 661.932,429.36 660.082,419.073C657.842,406.618 661.263,393.579 663.028,381.276C664.892,368.287 664.735,355.579 659.915,343.229C656.414,334.258 649.045,325.651 638.608,326.306C629.037,326.906 621.367,334.359 615.844,341.543C608.536,351.048 604.002,362.679 601.734,374.37C599.284,387.003 603.145,400.825 607.366,412.626C611.755,424.895 617.729,436.531 621.652,448.978C622.688,452.265 623.566,454.767 625.561,457.701C627.69,460.832 630.184,463.721 631.723,467.21C633.019,470.149 629.162,470.559 626.728,471.133C620.892,472.51 616.063,466.004 612.586,462.244C609.287,458.676 605.374,455.68 602.35,451.899C598.879,447.557 596.247,442.55 593.519,437.734C588.105,428.174 582.5,417.975 573.283,411.551C564.376,405.345 552.163,405.642 542.774,410.668C523.05,421.227 527.734,448.874 536.842,464.964C542.681,475.277 551.256,482.03 562.191,486.517C575.677,492.047 589.987,493.471 600.453,503.881C596.442,508.249 591.462,509.513 584.786,508.146C575.604,506.264 566.905,500.496 559.032,495.689C543.526,486.22 523.679,470.127 504.181,473.862C501.807,474.318 499.837,476.15 499.6,478.639C498.546,489.755 499.544,500.808 505.863,510.289C511.104,518.153 520.224,522.663 528.928,525.527C544.486,530.648 562.818,531.173 577.32,539.279C572.959,540.019 568.693,538.88 563.416,537.566C553.998,535.221 545.082,537.253 536.47,541.34C523.412,547.535 514.468,560.798 524.635,573.836C530.186,580.954 539.351,585.246 547.559,588.368C556.952,591.942 567.125,592.697 577.053,591.695C589.358,590.452 601.096,585.889 612.036,579.89C599.452,607.406 595.92,648.403 631.74,656.244C662.341,662.943 649.653,622.189 652.208,600.131C653.131,603.364 653.753,606.703 654.373,609.869C656.15,618.93 657.433,628.076 659.991,636.966C664.766,653.557 676.365,667.251 695.207,664.586C711.456,662.288 706.053,644.777 702.018,634.552C698.735,626.232 691.002,611.916 693.916,601.708C705.173,619.739 717.677,639.83 738.532,646.595C747.997,649.665 762.508,650.86 771.297,645.198C778.468,640.574 775.146,631.487 771.555,625.879C761.784,610.619 744.696,601.75 733.957,587.2C731.376,583.702 729.073,580.033 727.191,576.115C726.487,574.65 725.825,573.099 725.433,571.52C725.284,570.921 725.311,570.157 725.301,569.663C725.553,569.588 725.878,569.518 726.279,569.534C728.746,569.633 731.133,570.419 733.453,571.187C738.716,572.932 743.107,575.648 746.977,579.623C754.338,587.186 759.804,596.236 767.715,603.335C776.61,611.319 787.88,614.604 799.585,615.282C809.989,615.887 821.87,615.004 830.895,609.293C840.225,603.387 841.941,593.55 838.82,583.531C830.087,555.503 797.896,560.428 775.697,553.013C769.816,551.048 764.227,547.603 759.157,544.095C757.083,542.66 750.796,538.608 750.827,535.607C750.846,533.818 759.577,532.859 761.244,532.668C768.708,531.818 775.298,533.011 782.212,535.802C799.689,542.858 814.328,556.733 833.917,557.703C846.792,558.342 863.844,553.389 868.015,539.561C872.44,524.888 857.668,511.625 845.086,507.462C829.277,502.234 810.322,508.248 796.486,497.864C801.807,491.818 809.446,489.736 818.294,489.568C831.214,489.323 844.09,491.988 856.835,493.739C869.047,495.417 882.004,496.816 894.008,493.242C906.303,489.584 913.88,479.748 916.903,467.593Z" style="fill:rgb(50,91,21);fill-rule:nonzero;"/>
        <path d="M182.44,169.083C172.148,165.084 160.822,164.195 149.877,164C146.971,163.949 144.444,166.695 144.581,169.558C145.309,184.748 146.668,199.945 146.2,215.165C146.044,220.17 145.609,226.965 143.929,230.858C143.823,231.103 143.293,231.916 143.069,232.301C142.989,232.27 142.913,232.241 142.802,232.19C141.71,231.672 140.821,230.946 139.916,230.161C124.276,216.569 120.1,194.481 105.55,180.068C97.847,172.439 86.525,166.499 76.094,163.819C64.762,160.909 53.334,163.271 43.175,156.282C39.466,153.731 35.369,157.497 35.124,161.164C33.736,181.879 28.571,205.51 36.829,225.414C44.154,243.072 61.05,251.353 77.786,258.049C85.889,261.293 93.984,264.68 101.475,269.195C105.597,271.679 112.897,276.27 111.525,281.956C110.087,287.91 100.479,284.597 95.759,283.334C86.096,280.748 76.834,276.748 67.569,273.032C52.248,266.887 28.419,257.858 14.188,270.631C7.919,276.257 9.429,285.321 12.892,291.941C18.392,302.45 29.912,310.385 40.02,315.907C62.947,328.431 89.278,320.247 113.414,326.97C118.965,328.516 135.644,335.214 133.326,343.456C132.517,346.337 127.825,348.351 125.415,349.334C119.486,351.755 112.356,353.328 105.972,352.574C81.649,349.705 62.192,331.004 37.436,329.299C26.578,328.552 12.823,332.361 4.938,340.078C-1.744,346.617 -0.934,356.112 3.161,363.726C8.119,372.943 17.753,379.746 26.77,384.529C37.191,390.058 48.716,392.994 60.503,392.722C84.12,392.178 107.142,380.074 129.901,391.478C133.008,393.033 136.714,395.288 137.775,398.818C138.6,401.56 135.675,404.337 133.934,405.985C126.108,413.388 112.262,417.17 101.824,417.704C89.186,418.35 76.683,413.307 64.702,410C52.054,406.508 39.427,405.056 26.567,408.276C17.225,410.615 7.755,416.834 7.084,427.271C6.47,436.842 12.892,445.392 19.32,451.78C27.825,460.232 38.789,466.2 50.099,469.928C62.32,473.957 76.52,471.875 88.76,469.181C101.486,466.379 113.784,461.926 126.627,459.608C130.019,458.997 132.612,458.442 135.775,456.835C139.15,455.119 142.332,453.009 145.987,451.924C149.066,451.01 148.985,454.889 149.247,457.376C149.874,463.339 142.81,467.305 138.64,470.278C134.683,473.1 131.216,476.604 127.083,479.124C122.337,482.019 117.039,483.996 111.914,486.093C101.747,490.254 90.919,494.524 83.382,502.855C76.099,510.904 74.849,523.057 78.647,533.006C86.626,553.907 114.644,552.758 131.757,545.759C142.726,541.272 150.51,533.619 156.343,523.339C163.534,510.661 166.758,496.647 178.407,487.582C182.233,492.112 182.857,497.213 180.657,503.663C177.629,512.533 170.806,520.431 165.042,527.633C153.688,541.817 135.213,559.47 136.453,579.283C136.604,581.695 138.172,583.882 140.611,584.432C151.505,586.883 162.595,587.292 172.799,582.223C181.263,578.018 186.89,569.541 190.833,561.271C197.88,546.485 200.719,528.366 210.595,515.007C210.777,519.426 209.107,523.513 207.137,528.582C203.62,537.628 204.507,546.729 207.472,555.789C211.966,569.525 223.991,580.076 238.21,571.64C245.972,567.033 251.391,558.485 255.525,550.738C260.258,541.872 262.294,531.877 262.557,521.902C262.879,509.538 259.838,497.318 255.271,485.707C280.974,501.67 321.195,510.36 333.504,475.819C344.021,446.312 301.989,453.743 280.431,448.418C283.755,447.911 287.146,447.717 290.365,447.502C299.577,446.885 308.812,446.77 317.955,445.357C335.017,442.719 350.068,432.944 349.808,413.918C349.583,397.508 331.53,400.653 320.877,403.361C312.208,405.566 297.029,411.426 287.271,407.245C306.582,398.358 328.093,388.496 337.441,368.664C341.684,359.663 344.705,345.42 340.2,335.986C336.521,328.287 327.085,330.434 321.069,333.286C304.695,341.048 293.736,356.878 277.945,365.689C274.149,367.807 270.218,369.628 266.093,370.999C264.55,371.512 262.928,371.972 261.312,372.162C260.699,372.233 259.945,372.11 259.454,372.058C259.411,371.798 259.383,371.467 259.448,371.071C259.859,368.636 260.94,366.368 261.997,364.163C264.394,359.163 267.642,355.152 272.076,351.816C280.509,345.47 290.178,341.193 298.22,334.244C307.265,326.43 311.949,315.665 314.103,304.141C316.019,293.897 316.646,282 312.121,272.325C307.444,262.322 297.904,259.374 287.57,261.204C258.661,266.322 259.476,298.877 249.313,319.96C246.62,325.545 242.495,330.653 238.375,335.239C236.688,337.115 231.873,342.839 228.9,342.429C227.128,342.184 227.28,333.401 227.303,331.723C227.403,324.213 229.42,317.825 233.063,311.32C242.274,294.876 257.89,282.11 261.329,262.801C263.592,250.11 260.834,232.569 247.646,226.683C233.651,220.437 218.625,233.412 212.904,245.367C205.719,260.387 209.287,279.95 197.237,292.362C191.912,286.318 190.813,278.479 191.765,269.68C193.157,256.833 197.43,244.398 200.778,231.976C203.987,220.074 207.013,207.399 204.987,195.039C202.914,182.38 194.116,173.619 182.44,169.083Z" style="fill:rgb(50,91,21);fill-rule:nonzero;"/>
        <path d="M708.618,318.364C707.141,307.421 702.44,297.078 697.318,287.404C695.957,284.836 692.331,283.953 689.892,285.457C676.949,293.441 664.305,301.98 650.756,308.93C646.301,311.215 640.143,314.12 635.923,314.534C635.657,314.559 634.689,314.488 634.243,314.479C634.232,314.394 634.221,314.313 634.213,314.192C634.137,312.985 634.343,311.855 634.593,310.684C638.924,290.421 656.238,276.083 661.816,256.377C664.768,245.946 664.492,233.163 661.792,222.737C658.859,211.411 651.265,202.551 652.469,190.279C652.908,185.798 647.63,184.034 644.302,185.592C625.5,194.398 602.318,201.306 588.89,218.159C576.978,233.111 577.901,251.904 580.133,269.792C581.214,278.452 582.165,287.176 581.835,295.917C581.653,300.725 581.168,309.334 575.527,310.884C569.62,312.506 567.873,302.493 566.696,297.752C564.287,288.043 563.307,278.002 562.079,268.096C560.048,251.713 556.426,226.49 538.363,220.212C530.407,217.446 523.203,223.151 519.085,229.383C512.546,239.279 511.172,253.201 511.228,264.718C511.354,290.843 531.252,309.931 537.041,334.308C538.372,339.914 540.577,357.752 532.242,359.71C529.329,360.394 525.296,357.262 523.271,355.628C518.284,351.61 513.46,346.129 511.031,340.177C501.779,317.501 508.738,291.427 498.257,268.934C493.659,259.068 483.673,248.872 473.104,245.702C464.149,243.016 456.23,248.317 451.547,255.584C445.878,264.381 444.583,276.104 444.757,286.309C444.958,298.104 447.962,309.612 453.9,319.798C465.799,340.206 487.527,354.501 488.554,379.937C488.694,383.409 488.513,387.743 485.937,390.38C483.937,392.426 480.091,391.21 477.806,390.483C467.542,387.213 457.535,376.923 452.019,368.046C445.341,357.297 443.708,343.915 440.809,331.828C437.748,319.07 432.913,307.316 423.874,297.616C417.31,290.571 407.286,285.29 397.827,289.751C389.152,293.841 384.774,303.597 382.292,312.314C379.007,323.845 379.086,336.328 381.292,348.031C383.677,360.676 392.367,372.098 400.645,381.508C409.252,391.291 419.098,399.902 427.337,410.022C429.513,412.695 431.253,414.696 434.19,416.688C437.324,418.812 440.708,420.576 443.426,423.251C445.715,425.503 442.282,427.308 440.231,428.74C435.314,432.173 428.427,427.908 423.808,425.697C419.425,423.598 414.682,422.258 410.476,419.859C405.648,417.105 401.354,413.424 397.04,409.953C388.482,403.066 379.507,395.655 368.57,393.087C358.003,390.605 346.761,395.389 339.889,403.525C325.454,420.617 340.01,444.585 354.414,456.178C363.646,463.609 374.109,466.72 385.928,466.854C400.502,467.017 414.327,463.06 427.896,468.872C425.781,474.412 421.619,477.426 414.91,478.618C405.68,480.258 395.467,478.108 386.376,476.545C368.471,473.466 344.084,465.834 327.342,476.502C325.303,477.8 324.148,480.231 324.848,482.631C327.97,493.352 332.975,503.256 342.348,509.736C350.121,515.11 360.263,515.936 369.408,515.387C385.758,514.404 402.989,508.127 419.459,510.309C415.679,512.607 411.294,513.121 405.905,513.848C396.287,515.145 388.749,520.322 382.252,527.299C372.404,537.877 368.985,553.504 383.246,561.87C391.031,566.436 401.134,567.044 409.915,566.917C419.964,566.77 429.698,563.72 438.554,559.124C449.532,553.427 458.758,544.855 466.712,535.243C465.171,565.46 477.018,604.866 513.202,598.935C544.116,593.868 517.284,560.673 511.518,539.229C513.568,541.893 515.379,544.768 517.124,547.481C522.119,555.247 526.687,563.274 532.345,570.591C542.906,584.25 558.74,592.696 575.268,583.267C589.522,575.134 578.038,560.854 570.515,552.839C564.393,546.318 551.923,535.865 550.864,525.304C567.981,537.907 587.016,551.965 608.897,550.557C618.826,549.917 632.754,545.673 638.832,537.166C643.792,530.224 637.349,523.003 631.943,519.116C617.23,508.539 598.075,506.603 582.725,497.043C579.036,494.745 575.541,492.184 572.346,489.236C571.15,488.134 569.963,486.938 569.015,485.615C568.657,485.113 568.399,484.394 568.208,483.938C568.415,483.776 568.69,483.59 569.069,483.456C571.399,482.638 573.906,482.487 576.347,482.345C581.883,482.026 586.966,482.928 592.029,485.196C601.662,489.508 610.082,495.902 620.054,499.581C631.269,503.718 642.955,502.611 654.084,498.923C663.977,495.646 674.693,490.441 680.973,481.801C687.465,472.87 685.432,463.094 678.833,454.934C660.373,432.107 632.271,448.564 608.903,449.865C602.712,450.21 596.246,449.07 590.239,447.68C587.781,447.112 580.442,445.666 579.364,442.865C578.721,441.195 586.482,437.082 587.961,436.29C594.584,432.745 601.15,431.422 608.606,431.464C627.454,431.573 646.18,439.066 664.744,432.739C676.946,428.581 690.966,417.685 689.74,403.294C688.438,388.024 669.813,381.148 656.583,381.923C639.961,382.897 624.564,395.482 607.872,390.937C610.586,383.354 616.918,378.6 625.078,375.179C636.996,370.183 649.947,367.909 662.439,364.833C674.408,361.884 686.966,358.402 696.805,350.652C706.881,342.715 710.294,330.777 708.618,318.364Z" style="fill:rgb(96,128,42);fill-rule:nonzero;"/>
        <path d="M628.557,213.493C622.284,240.756 616.837,268.235 609.005,295.112C600.958,322.723 589.522,348.249 573.764,372.303C541.23,421.962 499.795,465.006 466.281,513.96C464.887,515.997 465.149,517.985 466.243,519.462C459.779,531.673 456.028,545.546 453.339,558.795C448.646,581.911 447.223,605.629 446.287,629.149C445.144,657.896 445.369,686.489 446.702,715.234C448.271,749.006 450.505,782.811 449.077,816.629C448.994,818.589 448.884,820.548 448.774,822.507C448.379,829.504 459.236,829.466 459.629,822.507C461.489,789.496 459.57,756.442 457.952,723.463C456.51,694.055 455.853,664.787 456.909,635.36C457.725,612.62 458.857,589.807 462.742,567.352C466.278,546.916 471.934,523.792 487.346,508.859C489.54,506.732 489.317,504.075 487.952,502.158C519.271,459.58 555.183,420.449 584.202,376.155C599.737,352.442 610.803,326.866 618.953,299.752C627.184,272.365 632.618,244.222 639.023,216.378C640.59,209.565 630.125,206.672 628.557,213.493Z" style="fill:rgb(114,145,54);fill-rule:nonzero;"/>
        <path d="M451.488,824.136C445.6,771.376 421.322,724.156 396.172,678.253C371.241,632.748 344.971,586.621 337.324,534.512C336.311,527.607 325.853,530.553 326.857,537.398C342.118,641.384 428.915,719.143 440.634,824.136C441.401,831.012 452.264,831.087 451.488,824.136Z" style="fill:rgb(82,107,34);fill-rule:nonzero;"/>
        <path d="M611.02,576.856C564.581,597.125 519.085,628.142 487.913,668.526C470.901,690.566 460.898,715.636 454.627,741.913C452.254,714.522 447.227,687.389 441.987,660.427C429.76,597.51 420.347,534.284 414.426,470.437C412.077,445.106 410.329,419.719 409.156,394.306C408.835,387.338 397.979,387.306 398.302,394.306C401.556,464.851 409.667,535.04 420.617,604.782C428.022,651.951 440.525,698.559 444.146,746.236C440.06,720.472 433.904,695.021 425.993,670.233C414.674,634.768 399.446,600.32 379.673,568.734C379.789,567.383 379.395,565.957 378.26,564.679C376.918,563.168 375.554,561.69 374.181,560.227C369.287,552.851 364.145,545.639 358.723,538.63C356.306,535.506 352.824,536.617 351.012,539.159C342.702,532.78 333.834,527.104 324.273,522.16C301.966,510.628 274.204,503.145 263.511,477.859C260.792,471.43 251.445,476.969 254.138,483.337C264.761,508.456 290.694,517.803 313.351,528.81C333.689,538.69 350.871,551.391 366.224,567.616C387.907,600.625 404.09,637.287 416.062,674.797C430.59,720.321 438.906,768.161 439.005,815.995C439.005,816.255 439.025,816.503 439.056,816.745C438.313,820.281 441.12,822.619 444.079,822.845C445.526,827.772 454.265,827.082 454.744,820.879C458.712,769.549 464.568,715.668 497.444,673.82C527.801,635.181 571.793,605.741 616.499,586.229C622.9,583.435 617.369,574.085 611.02,576.856Z" style="fill:rgb(50,91,21);fill-rule:nonzero;"/>
        <path d="M286.261,212.327C276.402,207.353 265.216,205.375 254.341,204.124C251.453,203.792 248.673,206.281 248.533,209.144C247.79,224.333 247.675,239.59 245.738,254.693C245.101,259.66 244.01,266.382 241.963,270.094C241.833,270.328 241.228,271.085 240.967,271.448C240.891,271.409 240.817,271.372 240.713,271.31C239.676,270.69 238.86,269.882 238.036,269.013C223.781,253.974 221.758,231.585 208.668,215.835C201.739,207.497 191.044,200.491 180.92,196.817C169.922,192.826 158.32,194.072 148.883,186.135C145.438,183.237 140.997,186.59 140.397,190.216C137.016,210.701 129.593,233.723 135.889,254.331C141.475,272.614 157.492,282.488 173.503,290.77C181.254,294.781 188.985,298.934 196.004,304.152C199.867,307.023 206.689,312.296 204.775,317.823C202.769,323.611 193.525,319.385 188.95,317.672C179.582,314.164 170.749,309.289 161.887,304.695C147.23,297.099 124.385,285.811 108.987,297.15C102.205,302.144 102.831,311.313 105.638,318.235C110.098,329.226 120.798,338.236 130.325,344.709C151.935,359.389 178.934,353.787 202.307,362.81C207.683,364.885 223.636,373.161 220.534,381.142C219.449,383.931 214.584,385.483 212.091,386.228C205.957,388.065 198.708,388.942 192.427,387.575C168.495,382.37 150.936,361.877 126.46,357.789C115.724,355.996 101.666,358.459 93.072,365.379C85.79,371.241 85.677,380.77 89.019,388.744C93.064,398.397 101.996,406.098 110.508,411.731C120.347,418.24 131.535,422.276 143.293,423.144C166.852,424.883 190.935,415.059 212.486,428.608C215.428,430.457 218.899,433.059 219.615,436.675C220.17,439.482 216.991,441.964 215.099,443.436C206.594,450.049 192.448,452.476 182.006,452C169.365,451.422 157.409,445.195 145.803,440.746C133.552,436.049 121.125,433.383 108.013,435.347C98.489,436.772 88.462,442.048 86.787,452.371C85.25,461.838 90.816,470.967 96.597,477.947C104.246,487.181 114.583,494.18 125.48,498.984C137.255,504.174 151.59,503.474 164.033,501.974C176.969,500.414 189.64,497.17 202.647,496.104C206.081,495.823 208.716,495.52 212.02,494.227C215.545,492.844 218.915,491.052 222.658,490.326C225.811,489.714 225.355,493.566 225.376,496.066C225.425,502.063 218.01,505.328 213.572,507.884C209.362,510.31 205.573,513.462 201.215,515.572C196.212,517.995 190.747,519.451 185.444,521.043C174.923,524.202 163.734,527.407 155.427,534.971C147.401,542.279 144.983,554.255 147.802,564.525C153.725,586.098 181.722,587.661 199.432,582.348C210.782,578.94 219.27,572.075 226.068,562.407C234.45,550.483 239.012,536.845 251.483,528.947C254.854,533.826 254.982,538.964 252.168,545.171C248.298,553.708 240.745,560.91 234.312,567.521C221.641,580.541 201.547,596.328 200.867,616.168C200.784,618.584 202.134,620.911 204.508,621.693C215.115,625.187 226.113,626.664 236.76,622.605C245.59,619.237 252.01,611.343 256.733,603.492C265.175,589.457 269.751,571.697 280.871,559.354C280.625,563.77 278.569,567.676 276.118,572.531C271.743,581.194 271.748,590.339 273.823,599.644C276.97,613.749 287.919,625.412 302.887,618.389C311.058,614.554 317.276,606.568 322.141,599.257C327.707,590.89 330.7,581.138 331.924,571.235C333.439,558.96 331.593,546.503 328.169,534.505C352.21,552.877 391.403,565.41 406.99,532.221C420.308,503.867 377.755,507.203 356.813,499.821C360.17,499.638 363.563,499.772 366.788,499.869C376.017,500.146 385.22,500.923 394.456,500.398C411.693,499.421 427.619,491.146 429.197,472.183C430.558,455.829 412.286,457.216 401.421,458.882C392.58,460.239 376.906,464.605 367.598,459.501C387.676,452.521 410.039,444.784 421.26,425.946C426.352,417.398 430.734,403.513 427.162,393.689C424.244,385.67 414.645,386.896 408.381,389.152C391.334,395.298 378.898,409.994 362.329,417.239C358.346,418.981 354.257,420.413 350.019,421.379C348.434,421.741 346.775,422.043 345.148,422.075C344.532,422.087 343.793,421.892 343.309,421.792C343.292,421.529 343.295,421.197 343.399,420.81C344.043,418.425 345.338,416.274 346.602,414.18C349.471,409.436 353.092,405.756 357.827,402.864C366.834,397.362 376.87,394.04 385.546,387.9C395.304,380.995 401.005,370.734 404.263,359.471C407.159,349.461 408.933,337.679 405.363,327.613C401.674,317.205 392.463,313.35 382.001,314.173C352.734,316.474 350.399,348.956 338.247,368.958C335.027,374.257 330.429,378.943 325.884,383.11C324.024,384.814 318.679,390.047 315.76,389.35C314.02,388.936 315.02,380.208 315.204,378.541C316.029,371.075 318.654,364.912 322.909,358.79C333.664,343.312 350.439,332.114 355.729,313.227C359.206,300.814 358.158,283.089 345.599,275.956C332.271,268.388 316.063,279.851 309.215,291.197C300.611,305.453 302.273,325.269 289.08,336.46C284.364,329.93 284.028,322.021 285.825,313.356C288.451,300.702 293.905,288.738 298.438,276.698C302.781,265.162 307.018,252.838 306.195,240.34C305.354,227.541 297.443,217.97 286.261,212.327Z" style="fill:rgb(82,107,34);fill-rule:nonzero;"/>
        <path d="M574.698,1143.1L340.644,1143.1L264.045,840.443L645.978,840.443L574.698,1143.1Z" style="fill:rgb(209,80,87);fill-rule:nonzero;"/>
        <rect x="238.512" y="801.098" width="427.679" height="39.345" style="fill:rgb(221,98,110);fill-rule:nonzero;"/>
        <path d="M455.011,840.443L264.045,840.443L340.644,1143.1L455.011,1143.1L455.011,840.443Z" style="fill:rgb(188,68,80);fill-rule:nonzero;"/>
        <rect x="238.512" y="801.098" width="216.499" height="39.345" style="fill:rgb(209,80,87);fill-rule:nonzero;"/>
        <path d="M574.698,1147.64L340.644,1147.64L264.045,1106.78L645.978,1106.78L574.698,1147.64Z" style="fill:rgb(188,68,80);fill-rule:nonzero;"/>
        <path d="M455.011,1106.78L264.045,1106.78L340.644,1147.64L455.011,1147.64L455.011,1106.78Z" style="fill:rgb(170,58,74);fill-rule:nonzero;"/>
    </g>
</svg>
