<?xml version="1.0" encoding="UTF-8" standalone="no"?>
<!DOCTYPE svg PUBLIC "-//W3C//DTD SVG 1.1//EN" "http://www.w3.org/Graphics/SVG/1.1/DTD/svg11.dtd">
<svg width="100%" height="100%" viewBox="0 0 3334 3334" version="1.1" xmlns="http://www.w3.org/2000/svg" xmlns:xlink="http://www.w3.org/1999/xlink" xml:space="preserve" xmlns:serif="http://www.serif.com/" style="fill-rule:evenodd;clip-rule:evenodd;stroke-linejoin:round;stroke-miterlimit:2;">
    <g transform="matrix(4.16667,0,0,4.16667,0,0)">
        <path d="M475,503.924L464.428,500.076L440.379,566.152L450.95,570L475,503.924Z" style="fill:rgb(99,112,178);fill-rule:nonzero;"/>
        <path d="M471.737,512.889L461.165,509.042L459.826,512.721L470.397,516.569L471.737,512.889Z" style="fill:rgb(148,194,61);fill-rule:nonzero;"/>
        <path d="M455.553,557.355L444.981,553.507L443.642,557.187L454.213,561.034L455.553,557.355Z" style="fill:rgb(148,194,61);fill-rule:nonzero;"/>
        <path d="M577.003,568.885L580.066,570L614.695,474.856L611.632,473.741L577.003,568.885Z" style="fill:rgb(252,175,34);fill-rule:nonzero;"/>
        <path d="M541.305,555.892L544.368,557.007L578.997,461.863L575.934,460.748L541.305,555.892Z" style="fill:rgb(252,175,34);fill-rule:nonzero;"/>
        <path d="M578.356,463.625L545.009,555.245C547.925,554.66 554.875,553.658 562.933,556.571C571.062,559.51 575.79,564.802 577.648,567.125L610.995,475.505L610.687,475.393C607.569,475.983 600.788,476.798 593.006,473.946C585.287,471.116 580.659,466.179 578.664,463.737L578.356,463.625Z" style="fill:white;fill-rule:nonzero;"/>
        <path d="M438.95,570L428.379,566.152L452.428,500.076L463,503.924L438.95,570Z" style="fill:rgb(252,175,34);fill-rule:nonzero;"/>
        <path d="M442.213,561.034L431.642,557.187L432.981,553.507L443.553,557.355L442.213,561.034Z" style="fill:white;fill-rule:nonzero;"/>
        <rect x="506.063" y="328.75" width="97.5" height="24.375" style="fill:rgb(25,142,153);fill-rule:nonzero;"/>
        <path d="M591.375,340.938C591.375,342.042 590.48,342.938 589.375,342.938L520.25,342.938C519.145,342.938 518.25,342.042 518.25,340.938C518.25,339.833 519.145,338.938 520.25,338.938L589.375,338.938C590.48,338.938 591.375,339.833 591.375,340.938Z" style="fill:white;fill-rule:nonzero;"/>
        <rect x="495.75" y="353.125" width="97.5" height="24.375" style="fill:rgb(30,188,185);fill-rule:nonzero;"/>
        <rect x="514.5" y="377.5" width="97.5" height="24.375" style="fill:rgb(242,99,55);fill-rule:nonzero;"/>
        <rect x="532.25" y="360.827" width="24.75" height="8.971" style="fill:white;fill-rule:nonzero;"/>
        <rect x="501.375" y="426.25" width="103.125" height="3.75" style="fill:rgb(99,112,178);fill-rule:nonzero;"/>
        <rect x="501.375" y="401.875" width="103.125" height="3.75" style="fill:rgb(99,112,178);fill-rule:nonzero;"/>
        <path d="M601.688,405.625L502.313,405.625C503.231,407.012 505.378,410.65 505.425,415.778C505.472,421.094 503.222,424.881 502.313,426.25L601.688,426.25C600.778,424.881 598.528,421.094 598.575,415.778C598.622,410.65 600.769,407.012 601.688,405.625Z" style="fill:white;fill-rule:nonzero;"/>
        <rect x="496" y="468.75" width="3.26" height="101.25" style="fill:rgb(25,142,153);fill-rule:nonzero;"/>
        <rect x="533.989" y="468.75" width="3.26" height="101.25" style="fill:rgb(25,142,153);fill-rule:nonzero;"/>
        <path d="M533.989,470.625L533.989,568.125C531.449,566.578 525.261,563.259 516.693,563.24C508.049,563.222 501.796,566.578 499.255,568.125L499.255,470.625L499.583,470.625C502.311,472.247 508.405,475.331 516.693,475.313C524.914,475.294 530.952,472.238 533.661,470.625L533.989,470.625Z" style="fill:white;fill-rule:nonzero;"/>
        <path d="M414.938,362.373L413.063,362.373C410.991,362.373 409.313,360.694 409.313,358.623L409.313,349.248C409.313,347.177 410.991,345.498 413.063,345.498L414.938,345.498C417.009,345.498 418.688,347.177 418.688,349.248L418.688,358.623C418.688,360.694 417.009,362.373 414.938,362.373Z" style="fill:rgb(252,175,34);fill-rule:nonzero;"/>
        <path d="M393.944,371.313L387.315,377.942L374.056,364.683L380.685,358.054L393.944,371.313Z" style="fill:rgb(99,112,178);fill-rule:nonzero;"/>
        <path d="M394.607,357.391L373.393,378.604C367.536,372.747 367.536,363.249 373.393,357.391C379.251,351.533 388.749,351.533 394.607,357.391Z" style="fill:rgb(252,175,34);fill-rule:nonzero;"/>
        <path d="M434.056,371.313L440.685,377.942L453.944,364.683L447.315,358.054L434.056,371.313Z" style="fill:rgb(99,112,178);fill-rule:nonzero;"/>
        <path d="M433.393,357.391L454.607,378.604C460.464,372.747 460.464,363.249 454.607,357.391C448.749,351.533 439.251,351.533 433.393,357.391Z" style="fill:rgb(252,175,34);fill-rule:nonzero;"/>
        <path d="M397.693,418.683L391.064,412.054L381.12,421.998C379.289,423.828 379.289,426.796 381.12,428.627C382.951,430.458 385.919,430.458 387.749,428.627L397.693,418.683Z" style="fill:rgb(99,112,178);fill-rule:nonzero;"/>
        <path d="M430.306,418.683L436.936,412.054L446.879,421.998C448.71,423.828 448.71,426.796 446.879,428.627C445.049,430.458 442.081,430.458 440.25,428.627L430.306,418.683Z" style="fill:rgb(99,112,178);fill-rule:nonzero;"/>
        <path d="M449,393.498C449,412.828 433.33,428.498 414,428.498C394.67,428.498 379,412.828 379,393.498C379,374.168 394.67,358.498 414,358.498C433.33,358.498 449,374.168 449,393.498Z" style="fill:rgb(242,99,55);fill-rule:nonzero;"/>
        <path d="M414,423.498C397.458,423.498 384,410.04 384,393.498C384,376.955 397.458,363.498 414,363.498C430.542,363.498 444,376.955 444,393.498C444,410.04 430.542,423.498 414,423.498Z" style="fill:white;fill-rule:nonzero;"/>
        <path d="M414,370.248C413.585,370.248 413.25,369.912 413.25,369.498L413.25,366.498C413.25,366.083 413.585,365.748 414,365.748C414.415,365.748 414.75,366.083 414.75,366.498L414.75,369.498C414.75,369.912 414.415,370.248 414,370.248Z" style="fill:rgb(99,112,178);fill-rule:nonzero;"/>
        <path d="M414,421.248C413.585,421.248 413.25,420.912 413.25,420.498L413.25,417.498C413.25,417.083 413.585,416.748 414,416.748C414.415,416.748 414.75,417.083 414.75,417.498L414.75,420.498C414.75,420.912 414.415,421.248 414,421.248Z" style="fill:rgb(99,112,178);fill-rule:nonzero;"/>
        <path d="M390,394.248L387,394.248C386.585,394.248 386.25,393.912 386.25,393.498C386.25,393.083 386.585,392.748 387,392.748L390,392.748C390.415,392.748 390.75,393.083 390.75,393.498C390.75,393.912 390.415,394.248 390,394.248Z" style="fill:rgb(99,112,178);fill-rule:nonzero;"/>
        <path d="M441,394.248L438,394.248C437.585,394.248 437.25,393.912 437.25,393.498C437.25,393.083 437.585,392.748 438,392.748L441,392.748C441.415,392.748 441.75,393.083 441.75,393.498C441.75,393.912 441.415,394.248 441,394.248Z" style="fill:rgb(99,112,178);fill-rule:nonzero;"/>
        <path d="M393.215,382.248C393.087,382.248 392.958,382.216 392.84,382.147L390.242,380.647C389.884,380.44 389.761,379.982 389.968,379.623C390.174,379.262 390.634,379.139 390.992,379.348L393.59,380.848C393.949,381.055 394.072,381.514 393.865,381.873C393.726,382.114 393.474,382.248 393.215,382.248Z" style="fill:rgb(99,112,178);fill-rule:nonzero;"/>
        <path d="M437.382,407.748C437.254,407.748 437.125,407.716 437.008,407.647L434.41,406.147C434.051,405.94 433.928,405.482 434.135,405.123C434.342,404.762 434.799,404.641 435.16,404.848L437.758,406.348C438.116,406.555 438.24,407.014 438.032,407.373C437.893,407.614 437.641,407.748 437.382,407.748Z" style="fill:rgb(99,112,178);fill-rule:nonzero;"/>
        <path d="M400.499,417.63C400.372,417.63 400.243,417.598 400.125,417.53C399.766,417.323 399.643,416.864 399.85,416.505L401.35,413.907C401.557,413.547 402.015,413.424 402.375,413.633C402.734,413.84 402.857,414.299 402.65,414.657L401.15,417.255C401.011,417.496 400.759,417.63 400.499,417.63Z" style="fill:rgb(99,112,178);fill-rule:nonzero;"/>
        <path d="M425.999,373.463C425.872,373.463 425.743,373.431 425.625,373.363C425.266,373.156 425.143,372.697 425.35,372.338L426.85,369.74C427.057,369.38 427.516,369.258 427.875,369.466C428.234,369.673 428.357,370.131 428.15,370.49L426.65,373.088C426.51,373.329 426.259,373.463 425.999,373.463Z" style="fill:rgb(99,112,178);fill-rule:nonzero;"/>
        <path d="M390.618,407.748C390.359,407.748 390.107,407.614 389.968,407.373C389.761,407.014 389.884,406.555 390.242,406.348L392.84,404.848C393.196,404.641 393.657,404.762 393.865,405.123C394.072,405.482 393.949,405.94 393.59,406.147L390.992,407.647C390.875,407.716 390.746,407.748 390.618,407.748Z" style="fill:rgb(99,112,178);fill-rule:nonzero;"/>
        <path d="M434.785,382.248C434.526,382.248 434.274,382.114 434.135,381.873C433.928,381.514 434.051,381.055 434.41,380.848L437.008,379.348C437.364,379.139 437.823,379.262 438.032,379.623C438.24,379.982 438.116,380.44 437.758,380.647L435.16,382.147C435.042,382.216 434.913,382.248 434.785,382.248Z" style="fill:rgb(99,112,178);fill-rule:nonzero;"/>
        <path d="M427.501,417.63C427.241,417.63 426.99,417.496 426.85,417.255L425.35,414.657C425.143,414.299 425.266,413.84 425.625,413.633C425.981,413.424 426.442,413.547 426.65,413.907L428.15,416.505C428.357,416.864 428.234,417.323 427.875,417.53C427.757,417.598 427.628,417.63 427.501,417.63Z" style="fill:rgb(99,112,178);fill-rule:nonzero;"/>
        <path d="M402.001,373.463C401.741,373.463 401.49,373.329 401.35,373.088L399.85,370.49C399.643,370.131 399.766,369.673 400.125,369.466C400.482,369.258 400.941,369.38 401.15,369.74L402.65,372.338C402.857,372.697 402.734,373.156 402.375,373.363C402.257,373.431 402.128,373.463 402.001,373.463Z" style="fill:rgb(99,112,178);fill-rule:nonzero;"/>
        <path d="M420.563,354.873L407.438,354.873C405.366,354.873 403.688,353.194 403.688,351.123L403.688,349.248C403.688,347.177 405.366,345.498 407.438,345.498L420.563,345.498C422.634,345.498 424.313,347.177 424.313,349.248L424.313,351.123C424.313,353.194 422.634,354.873 420.563,354.873Z" style="fill:rgb(254,203,108);fill-rule:nonzero;"/>
        <path d="M414.586,392.373L414.023,392.373C413.402,392.373 412.898,391.869 412.898,391.248L412.898,375.685C412.898,375.064 413.402,374.56 414.023,374.56L414.586,374.56C415.207,374.56 415.711,375.064 415.711,375.685L415.711,391.248C415.711,391.869 415.207,392.373 414.586,392.373Z" style="fill:rgb(252,175,34);fill-rule:nonzero;"/>
        <path d="M412.898,393.123L412.898,392.56C412.898,391.939 413.402,391.435 414.023,391.435L429.586,391.435C430.207,391.435 430.711,391.939 430.711,392.56L430.711,393.123C430.711,393.744 430.207,394.248 429.586,394.248L414.023,394.248C413.402,394.248 412.898,393.744 412.898,393.123Z" style="fill:rgb(252,175,34);fill-rule:nonzero;"/>
        <path d="M414.773,398.185C412.189,398.185 410.086,396.083 410.086,393.498C410.086,390.913 412.189,388.81 414.773,388.81C417.358,388.81 419.461,390.913 419.461,393.498C419.461,396.083 417.358,398.185 414.773,398.185Z" style="fill:rgb(99,112,178);fill-rule:nonzero;"/>
        <path d="M427.329,570L416.757,566.152L440.807,500.076L451.379,503.924L427.329,570Z" style="fill:rgb(242,99,55);fill-rule:nonzero;"/>
        <path d="M430.856,560.309L420.284,556.462L424.773,544.128L435.345,547.976L430.856,560.309Z" style="fill:white;fill-rule:nonzero;"/>
        <path d="M437.91,540.928L427.339,537.081L426.056,540.604L436.628,544.452L437.91,540.928Z" style="fill:white;fill-rule:nonzero;"/>
        <rect x="562" y="150" width="106" height="16" style="fill:rgb(143,78,57);fill-rule:nonzero;"/>
        <rect x="422" y="290" width="246" height="16" style="fill:rgb(143,78,57);fill-rule:nonzero;"/>
        <rect x="282" y="430" width="386" height="16" style="fill:rgb(143,78,57);fill-rule:nonzero;"/>
        <rect x="132" y="570" width="536" height="16" style="fill:rgb(143,78,57);fill-rule:nonzero;"/>
        <rect x="562" y="150" width="106" height="4" style="fill:rgb(161,105,88);fill-rule:nonzero;"/>
        <rect x="422" y="290" width="246" height="4" style="fill:rgb(161,105,88);fill-rule:nonzero;"/>
        <rect x="282" y="430" width="386" height="4" style="fill:rgb(161,105,88);fill-rule:nonzero;"/>
        <rect x="132" y="570" width="536" height="4" style="fill:rgb(161,105,88);fill-rule:nonzero;"/>
        <rect x="615" y="102" width="16" height="596" style="fill:rgb(143,78,57);fill-rule:nonzero;"/>
        <rect x="475" y="262" width="16" height="436" style="fill:rgb(143,78,57);fill-rule:nonzero;"/>
        <rect x="335" y="402" width="16" height="296" style="fill:rgb(143,78,57);fill-rule:nonzero;"/>
        <rect x="195" y="542" width="16" height="156" style="fill:rgb(143,78,57);fill-rule:nonzero;"/>
        <rect x="441.703" y="217.687" width="10" height="43.053" style="fill:rgb(148,194,61);fill-rule:nonzero;"/>
        <path d="M445.25,233.75C445.25,231.058 443.067,228.875 440.375,228.875L439.511,228.875L440.069,228.215C441.808,226.16 441.552,223.084 439.496,221.345C437.801,219.911 435.422,219.854 433.661,221.024C433.073,218.994 431.22,217.5 429,217.5C426.307,217.5 424.125,219.683 424.125,222.375L424.125,223.239L423.465,222.681C421.41,220.942 418.334,221.198 416.595,223.253C415.16,224.948 415.104,227.327 416.274,229.088C414.243,229.677 412.75,231.53 412.75,233.75C412.75,236.442 414.932,238.625 417.625,238.625L418.489,238.625L417.931,239.284C416.192,241.34 416.448,244.416 418.503,246.155C420.198,247.589 422.577,247.646 424.338,246.476C424.927,248.506 426.779,250 429,250C431.692,250 433.875,247.817 433.875,245.125L433.875,244.261L434.534,244.819C436.59,246.558 439.666,246.302 441.405,244.247C442.839,242.552 442.896,240.173 441.726,238.412C443.756,237.823 445.25,235.97 445.25,233.75Z" style="fill:rgb(252,175,34);fill-rule:nonzero;"/>
        <path d="M433.75,233.75C433.75,236.442 431.567,238.625 428.875,238.625C426.182,238.625 424,236.442 424,233.75C424,231.058 426.182,228.875 428.875,228.875C431.567,228.875 433.75,231.058 433.75,233.75Z" style="fill:rgb(164,89,66);fill-rule:nonzero;"/>
        <path d="M479,233.75C479,231.058 476.817,228.875 474.125,228.875L473.261,228.875L473.819,228.215C475.558,226.16 475.302,223.084 473.247,221.345C471.551,219.911 469.173,219.854 467.412,221.024C466.823,218.994 464.97,217.5 462.75,217.5C460.058,217.5 457.875,219.683 457.875,222.375L457.875,223.239L457.215,222.681C455.16,220.942 452.084,221.198 450.345,223.253C448.911,224.948 448.854,227.327 450.024,229.088C447.993,229.677 446.5,231.53 446.5,233.75C446.5,236.442 448.682,238.625 451.375,238.625L452.239,238.625L451.681,239.284C449.942,241.34 450.198,244.416 452.253,246.155C453.948,247.589 456.327,247.646 458.088,246.476C458.677,248.506 460.53,250 462.75,250C465.442,250 467.625,247.817 467.625,245.125L467.625,244.261L468.285,244.819C470.34,246.558 473.416,246.302 475.155,244.247C476.589,242.552 476.646,240.173 475.476,238.412C477.506,237.823 479,235.97 479,233.75Z" style="fill:rgb(252,175,34);fill-rule:nonzero;"/>
        <path d="M467.75,233.75C467.75,236.442 465.567,238.625 462.875,238.625C460.183,238.625 458,236.442 458,233.75C458,231.058 460.183,228.875 462.875,228.875C465.567,228.875 467.75,231.058 467.75,233.75Z" style="fill:rgb(164,89,66);fill-rule:nonzero;"/>
        <path d="M462.953,215.912C462.953,213.22 460.77,211.037 458.078,211.037L457.214,211.037L457.772,210.378C459.511,208.322 459.255,205.246 457.199,203.507C455.504,202.073 453.125,202.016 451.364,203.186C450.775,201.156 448.923,199.662 446.703,199.662C444.01,199.662 441.828,201.845 441.828,204.537L441.828,205.401L441.168,204.843C439.113,203.104 436.037,203.36 434.298,205.416C432.863,207.111 432.807,209.49 433.977,211.25C431.946,211.839 430.453,213.692 430.453,215.912C430.453,218.604 432.635,220.787 435.328,220.787L436.192,220.787L435.633,221.447C433.894,223.502 434.151,226.578 436.206,228.317C437.901,229.751 440.28,229.808 442.041,228.638C442.63,230.668 444.482,232.162 446.703,232.162C449.395,232.162 451.578,229.979 451.578,227.287L451.578,226.423L452.237,226.981C454.293,228.72 457.369,228.464 459.108,226.409C460.542,224.714 460.598,222.335 459.428,220.574C461.459,219.985 462.953,218.133 462.953,215.912Z" style="fill:rgb(252,223,23);fill-rule:nonzero;"/>
        <path d="M451.578,215.787C451.578,218.479 449.395,220.662 446.703,220.662C444.01,220.662 441.828,218.479 441.828,215.787C441.828,213.095 444.01,210.912 446.703,210.912C449.395,210.912 451.578,213.095 451.578,215.787Z" style="fill:rgb(164,89,66);fill-rule:nonzero;"/>
        <path d="M448.26,289.985L445.364,289.985C437.835,289.985 431.459,284.433 430.424,276.974L428.062,259.955L465.562,259.955L463.201,276.974C462.166,284.433 455.79,289.985 448.26,289.985Z" style="fill:rgb(207,117,72);fill-rule:nonzero;"/>
        <path d="M660.607,124.393C666.464,130.251 666.464,139.749 660.607,145.607C654.749,151.464 645.251,151.464 639.393,145.607C633.536,139.749 633.536,130.251 639.393,124.393C645.251,118.535 654.749,118.535 660.607,124.393Z" style="fill:rgb(148,199,61);fill-rule:nonzero;"/>
        <path d="M664.889,133.177C664.929,133.489 664.959,133.803 664.975,134.118L664.896,134.118C660.59,133.73 656.367,135.262 653.315,138.314C650.262,141.367 648.73,145.59 649.118,149.896L649.118,149.975C648.803,149.959 648.489,149.929 648.177,149.889C647.793,145.335 649.423,140.88 652.652,137.652C655.88,134.423 660.335,132.792 664.889,133.177Z" style="fill:rgb(244,245,246);fill-rule:nonzero;"/>
        <path d="M651.823,120.111C652.207,124.665 650.577,129.12 647.348,132.348C644.12,135.577 639.665,137.208 635.111,136.823C635.071,136.511 635.041,136.197 635.025,135.882L635.104,135.882C639.41,136.27 643.633,134.738 646.685,131.685C649.738,128.633 651.27,124.41 650.882,120.104L650.882,120.025C651.197,120.041 651.511,120.071 651.823,120.111Z" style="fill:rgb(244,245,246);fill-rule:nonzero;"/>
        <rect x="538.65" y="179.375" width="11.25" height="110.625" style="fill:rgb(99,112,178);fill-rule:nonzero;"/>
        <rect x="538.65" y="266.123" width="11.25" height="3.916" style="fill:rgb(148,194,61);fill-rule:nonzero;"/>
        <rect x="538.65" y="274.336" width="11.25" height="3.916" style="fill:rgb(148,194,61);fill-rule:nonzero;"/>
        <path d="M581.653,290L553.462,279.739L586.809,188.119L615,198.38L581.653,290Z" style="fill:rgb(242,99,55);fill-rule:nonzero;"/>
        <path d="M603.301,214.075C601.531,218.941 596.151,221.449 591.285,219.678C586.42,217.908 583.911,212.528 585.682,207.662C587.453,202.797 592.833,200.288 597.698,202.059C602.564,203.83 605.072,209.21 603.301,214.075Z" style="fill:rgb(99,112,178);fill-rule:nonzero;"/>
        <rect x="510.696" y="181.25" width="22.5" height="108.75" style="fill:rgb(148,194,61);fill-rule:nonzero;"/>
        <rect x="510.696" y="218.75" width="22.5" height="33.75" style="fill:white;fill-rule:nonzero;"/>
        <path d="M285.469,522.694L280.216,517.441C277.092,514.316 277.092,509.251 280.216,506.127L289.055,497.288C293.63,492.713 301.047,492.713 305.622,497.288C310.196,501.863 310.196,509.28 305.622,513.855L296.783,522.694C293.659,525.818 288.593,525.818 285.469,522.694Z" style="fill:rgb(148,194,61);fill-rule:nonzero;"/>
        <path d="M263.495,517.839L260.747,523.73C259.114,527.234 254.95,528.75 251.446,527.116L243.192,523.268C238.061,520.875 235.842,514.776 238.234,509.645C240.627,504.515 246.725,502.295 251.856,504.688L260.109,508.536C263.613,510.17 265.129,514.336 263.495,517.839Z" style="fill:rgb(148,194,61);fill-rule:nonzero;"/>
        <path d="M293.5,570L252.5,570L246.643,537.786L299.357,537.786L293.5,570Z" style="fill:rgb(207,117,72);fill-rule:nonzero;"/>
        <rect x="242.25" y="531.928" width="61.5" height="5.858" style="fill:rgb(164,89,66);fill-rule:nonzero;"/>
        <path d="M296.429,531.928L249.571,531.928L249.571,520.214C249.571,507.275 260.061,496.786 273,496.786C285.939,496.786 296.429,507.275 296.429,520.214L296.429,531.928Z" style="fill:rgb(135,169,62);fill-rule:nonzero;"/>
        <path d="M265.679,505.107C265.423,505.107 265.167,505.009 264.972,504.814L257.65,497.493C257.26,497.102 257.26,496.469 257.65,496.079C258.04,495.688 258.674,495.688 259.064,496.079L266.386,503.4C266.776,503.791 266.776,504.423 266.386,504.814C266.19,505.009 265.935,505.107 265.679,505.107Z" style="fill:rgb(116,134,55);fill-rule:nonzero;"/>
        <path d="M268.607,521.214C268.352,521.214 268.096,521.117 267.9,520.922L262.043,515.065C261.652,514.673 261.652,514.041 262.043,513.651C262.434,513.259 263.066,513.259 263.457,513.651L269.314,519.508C269.705,519.898 269.705,520.531 269.314,520.922C269.119,521.117 268.863,521.214 268.607,521.214Z" style="fill:rgb(116,134,55);fill-rule:nonzero;"/>
        <path d="M283.25,522.68C282.697,522.68 282.25,522.232 282.25,521.68L282.25,514.357C282.25,513.805 282.697,513.357 283.25,513.357C283.803,513.357 284.25,513.805 284.25,514.357L284.25,521.68C284.25,522.232 283.803,522.68 283.25,522.68Z" style="fill:rgb(116,134,55);fill-rule:nonzero;"/>
        <path d="M243.714,512.43C243.458,512.43 243.202,512.331 243.007,512.136L237.882,507.011C237.491,506.62 237.491,505.987 237.882,505.597C238.272,505.206 238.905,505.206 239.296,505.597L244.421,510.722C244.812,511.112 244.812,511.745 244.421,512.136C244.226,512.331 243.97,512.43 243.714,512.43Z" style="fill:rgb(116,134,55);fill-rule:nonzero;"/>
        <path d="M240.786,515.357L232,515.357C231.447,515.357 231,514.909 231,514.357C231,513.805 231.447,513.357 232,513.357L240.786,513.357C241.339,513.357 241.786,513.805 241.786,514.357C241.786,514.909 241.339,515.357 240.786,515.357Z" style="fill:rgb(116,134,55);fill-rule:nonzero;"/>
        <path d="M237.857,528.536C237.602,528.536 237.346,528.438 237.15,528.243C236.76,527.852 236.76,527.219 237.15,526.829L244.472,519.508C244.862,519.117 245.495,519.117 245.886,519.508C246.276,519.898 246.276,520.531 245.886,520.922L238.564,528.243C238.369,528.438 238.113,528.536 237.857,528.536Z" style="fill:rgb(116,134,55);fill-rule:nonzero;"/>
        <path d="M314,513.893L300.821,513.893C300.269,513.893 299.821,513.445 299.821,512.893C299.821,512.341 300.269,511.893 300.821,511.893L314,511.893C314.553,511.893 315,512.341 315,512.893C315,513.445 314.553,513.893 314,513.893Z" style="fill:rgb(116,134,55);fill-rule:nonzero;"/>
        <path d="M311.071,502.179L302.286,502.179C301.733,502.179 301.286,501.731 301.286,501.179C301.286,500.626 301.733,500.179 302.286,500.179L311.071,500.179C311.624,500.179 312.071,500.626 312.071,501.179C312.071,501.731 311.624,502.179 311.071,502.179Z" style="fill:rgb(116,134,55);fill-rule:nonzero;"/>
        <path d="M293.5,499.25C292.947,499.25 292.5,498.802 292.5,498.25L292.5,488C292.5,487.448 292.947,487 293.5,487C294.053,487 294.5,487.448 294.5,488L294.5,498.25C294.5,498.802 294.053,499.25 293.5,499.25Z" style="fill:rgb(116,134,55);fill-rule:nonzero;"/>
    </g>
</svg>
