<?xml version="1.0" encoding="UTF-8" standalone="no"?>
<!DOCTYPE svg PUBLIC "-//W3C//DTD SVG 1.1//EN" "http://www.w3.org/Graphics/SVG/1.1/DTD/svg11.dtd">
<svg width="100%" height="100%" viewBox="0 0 718 599" version="1.1" xmlns="http://www.w3.org/2000/svg" xmlns:xlink="http://www.w3.org/1999/xlink" xml:space="preserve" xmlns:serif="http://www.serif.com/" style="fill-rule:evenodd;clip-rule:evenodd;stroke-linejoin:round;stroke-miterlimit:2;">
    <g transform="matrix(1,0,0,1,-657.576,-296.731)">
        <g transform="matrix(1.89482,0,0,1.89482,-802.525,-393.74)">
            <g id="SchreibtischGruppe">
                <g id="Gestell">
                    <g transform="matrix(1.123,0,0,1.123,678.262,226.078)">
                        <path d="M388.151,276.671L388.151,400.188L381.455,400.188L364.099,276.671L388.151,276.671Z" style="fill:rgb(124,122,145);fill-rule:nonzero;"/>
                    </g>
                    <g transform="matrix(1.123,0,0,1.123,678.262,226.078)">
                        <path d="M111.849,276.671L111.849,400.188L118.544,400.188L135.9,276.671L111.849,276.671Z" style="fill:rgb(124,122,145);fill-rule:nonzero;"/>
                    </g>
                    <g transform="matrix(1.123,0,0,1.123,678.262,226.078)">
                        <rect x="95.401" y="267.137" width="310.959" height="10.368" style="fill:rgb(157,159,173);fill-rule:nonzero;"/>
                    </g>
                    <g transform="matrix(1.123,0,0,1.123,678.262,226.078)">
                        <rect x="95.401" y="267.671" width="310.959" height="3.584" style="fill:rgb(124,122,145);fill-rule:nonzero;"/>
                    </g>
                    <g transform="matrix(1.123,0,0,1.123,678.262,226.078)">
                        <path d="M95.401,276.671L95.401,404.469L102.328,404.469L120.286,276.671L95.401,276.671Z" style="fill:rgb(157,159,173);fill-rule:nonzero;"/>
                    </g>
                    <g transform="matrix(1.123,0,0,1.123,678.262,226.078)">
                        <path d="M406.36,276.671L406.36,404.469L399.433,404.469L381.475,276.671L406.36,276.671Z" style="fill:rgb(157,159,173);fill-rule:nonzero;"/>
                    </g>
                    <g transform="matrix(1.123,0,0,1.123,678.262,226.078)">
                        <rect x="126.853" y="291.916" width="246.293" height="26.422" style="fill:rgb(124,122,145);fill-rule:nonzero;"/>
                    </g>
                </g>
                <g id="Tischplatte">
                    <g transform="matrix(1.123,0,0,1.123,678.262,226.078)">
                        <rect x="82.203" y="254.013" width="337.355" height="13.658" style="fill:rgb(177,136,104);fill-rule:nonzero;"/>
                    </g>
                    <g transform="matrix(1.123,0,0,1.123,678.262,226.078)">
                        <rect x="82.203" y="262.744" width="337.355" height="4.927" style="fill:rgb(156,112,87);fill-rule:nonzero;"/>
                    </g>
                </g>
                <g id="Stiftebecher">
                    <g transform="matrix(1.123,0,0,1.123,678.262,226.078)">
                        <path d="M374.294,194.559L371.666,194.985L366.829,165.134L369.457,164.708L374.294,194.559Z" style="fill:rgb(238,45,50);fill-rule:nonzero;"/>
                    </g>
                    <g transform="matrix(1.123,0,0,1.123,678.262,226.078)">
                        <path d="M368.535,162.582L367.034,162.825L366.829,165.134L369.457,164.708L368.535,162.582Z" style="fill:rgb(250,224,181);fill-rule:nonzero;"/>
                    </g>
                    <g transform="matrix(1.123,0,0,1.123,678.262,226.078)">
                        <path d="M367.034,162.825L368.535,162.582L367.31,159.779L367.034,162.825Z" style="fill:rgb(238,45,50);fill-rule:nonzero;"/>
                    </g>
                    <g transform="matrix(1.123,0,0,1.123,678.262,226.078)">
                        <path d="M375.398,193.254L372.743,193.451L370.511,163.293L373.166,163.096L375.398,193.254Z" style="fill:rgb(0,177,89);fill-rule:nonzero;"/>
                    </g>
                    <g transform="matrix(1.123,0,0,1.123,678.262,226.078)">
                        <path d="M372.432,160.898L370.914,161.01L370.511,163.293L373.166,163.096L372.432,160.898Z" style="fill:rgb(250,224,181);fill-rule:nonzero;"/>
                    </g>
                    <g transform="matrix(1.123,0,0,1.123,678.262,226.078)">
                        <path d="M370.914,161.01L372.432,160.898L371.454,158L370.914,161.01Z" style="fill:rgb(0,177,89);fill-rule:nonzero;"/>
                    </g>
                    <g transform="matrix(1.123,0,0,1.123,678.262,226.078)">
                        <path d="M385.499,196.831L382.846,196.605L385.413,166.474L388.067,166.699L385.499,196.831Z" style="fill:rgb(30,137,202);fill-rule:nonzero;"/>
                    </g>
                    <g transform="matrix(1.123,0,0,1.123,678.262,226.078)">
                        <path d="M387.689,164.413L386.172,164.283L385.413,166.474L388.067,166.699L387.689,164.413Z" style="fill:rgb(250,224,181);fill-rule:nonzero;"/>
                    </g>
                    <g transform="matrix(1.123,0,0,1.123,678.262,226.078)">
                        <path d="M386.172,164.283L387.689,164.413L387.182,161.397L386.172,164.283Z" style="fill:rgb(30,137,202);fill-rule:nonzero;"/>
                    </g>
                    <g transform="matrix(1.123,0,0,1.123,678.262,226.078)">
                        <path d="M386.433,205.97L369.386,205.97L366.596,174.599L389.222,174.599L386.433,205.97Z" style="fill:rgb(248,154,65);fill-rule:nonzero;"/>
                    </g>
                    <g transform="matrix(1.123,0,0,1.123,678.262,226.078)">
                        <path d="M369.386,205.97L386.433,205.97L386.878,200.951C380.851,202.653 373.78,200.462 367.722,187.258L369.386,205.97Z" style="fill:rgb(237,124,43);fill-rule:nonzero;"/>
                    </g>
                </g>
                <g id="Bildschirm">
                    <g transform="matrix(1.123,0,0,1.123,678.262,226.078)">
                        <path d="M276.015,254.013L223.508,254.013L228.811,218.355L270.711,218.355L276.015,254.013Z" style="fill:rgb(199,204,223);fill-rule:nonzero;"/>
                    </g>
                    <g transform="matrix(1.123,0,0,1.123,678.262,226.078)">
                        <path d="M273.488,237.027L270.711,218.355L228.811,218.355L226.034,237.027L273.488,237.027Z" style="fill:rgb(187,187,199);fill-rule:nonzero;"/>
                    </g>
                    <g transform="matrix(1.123,0,0,1.123,678.262,226.078)">
                        <path d="M325.832,227.691L174.166,227.691C170.372,227.691 167.295,224.614 167.295,220.82L167.295,130.043C167.295,126.248 170.372,123.172 174.166,123.172L325.832,123.172C329.627,123.172 332.703,126.248 332.703,130.043L332.703,220.82C332.703,224.614 329.627,227.691 325.832,227.691Z" style="fill:rgb(199,204,223);fill-rule:nonzero;"/>
                    </g>
                    <g transform="matrix(1.123,0,0,1.123,678.262,226.078)">
                        <path d="M168.707,220.988L168.707,129.875C168.707,126.952 171.077,124.584 173.998,124.584L326,124.584C328.923,124.584 331.291,126.952 331.291,129.875L331.291,220.988C331.291,223.91 328.923,226.279 326,226.279L173.998,226.279C171.077,226.279 168.707,223.91 168.707,220.988Z" style="fill:rgb(28,24,31);fill-rule:nonzero;"/>
                    </g>
                    <g transform="matrix(1.123,0,0,1.123,678.262,226.078)">
                        <rect x="174.355" y="130.231" width="151.289" height="90.4" style="fill:rgb(98,144,180);fill-rule:nonzero;"/>
                    </g>
                    <g transform="matrix(1.123,0,0,1.123,678.262,226.078)">
                        <path d="M287.434,212.814L212.565,212.814C209.242,212.814 206.547,215.508 206.547,218.832L206.547,220.631L293.453,220.631L293.453,218.832C293.453,215.508 290.758,212.814 287.434,212.814Z" style="fill:rgb(206,202,204);fill-rule:nonzero;"/>
                    </g>
                    <g transform="matrix(1.123,0,0,1.123,678.262,226.078)">
                        <path d="M281.594,249.585L217.928,249.585C216.71,249.585 215.714,250.581 215.714,251.799C215.714,253.017 216.71,254.013 217.928,254.013L281.594,254.013C282.812,254.013 283.809,253.017 283.809,251.799C283.809,250.581 282.812,249.585 281.594,249.585Z" style="fill:rgb(157,159,173);fill-rule:nonzero;"/>
                    </g>
                    <g transform="matrix(1.123,0,0,1.123,678.262,226.078)">
                        <path d="M306.462,210.048L193.06,210.048C192.146,210.048 191.399,209.3 191.399,208.387L191.399,136.727C191.399,135.813 192.146,135.066 193.06,135.066L306.462,135.066C307.375,135.066 308.123,135.813 308.123,136.727L308.123,208.387C308.123,209.3 307.375,210.048 306.462,210.048Z" style="fill:rgb(206,202,204);fill-rule:nonzero;"/>
                    </g>
                    <g transform="matrix(1.123,0,0,1.123,678.262,226.078)">
                        <path d="M191.399,142.511L191.399,208.387C191.399,209.3 192.146,210.048 193.06,210.048L306.462,210.048C307.375,210.048 308.123,209.3 308.123,208.387L308.123,142.511L191.399,142.511Z" style="fill:rgb(240,239,239);fill-rule:nonzero;"/>
                    </g>
                    <g transform="matrix(1.123,0,0,1.123,678.262,226.078)">
                        <path d="M306.462,210.048C307.375,210.048 308.123,209.3 308.123,208.387L308.123,142.511L303.265,142.511L303.265,210.048L306.462,210.048Z" style="fill:white;fill-rule:nonzero;"/>
                    </g>
                    <g transform="matrix(1.123,0,0,1.123,678.262,226.078)">
                        <path d="M191.399,142.511L191.399,142.958C191.399,142.965 192.146,142.969 193.06,142.969L306.462,142.969C307.375,142.969 308.123,142.965 308.123,142.958L308.123,142.511L191.399,142.511Z" style="fill:rgb(167,170,171);fill-rule:nonzero;"/>
                    </g>
                    <g transform="matrix(1.123,0,0,1.123,678.262,226.078)">
                        <path d="M197.517,138.924C197.517,139.684 196.9,140.3 196.14,140.3C195.38,140.3 194.763,139.684 194.763,138.924C194.763,138.164 195.38,137.547 196.14,137.547C196.9,137.547 197.517,138.164 197.517,138.924Z" style="fill:rgb(239,65,113);fill-rule:nonzero;"/>
                    </g>
                    <g transform="matrix(1.123,0,0,1.123,678.262,226.078)">
                        <path d="M201.851,138.924C201.851,139.684 201.235,140.3 200.474,140.3C199.714,140.3 199.098,139.684 199.098,138.924C199.098,138.164 199.714,137.547 200.474,137.547C201.235,137.547 201.851,138.164 201.851,138.924Z" style="fill:rgb(246,184,35);fill-rule:nonzero;"/>
                    </g>
                    <g transform="matrix(1.123,0,0,1.123,678.262,226.078)">
                        <path d="M206.185,138.924C206.185,139.684 205.569,140.3 204.808,140.3C204.048,140.3 203.432,139.684 203.432,138.924C203.432,138.164 204.048,137.547 204.808,137.547C205.569,137.547 206.185,138.164 206.185,138.924Z" style="fill:rgb(0,171,86);fill-rule:nonzero;"/>
                    </g>
                    <g transform="matrix(1.123,0,0,1.123,678.262,226.078)">
                        <path d="M284.161,140.887L213.311,140.887C212.825,140.887 212.432,140.493 212.432,140.008L212.432,137.484C212.432,136.998 212.825,136.604 213.311,136.604L284.161,136.604C284.648,136.604 285.041,136.998 285.041,137.484L285.041,140.008C285.041,140.493 284.648,140.887 284.161,140.887Z" style="fill:rgb(240,239,239);fill-rule:nonzero;"/>
                    </g>
                    <g transform="matrix(1.123,0,0,1.123,678.262,226.078)">
                        <path d="M292.56,140.887L288.951,140.887C288.465,140.887 288.072,140.493 288.072,140.008L288.072,137.484C288.072,136.998 288.465,136.604 288.951,136.604L292.56,136.604C293.046,136.604 293.44,136.998 293.44,137.484L293.44,140.008C293.44,140.493 293.046,140.887 292.56,140.887Z" style="fill:rgb(240,239,239);fill-rule:nonzero;"/>
                    </g>
                    <g transform="matrix(1.123,0,0,1.123,678.262,226.078)">
                        <path d="M298.815,140.887L295.205,140.887C294.72,140.887 294.326,140.493 294.326,140.008L294.326,137.484C294.326,136.998 294.72,136.604 295.205,136.604L298.815,136.604C299.301,136.604 299.695,136.998 299.695,137.484L299.695,140.008C299.695,140.493 299.301,140.887 298.815,140.887Z" style="fill:rgb(240,239,239);fill-rule:nonzero;"/>
                    </g>
                    <g transform="matrix(1.123,0,0,1.123,678.262,226.078)">
                        <path d="M305.07,140.887L301.46,140.887C300.975,140.887 300.58,140.493 300.58,140.008L300.58,137.484C300.58,136.998 300.975,136.604 301.46,136.604L305.07,136.604C305.556,136.604 305.95,136.998 305.95,137.484L305.95,140.008C305.95,140.493 305.556,140.887 305.07,140.887Z" style="fill:rgb(240,239,239);fill-rule:nonzero;"/>
                    </g>
                    <g transform="matrix(1.123,0,0,1.123,678.262,226.078)">
                        <rect x="304.743" y="144.227" width="1.903" height="33.195" style="fill:rgb(206,202,204);fill-rule:nonzero;"/>
                    </g>
                    <g transform="matrix(1.123,0,0,1.123,678.262,226.078)">
                        <rect x="193.089" y="144.72" width="108.1" height="63.092" style="fill:rgb(86,196,196);fill-rule:nonzero;"/>
                    </g>
                    <g transform="matrix(1.123,0,0,1.123,678.262,226.078)">
                        <path d="M218.603,216.722C218.603,218.463 217.193,219.873 215.453,219.873C213.712,219.873 212.302,218.463 212.302,216.722C212.302,214.982 213.712,213.571 215.453,213.571C217.193,213.571 218.603,214.982 218.603,216.722Z" style="fill:rgb(34,134,188);fill-rule:nonzero;"/>
                    </g>
                    <g transform="matrix(1.123,0,0,1.123,678.262,226.078)">
                        <path d="M226.227,216.722C226.227,218.463 224.817,219.873 223.077,219.873C221.336,219.873 219.926,218.463 219.926,216.722C219.926,214.982 221.336,213.571 223.077,213.571C224.817,213.571 226.227,214.982 226.227,216.722Z" style="fill:rgb(239,65,113);fill-rule:nonzero;"/>
                    </g>
                    <g transform="matrix(1.123,0,0,1.123,678.262,226.078)">
                        <path d="M233.851,216.722C233.851,218.463 232.441,219.873 230.701,219.873C228.961,219.873 227.55,218.463 227.55,216.722C227.55,214.982 228.961,213.571 230.701,213.571C232.441,213.571 233.851,214.982 233.851,216.722Z" style="fill:rgb(0,171,86);fill-rule:nonzero;"/>
                    </g>
                    <g transform="matrix(1.123,0,0,1.123,678.262,226.078)">
                        <path d="M241.475,216.722C241.475,218.463 240.065,219.873 238.325,219.873C236.585,219.873 235.174,218.463 235.174,216.722C235.174,214.982 236.585,213.571 238.325,213.571C240.065,213.571 241.475,214.982 241.475,216.722Z" style="fill:rgb(248,153,49);fill-rule:nonzero;"/>
                    </g>
                    <g transform="matrix(1.123,0,0,1.123,678.262,226.078)">
                        <path d="M249.1,216.722C249.1,218.463 247.689,219.873 245.949,219.873C244.209,219.873 242.798,218.463 242.798,216.722C242.798,214.982 244.209,213.571 245.949,213.571C247.689,213.571 249.1,214.982 249.1,216.722Z" style="fill:rgb(246,184,35);fill-rule:nonzero;"/>
                    </g>
                    <g transform="matrix(1.123,0,0,1.123,678.262,226.078)">
                        <path d="M256.724,216.722C256.724,218.463 255.313,219.873 253.574,219.873C251.833,219.873 250.422,218.463 250.422,216.722C250.422,214.982 251.833,213.571 253.574,213.571C255.313,213.571 256.724,214.982 256.724,216.722Z" style="fill:rgb(143,80,159);fill-rule:nonzero;"/>
                    </g>
                    <g transform="matrix(1.123,0,0,1.123,678.262,226.078)">
                        <path d="M264.348,216.722C264.348,218.463 262.938,219.873 261.198,219.873C259.457,219.873 258.045,218.463 258.045,216.722C258.045,214.982 259.457,213.571 261.198,213.571C262.938,213.571 264.348,214.982 264.348,216.722Z" style="fill:rgb(1,182,164);fill-rule:nonzero;"/>
                    </g>
                    <g transform="matrix(1.123,0,0,1.123,678.262,226.078)">
                        <path d="M271.972,216.722C271.972,218.463 270.562,219.873 268.822,219.873C267.081,219.873 265.67,218.463 265.67,216.722C265.67,214.982 267.081,213.571 268.822,213.571C270.562,213.571 271.972,214.982 271.972,216.722Z" style="fill:rgb(246,184,35);fill-rule:nonzero;"/>
                    </g>
                    <g transform="matrix(1.123,0,0,1.123,678.262,226.078)">
                        <path d="M279.596,216.722C279.596,218.463 278.186,219.873 276.446,219.873C274.705,219.873 273.294,218.463 273.294,216.722C273.294,214.982 274.705,213.571 276.446,213.571C278.186,213.571 279.596,214.982 279.596,216.722Z" style="fill:rgb(239,65,113);fill-rule:nonzero;"/>
                    </g>
                    <g transform="matrix(1.123,0,0,1.123,678.262,226.078)">
                        <path d="M287.22,216.722C287.22,218.463 285.81,219.873 284.07,219.873C282.329,219.873 280.919,218.463 280.919,216.722C280.919,214.982 282.329,213.571 284.07,213.571C285.81,213.571 287.22,214.982 287.22,216.722Z" style="fill:rgb(0,171,86);fill-rule:nonzero;"/>
                    </g>
                    <g transform="matrix(1.123,0,0,1.123,678.262,226.078)">
                        <path d="M282.012,186.508L284.602,192.568L285.489,189.986L288.072,189.098L282.012,186.508Z" style="fill:white;fill-rule:nonzero;"/>
                    </g>
                </g>
                <g id="BlauesBuch">
                    <g transform="matrix(1.123,0,0,1.123,678.262,226.078)">
                        <path d="M346.431,237.995L408.763,237.995L408.763,254.013L346.431,254.013C342.027,254.013 338.422,250.409 338.422,246.004C338.422,241.599 342.027,237.995 346.431,237.995Z" style="fill:rgb(34,134,188);fill-rule:nonzero;"/>
                    </g>
                    <g transform="matrix(1.123,0,0,1.123,678.262,226.078)">
                        <path d="M346.431,250.28C344.074,250.28 342.156,248.362 342.156,246.005C342.156,243.646 344.074,241.728 346.431,241.728L408.763,241.728L408.763,250.28L346.431,250.28Z" style="fill:rgb(227,227,237);fill-rule:nonzero;"/>
                    </g>
                    <g transform="matrix(1.123,0,0,1.123,678.262,226.078)">
                        <path d="M346.431,241.728C344.074,241.728 342.156,243.646 342.156,246.005C342.156,246.454 342.245,246.88 342.373,247.288C342.922,245.559 344.524,244.295 346.431,244.295L408.763,244.295L408.763,241.728L346.431,241.728Z" style="fill:rgb(199,204,223);fill-rule:nonzero;"/>
                    </g>
                </g>
                <g id="RosaBuch">
                    <g transform="matrix(1.123,0,0,1.123,678.262,226.078)">
                        <path d="M350.981,221.977L413.313,221.977L413.313,237.995L350.981,237.995C346.576,237.995 342.972,234.391 342.972,229.987C342.972,225.581 346.576,221.977 350.981,221.977Z" style="fill:rgb(239,65,113);fill-rule:nonzero;"/>
                    </g>
                    <g transform="matrix(1.123,0,0,1.123,678.262,226.078)">
                        <path d="M350.981,234.262C348.623,234.262 346.704,232.344 346.704,229.987C346.704,227.629 348.623,225.71 350.981,225.71L413.313,225.71L413.313,234.262L350.981,234.262Z" style="fill:rgb(227,227,237);fill-rule:nonzero;"/>
                    </g>
                    <g transform="matrix(1.123,0,0,1.123,678.262,226.078)">
                        <path d="M350.981,225.71C348.623,225.71 346.704,227.629 346.704,229.987C346.704,230.437 346.793,230.862 346.923,231.27C347.472,229.541 349.073,228.277 350.981,228.277L413.313,228.277L413.313,225.71L350.981,225.71Z" style="fill:rgb(199,204,223);fill-rule:nonzero;"/>
                    </g>
                </g>
                <g id="LilaBuch">
                    <g transform="matrix(1.123,0,0,1.123,678.262,226.078)">
                        <path d="M346.431,205.96L408.763,205.96L408.763,221.977L346.431,221.977C342.027,221.977 338.422,218.373 338.422,213.968C338.422,209.564 342.027,205.96 346.431,205.96Z" style="fill:rgb(129,69,155);fill-rule:nonzero;"/>
                    </g>
                    <g transform="matrix(1.123,0,0,1.123,678.262,226.078)">
                        <path d="M346.431,218.244C344.074,218.244 342.156,216.326 342.156,213.968C342.156,211.611 344.074,209.692 346.431,209.692L408.763,209.692L408.763,218.244L346.431,218.244Z" style="fill:rgb(227,227,237);fill-rule:nonzero;"/>
                    </g>
                    <g transform="matrix(1.123,0,0,1.123,678.262,226.078)">
                        <path d="M346.431,209.692C344.074,209.692 342.156,211.611 342.156,213.968C342.156,214.419 342.245,214.844 342.373,215.252C342.922,213.523 344.524,212.258 346.431,212.258L408.763,212.258L408.763,209.692L346.431,209.692Z" style="fill:rgb(199,204,223);fill-rule:nonzero;"/>
                    </g>
                </g>
                <g id="Apfel">
                    <g transform="matrix(1.123,0,0,1.123,678.262,226.078)">
                        <path d="M311.508,238.127C311.507,238.06 311.503,237.995 311.503,237.928C311.503,233.588 315.023,230.069 319.364,230.069C321.107,230.069 322.717,230.637 324.021,231.598C325.325,230.637 326.935,230.069 328.679,230.069C333.02,230.069 336.538,233.588 336.538,237.928C336.538,237.995 336.536,238.06 336.534,238.127C336.534,238.127 337.118,246.526 332.452,251.585C327.968,256.447 324.303,252.56 324.021,252.246C323.74,252.56 320.075,256.447 315.591,251.585C310.924,246.526 311.508,238.127 311.508,238.127Z" style="fill:rgb(239,58,104);fill-rule:nonzero;"/>
                    </g>
                    <g transform="matrix(1.123,0,0,1.123,678.262,226.078)">
                        <path d="M311.508,238.127C311.507,238.06 311.503,237.995 311.503,237.928C311.503,236.029 312.177,234.288 313.298,232.929C314.786,239.389 319.216,249.403 332.417,251.619C327.95,256.425 324.302,252.559 324.021,252.245C323.74,252.56 320.075,256.447 315.591,251.585C310.924,246.526 311.508,238.127 311.508,238.127Z" style="fill:rgb(220,49,98);fill-rule:nonzero;"/>
                    </g>
                    <g transform="matrix(1.123,0,0,1.123,678.262,226.078)">
                        <path d="M324.021,231.598L315.446,223.023C315.446,223.023 313.495,232.158 324.021,231.598Z" style="fill:rgb(2,106,77);fill-rule:nonzero;"/>
                    </g>
                    <g transform="matrix(1.123,0,0,1.123,678.262,226.078)">
                        <path d="M315.459,223.048L324.035,231.623C324.035,231.623 325.985,222.488 315.459,223.048Z" style="fill:rgb(37,161,84);fill-rule:nonzero;"/>
                    </g>
                </g>
                <g id="Tasse">
                    <g transform="matrix(1.123,0,0,1.123,678.262,226.078)">
                        <path d="M200.679,225.624C198.999,225.624 197.632,226.991 197.632,228.671L197.632,242.174C197.632,243.854 198.999,245.221 200.679,245.221L205.167,245.221C206.848,245.221 208.214,243.854 208.214,242.174L208.214,228.671C208.214,226.991 206.848,225.624 205.167,225.624L200.679,225.624ZM192.822,242.174L192.822,228.671C192.822,224.339 196.347,220.814 200.679,220.814L205.167,220.814C209.499,220.814 213.025,224.339 213.025,228.671L213.025,242.174C213.025,246.506 209.499,250.031 205.167,250.031L200.679,250.031C196.347,250.031 192.822,246.506 192.822,242.174Z" style="fill:rgb(143,80,159);fill-rule:nonzero;"/>
                    </g>
                    <g transform="matrix(1.123,0,0,1.123,678.262,226.078)">
                        <path d="M178.431,216.722L200.994,216.722C202.059,216.722 202.923,217.586 202.923,218.652L202.923,254.013L176.502,254.013L176.502,218.652C176.502,217.586 177.366,216.722 178.431,216.722Z" style="fill:rgb(143,80,159);fill-rule:nonzero;"/>
                    </g>
                    <g transform="matrix(1.123,0,0,1.123,678.262,226.078)">
                        <path d="M176.502,244.327C182.534,250.966 192.071,253.04 202.923,242.236L202.923,254.013L176.502,254.013L176.502,244.327Z" style="fill:rgb(130,69,155);fill-rule:nonzero;"/>
                    </g>
                </g>
                <g id="Kaktus">
                    <g transform="matrix(1.123,0,0,1.123,678.262,226.078)">
                        <path d="M156.943,213.177C156.943,220.528 150.984,234.986 143.634,234.986C136.284,234.986 130.325,220.528 130.325,213.177C130.325,205.827 136.284,199.869 143.634,199.869C150.984,199.869 156.943,205.827 156.943,213.177Z" style="fill:rgb(0,177,89);fill-rule:nonzero;"/>
                    </g>
                    <g transform="matrix(1.123,0,0,1.123,678.262,226.078)">
                        <path d="M156.943,213.177C156.943,205.827 150.984,199.869 143.634,199.869L143.634,234.986C150.984,234.986 156.943,220.528 156.943,213.177Z" style="fill:rgb(58,126,71);fill-rule:nonzero;"/>
                    </g>
                    <g transform="matrix(1.123,0,0,1.123,678.262,226.078)">
                        <path d="M154.785,254.013L132.483,254.013L129.02,230.377L158.247,230.377L154.785,254.013Z" style="fill:rgb(248,153,49);fill-rule:nonzero;"/>
                    </g>
                    <g transform="matrix(1.123,0,0,1.123,678.262,226.078)">
                        <rect x="127.404" y="228.347" width="32.46" height="8.372" style="fill:rgb(233,122,41);fill-rule:nonzero;"/>
                    </g>
                    <g transform="matrix(1.123,0,0,1.123,678.262,226.078)">
                        <path d="M162.838,206.466C160.585,208.719 155.299,210.351 153.045,208.098C150.791,205.844 152.424,200.558 154.677,198.304C156.931,196.051 160.585,196.051 162.838,198.304C165.092,200.558 165.092,204.212 162.838,206.466Z" style="fill:rgb(58,126,71);fill-rule:nonzero;"/>
                    </g>
                </g>
                <g id="Lampe">
                    <g id="Lampenhals">
                        <g transform="matrix(1.123,0,0,1.123,678.262,226.078)">
                            <path d="M90.971,252.779C89.086,252.457 87.807,250.653 88.127,248.767L106.056,167.1C106.377,165.215 108.182,163.935 110.067,164.256C111.953,164.577 113.232,166.383 112.911,168.268L94.983,249.935C94.662,251.82 92.856,253.1 90.971,252.779Z" style="fill:rgb(49,90,135);fill-rule:nonzero;"/>
                        </g>
                        <g transform="matrix(1.123,0,0,1.123,678.262,226.078)">
                            <rect x="85.661" y="247.635" width="38.879" height="6.378" style="fill:rgb(18,116,187);fill-rule:nonzero;"/>
                        </g>
                    </g>
                    <g id="Laumenschirm">
                        <g transform="matrix(1.123,0,0,1.123,678.262,226.078)">
                            <path d="M156.397,172.89L116.926,172.89C115.622,172.89 114.556,171.823 114.556,170.519C114.556,169.216 115.622,168.149 116.926,168.149L156.397,168.149C157.701,168.149 158.768,169.216 158.768,170.519C158.768,171.823 157.701,172.89 156.397,172.89Z" style="fill:rgb(239,215,154);fill-rule:nonzero;"/>
                        </g>
                        <g transform="matrix(1.123,0,0,1.123,678.262,226.078)">
                            <path d="M112.845,159.779L152.546,159.779C158.23,159.779 162.839,164.387 162.839,170.072L102.552,170.072C102.552,164.387 107.161,159.779 112.845,159.779Z" style="fill:rgb(18,116,187);fill-rule:nonzero;"/>
                        </g>
                    </g>
                    <g id="Lichtschalter">
                        <g transform="matrix(1.123,0,0,1.123,678.262,226.078)">
                            <rect x="111.679" y="246.083" width="9.305" height="1.552" style="fill:rgb(49,90,135);fill-rule:nonzero;"/>
                        </g>
                        <g transform="matrix(1.123,0,0,1.123,678.262,226.078)">
                            <rect x="113.701" y="244.997" width="5.262" height="1.086" style="fill:rgb(239,65,113);fill-rule:nonzero;"/>
                        </g>
                    </g>
                </g>
                <g id="Maus">
                    <g transform="matrix(1.123,0,0,1.123,678.262,226.078)">
                        <path d="M295.347,245.11L301.523,245.11C305.023,245.11 307.861,247.948 307.861,251.448C307.861,252.371 307.114,253.119 306.191,253.119L290.679,253.119C289.756,253.119 289.008,252.371 289.008,251.448C289.008,247.948 291.846,245.11 295.347,245.11Z" style="fill:rgb(199,204,223);fill-rule:nonzero;"/>
                    </g>
                    <g transform="matrix(1.123,0,0,1.123,678.262,226.078)">
                        <path d="M306.403,253.119L290.467,253.119C290.221,253.119 290.02,253.32 290.02,253.567C290.02,253.812 290.221,254.013 290.467,254.013L306.403,254.013C306.648,254.013 306.849,253.812 306.849,253.567C306.849,253.32 306.648,253.119 306.403,253.119Z" style="fill:rgb(157,159,173);fill-rule:nonzero;"/>
                    </g>
                </g>
            </g>
        </g>
    </g>
</svg>
